<svg width="1809" height="768" viewBox="0 0 1809 768" fill="none" xmlns="http://www.w3.org/2000/svg">
<g clip-path="url(#clip0_663_806)">
<rect width="1809" height="768" fill="white"/>
<rect width="1809" height="768" rx="6" fill="white" stroke="#757575" stroke-width="4" stroke-linecap="round"/>
<path d="M1537.75 107.25C1544.45 107.25 1550.87 109.911 1555.61 114.646C1560.34 119.382 1563 125.804 1563 132.501C1563 139.198 1560.34 145.62 1555.61 150.356C1550.87 155.091 1544.45 157.751 1537.75 157.751C1531.05 157.751 1524.63 155.091 1519.9 150.356C1515.16 145.62 1512.5 139.198 1512.5 132.501C1512.5 125.804 1515.16 119.382 1519.9 114.646C1524.63 109.911 1531.05 107.25 1537.75 107.25ZM1537.75 170.377C1565.65 170.377 1588.25 181.676 1588.25 195.627V208.252H1487.25V195.627C1487.25 181.676 1509.85 170.377 1537.75 170.377Z" fill="#0070C0"/>
<g clip-path="url(#clip1_663_806)">
<path d="M951.961 141L949.166 150.5V426.168L951.961 428.958L1079.92 353.32L951.961 141Z" fill="#A1A1A1"/>
<path d="M951.962 141L824 353.32L951.962 428.959V295.158V141Z" fill="#ECECEC"/>
<path d="M951.961 453.187L950.386 455.107V553.306L951.961 557.907L1080 377.587L951.961 453.187Z" fill="#A1A1A1"/>
<path d="M951.962 557.905V453.185L824 377.585L951.962 557.905Z" fill="#D9D9D9"/>
<path d="M951.961 428.958L1079.92 353.321L951.961 295.159V428.958Z" fill="#8E8E8E"/>
<path d="M824.001 353.321L951.961 428.958V295.159L824.001 353.321Z" fill="#D9D9D9"/>
</g>
<path d="M202.167 130.333L253.104 160.896V218.625L236.125 208.437V167.687L219.146 157.5V198.25L202.167 188.062V130.333Z" fill="#2A3DBD"/>
<path fill-rule="evenodd" clip-rule="evenodd" d="M259.896 218.625V157.5L205.562 125.24L256.5 96.375L310.833 126.937V188.062L293.854 198.25V137.125L276.875 147.312V208.437L259.896 218.625ZM239.521 125.24L256.5 115.052L276.875 126.937L259.896 137.125L239.521 125.24Z" fill="#A6A6A6"/>
<path d="M202.167 458.333L253.104 488.896V546.625L236.125 536.438V495.688L219.146 485.5V526.25L202.167 516.063V458.333Z" fill="#2A3DBD"/>
<path fill-rule="evenodd" clip-rule="evenodd" d="M259.896 546.625V485.5L205.562 453.24L256.5 424.375L310.833 454.937V516.062L293.854 526.25V465.125L276.875 475.312V536.437L259.896 546.625ZM239.521 453.24L256.5 443.052L276.875 454.937L259.896 465.125L239.521 453.24Z" fill="#A6A6A6"/>
<path d="M202.167 290.333L253.104 320.896V378.625L236.125 368.438V327.688L219.146 317.5V358.25L202.167 348.063V290.333Z" fill="#2A3DBD"/>
<path fill-rule="evenodd" clip-rule="evenodd" d="M259.896 378.625V317.5L205.562 285.24L256.5 256.375L310.833 286.937V348.062L293.854 358.25V297.125L276.875 307.312V368.437L259.896 378.625ZM239.521 285.24L256.5 275.052L276.875 286.937L259.896 297.125L239.521 285.24Z" fill="#A6A6A6"/>
<path d="M1537.75 267.251C1544.45 267.251 1550.87 269.911 1555.61 274.646C1560.34 279.382 1563 285.804 1563 292.501C1563 299.198 1560.34 305.621 1555.61 310.356C1550.87 315.091 1544.45 317.752 1537.75 317.752C1531.05 317.752 1524.63 315.091 1519.9 310.356C1515.16 305.621 1512.5 299.198 1512.5 292.501C1512.5 285.804 1515.16 279.382 1519.9 274.646C1524.63 269.911 1531.05 267.251 1537.75 267.251ZM1537.75 330.377C1565.65 330.377 1588.25 341.676 1588.25 355.627V368.253H1487.25V355.627C1487.25 341.676 1509.85 330.377 1537.75 330.377Z" fill="#0070C0"/>
<path d="M1537.75 435.25C1544.45 435.25 1550.87 437.911 1555.61 442.646C1560.34 447.382 1563 453.804 1563 460.501C1563 467.198 1560.34 473.62 1555.61 478.356C1550.87 483.091 1544.45 485.751 1537.75 485.751C1531.05 485.751 1524.63 483.091 1519.9 478.356C1515.16 473.62 1512.5 467.198 1512.5 460.501C1512.5 453.804 1515.16 447.382 1519.9 442.646C1524.63 437.911 1531.05 435.25 1537.75 435.25ZM1537.75 498.377C1565.65 498.377 1588.25 509.676 1588.25 523.627V536.252H1487.25V523.627C1487.25 509.676 1509.85 498.377 1537.75 498.377Z" fill="#0070C0"/>
<path d="M208.863 664H204.204L214.672 634.909H219.743L230.212 664H225.553L217.329 640.193H217.101L208.863 664ZM209.644 652.608H224.758V656.301H209.644V652.608ZM249.385 647.509L245.536 648.19C245.375 647.698 245.119 647.229 244.769 646.784C244.428 646.339 243.964 645.974 243.377 645.69C242.79 645.406 242.056 645.264 241.175 645.264C239.972 645.264 238.969 645.534 238.164 646.074C237.359 646.604 236.956 647.291 236.956 648.134C236.956 648.863 237.226 649.45 237.766 649.895C238.306 650.34 239.177 650.705 240.38 650.989L243.846 651.784C245.853 652.248 247.349 652.963 248.334 653.929C249.319 654.895 249.811 656.15 249.811 657.693C249.811 659 249.433 660.165 248.675 661.188C247.927 662.201 246.881 662.996 245.536 663.574C244.201 664.152 242.652 664.44 240.891 664.44C238.448 664.44 236.454 663.92 234.911 662.878C233.367 661.827 232.42 660.335 232.07 658.403L236.175 657.778C236.431 658.848 236.956 659.658 237.752 660.207C238.547 660.747 239.584 661.017 240.863 661.017C242.255 661.017 243.367 660.728 244.201 660.151C245.034 659.563 245.451 658.848 245.451 658.006C245.451 657.324 245.195 656.751 244.684 656.287C244.182 655.823 243.41 655.473 242.368 655.236L238.675 654.426C236.639 653.962 235.133 653.223 234.158 652.21C233.192 651.197 232.709 649.914 232.709 648.361C232.709 647.073 233.069 645.946 233.789 644.98C234.508 644.014 235.503 643.261 236.772 642.722C238.041 642.172 239.494 641.898 241.132 641.898C243.49 641.898 245.346 642.409 246.701 643.432C248.055 644.445 248.95 645.804 249.385 647.509ZM269.951 647.509L266.101 648.19C265.94 647.698 265.685 647.229 265.334 646.784C264.993 646.339 264.529 645.974 263.942 645.69C263.355 645.406 262.621 645.264 261.74 645.264C260.538 645.264 259.534 645.534 258.729 646.074C257.924 646.604 257.522 647.291 257.522 648.134C257.522 648.863 257.792 649.45 258.331 649.895C258.871 650.34 259.742 650.705 260.945 650.989L264.411 651.784C266.418 652.248 267.915 652.963 268.9 653.929C269.884 654.895 270.377 656.15 270.377 657.693C270.377 659 269.998 660.165 269.24 661.188C268.492 662.201 267.446 662.996 266.101 663.574C264.766 664.152 263.218 664.44 261.456 664.44C259.013 664.44 257.02 663.92 255.476 662.878C253.933 661.827 252.986 660.335 252.635 658.403L256.74 657.778C256.996 658.848 257.522 659.658 258.317 660.207C259.113 660.747 260.15 661.017 261.428 661.017C262.82 661.017 263.933 660.728 264.766 660.151C265.599 659.563 266.016 658.848 266.016 658.006C266.016 657.324 265.76 656.751 265.249 656.287C264.747 655.823 263.975 655.473 262.934 655.236L259.24 654.426C257.204 653.962 255.699 653.223 254.723 652.21C253.757 651.197 253.275 649.914 253.275 648.361C253.275 647.073 253.634 645.946 254.354 644.98C255.074 644.014 256.068 643.261 257.337 642.722C258.606 642.172 260.06 641.898 261.698 641.898C264.056 641.898 265.912 642.409 267.266 643.432C268.62 644.445 269.515 645.804 269.951 647.509ZM283.57 664.44C281.42 664.44 279.569 663.981 278.016 663.062C276.472 662.134 275.279 660.832 274.436 659.156C273.603 657.471 273.186 655.496 273.186 653.233C273.186 650.998 273.603 649.028 274.436 647.324C275.279 645.619 276.453 644.289 277.959 643.332C279.474 642.376 281.245 641.898 283.272 641.898C284.503 641.898 285.696 642.101 286.851 642.509C288.006 642.916 289.043 643.555 289.962 644.426C290.881 645.297 291.605 646.429 292.135 647.821C292.666 649.204 292.931 650.884 292.931 652.864V654.369H275.587V651.188H288.769C288.769 650.07 288.542 649.08 288.087 648.219C287.632 647.348 286.993 646.661 286.169 646.159C285.355 645.657 284.399 645.406 283.3 645.406C282.107 645.406 281.065 645.7 280.175 646.287C279.294 646.865 278.613 647.622 278.13 648.56C277.656 649.488 277.419 650.496 277.419 651.585V654.071C277.419 655.529 277.675 656.77 278.186 657.793C278.707 658.815 279.432 659.597 280.36 660.136C281.288 660.667 282.372 660.932 283.613 660.932C284.417 660.932 285.151 660.818 285.814 660.591C286.477 660.354 287.05 660.004 287.533 659.54C288.016 659.076 288.385 658.503 288.641 657.821L292.661 658.545C292.339 659.729 291.761 660.766 290.928 661.656C290.104 662.537 289.067 663.223 287.817 663.716C286.577 664.199 285.161 664.44 283.57 664.44ZM306.948 642.182V645.591H295.03V642.182H306.948ZM298.226 636.955H302.473V657.594C302.473 658.418 302.596 659.038 302.843 659.455C303.089 659.862 303.406 660.141 303.794 660.293C304.192 660.435 304.623 660.506 305.087 660.506C305.428 660.506 305.726 660.482 305.982 660.435C306.238 660.387 306.436 660.349 306.578 660.321L307.345 663.83C307.099 663.924 306.749 664.019 306.294 664.114C305.84 664.218 305.272 664.275 304.59 664.284C303.472 664.303 302.431 664.104 301.465 663.688C300.499 663.271 299.718 662.627 299.121 661.756C298.524 660.884 298.226 659.791 298.226 658.474V636.955Z" fill="#1E1E1E"/>
<path d="M925.842 664.455V635.364H944.08V639.142H930.231V648.006H943.129V651.77H930.231V660.676H944.251V664.455H925.842ZM953.452 635.364V664.455H949.063V635.364H953.452ZM958.964 664.455V635.364H969.334C971.597 635.364 973.472 635.776 974.959 636.599C976.446 637.423 977.558 638.55 978.297 639.98C979.035 641.401 979.405 643.001 979.405 644.781C979.405 646.571 979.031 648.181 978.283 649.611C977.544 651.031 976.427 652.158 974.93 652.992C973.444 653.815 971.573 654.227 969.32 654.227H962.189V650.506H968.922C970.352 650.506 971.512 650.26 972.402 649.767C973.292 649.265 973.946 648.583 974.362 647.722C974.779 646.86 974.987 645.88 974.987 644.781C974.987 643.683 974.779 642.707 974.362 641.855C973.946 641.003 973.287 640.335 972.388 639.852C971.498 639.369 970.323 639.128 968.865 639.128H963.354V664.455H958.964Z" fill="#1E1E1E"/>
<path d="M1370.35 664V634.909H1380.72C1382.98 634.909 1384.85 635.297 1386.33 636.074C1387.83 636.85 1388.95 637.925 1389.68 639.298C1390.42 640.662 1390.79 642.239 1390.79 644.028C1390.79 645.809 1390.42 647.376 1389.67 648.73C1388.93 650.075 1387.81 651.121 1386.32 651.869C1384.83 652.617 1382.96 652.991 1380.71 652.991H1372.85V649.213H1380.31C1381.73 649.213 1382.89 649.009 1383.78 648.602C1384.68 648.195 1385.33 647.603 1385.75 646.827C1386.17 646.05 1386.37 645.117 1386.37 644.028C1386.37 642.93 1386.16 641.978 1385.74 641.173C1385.32 640.368 1384.66 639.753 1383.76 639.327C1382.87 638.891 1381.7 638.673 1380.25 638.673H1374.74V664H1370.35ZM1384.71 650.875L1391.9 664H1386.9L1379.85 650.875H1384.71ZM1404.04 664.44C1401.89 664.44 1400.04 663.981 1398.49 663.062C1396.94 662.134 1395.75 660.832 1394.91 659.156C1394.08 657.471 1393.66 655.496 1393.66 653.233C1393.66 650.998 1394.08 649.028 1394.91 647.324C1395.75 645.619 1396.93 644.289 1398.43 643.332C1399.95 642.376 1401.72 641.898 1403.74 641.898C1404.98 641.898 1406.17 642.101 1407.32 642.509C1408.48 642.916 1409.52 643.555 1410.43 644.426C1411.35 645.297 1412.08 646.429 1412.61 647.821C1413.14 649.204 1413.4 650.884 1413.4 652.864V654.369H1396.06V651.188H1409.24C1409.24 650.07 1409.01 649.08 1408.56 648.219C1408.1 647.348 1407.47 646.661 1406.64 646.159C1405.83 645.657 1404.87 645.406 1403.77 645.406C1402.58 645.406 1401.54 645.7 1400.65 646.287C1399.77 646.865 1399.09 647.622 1398.6 648.56C1398.13 649.488 1397.89 650.496 1397.89 651.585V654.071C1397.89 655.529 1398.15 656.77 1398.66 657.793C1399.18 658.815 1399.9 659.597 1400.83 660.136C1401.76 660.667 1402.84 660.932 1404.09 660.932C1404.89 660.932 1405.62 660.818 1406.29 660.591C1406.95 660.354 1407.52 660.004 1408.01 659.54C1408.49 659.076 1408.86 658.503 1409.11 657.821L1413.13 658.545C1412.81 659.729 1412.23 660.766 1411.4 661.656C1410.58 662.537 1409.54 663.223 1408.29 663.716C1407.05 664.199 1405.63 664.44 1404.04 664.44ZM1426.38 672.636C1424.65 672.636 1423.16 672.409 1421.91 671.955C1420.67 671.5 1419.66 670.899 1418.87 670.151C1418.08 669.402 1417.5 668.583 1417.11 667.693L1420.76 666.188C1421.01 666.604 1421.35 667.045 1421.78 667.509C1422.22 667.982 1422.8 668.384 1423.54 668.716C1424.29 669.047 1425.25 669.213 1426.43 669.213C1428.04 669.213 1429.37 668.82 1430.42 668.034C1431.47 667.258 1431.99 666.017 1431.99 664.312V660.023H1431.72C1431.47 660.487 1431.1 661.003 1430.62 661.571C1430.14 662.139 1429.49 662.632 1428.66 663.048C1427.82 663.465 1426.74 663.673 1425.4 663.673C1423.68 663.673 1422.13 663.271 1420.74 662.466C1419.37 661.652 1418.28 660.454 1417.48 658.872C1416.68 657.281 1416.28 655.326 1416.28 653.006C1416.28 650.686 1416.68 648.697 1417.46 647.04C1418.26 645.383 1419.35 644.114 1420.73 643.233C1422.11 642.343 1423.68 641.898 1425.43 641.898C1426.79 641.898 1427.88 642.125 1428.71 642.58C1429.55 643.025 1430.19 643.545 1430.66 644.142C1431.13 644.739 1431.5 645.264 1431.75 645.719H1432.07V642.182H1436.23V664.483C1436.23 666.358 1435.79 667.897 1434.92 669.099C1434.05 670.302 1432.87 671.192 1431.38 671.77C1429.91 672.348 1428.24 672.636 1426.38 672.636ZM1426.34 660.151C1427.56 660.151 1428.59 659.866 1429.44 659.298C1430.29 658.721 1430.93 657.897 1431.37 656.827C1431.81 655.747 1432.04 654.455 1432.04 652.949C1432.04 651.481 1431.82 650.188 1431.38 649.071C1430.95 647.954 1430.31 647.082 1429.47 646.457C1428.62 645.823 1427.58 645.506 1426.34 645.506C1425.06 645.506 1424 645.837 1423.14 646.5C1422.29 647.153 1421.65 648.044 1421.21 649.17C1420.79 650.297 1420.57 651.557 1420.57 652.949C1420.57 654.379 1420.79 655.634 1421.23 656.713C1421.66 657.793 1422.31 658.635 1423.16 659.241C1424.02 659.848 1425.08 660.151 1426.34 660.151ZM1454.86 654.952V642.182H1459.13V664H1454.95V660.222H1454.72C1454.22 661.386 1453.42 662.357 1452.31 663.134C1451.21 663.901 1449.84 664.284 1448.2 664.284C1446.8 664.284 1445.56 663.976 1444.48 663.361C1443.41 662.736 1442.57 661.812 1441.95 660.591C1441.35 659.369 1441.04 657.859 1441.04 656.06V642.182H1445.29V655.548C1445.29 657.035 1445.7 658.219 1446.53 659.099C1447.35 659.98 1448.42 660.42 1449.74 660.42C1450.53 660.42 1451.32 660.222 1452.11 659.824C1452.9 659.426 1453.56 658.825 1454.08 658.02C1454.61 657.215 1454.87 656.192 1454.86 654.952ZM1468.2 634.909V664H1463.95V634.909H1468.2ZM1479.38 664.483C1478 664.483 1476.75 664.227 1475.63 663.716C1474.52 663.195 1473.63 662.442 1472.98 661.457C1472.33 660.473 1472.01 659.265 1472.01 657.835C1472.01 656.604 1472.25 655.591 1472.72 654.795C1473.19 654 1473.83 653.37 1474.64 652.906C1475.44 652.442 1476.34 652.092 1477.34 651.855C1478.33 651.618 1479.34 651.438 1480.38 651.315C1481.68 651.164 1482.74 651.041 1483.56 650.946C1484.37 650.842 1484.96 650.676 1485.33 650.449C1485.7 650.222 1485.89 649.852 1485.89 649.341V649.241C1485.89 648.001 1485.54 647.04 1484.84 646.358C1484.15 645.676 1483.11 645.335 1481.74 645.335C1480.31 645.335 1479.18 645.652 1478.36 646.287C1477.55 646.912 1476.98 647.608 1476.67 648.375L1472.68 647.466C1473.15 646.14 1473.84 645.07 1474.75 644.256C1475.67 643.432 1476.73 642.835 1477.92 642.466C1479.11 642.087 1480.37 641.898 1481.68 641.898C1482.55 641.898 1483.48 642.002 1484.45 642.21C1485.44 642.409 1486.36 642.778 1487.21 643.318C1488.07 643.858 1488.78 644.63 1489.33 645.634C1489.87 646.628 1490.15 647.92 1490.15 649.511V664H1486V661.017H1485.83C1485.56 661.566 1485.14 662.106 1484.6 662.636C1484.05 663.167 1483.34 663.607 1482.48 663.957C1481.62 664.308 1480.59 664.483 1479.38 664.483ZM1480.31 661.074C1481.48 661.074 1482.48 660.842 1483.32 660.378C1484.16 659.914 1484.8 659.308 1485.23 658.56C1485.68 657.802 1485.9 656.992 1485.9 656.131V653.318C1485.75 653.47 1485.46 653.612 1485.02 653.744C1484.6 653.867 1484.11 653.976 1483.56 654.071C1483.01 654.156 1482.47 654.237 1481.95 654.312C1481.43 654.379 1481 654.436 1480.65 654.483C1479.82 654.587 1479.07 654.762 1478.39 655.009C1477.72 655.255 1477.18 655.61 1476.77 656.074C1476.37 656.528 1476.17 657.134 1476.17 657.892C1476.17 658.943 1476.56 659.739 1477.34 660.278C1478.11 660.809 1479.1 661.074 1480.31 661.074ZM1505.11 642.182V645.591H1493.19V642.182H1505.11ZM1496.39 636.955H1500.64V657.594C1500.64 658.418 1500.76 659.038 1501.01 659.455C1501.25 659.862 1501.57 660.141 1501.96 660.293C1502.36 660.435 1502.79 660.506 1503.25 660.506C1503.59 660.506 1503.89 660.482 1504.15 660.435C1504.4 660.387 1504.6 660.349 1504.74 660.321L1505.51 663.83C1505.26 663.924 1504.91 664.019 1504.46 664.114C1504 664.218 1503.44 664.275 1502.75 664.284C1501.64 664.303 1500.59 664.104 1499.63 663.688C1498.66 663.271 1497.88 662.627 1497.28 661.756C1496.69 660.884 1496.39 659.791 1496.39 658.474V636.955ZM1508.93 664V642.182H1513.18V664H1508.93ZM1511.07 638.815C1510.34 638.815 1509.7 638.569 1509.17 638.077C1508.65 637.575 1508.39 636.978 1508.39 636.287C1508.39 635.586 1508.65 634.99 1509.17 634.497C1509.7 633.995 1510.34 633.744 1511.07 633.744C1511.81 633.744 1512.44 633.995 1512.96 634.497C1513.49 634.99 1513.76 635.586 1513.76 636.287C1513.76 636.978 1513.49 637.575 1512.96 638.077C1512.44 638.569 1511.81 638.815 1511.07 638.815ZM1527.2 664.44C1525.16 664.44 1523.37 663.972 1521.85 663.034C1520.32 662.097 1519.14 660.785 1518.29 659.099C1517.45 657.414 1517.03 655.444 1517.03 653.19C1517.03 650.927 1517.45 648.948 1518.29 647.253C1519.14 645.558 1520.32 644.241 1521.85 643.304C1523.37 642.366 1525.16 641.898 1527.2 641.898C1529.25 641.898 1531.03 642.366 1532.56 643.304C1534.08 644.241 1535.26 645.558 1536.11 647.253C1536.95 648.948 1537.37 650.927 1537.37 653.19C1537.37 655.444 1536.95 657.414 1536.11 659.099C1535.26 660.785 1534.08 662.097 1532.56 663.034C1531.03 663.972 1529.25 664.44 1527.2 664.44ZM1527.21 660.875C1528.54 660.875 1529.64 660.525 1530.51 659.824C1531.38 659.123 1532.03 658.19 1532.44 657.026C1532.87 655.861 1533.08 654.578 1533.08 653.176C1533.08 651.784 1532.87 650.506 1532.44 649.341C1532.03 648.167 1531.38 647.224 1530.51 646.514C1529.64 645.804 1528.54 645.449 1527.21 645.449C1525.88 645.449 1524.77 645.804 1523.89 646.514C1523.02 647.224 1522.37 648.167 1521.94 649.341C1521.53 650.506 1521.32 651.784 1521.32 653.176C1521.32 654.578 1521.53 655.861 1521.94 657.026C1522.37 658.19 1523.02 659.123 1523.89 659.824C1524.77 660.525 1525.88 660.875 1527.21 660.875ZM1545.48 651.045V664H1541.23V642.182H1545.31V645.733H1545.58C1546.08 644.578 1546.87 643.65 1547.94 642.949C1549.02 642.248 1550.37 641.898 1552.01 641.898C1553.5 641.898 1554.8 642.21 1555.92 642.835C1557.04 643.451 1557.9 644.369 1558.52 645.591C1559.13 646.812 1559.44 648.323 1559.44 650.122V664H1555.19V650.634C1555.19 649.052 1554.78 647.816 1553.96 646.926C1553.14 646.027 1552 645.577 1550.56 645.577C1549.58 645.577 1548.7 645.79 1547.94 646.216C1547.18 646.642 1546.58 647.267 1546.13 648.091C1545.7 648.905 1545.48 649.89 1545.48 651.045ZM1572.87 638.688V634.909H1595.38V638.688H1586.31V664H1581.93V638.688H1572.87ZM1599.32 672.182C1598.69 672.182 1598.11 672.13 1597.59 672.026C1597.07 671.931 1596.68 671.827 1596.43 671.713L1597.45 668.233C1598.22 668.441 1598.92 668.531 1599.52 668.503C1600.13 668.474 1600.66 668.247 1601.13 667.821C1601.6 667.395 1602.02 666.699 1602.38 665.733L1602.9 664.284L1594.92 642.182H1599.47L1604.99 659.114H1605.22L1610.74 642.182H1615.3L1606.31 666.912C1605.9 668.048 1605.37 669.009 1604.72 669.795C1604.08 670.591 1603.31 671.188 1602.42 671.585C1601.53 671.983 1600.5 672.182 1599.32 672.182ZM1618.41 672.182V642.182H1622.56V645.719H1622.92C1623.16 645.264 1623.52 644.739 1623.98 644.142C1624.45 643.545 1625.09 643.025 1625.91 642.58C1626.74 642.125 1627.83 641.898 1629.18 641.898C1630.94 641.898 1632.52 642.343 1633.9 643.233C1635.28 644.123 1636.36 645.406 1637.15 647.082C1637.95 648.759 1638.34 650.776 1638.34 653.134C1638.34 655.491 1637.95 657.513 1637.16 659.199C1636.38 660.875 1635.3 662.168 1633.93 663.077C1632.55 663.976 1630.99 664.426 1629.22 664.426C1627.9 664.426 1626.81 664.204 1625.97 663.759C1625.14 663.313 1624.49 662.793 1624.01 662.196C1623.54 661.599 1623.17 661.069 1622.92 660.605H1622.66V672.182H1618.41ZM1622.58 653.091C1622.58 654.625 1622.8 655.97 1623.24 657.125C1623.69 658.28 1624.33 659.185 1625.18 659.838C1626.02 660.482 1627.05 660.804 1628.27 660.804C1629.54 660.804 1630.6 660.468 1631.45 659.795C1632.31 659.114 1632.95 658.19 1633.39 657.026C1633.83 655.861 1634.05 654.549 1634.05 653.091C1634.05 651.652 1633.84 650.359 1633.4 649.213C1632.97 648.067 1632.33 647.163 1631.47 646.5C1630.62 645.837 1629.55 645.506 1628.27 645.506C1627.04 645.506 1626 645.823 1625.15 646.457C1624.31 647.092 1623.67 647.977 1623.23 649.114C1622.79 650.25 1622.58 651.576 1622.58 653.091ZM1651.63 664.44C1649.48 664.44 1647.62 663.981 1646.07 663.062C1644.53 662.134 1643.34 660.832 1642.49 659.156C1641.66 657.471 1641.24 655.496 1641.24 653.233C1641.24 650.998 1641.66 649.028 1642.49 647.324C1643.34 645.619 1644.51 644.289 1646.02 643.332C1647.53 642.376 1649.3 641.898 1651.33 641.898C1652.56 641.898 1653.75 642.101 1654.91 642.509C1656.06 642.916 1657.1 643.555 1658.02 644.426C1658.94 645.297 1659.66 646.429 1660.19 647.821C1660.72 649.204 1660.99 650.884 1660.99 652.864V654.369H1643.64V651.188H1656.82C1656.82 650.07 1656.6 649.08 1656.14 648.219C1655.69 647.348 1655.05 646.661 1654.23 646.159C1653.41 645.657 1652.45 645.406 1651.36 645.406C1650.16 645.406 1649.12 645.7 1648.23 646.287C1647.35 646.865 1646.67 647.622 1646.19 648.56C1645.71 649.488 1645.48 650.496 1645.48 651.585V654.071C1645.48 655.529 1645.73 656.77 1646.24 657.793C1646.76 658.815 1647.49 659.597 1648.42 660.136C1649.34 660.667 1650.43 660.932 1651.67 660.932C1652.47 660.932 1653.21 660.818 1653.87 660.591C1654.53 660.354 1655.11 660.004 1655.59 659.54C1656.07 659.076 1656.44 658.503 1656.7 657.821L1660.72 658.545C1660.39 659.729 1659.82 660.766 1658.98 661.656C1658.16 662.537 1657.12 663.223 1655.87 663.716C1654.63 664.199 1653.22 664.44 1651.63 664.44Z" fill="#1E1E1E"/>
<path d="M344 155.5C342.895 155.5 342 156.395 342 157.5C342 158.605 342.895 159.5 344 159.5V157.5V155.5ZM756.414 158.914C757.195 158.133 757.195 156.867 756.414 156.086L743.686 143.358C742.905 142.577 741.639 142.577 740.858 143.358C740.077 144.139 740.077 145.405 740.858 146.186L752.172 157.5L740.858 168.814C740.077 169.595 740.077 170.861 740.858 171.642C741.639 172.423 742.905 172.423 743.686 171.642L756.414 158.914ZM344 157.5V159.5H755V157.5V155.5H344V157.5Z" fill="#757575"/>
<path d="M344 315.5C342.895 315.5 342 316.395 342 317.5C342 318.605 342.895 319.5 344 319.5V317.5V315.5ZM756.414 318.914C757.195 318.133 757.195 316.867 756.414 316.086L743.686 303.358C742.905 302.577 741.639 302.577 740.858 303.358C740.077 304.139 740.077 305.405 740.858 306.186L752.172 317.5L740.858 328.814C740.077 329.595 740.077 330.861 740.858 331.642C741.639 332.423 742.905 332.423 743.686 331.642L756.414 318.914ZM344 317.5V319.5H755V317.5V315.5H344V317.5Z" fill="#757575"/>
<path d="M344 483.5C342.895 483.5 342 484.395 342 485.5C342 486.605 342.895 487.5 344 487.5V485.5V483.5ZM756.414 486.914C757.195 486.133 757.195 484.867 756.414 484.086L743.686 471.358C742.905 470.577 741.639 470.577 740.858 471.358C740.077 472.139 740.077 473.405 740.858 474.186L752.172 485.5L740.858 496.814C740.077 497.595 740.077 498.861 740.858 499.642C741.639 500.423 742.905 500.423 743.686 499.642L756.414 486.914ZM344 485.5V487.5H755V485.5V483.5H344V485.5Z" fill="#757575"/>
<path d="M1456 159.265C1457.1 159.265 1458 158.369 1458 157.265C1458 156.16 1457.1 155.265 1456 155.265V157.265V159.265ZM1150.59 155.85C1149.8 156.631 1149.8 157.898 1150.59 158.679L1163.31 171.407C1164.09 172.188 1165.36 172.188 1166.14 171.407C1166.92 170.626 1166.92 169.359 1166.14 168.578L1154.83 157.265L1166.14 145.951C1166.92 145.17 1166.92 143.904 1166.14 143.123C1165.36 142.341 1164.09 142.341 1163.31 143.123L1150.59 155.85ZM1456 157.265V155.265H1152V157.265V159.265H1456V157.265Z" fill="#757575"/>
<path d="M1456 487.645C1457.1 487.646 1458 486.752 1458 485.648C1458 484.543 1457.11 483.646 1456 483.645L1456 485.645L1456 487.645ZM1162.85 483.849C1162.07 484.629 1162.07 485.895 1162.85 486.677L1175.56 499.422C1176.34 500.204 1177.61 500.205 1178.39 499.425C1179.17 498.645 1179.17 497.379 1178.39 496.597L1167.09 485.268L1178.42 473.969C1179.2 473.189 1179.21 471.923 1178.43 471.141C1177.65 470.359 1176.38 470.357 1175.6 471.137L1162.85 483.849ZM1456 485.645L1456 483.645L1164.27 483.265L1164.26 485.265L1164.26 487.265L1456 487.645L1456 485.645Z" fill="#757575"/>
<path d="M1456 320.265C1457.1 320.265 1458 319.369 1458 318.265C1458 317.16 1457.1 316.265 1456 316.265V318.265V320.265ZM1150.59 316.85C1149.8 317.631 1149.8 318.898 1150.59 319.679L1163.31 332.407C1164.09 333.188 1165.36 333.188 1166.14 332.407C1166.92 331.626 1166.92 330.359 1166.14 329.578L1154.83 318.265L1166.14 306.951C1166.92 306.17 1166.92 304.904 1166.14 304.123C1165.36 303.341 1164.09 303.341 1163.31 304.123L1150.59 316.85ZM1456 318.265V316.265H1152V318.265V320.265H1456V318.265Z" fill="#757575"/>
<path d="M458.545 534.085V531.818H472.054V534.085H466.608V549.273H463.983V534.085H458.545ZM477.994 549.537C476.767 549.537 475.696 549.256 474.781 548.693C473.866 548.131 473.156 547.344 472.65 546.333C472.145 545.321 471.892 544.139 471.892 542.787C471.892 541.429 472.145 540.242 472.65 539.225C473.156 538.208 473.866 537.418 474.781 536.855C475.696 536.293 476.767 536.012 477.994 536.012C479.221 536.012 480.292 536.293 481.207 536.855C482.122 537.418 482.832 538.208 483.338 539.225C483.844 540.242 484.096 541.429 484.096 542.787C484.096 544.139 483.844 545.321 483.338 546.333C482.832 547.344 482.122 548.131 481.207 548.693C480.292 549.256 479.221 549.537 477.994 549.537ZM478.003 547.398C478.798 547.398 479.457 547.188 479.98 546.767C480.503 546.347 480.889 545.787 481.139 545.088C481.395 544.389 481.523 543.62 481.523 542.779C481.523 541.943 481.395 541.176 481.139 540.477C480.889 539.773 480.503 539.208 479.98 538.781C479.457 538.355 478.798 538.142 478.003 538.142C477.202 538.142 476.537 538.355 476.008 538.781C475.486 539.208 475.096 539.773 474.841 540.477C474.591 541.176 474.466 541.943 474.466 542.779C474.466 543.62 474.591 544.389 474.841 545.088C475.096 545.787 475.486 546.347 476.008 546.767C476.537 547.188 477.202 547.398 478.003 547.398ZM488.829 544.833L488.812 541.722H489.255L494.471 536.182H497.522L491.573 542.489H491.172L488.829 544.833ZM486.485 549.273V531.818H489.033V549.273H486.485ZM494.752 549.273L490.064 543.051L491.82 541.27L497.88 549.273H494.752ZM504.491 549.537C503.201 549.537 502.091 549.262 501.159 548.71C500.233 548.154 499.517 547.372 499.011 546.367C498.511 545.355 498.261 544.171 498.261 542.813C498.261 541.472 498.511 540.29 499.011 539.267C499.517 538.245 500.221 537.446 501.125 536.872C502.034 536.299 503.096 536.012 504.312 536.012C505.051 536.012 505.767 536.134 506.46 536.378C507.153 536.622 507.775 537.006 508.326 537.529C508.878 538.051 509.312 538.73 509.63 539.566C509.949 540.395 510.108 541.404 510.108 542.591V543.495H499.701V541.585H507.611C507.611 540.915 507.474 540.321 507.201 539.804C506.929 539.281 506.545 538.87 506.051 538.568C505.562 538.267 504.988 538.117 504.329 538.117C503.613 538.117 502.988 538.293 502.454 538.645C501.926 538.992 501.517 539.446 501.227 540.009C500.943 540.566 500.801 541.171 500.801 541.824V543.316C500.801 544.191 500.954 544.935 501.261 545.549C501.574 546.162 502.008 546.631 502.565 546.955C503.122 547.273 503.772 547.432 504.517 547.432C505 547.432 505.44 547.364 505.838 547.227C506.236 547.085 506.579 546.875 506.869 546.597C507.159 546.318 507.38 545.975 507.534 545.566L509.946 546C509.753 546.71 509.406 547.333 508.906 547.867C508.412 548.395 507.79 548.807 507.04 549.102C506.295 549.392 505.446 549.537 504.491 549.537ZM515.027 541.5V549.273H512.479V536.182H514.925V538.313H515.087C515.388 537.62 515.86 537.063 516.502 536.642C517.15 536.222 517.965 536.012 518.948 536.012C519.84 536.012 520.621 536.199 521.292 536.574C521.962 536.943 522.482 537.495 522.851 538.227C523.221 538.96 523.405 539.867 523.405 540.946V549.273H520.857V541.253C520.857 540.304 520.61 539.563 520.115 539.029C519.621 538.489 518.942 538.219 518.079 538.219C517.488 538.219 516.962 538.347 516.502 538.602C516.047 538.858 515.686 539.233 515.419 539.727C515.158 540.216 515.027 540.807 515.027 541.5ZM526.367 549.273V536.182H528.915V549.273H526.367ZM527.654 534.162C527.211 534.162 526.83 534.014 526.512 533.719C526.199 533.418 526.043 533.06 526.043 532.645C526.043 532.225 526.199 531.867 526.512 531.571C526.83 531.27 527.211 531.12 527.654 531.12C528.097 531.12 528.475 531.27 528.787 531.571C529.105 531.867 529.265 532.225 529.265 532.645C529.265 533.06 529.105 533.418 528.787 533.719C528.475 534.014 528.097 534.162 527.654 534.162ZM531.615 549.273V547.526L538.706 538.517V538.398H531.845V536.182H541.885V538.04L535.066 546.938V547.057H542.123V549.273H531.615ZM548.483 549.563C547.654 549.563 546.904 549.409 546.233 549.102C545.563 548.79 545.032 548.338 544.64 547.747C544.253 547.156 544.06 546.432 544.06 545.574C544.06 544.835 544.202 544.227 544.486 543.75C544.77 543.273 545.154 542.895 545.637 542.617C546.12 542.338 546.659 542.128 547.256 541.986C547.853 541.844 548.461 541.736 549.08 541.662C549.864 541.571 550.5 541.497 550.989 541.441C551.478 541.378 551.833 541.279 552.054 541.142C552.276 541.006 552.387 540.784 552.387 540.477V540.418C552.387 539.674 552.176 539.097 551.756 538.688C551.341 538.279 550.722 538.074 549.898 538.074C549.04 538.074 548.364 538.264 547.87 538.645C547.381 539.02 547.043 539.438 546.855 539.898L544.461 539.352C544.745 538.557 545.159 537.915 545.705 537.426C546.256 536.932 546.89 536.574 547.605 536.352C548.321 536.125 549.074 536.012 549.864 536.012C550.387 536.012 550.941 536.074 551.526 536.199C552.117 536.318 552.668 536.54 553.179 536.864C553.696 537.188 554.12 537.651 554.449 538.253C554.779 538.85 554.943 539.625 554.943 540.58V549.273H552.455V547.483H552.353C552.188 547.813 551.941 548.137 551.611 548.455C551.282 548.773 550.858 549.037 550.341 549.247C549.824 549.458 549.205 549.563 548.483 549.563ZM549.037 547.517C549.742 547.517 550.344 547.378 550.844 547.1C551.35 546.821 551.733 546.458 551.995 546.009C552.262 545.554 552.395 545.068 552.395 544.551V542.864C552.304 542.955 552.128 543.04 551.867 543.12C551.611 543.193 551.318 543.259 550.989 543.316C550.659 543.367 550.338 543.415 550.026 543.46C549.713 543.5 549.452 543.534 549.242 543.563C548.747 543.625 548.296 543.73 547.887 543.878C547.483 544.026 547.159 544.239 546.915 544.517C546.676 544.79 546.557 545.154 546.557 545.608C546.557 546.239 546.79 546.716 547.256 547.04C547.722 547.358 548.316 547.517 549.037 547.517ZM563.992 536.182V538.227H556.842V536.182H563.992ZM558.76 533.046H561.308V545.429C561.308 545.924 561.382 546.296 561.529 546.546C561.677 546.79 561.867 546.958 562.1 547.049C562.339 547.134 562.598 547.176 562.876 547.176C563.081 547.176 563.26 547.162 563.413 547.134C563.566 547.105 563.686 547.083 563.771 547.066L564.231 549.171C564.083 549.227 563.873 549.284 563.6 549.341C563.328 549.404 562.987 549.438 562.578 549.443C561.907 549.455 561.282 549.335 560.703 549.085C560.123 548.835 559.654 548.449 559.296 547.926C558.938 547.404 558.76 546.747 558.76 545.958V533.046ZM566.355 549.273V536.182H568.904V549.273H566.355ZM567.642 534.162C567.199 534.162 566.818 534.014 566.5 533.719C566.188 533.418 566.031 533.06 566.031 532.645C566.031 532.225 566.188 531.867 566.5 531.571C566.818 531.27 567.199 531.12 567.642 531.12C568.085 531.12 568.463 531.27 568.776 531.571C569.094 531.867 569.253 532.225 569.253 532.645C569.253 533.06 569.094 533.418 568.776 533.719C568.463 534.014 568.085 534.162 567.642 534.162ZM577.39 549.537C576.163 549.537 575.092 549.256 574.177 548.693C573.262 548.131 572.552 547.344 572.046 546.333C571.541 545.321 571.288 544.139 571.288 542.787C571.288 541.429 571.541 540.242 572.046 539.225C572.552 538.208 573.262 537.418 574.177 536.855C575.092 536.293 576.163 536.012 577.39 536.012C578.617 536.012 579.688 536.293 580.603 536.855C581.518 537.418 582.228 538.208 582.734 539.225C583.24 540.242 583.492 541.429 583.492 542.787C583.492 544.139 583.24 545.321 582.734 546.333C582.228 547.344 581.518 548.131 580.603 548.693C579.688 549.256 578.617 549.537 577.39 549.537ZM577.399 547.398C578.194 547.398 578.853 547.188 579.376 546.767C579.899 546.347 580.285 545.787 580.535 545.088C580.791 544.389 580.919 543.62 580.919 542.779C580.919 541.943 580.791 541.176 580.535 540.477C580.285 539.773 579.899 539.208 579.376 538.781C578.853 538.355 578.194 538.142 577.399 538.142C576.598 538.142 575.933 538.355 575.404 538.781C574.882 539.208 574.492 539.773 574.237 540.477C573.987 541.176 573.862 541.943 573.862 542.779C573.862 543.62 573.987 544.389 574.237 545.088C574.492 545.787 574.882 546.347 575.404 546.767C575.933 547.188 576.598 547.398 577.399 547.398ZM588.429 541.5V549.273H585.881V536.182H588.327V538.313H588.489C588.79 537.62 589.262 537.063 589.904 536.642C590.551 536.222 591.367 536.012 592.35 536.012C593.242 536.012 594.023 536.199 594.693 536.574C595.364 536.943 595.884 537.495 596.253 538.227C596.622 538.96 596.807 539.867 596.807 540.946V549.273H594.259V541.253C594.259 540.304 594.012 539.563 593.517 539.029C593.023 538.489 592.344 538.219 591.48 538.219C590.889 538.219 590.364 538.347 589.904 538.602C589.449 538.858 589.088 539.233 588.821 539.727C588.56 540.216 588.429 540.807 588.429 541.5Z" fill="#757575"/>
<path d="M339.918 132.273V114.818H350.741V117.085H342.551V122.403H349.966V124.662H342.551V132.273H339.918ZM355.868 114.818V132.273H353.32V114.818H355.868ZM364.354 132.537C363.127 132.537 362.056 132.256 361.141 131.693C360.226 131.131 359.516 130.344 359.011 129.332C358.505 128.321 358.252 127.139 358.252 125.787C358.252 124.429 358.505 123.241 359.011 122.224C359.516 121.207 360.226 120.418 361.141 119.855C362.056 119.293 363.127 119.011 364.354 119.011C365.582 119.011 366.653 119.293 367.567 119.855C368.482 120.418 369.192 121.207 369.698 122.224C370.204 123.241 370.457 124.429 370.457 125.787C370.457 127.139 370.204 128.321 369.698 129.332C369.192 130.344 368.482 131.131 367.567 131.693C366.653 132.256 365.582 132.537 364.354 132.537ZM364.363 130.398C365.158 130.398 365.817 130.187 366.34 129.767C366.863 129.347 367.249 128.787 367.499 128.088C367.755 127.389 367.883 126.619 367.883 125.778C367.883 124.943 367.755 124.176 367.499 123.477C367.249 122.773 366.863 122.207 366.34 121.781C365.817 121.355 365.158 121.142 364.363 121.142C363.562 121.142 362.897 121.355 362.369 121.781C361.846 122.207 361.457 122.773 361.201 123.477C360.951 124.176 360.826 124.943 360.826 125.778C360.826 126.619 360.951 127.389 361.201 128.088C361.457 128.787 361.846 129.347 362.369 129.767C362.897 130.187 363.562 130.398 364.363 130.398ZM378.359 132.537C377.132 132.537 376.061 132.256 375.146 131.693C374.231 131.131 373.521 130.344 373.016 129.332C372.51 128.321 372.257 127.139 372.257 125.787C372.257 124.429 372.51 123.241 373.016 122.224C373.521 121.207 374.231 120.418 375.146 119.855C376.061 119.293 377.132 119.011 378.359 119.011C379.587 119.011 380.658 119.293 381.572 119.855C382.487 120.418 383.197 121.207 383.703 122.224C384.209 123.241 384.462 124.429 384.462 125.787C384.462 127.139 384.209 128.321 383.703 129.332C383.197 130.344 382.487 131.131 381.572 131.693C380.658 132.256 379.587 132.537 378.359 132.537ZM378.368 130.398C379.163 130.398 379.822 130.187 380.345 129.767C380.868 129.347 381.254 128.787 381.504 128.088C381.76 127.389 381.888 126.619 381.888 125.778C381.888 124.943 381.76 124.176 381.504 123.477C381.254 122.773 380.868 122.207 380.345 121.781C379.822 121.355 379.163 121.142 378.368 121.142C377.567 121.142 376.902 121.355 376.373 121.781C375.851 122.207 375.462 122.773 375.206 123.477C374.956 124.176 374.831 124.943 374.831 125.778C374.831 126.619 374.956 127.389 375.206 128.088C375.462 128.787 375.851 129.347 376.373 129.767C376.902 130.187 377.567 130.398 378.368 130.398ZM386.85 132.273V119.182H389.313V121.261H389.449C389.688 120.557 390.109 120.003 390.711 119.599C391.319 119.19 392.006 118.986 392.773 118.986C392.932 118.986 393.12 118.991 393.336 119.003C393.557 119.014 393.731 119.028 393.856 119.045V121.483C393.753 121.455 393.572 121.423 393.31 121.389C393.049 121.349 392.788 121.33 392.526 121.33C391.924 121.33 391.387 121.457 390.915 121.713C390.449 121.963 390.08 122.312 389.807 122.761C389.535 123.205 389.398 123.71 389.398 124.278V132.273H386.85ZM407.543 132.511C406.373 132.511 405.327 132.31 404.407 131.906C403.492 131.503 402.768 130.943 402.233 130.227C401.705 129.506 401.421 128.67 401.381 127.722H404.057C404.091 128.239 404.265 128.687 404.577 129.068C404.895 129.443 405.31 129.733 405.822 129.937C406.333 130.142 406.901 130.244 407.526 130.244C408.214 130.244 408.822 130.125 409.35 129.886C409.884 129.648 410.302 129.315 410.603 128.889C410.904 128.457 411.054 127.96 411.054 127.398C411.054 126.812 410.904 126.298 410.603 125.855C410.307 125.406 409.873 125.054 409.299 124.798C408.731 124.543 408.043 124.415 407.236 124.415H405.762V122.267H407.236C407.884 122.267 408.452 122.151 408.941 121.918C409.435 121.685 409.822 121.361 410.1 120.946C410.378 120.526 410.518 120.034 410.518 119.472C410.518 118.932 410.395 118.463 410.151 118.065C409.912 117.662 409.572 117.347 409.128 117.119C408.691 116.892 408.174 116.778 407.577 116.778C407.009 116.778 406.478 116.884 405.983 117.094C405.495 117.298 405.097 117.594 404.79 117.98C404.483 118.361 404.319 118.818 404.296 119.352H401.748C401.776 118.409 402.054 117.58 402.583 116.864C403.117 116.148 403.822 115.588 404.697 115.185C405.572 114.781 406.543 114.58 407.611 114.58C408.731 114.58 409.697 114.798 410.509 115.236C411.327 115.668 411.958 116.244 412.401 116.966C412.85 117.687 413.072 118.477 413.066 119.335C413.072 120.312 412.799 121.142 412.248 121.824C411.702 122.506 410.975 122.963 410.066 123.196V123.332C411.225 123.509 412.123 123.969 412.759 124.713C413.401 125.457 413.719 126.381 413.714 127.483C413.719 128.443 413.452 129.304 412.912 130.065C412.378 130.827 411.648 131.426 410.722 131.864C409.796 132.295 408.736 132.511 407.543 132.511Z" fill="#757575"/>
<path d="M339.918 298.273V280.818H350.741V283.085H342.551V288.403H349.966V290.662H342.551V298.273H339.918ZM355.868 280.818V298.273H353.32V280.818H355.868ZM364.354 298.537C363.127 298.537 362.056 298.256 361.141 297.693C360.226 297.131 359.516 296.344 359.011 295.332C358.505 294.321 358.252 293.139 358.252 291.787C358.252 290.429 358.505 289.241 359.011 288.224C359.516 287.207 360.226 286.418 361.141 285.855C362.056 285.293 363.127 285.011 364.354 285.011C365.582 285.011 366.653 285.293 367.567 285.855C368.482 286.418 369.192 287.207 369.698 288.224C370.204 289.241 370.457 290.429 370.457 291.787C370.457 293.139 370.204 294.321 369.698 295.332C369.192 296.344 368.482 297.131 367.567 297.693C366.653 298.256 365.582 298.537 364.354 298.537ZM364.363 296.398C365.158 296.398 365.817 296.187 366.34 295.767C366.863 295.347 367.249 294.787 367.499 294.088C367.755 293.389 367.883 292.619 367.883 291.778C367.883 290.943 367.755 290.176 367.499 289.477C367.249 288.773 366.863 288.207 366.34 287.781C365.817 287.355 365.158 287.142 364.363 287.142C363.562 287.142 362.897 287.355 362.369 287.781C361.846 288.207 361.457 288.773 361.201 289.477C360.951 290.176 360.826 290.943 360.826 291.778C360.826 292.619 360.951 293.389 361.201 294.088C361.457 294.787 361.846 295.347 362.369 295.767C362.897 296.187 363.562 296.398 364.363 296.398ZM378.359 298.537C377.132 298.537 376.061 298.256 375.146 297.693C374.231 297.131 373.521 296.344 373.016 295.332C372.51 294.321 372.257 293.139 372.257 291.787C372.257 290.429 372.51 289.241 373.016 288.224C373.521 287.207 374.231 286.418 375.146 285.855C376.061 285.293 377.132 285.011 378.359 285.011C379.587 285.011 380.658 285.293 381.572 285.855C382.487 286.418 383.197 287.207 383.703 288.224C384.209 289.241 384.462 290.429 384.462 291.787C384.462 293.139 384.209 294.321 383.703 295.332C383.197 296.344 382.487 297.131 381.572 297.693C380.658 298.256 379.587 298.537 378.359 298.537ZM378.368 296.398C379.163 296.398 379.822 296.187 380.345 295.767C380.868 295.347 381.254 294.787 381.504 294.088C381.76 293.389 381.888 292.619 381.888 291.778C381.888 290.943 381.76 290.176 381.504 289.477C381.254 288.773 380.868 288.207 380.345 287.781C379.822 287.355 379.163 287.142 378.368 287.142C377.567 287.142 376.902 287.355 376.373 287.781C375.851 288.207 375.462 288.773 375.206 289.477C374.956 290.176 374.831 290.943 374.831 291.778C374.831 292.619 374.956 293.389 375.206 294.088C375.462 294.787 375.851 295.347 376.373 295.767C376.902 296.187 377.567 296.398 378.368 296.398ZM386.85 298.273V285.182H389.313V287.261H389.449C389.688 286.557 390.109 286.003 390.711 285.599C391.319 285.19 392.006 284.986 392.773 284.986C392.932 284.986 393.12 284.991 393.336 285.003C393.557 285.014 393.731 285.028 393.856 285.045V287.483C393.753 287.455 393.572 287.423 393.31 287.389C393.049 287.349 392.788 287.33 392.526 287.33C391.924 287.33 391.387 287.457 390.915 287.713C390.449 287.963 390.08 288.312 389.807 288.761C389.535 289.205 389.398 289.71 389.398 290.278V298.273H386.85ZM401.466 298.273V296.364L407.373 290.244C408.003 289.58 408.523 288.997 408.932 288.497C409.347 287.991 409.657 287.511 409.861 287.057C410.066 286.602 410.168 286.119 410.168 285.608C410.168 285.028 410.032 284.528 409.759 284.108C409.486 283.682 409.114 283.355 408.643 283.128C408.171 282.895 407.64 282.778 407.049 282.778C406.424 282.778 405.878 282.906 405.412 283.162C404.947 283.418 404.589 283.778 404.339 284.244C404.089 284.71 403.964 285.256 403.964 285.881H401.449C401.449 284.818 401.694 283.889 402.182 283.094C402.671 282.298 403.341 281.682 404.194 281.244C405.046 280.801 406.015 280.58 407.1 280.58C408.197 280.58 409.162 280.798 409.998 281.236C410.839 281.668 411.495 282.258 411.966 283.008C412.438 283.753 412.674 284.594 412.674 285.531C412.674 286.179 412.552 286.812 412.307 287.432C412.069 288.051 411.651 288.741 411.054 289.503C410.458 290.259 409.628 291.176 408.566 292.256L405.097 295.886V296.014H412.955V298.273H401.466Z" fill="#757575"/>
<path d="M339.918 464.273V446.818H350.741V449.085H342.551V454.404H349.966V456.662H342.551V464.273H339.918ZM355.868 446.818V464.273H353.32V446.818H355.868ZM364.354 464.537C363.127 464.537 362.056 464.256 361.141 463.693C360.226 463.131 359.516 462.344 359.011 461.333C358.505 460.321 358.252 459.139 358.252 457.787C358.252 456.429 358.505 455.242 359.011 454.225C359.516 453.208 360.226 452.418 361.141 451.855C362.056 451.293 363.127 451.012 364.354 451.012C365.582 451.012 366.653 451.293 367.567 451.855C368.482 452.418 369.192 453.208 369.698 454.225C370.204 455.242 370.457 456.429 370.457 457.787C370.457 459.139 370.204 460.321 369.698 461.333C369.192 462.344 368.482 463.131 367.567 463.693C366.653 464.256 365.582 464.537 364.354 464.537ZM364.363 462.398C365.158 462.398 365.817 462.188 366.34 461.767C366.863 461.347 367.249 460.787 367.499 460.088C367.755 459.389 367.883 458.62 367.883 457.779C367.883 456.943 367.755 456.176 367.499 455.477C367.249 454.773 366.863 454.208 366.34 453.781C365.817 453.355 365.158 453.142 364.363 453.142C363.562 453.142 362.897 453.355 362.369 453.781C361.846 454.208 361.457 454.773 361.201 455.477C360.951 456.176 360.826 456.943 360.826 457.779C360.826 458.62 360.951 459.389 361.201 460.088C361.457 460.787 361.846 461.347 362.369 461.767C362.897 462.188 363.562 462.398 364.363 462.398ZM378.359 464.537C377.132 464.537 376.061 464.256 375.146 463.693C374.231 463.131 373.521 462.344 373.016 461.333C372.51 460.321 372.257 459.139 372.257 457.787C372.257 456.429 372.51 455.242 373.016 454.225C373.521 453.208 374.231 452.418 375.146 451.855C376.061 451.293 377.132 451.012 378.359 451.012C379.587 451.012 380.658 451.293 381.572 451.855C382.487 452.418 383.197 453.208 383.703 454.225C384.209 455.242 384.462 456.429 384.462 457.787C384.462 459.139 384.209 460.321 383.703 461.333C383.197 462.344 382.487 463.131 381.572 463.693C380.658 464.256 379.587 464.537 378.359 464.537ZM378.368 462.398C379.163 462.398 379.822 462.188 380.345 461.767C380.868 461.347 381.254 460.787 381.504 460.088C381.76 459.389 381.888 458.62 381.888 457.779C381.888 456.943 381.76 456.176 381.504 455.477C381.254 454.773 380.868 454.208 380.345 453.781C379.822 453.355 379.163 453.142 378.368 453.142C377.567 453.142 376.902 453.355 376.373 453.781C375.851 454.208 375.462 454.773 375.206 455.477C374.956 456.176 374.831 456.943 374.831 457.779C374.831 458.62 374.956 459.389 375.206 460.088C375.462 460.787 375.851 461.347 376.373 461.767C376.902 462.188 377.567 462.398 378.368 462.398ZM386.85 464.273V451.182H389.313V453.262H389.449C389.688 452.557 390.109 452.003 390.711 451.6C391.319 451.191 392.006 450.986 392.773 450.986C392.932 450.986 393.12 450.992 393.336 451.003C393.557 451.014 393.731 451.029 393.856 451.046V453.483C393.753 453.455 393.572 453.424 393.31 453.389C393.049 453.35 392.788 453.33 392.526 453.33C391.924 453.33 391.387 453.458 390.915 453.713C390.449 453.963 390.08 454.313 389.807 454.762C389.535 455.205 389.398 455.71 389.398 456.279V464.273H386.85ZM408.089 446.818V464.273H405.447V449.46H405.344L401.168 452.188V449.665L405.523 446.818H408.089Z" fill="#757575"/>
</g>
<defs>
<clipPath id="clip0_663_806">
<rect width="1809" height="768" fill="white"/>
</clipPath>
<clipPath id="clip1_663_806">
<rect width="256" height="417" fill="white" transform="translate(824 141)"/>
</clipPath>
</defs>
</svg>
