<?xml version="1.0" encoding="UTF-8" standalone="no"?>
<!-- Created with Inkscape (http://www.inkscape.org/) -->

<svg
   width="48"
   height="48"
   viewBox="0 0 12.7 12.7"
   version="1.1"
   id="svg1"
   inkscape:version="1.4.2 (ebf0e940d0, 2025-05-08)"
   sodipodi:docname="logo.svg"
   xmlns:inkscape="http://www.inkscape.org/namespaces/inkscape"
   xmlns:sodipodi="http://sodipodi.sourceforge.net/DTD/sodipodi-0.dtd"
   xmlns="http://www.w3.org/2000/svg"
   xmlns:svg="http://www.w3.org/2000/svg">
  <sodipodi:namedview
     id="namedview1"
     pagecolor="#ffffff"
     bordercolor="#000000"
     borderopacity="0.25"
     inkscape:showpageshadow="2"
     inkscape:pageopacity="0.0"
     inkscape:pagecheckerboard="0"
     inkscape:deskcolor="#d1d1d1"
     inkscape:document-units="mm"
     inkscape:zoom="6.3385417"
     inkscape:cx="-8.6770747"
     inkscape:cy="26.031224"
     inkscape:window-width="1920"
     inkscape:window-height="1059"
     inkscape:window-x="0"
     inkscape:window-y="0"
     inkscape:window-maximized="0"
     inkscape:current-layer="svg1"
     showgrid="false" />
  <defs
     id="defs1">
    <rect
       x="5.1265241"
       y="25.102291"
       width="66.291261"
       height="68.059028"
       id="rect2" />
    <rect
       x="5.1265241"
       y="25.102291"
       width="66.291261"
       height="68.059028"
       id="rect3" />
  </defs>
  <g
     id="g5"
     transform="translate(0,-0.04992098)"
     style="fill:#666666">
    <path
       d="M 1.9815425,5.9691038 V 2.9119247 h 1.7137983 v 0.345723 H 2.3865323 v 0.938391 h 1.1458248 v 0.345723 H 2.3865323 v 1.0816191 h 1.4174643 v 0.345723 z m 4.148676,-2.123727 q 0,0.2815173 -0.148167,0.4988289 -0.148167,0.2123727 -0.4000509,0.3309063 0.074084,0.1185336 0.1629837,0.2716395 0.093839,0.148167 0.1876782,0.3210285 0.093839,0.1679226 0.1827393,0.3506619 0.093839,0.1778004 0.1728615,0.3506619 H 5.8536401 Q 5.7054731,5.613503 5.5276727,5.2875356 5.3548112,4.9615682 5.1918275,4.7590733 q -0.029633,0.00494 -0.0889,0.00494 -0.054328,0 -0.074084,0 H 4.6831208 V 5.9691038 H 4.2731921 v -3.012729 q 0.074083,-0.019756 0.1679226,-0.034572 0.098778,-0.014817 0.197556,-0.019756 0.1037169,-0.00988 0.2024949,-0.014817 0.098778,-0.00494 0.1778004,-0.00494 0.5531568,0 0.8297352,0.2420061 0.2815173,0.2420061 0.2815173,0.7210794 z M 5.0535383,3.2329532 q -0.1135947,0 -0.2222505,0.00494 -0.1037169,0 -0.148167,0.00988 V 4.428167 h 0.2617617 q 0.1778004,0 0.3160896,-0.024694 0.1432281,-0.024695 0.2420061,-0.0889 0.1037169,-0.069145 0.1580448,-0.1827393 0.054328,-0.1185336 0.054328,-0.3062118 0,-0.1778004 -0.054328,-0.2913951 Q 5.6066951,3.4206314 5.5177949,3.3564257 5.4288947,3.2872811 5.3054222,3.2625866 5.1868886,3.2329532 5.0535383,3.2329532 Z m 3.6893583,2.6077392 q -0.1728615,0.098778 -0.3704175,0.1432281 -0.1926171,0.049389 -0.4148676,0.049389 -0.2716395,0 -0.5037678,-0.093839 Q 7.2266543,5.8406924 7.0587317,5.6480753 6.8908091,5.4505193 6.7920311,5.1492464 6.698192,4.8479735 6.698192,4.4380448 q 0,-0.3901731 0.098778,-0.6865071 0.1037169,-0.296334 0.2765784,-0.4988289 0.1728615,-0.2024949 0.4049898,-0.3062118 0.2321283,-0.1037169 0.49389,-0.1037169 0.1827393,0 0.3704175,0.049389 0.1926171,0.049389 0.3753564,0.1629837 L 8.5996685,3.390998 Q 8.2737011,3.2033198 7.9872449,3.2033198 q -0.2024949,0 -0.3654786,0.0889 -0.1580448,0.083961 -0.2716395,0.246945 -0.1135947,0.1629837 -0.1778004,0.3901731 -0.059267,0.2271894 -0.059267,0.5087067 0,0.3160896 0.064206,0.5482179 0.069145,0.2321283 0.1876782,0.3852342 0.1185336,0.1531059 0.2815173,0.2271894 0.1679226,0.074084 0.3605397,0.074084 0.1432281,0 0.3012729,-0.034572 0.1580448,-0.039511 0.3259674,-0.1333503 z M 9.6318986,4.5220061 H 10.718457 V 4.9072403 H 9.6318986 Z"
       id="text4"
       style="font-size:4.9389px;font-family:'Ubuntu Mono';-inkscape-font-specification:'Ubuntu Mono, Normal';stroke-width:2.64583;stroke-opacity:0"
       aria-label="ERC-" />
    <path
       d="m 3.6163162,9.097688 q 0,0.3852342 -0.246945,0.6223014 -0.2420061,0.2370672 -0.740835,0.2370672 -0.2864562,0 -0.4741344,-0.074084 Q 1.9667236,9.8039507 1.8531289,9.6854171 1.7444731,9.5619446 1.6950841,9.4137776 1.650634,9.2656106 1.650634,9.1223825 q 0,-0.2617617 0.1432281,-0.4642566 Q 1.9370902,8.455631 2.1346462,8.3321585 1.7148397,8.0950913 1.7148397,7.6061402 q 0,-0.1679226 0.064206,-0.3210285 0.064206,-0.1531059 0.1827393,-0.2667006 0.1185336,-0.1135947 0.2864562,-0.1827393 0.1728615,-0.069145 0.3852342,-0.069145 0.246945,0 0.4198065,0.074084 0.1778004,0.074083 0.2864562,0.1926171 0.1086558,0.1135947 0.1580448,0.2568228 0.049389,0.1382892 0.049389,0.2716395 0,0.2617617 -0.1333503,0.4543788 Q 3.280471,8.2037471 3.1076095,8.3173418 3.6163162,8.5593479 3.6163162,9.097688 Z M 2.045746,9.1273214 q 0,0.079022 0.029633,0.1679226 0.029633,0.083961 0.098778,0.1580448 0.069145,0.074084 0.1827393,0.1234725 0.1135947,0.04445 0.2765784,0.04445 0.1531059,0 0.2617617,-0.039511 0.1135947,-0.04445 0.1827393,-0.1135947 0.074083,-0.074084 0.1086558,-0.1629837 0.034572,-0.0889 0.034572,-0.1778004 0,-0.2815173 -0.2024949,-0.4296843 Q 2.8162144,8.5445312 2.4606136,8.4655088 2.2630576,8.5741646 2.1544018,8.7371483 2.045746,8.900132 2.045746,9.1273214 Z M 3.1520596,7.5616901 q 0,-0.064206 -0.029633,-0.1432281 -0.029633,-0.083961 -0.093839,-0.148167 -0.059267,-0.069145 -0.1580448,-0.1135947 -0.098778,-0.049389 -0.2370672,-0.049389 -0.1432281,0 -0.2420061,0.04445 -0.093839,0.04445 -0.1580448,0.1135947 -0.064206,0.064206 -0.093839,0.148167 -0.024695,0.079022 -0.024695,0.1580448 0,0.2024949 0.1432281,0.3802953 0.148167,0.1728615 0.4840122,0.2518839 0.1876782,-0.1086558 0.296334,-0.2568228 0.1135947,-0.148167 0.1135947,-0.3852342 z m 2.7904785,0.054328 q 0,0.1580448 -0.064206,0.3062118 Q 5.8190656,8.0703968 5.7153487,8.2136249 5.6165707,8.356853 5.4881593,8.4951422 5.3597479,8.6334314 5.2263976,8.7667817 5.1523141,8.8408652 5.0535361,8.9445821 4.9547581,9.048299 4.8658579,9.1569548 q -0.0889,0.1086558 -0.148167,0.2123727 -0.059267,0.1037169 -0.059267,0.1778004 h 1.4075865 v 0.345723 H 4.2139231 q -0.00494,-0.024694 -0.00494,-0.049389 0,-0.029633 0,-0.054328 0,-0.2074338 0.069145,-0.3852342 Q 4.3472734,9.2260994 4.4559292,9.0680546 4.564585,8.9100098 4.6979353,8.7717206 4.8362245,8.6284925 4.9695748,8.4951422 5.0782306,8.3864864 5.1770086,8.2827695 5.2807255,8.1790526 5.354809,8.0753357 5.4338314,7.9716188 5.4782815,7.862963 q 0.049389,-0.1135947 0.049389,-0.2321283 0,-0.1333503 -0.04445,-0.2271894 Q 5.4437092,7.3098062 5.3696257,7.2505394 5.3004811,7.1863337 5.206642,7.1567003 5.1128029,7.1270669 5.0041471,7.1270669 q -0.1284114,0 -0.2370672,0.034572 -0.1037169,0.034572 -0.1876782,0.083961 -0.079022,0.049389 -0.1382892,0.098778 -0.059267,0.04445 -0.0889,0.074083 L 4.1497174,7.1320058 q 0.039511,-0.04445 0.1185336,-0.1086558 0.079022,-0.064206 0.1876782,-0.1185336 0.1135947,-0.059267 0.2518839,-0.098778 0.1382892,-0.039511 0.296334,-0.039511 0.4790733,0 0.7062627,0.2222505 0.2321283,0.2173116 0.2321283,0.6272403 z M 7.1031796,9.8928509 Q 7.1278741,9.542189 7.2266521,9.1520159 7.330369,8.7569039 7.4735971,8.3914253 7.6168252,8.0210078 7.7896867,7.7098571 7.9625482,7.3937675 8.1304708,7.1912726 h -1.48167 V 6.8356718 H 8.5848496 V 7.1764559 Q 8.4366826,7.3493174 8.2638211,7.6407125 8.0909596,7.9321076 7.9329148,8.2975862 7.7798089,8.6581259 7.6662142,9.0729935 7.5526195,9.4829222 7.5229861,9.8928509 Z M 10.328281,8.307464 q 0,0.1284114 -0.07902,0.2222505 -0.07408,0.093839 -0.197556,0.093839 -0.1284115,0 -0.2074339,-0.093839 -0.079022,-0.093839 -0.079022,-0.2222505 0,-0.1284114 0.079022,-0.2271894 0.079022,-0.098778 0.2074339,-0.098778 0.123472,0 0.197556,0.098778 0.07902,0.098778 0.07902,0.2271894 z m -1.2939915,0.054328 q 0,-0.7704684 0.2617617,-1.1803971 0.2667006,-0.4148676 0.7457738,-0.4148676 0.484012,0 0.745774,0.4148676 0.261762,0.4099287 0.261762,1.1803971 0,0.7704684 -0.261762,1.185336 -0.261762,0.4099287 -0.745774,0.4099287 -0.4790732,0 -0.7457738,-0.4099287 Q 9.0342895,9.1322603 9.0342895,8.3617919 Z m 1.6002035,0 q 0,-0.2518839 -0.02963,-0.4741344 -0.02963,-0.2271894 -0.09878,-0.395112 -0.06914,-0.1679226 -0.18274,-0.2667006 -0.113594,-0.098778 -0.281517,-0.098778 -0.1679225,0 -0.2815172,0.098778 -0.1135947,0.098778 -0.1827393,0.2667006 -0.069145,0.1679226 -0.098778,0.395112 -0.029633,0.2222505 -0.029633,0.4741344 0,0.2518839 0.029633,0.4790733 0.029633,0.2222505 0.098778,0.3901731 0.069145,0.1679226 0.1827393,0.2667006 0.1135947,0.098778 0.2815172,0.098778 0.167923,0 0.281517,-0.098778 0.113595,-0.098778 0.18274,-0.2667006 0.06914,-0.1679226 0.09878,-0.3901731 0.02963,-0.2271894 0.02963,-0.4790733 z"
       id="text5"
       style="font-size:4.9389px;font-family:'Ubuntu Mono';-inkscape-font-specification:'Ubuntu Mono, Normal';stroke-width:2.64583;stroke-opacity:0"
       aria-label="8270" />
  </g>
</svg>
