<svg xmlns="http://www.w3.org/2000/svg" xmlns:xlink="http://www.w3.org/1999/xlink" contentStyleType="text/css" height="604px" preserveAspectRatio="none" style="width:586px;height:604px;background:#FFFFFF;" version="1.1" viewBox="0 0 586 604" width="586px" zoomAndPan="magnify"><defs/><g><rect fill="#FFD700" height="521.1953" style="stroke:#181818;stroke-width:1.0;" width="10" x="216" y="67.4297"/><rect fill="#0000FF" height="30" style="stroke:#181818;stroke-width:1.0;" width="10" x="434" y="145.6953"/><rect fill="#0000FF" height="30" style="stroke:#181818;stroke-width:1.0;" width="10" x="434" y="387.2266"/><rect fill="#808080" height="30" style="stroke:#181818;stroke-width:1.0;" width="10" x="522.5" y="204.8281"/><rect fill="#808080" height="30" style="stroke:#181818;stroke-width:1.0;" width="10" x="522.5" y="446.3594"/><rect fill="none" height="227.5313" style="stroke:#000000;stroke-width:1.5;" width="411.5" x="169" y="82.4297"/><rect fill="none" height="227.5313" style="stroke:#000000;stroke-width:1.5;" width="411.5" x="169" y="323.9609"/><line style="stroke:#181818;stroke-width:0.5;stroke-dasharray:5.0,5.0;" x1="221" x2="221" y1="36.2969" y2="597.625"/><line style="stroke:#181818;stroke-width:0.5;stroke-dasharray:5.0,5.0;" x1="438.5" x2="438.5" y1="36.2969" y2="597.625"/><line style="stroke:#181818;stroke-width:0.5;stroke-dasharray:5.0,5.0;" x1="527.5" x2="527.5" y1="36.2969" y2="597.625"/><rect fill="#E2E2F0" height="30.2969" rx="2.5" ry="2.5" style="stroke:#181818;stroke-width:0.5;" width="84" x="179" y="5"/><text fill="#000000" font-family="sans-serif" font-size="14" lengthAdjust="spacing" textLength="70" x="186" y="24.9951">EntryPoint</text><rect fill="#E2E2F0" height="30.2969" rx="2.5" ry="2.5" style="stroke:#181818;stroke-width:0.5;" width="71" x="403.5" y="5"/><text fill="#000000" font-family="sans-serif" font-size="14" lengthAdjust="spacing" textLength="57" x="410.5" y="24.9951">Account</text><rect fill="#E2E2F0" height="30.2969" rx="2.5" ry="2.5" style="stroke:#181818;stroke-width:0.5;" width="86" x="484.5" y="5"/><text fill="#000000" font-family="sans-serif" font-size="14" lengthAdjust="spacing" textLength="72" x="491.5" y="24.9951">Paymaster</text><rect fill="#FFD700" height="521.1953" style="stroke:#181818;stroke-width:1.0;" width="10" x="216" y="67.4297"/><rect fill="#0000FF" height="30" style="stroke:#181818;stroke-width:1.0;" width="10" x="434" y="145.6953"/><rect fill="#0000FF" height="30" style="stroke:#181818;stroke-width:1.0;" width="10" x="434" y="387.2266"/><rect fill="#808080" height="30" style="stroke:#181818;stroke-width:1.0;" width="10" x="522.5" y="204.8281"/><rect fill="#808080" height="30" style="stroke:#181818;stroke-width:1.0;" width="10" x="522.5" y="446.3594"/><polygon fill="#181818" points="204,63.4297,214,67.4297,204,71.4297,208,67.4297" style="stroke:#181818;stroke-width:1.0;"/><line style="stroke:#181818;stroke-width:1.0;" x1="0" x2="210" y1="67.4297" y2="67.4297"/><text fill="#000000" font-family="sans-serif" font-size="13" font-weight="bold" lengthAdjust="spacing" textLength="9" x="7" y="62.3638">1</text><text fill="#000000" font-family="monospace" font-size="13" lengthAdjust="spacing" textLength="160" x="20" y="62.3638">handleOps(userOps[])</text><text fill="#000000" font-family="sans-serif" font-size="13" lengthAdjust="spacing" textLength="4" x="180" y="62.3638">:</text><path d="M169,82.4297 L288,82.4297 L288,89.5625 L278,99.5625 L169,99.5625 L169,82.4297 " fill="#EEEEEE" style="stroke:#000000;stroke-width:1.5;"/><rect fill="none" height="227.5313" style="stroke:#000000;stroke-width:1.5;" width="411.5" x="169" y="82.4297"/><text fill="#000000" font-family="sans-serif" font-size="13" font-weight="bold" lengthAdjust="spacing" textLength="74" x="184" y="95.4966">Validation</text><polygon fill="#181818" points="422,141.6953,432,145.6953,422,149.6953,426,145.6953" style="stroke:#181818;stroke-width:1.0;"/><line style="stroke:#181818;stroke-width:1.0;" x1="226" x2="428" y1="145.6953" y2="145.6953"/><text fill="#000000" font-family="sans-serif" font-size="13" font-weight="bold" lengthAdjust="spacing" textLength="9" x="233" y="140.6294">2</text><text fill="#0000FF" font-family="sans-serif" font-size="13" lengthAdjust="spacing" textLength="4" x="246" y="140.6294">&#160;</text><text fill="#0000FF" font-family="monospace" font-size="13" lengthAdjust="spacing" textLength="112" x="250" y="140.6294">validateUserOp</text><polygon fill="#181818" points="510.5,200.8281,520.5,204.8281,510.5,208.8281,514.5,204.8281" style="stroke:#181818;stroke-width:1.0;"/><line style="stroke:#181818;stroke-width:1.0;" x1="226" x2="516.5" y1="204.8281" y2="204.8281"/><text fill="#000000" font-family="sans-serif" font-size="13" font-weight="bold" lengthAdjust="spacing" textLength="9" x="233" y="199.7622">3</text><text fill="#000000" font-family="monospace" font-size="13" lengthAdjust="spacing" textLength="184" x="246" y="199.7622">validatePaymasterUserOp</text><line style="stroke:#181818;stroke-width:1.0;" x1="226" x2="268" y1="263.9609" y2="263.9609"/><line style="stroke:#181818;stroke-width:1.0;" x1="268" x2="268" y1="263.9609" y2="276.9609"/><line style="stroke:#181818;stroke-width:1.0;" x1="227" x2="268" y1="276.9609" y2="276.9609"/><polygon fill="#181818" points="237,272.9609,227,276.9609,237,280.9609,233,276.9609" style="stroke:#181818;stroke-width:1.0;"/><text fill="#000000" font-family="sans-serif" font-size="13" font-weight="bold" lengthAdjust="spacing" textLength="9" x="233" y="258.895">4</text><text fill="#000000" font-family="sans-serif" font-size="13" lengthAdjust="spacing" textLength="44" x="246" y="258.895">deduct</text><text fill="#000000" font-family="monospace" font-size="13" lengthAdjust="spacing" textLength="72" x="294" y="258.895">Paymaster</text><text fill="#000000" font-family="sans-serif" font-size="13" lengthAdjust="spacing" textLength="47" x="370" y="258.895">deposit</text><path d="M169,323.9609 L285,323.9609 L285,331.0938 L275,341.0938 L169,341.0938 L169,323.9609 " fill="#EEEEEE" style="stroke:#000000;stroke-width:1.5;"/><rect fill="none" height="227.5313" style="stroke:#000000;stroke-width:1.5;" width="411.5" x="169" y="323.9609"/><text fill="#000000" font-family="sans-serif" font-size="13" font-weight="bold" lengthAdjust="spacing" textLength="71" x="184" y="337.0278">Execution</text><polygon fill="#181818" points="422,383.2266,432,387.2266,422,391.2266,426,387.2266" style="stroke:#181818;stroke-width:1.0;"/><line style="stroke:#181818;stroke-width:1.0;" x1="226" x2="428" y1="387.2266" y2="387.2266"/><text fill="#000000" font-family="sans-serif" font-size="13" font-weight="bold" lengthAdjust="spacing" textLength="9" x="233" y="382.1606">5</text><text fill="#0000FF" font-family="sans-serif" font-size="13" lengthAdjust="spacing" textLength="4" x="246" y="382.1606">&#160;</text><text fill="#0000FF" font-family="monospace" font-size="13" lengthAdjust="spacing" textLength="104" x="250" y="382.1606">executeUserOp</text><polygon fill="#181818" points="510.5,442.3594,520.5,446.3594,510.5,450.3594,514.5,446.3594" style="stroke:#181818;stroke-width:1.0;"/><line style="stroke:#181818;stroke-width:1.0;" x1="226" x2="516.5" y1="446.3594" y2="446.3594"/><text fill="#000000" font-family="sans-serif" font-size="13" font-weight="bold" lengthAdjust="spacing" textLength="9" x="233" y="441.2935">6</text><text fill="#000000" font-family="monospace" font-size="13" lengthAdjust="spacing" textLength="48" x="246" y="441.2935">postOp</text><line style="stroke:#181818;stroke-width:1.0;" x1="226" x2="268" y1="505.4922" y2="505.4922"/><line style="stroke:#181818;stroke-width:1.0;" x1="268" x2="268" y1="505.4922" y2="518.4922"/><line style="stroke:#181818;stroke-width:1.0;" x1="227" x2="268" y1="518.4922" y2="518.4922"/><polygon fill="#181818" points="237,514.4922,227,518.4922,237,522.4922,233,518.4922" style="stroke:#181818;stroke-width:1.0;"/><text fill="#000000" font-family="sans-serif" font-size="13" font-weight="bold" lengthAdjust="spacing" textLength="9" x="233" y="500.4263">7</text><text fill="#000000" font-family="sans-serif" font-size="13" lengthAdjust="spacing" textLength="114" x="246" y="500.4263">refund paymaster</text><polygon fill="#181818" points="11,575.625,1,579.625,11,583.625,7,579.625" style="stroke:#181818;stroke-width:1.0;"/><line style="stroke:#181818;stroke-width:1.0;stroke-dasharray:2.0,2.0;" x1="5" x2="215" y1="579.625" y2="579.625"/><text fill="#000000" font-family="sans-serif" font-size="13" font-weight="bold" lengthAdjust="spacing" textLength="9" x="17" y="574.5591">8</text><text fill="#000000" font-family="monospace" font-size="13" lengthAdjust="spacing" textLength="184" x="30" y="574.5591">compensate(beneficiary)</text><!--SRC=[bP4zRiCm38LtdK9GbnI1Bs2q1ZfaRfPsCJhG4fq8i4L2Fq4CvF2bdJHDW0oj5Waat-Ft82YPGXaxZ8eXPcyzGyZQR4AEqvPyo4P3qiZtxJThgLnwS7xV3snX6Y5bZCi8Zwgj6kJrMZ_jQ72rDcOFmGtupcbL4aQvswzdOsgrYrHOVyBW7MHFGPrE9uLSDPSziqSt5AprIq-ooj90yNMkDE9wEElmO_4qHZa4c_r1IbVGsOp7XIN2LD-ehjIFv19YLYBNsg4hLbBUn3HIP4e-dtc3kmJP7D6M_-V0HVORGylvKnHXo8yKD_GH-nASvX_sAx4CL4qxkrWQ6KCIuQh3WBtyAyH9_aVjlKFT4-MEZjy0]--></g></svg>