<svg xmlns="http://www.w3.org/2000/svg" xmlns:xlink="http://www.w3.org/1999/xlink" contentStyleType="text/css" height="905px" preserveAspectRatio="none" style="width:750px;height:905px;background:#FFFFFF;" version="1.1" viewBox="0 0 750 905" width="750px" zoomAndPan="magnify"><defs/><g><text fill="#000000" font-family="sans-serif" font-size="14" font-weight="bold" lengthAdjust="spacing" textLength="240" x="256.75" y="27.9951">UserOperations mempool flow</text><rect fill="none" height="169.9297" style="stroke:#000000;stroke-width:1.5;" width="734.5" x="10" y="135.5938"/><rect fill="none" height="169.9297" style="stroke:#000000;stroke-width:1.5;" width="686.5" x="58" y="319.5234"/><rect fill="none" height="304.7266" style="stroke:#000000;stroke-width:1.5;" width="538" x="206.5" y="503.4531"/><rect fill="none" height="76.5313" style="stroke:#000000;stroke-width:1.5;" width="384" x="216.5" y="585.8516"/><line style="stroke:#181818;stroke-width:0.5;stroke-dasharray:5.0,5.0;" x1="39" x2="39" y1="118.5938" y2="825.1797"/><line style="stroke:#181818;stroke-width:0.5;stroke-dasharray:5.0,5.0;" x1="85" x2="85" y1="118.5938" y2="825.1797"/><line style="stroke:#181818;stroke-width:0.5;stroke-dasharray:5.0,5.0;" x1="276.5" x2="276.5" y1="118.5938" y2="825.1797"/><line style="stroke:#181818;stroke-width:0.5;stroke-dasharray:5.0,5.0;" x1="532.5" x2="532.5" y1="118.5938" y2="825.1797"/><line style="stroke:#181818;stroke-width:0.5;stroke-dasharray:5.0,5.0;" x1="667.5" x2="667.5" y1="118.5938" y2="825.1797"/><text fill="#000000" font-family="sans-serif" font-size="14" lengthAdjust="spacing" textLength="32" x="20" y="115.292">Alice</text><ellipse cx="39" cy="50.7969" fill="#E2E2F0" rx="8" ry="8" style="stroke:#181818;stroke-width:0.5;"/><path d="M39,58.7969 L39,85.7969 M26,66.7969 L52,66.7969 M39,85.7969 L26,100.7969 M39,85.7969 L52,100.7969 " fill="none" style="stroke:#181818;stroke-width:0.5;"/><text fill="#000000" font-family="sans-serif" font-size="14" lengthAdjust="spacing" textLength="32" x="20" y="837.1748">Alice</text><ellipse cx="39" cy="848.9766" fill="#E2E2F0" rx="8" ry="8" style="stroke:#181818;stroke-width:0.5;"/><path d="M39,856.9766 L39,883.9766 M26,864.9766 L52,864.9766 M39,883.9766 L26,898.9766 M39,883.9766 L52,898.9766 " fill="none" style="stroke:#181818;stroke-width:0.5;"/><text fill="#000000" font-family="sans-serif" font-size="14" lengthAdjust="spacing" textLength="28" x="68" y="115.292">Bob</text><ellipse cx="85" cy="50.7969" fill="#E2E2F0" rx="8" ry="8" style="stroke:#181818;stroke-width:0.5;"/><path d="M85,58.7969 L85,85.7969 M72,66.7969 L98,66.7969 M85,85.7969 L72,100.7969 M85,85.7969 L98,100.7969 " fill="none" style="stroke:#181818;stroke-width:0.5;"/><text fill="#000000" font-family="sans-serif" font-size="14" lengthAdjust="spacing" textLength="28" x="68" y="837.1748">Bob</text><ellipse cx="85" cy="848.9766" fill="#E2E2F0" rx="8" ry="8" style="stroke:#181818;stroke-width:0.5;"/><path d="M85,856.9766 L85,883.9766 M72,864.9766 L98,864.9766 M85,883.9766 L72,898.9766 M85,883.9766 L98,898.9766 " fill="none" style="stroke:#181818;stroke-width:0.5;"/><rect fill="#E2E2F0" height="30.2969" rx="2.5" ry="2.5" style="stroke:#181818;stroke-width:0.5;" width="101" x="226.5" y="87.2969"/><text fill="#000000" font-family="sans-serif" font-size="14" lengthAdjust="spacing" textLength="87" x="233.5" y="107.292">Bundler RPC</text><rect fill="#E2E2F0" height="30.2969" rx="2.5" ry="2.5" style="stroke:#181818;stroke-width:0.5;" width="101" x="226.5" y="824.1797"/><text fill="#000000" font-family="sans-serif" font-size="14" lengthAdjust="spacing" textLength="87" x="233.5" y="844.1748">Bundler RPC</text><rect fill="#E2E2F0" height="30.2969" rx="2.5" ry="2.5" style="stroke:#181818;stroke-width:0.5;" width="115" x="475.5" y="87.2969"/><text fill="#000000" font-family="sans-serif" font-size="14" lengthAdjust="spacing" textLength="101" x="482.5" y="107.292">Ethereum RPC</text><rect fill="#E2E2F0" height="30.2969" rx="2.5" ry="2.5" style="stroke:#181818;stroke-width:0.5;" width="115" x="475.5" y="824.1797"/><text fill="#000000" font-family="sans-serif" font-size="14" lengthAdjust="spacing" textLength="101" x="482.5" y="844.1748">Ethereum RPC</text><rect fill="#E2E2F0" height="30.2969" rx="2.5" ry="2.5" style="stroke:#181818;stroke-width:0.5;" width="134" x="600.5" y="87.2969"/><text fill="#000000" font-family="sans-serif" font-size="14" lengthAdjust="spacing" textLength="120" x="607.5" y="107.292">UserOp Mempool</text><rect fill="#E2E2F0" height="30.2969" rx="2.5" ry="2.5" style="stroke:#181818;stroke-width:0.5;" width="134" x="600.5" y="824.1797"/><text fill="#000000" font-family="sans-serif" font-size="14" lengthAdjust="spacing" textLength="120" x="607.5" y="844.1748">UserOp Mempool</text><path d="M10,135.5938 L214,135.5938 L214,142.7266 L204,152.7266 L10,152.7266 L10,135.5938 " fill="#EEEEEE" style="stroke:#000000;stroke-width:1.5;"/><rect fill="none" height="169.9297" style="stroke:#000000;stroke-width:1.5;" width="734.5" x="10" y="135.5938"/><text fill="#000000" font-family="sans-serif" font-size="13" font-weight="bold" lengthAdjust="spacing" textLength="159" x="25" y="148.6606">Alice Submits UserOp</text><path d="M44,157.7266 L44,182.7266 L158,182.7266 L158,167.7266 L148,157.7266 L44,157.7266 " fill="#FEFFDD" style="stroke:#181818;stroke-width:0.5;"/><path d="M148,157.7266 L148,167.7266 L158,167.7266 L148,157.7266 " fill="#FEFFDD" style="stroke:#181818;stroke-width:0.5;"/><text fill="#000000" font-family="sans-serif" font-size="13" lengthAdjust="spacing" textLength="93" x="50" y="174.7935">create UserOp</text><polygon fill="#181818" points="265,204.9922,275,208.9922,265,212.9922,269,208.9922" style="stroke:#181818;stroke-width:1.0;"/><line style="stroke:#181818;stroke-width:1.0;" x1="39" x2="271" y1="208.9922" y2="208.9922"/><text fill="#000000" font-family="monospace" font-size="13" lengthAdjust="spacing" textLength="168" x="46" y="203.9263">eth_sendUserOperation</text><polygon fill="#181818" points="521,264.3906,531,268.3906,521,272.3906,525,268.3906" style="stroke:#181818;stroke-width:1.0;"/><line style="stroke:#181818;stroke-width:1.0;" x1="277" x2="527" y1="268.3906" y2="268.3906"/><text fill="#000000" font-family="sans-serif" font-size="13" lengthAdjust="spacing" textLength="94" x="284" y="233.0591">First Validation</text><text fill="#000000" font-family="sans-serif" font-size="13" lengthAdjust="spacing" textLength="110" x="284" y="248.1919">trace view call to:</text><text fill="#000000" font-family="monospace" font-size="13" lengthAdjust="spacing" textLength="152" x="284" y="263.3247">handleOps([userOpA]</text><text fill="#000000" font-family="sans-serif" font-size="13" lengthAdjust="spacing" textLength="5" x="436" y="263.3247">)</text><polygon fill="#181818" points="655.5,293.5234,665.5,297.5234,655.5,301.5234,659.5,297.5234" style="stroke:#181818;stroke-width:1.0;"/><line style="stroke:#181818;stroke-width:1.0;" x1="277" x2="661.5" y1="297.5234" y2="297.5234"/><text fill="#000000" font-family="sans-serif" font-size="13" lengthAdjust="spacing" textLength="24" x="284" y="292.4575">add</text><text fill="#000000" font-family="monospace" font-size="13" lengthAdjust="spacing" textLength="48" x="312" y="292.4575">UserOp</text><text fill="#000000" font-family="sans-serif" font-size="13" lengthAdjust="spacing" textLength="78" x="364" y="292.4575">to mempool</text><path d="M58,319.5234 L256,319.5234 L256,326.6563 L246,336.6563 L58,336.6563 L58,319.5234 " fill="#EEEEEE" style="stroke:#000000;stroke-width:1.5;"/><rect fill="none" height="169.9297" style="stroke:#000000;stroke-width:1.5;" width="686.5" x="58" y="319.5234"/><text fill="#000000" font-family="sans-serif" font-size="13" font-weight="bold" lengthAdjust="spacing" textLength="153" x="73" y="332.5903">Bob Submits UserOp</text><path d="M90,341.6563 L90,366.6563 L204,366.6563 L204,351.6563 L194,341.6563 L90,341.6563 " fill="#FEFFDD" style="stroke:#181818;stroke-width:0.5;"/><path d="M194,341.6563 L194,351.6563 L204,351.6563 L194,341.6563 " fill="#FEFFDD" style="stroke:#181818;stroke-width:0.5;"/><text fill="#000000" font-family="sans-serif" font-size="13" lengthAdjust="spacing" textLength="93" x="96" y="358.7231">create UserOp</text><polygon fill="#181818" points="265,388.9219,275,392.9219,265,396.9219,269,392.9219" style="stroke:#181818;stroke-width:1.0;"/><line style="stroke:#181818;stroke-width:1.0;" x1="85" x2="271" y1="392.9219" y2="392.9219"/><text fill="#000000" font-family="monospace" font-size="13" lengthAdjust="spacing" textLength="168" x="92" y="387.856">eth_sendUserOperation</text><polygon fill="#181818" points="521,448.3203,531,452.3203,521,456.3203,525,452.3203" style="stroke:#181818;stroke-width:1.0;"/><line style="stroke:#181818;stroke-width:1.0;" x1="277" x2="527" y1="452.3203" y2="452.3203"/><text fill="#000000" font-family="sans-serif" font-size="13" lengthAdjust="spacing" textLength="94" x="284" y="416.9888">First Validation</text><text fill="#000000" font-family="sans-serif" font-size="13" lengthAdjust="spacing" textLength="106" x="284" y="432.1216">trace view call to</text><text fill="#000000" font-family="monospace" font-size="13" lengthAdjust="spacing" textLength="152" x="284" y="447.2544">handleOps([userOpB]</text><text fill="#000000" font-family="sans-serif" font-size="13" lengthAdjust="spacing" textLength="5" x="436" y="447.2544">)</text><polygon fill="#181818" points="655.5,477.4531,665.5,481.4531,655.5,485.4531,659.5,481.4531" style="stroke:#181818;stroke-width:1.0;"/><line style="stroke:#181818;stroke-width:1.0;" x1="277" x2="661.5" y1="481.4531" y2="481.4531"/><text fill="#000000" font-family="sans-serif" font-size="13" lengthAdjust="spacing" textLength="24" x="284" y="476.3872">add</text><text fill="#000000" font-family="monospace" font-size="13" lengthAdjust="spacing" textLength="48" x="312" y="476.3872">UserOp</text><text fill="#000000" font-family="sans-serif" font-size="13" lengthAdjust="spacing" textLength="78" x="364" y="476.3872">to mempool</text><path d="M206.5,503.4531 L344.5,503.4531 L344.5,510.5859 L334.5,520.5859 L206.5,520.5859 L206.5,503.4531 " fill="#EEEEEE" style="stroke:#000000;stroke-width:1.5;"/><rect fill="none" height="304.7266" style="stroke:#000000;stroke-width:1.5;" width="538" x="206.5" y="503.4531"/><text fill="#000000" font-family="sans-serif" font-size="13" font-weight="bold" lengthAdjust="spacing" textLength="93" x="221.5" y="516.52">Build Bundle</text><polygon fill="#181818" points="655.5,537.7188,665.5,541.7188,655.5,545.7188,659.5,541.7188" style="stroke:#181818;stroke-width:1.0;"/><line style="stroke:#181818;stroke-width:1.0;" x1="277" x2="661.5" y1="541.7188" y2="541.7188"/><text fill="#000000" font-family="sans-serif" font-size="13" lengthAdjust="spacing" textLength="87" x="284" y="536.6528">fetch pending</text><text fill="#000000" font-family="monospace" font-size="13" lengthAdjust="spacing" textLength="56" x="375" y="536.6528">UserOps</text><polygon fill="#181818" points="288,566.8516,278,570.8516,288,574.8516,284,570.8516" style="stroke:#181818;stroke-width:1.0;"/><line style="stroke:#181818;stroke-width:1.0;" x1="282" x2="666.5" y1="570.8516" y2="570.8516"/><text fill="#000000" font-family="monospace" font-size="13" lengthAdjust="spacing" textLength="144" x="294" y="565.7856">[UserOpA,&#160;UserOpB]</text><path d="M216.5,585.8516 L293.5,585.8516 L293.5,592.9844 L283.5,602.9844 L216.5,602.9844 L216.5,585.8516 " fill="#EEEEEE" style="stroke:#000000;stroke-width:1.5;"/><rect fill="none" height="76.5313" style="stroke:#000000;stroke-width:1.5;" width="384" x="216.5" y="585.8516"/><text fill="#000000" font-family="sans-serif" font-size="13" font-weight="bold" lengthAdjust="spacing" textLength="32" x="231.5" y="598.9185">loop</text><text fill="#000000" font-family="sans-serif" font-size="11" font-weight="bold" lengthAdjust="spacing" textLength="114" x="308.5" y="598.062">[for each UserOp]</text><polygon fill="#181818" points="521,650.3828,531,654.3828,521,658.3828,525,654.3828" style="stroke:#181818;stroke-width:1.0;"/><line style="stroke:#181818;stroke-width:1.0;" x1="277" x2="527" y1="654.3828" y2="654.3828"/><text fill="#000000" font-family="sans-serif" font-size="13" lengthAdjust="spacing" textLength="115" x="284" y="619.0513">Second Validation</text><text fill="#000000" font-family="sans-serif" font-size="13" lengthAdjust="spacing" textLength="110" x="284" y="634.1841">trace view call to:</text><text fill="#000000" font-family="monospace" font-size="13" lengthAdjust="spacing" textLength="152" x="284" y="649.3169">handleOps([userOp])</text><path d="M282,674.3828 L282,699.3828 L539,699.3828 L539,684.3828 L529,674.3828 L282,674.3828 " fill="#FEFFDD" style="stroke:#181818;stroke-width:0.5;"/><path d="M529,674.3828 L529,684.3828 L539,684.3828 L529,674.3828 " fill="#FEFFDD" style="stroke:#181818;stroke-width:0.5;"/><text fill="#000000" font-family="sans-serif" font-size="13" lengthAdjust="spacing" textLength="88" x="288" y="691.4497">create bundle</text><text fill="#000000" font-family="monospace" font-size="13" lengthAdjust="spacing" textLength="144" x="380" y="691.4497">[UserOpA,&#160;UserOpB]</text><polygon fill="#181818" points="521,751.9141,531,755.9141,521,759.9141,525,755.9141" style="stroke:#181818;stroke-width:1.0;"/><line style="stroke:#181818;stroke-width:1.0;" x1="277" x2="527" y1="755.9141" y2="755.9141"/><text fill="#000000" font-family="sans-serif" font-size="13" lengthAdjust="spacing" textLength="98" x="284" y="720.5825">Third Validation</text><text fill="#000000" font-family="sans-serif" font-size="13" lengthAdjust="spacing" textLength="110" x="284" y="735.7153">trace view call to:</text><text fill="#000000" font-family="monospace" font-size="13" lengthAdjust="spacing" textLength="232" x="284" y="750.8481">handleOps([UserOpA,&#160;UserOpB])</text><polygon fill="#181818" points="521,796.1797,531,800.1797,521,804.1797,525,800.1797" style="stroke:#181818;stroke-width:1.0;"/><line style="stroke:#181818;stroke-width:1.0;" x1="277" x2="527" y1="800.1797" y2="800.1797"/><text fill="#000000" font-family="sans-serif" font-size="13" lengthAdjust="spacing" textLength="120" x="284" y="779.981">submit transaction</text><text fill="#000000" font-family="monospace" font-size="13" lengthAdjust="spacing" textLength="232" x="284" y="795.1138">handleOps([UserOpA,&#160;UserOpB])</text><!--SRC=[lPJ1JiCm38RlUGeh9oR12_I0j26ueI46NBO9PQsxHagJA77Pw-Ec7LAxQGM4oAMLO_l__SajQJ88hn73qcDGf9sDK6FjdJDG6dSGGkNa0ioDph5_NxYTy2gGphLNba0k6biO3F3yT2U7D_TKOS2cFdFLYS9Z9oQ5s0VN-4u8LiskrXHxPy8wGWXwNn6uial980-ew6XUfE3DxS1B1b8YLUyHRJ6OKKenIEIwWTCC7dI816_Aw29LR2m5nSO-D1uWLyO0kMp3ZIhLjbdwUBLkaiHyA-NifFresWnKKR2xBYmbTpjY5sps28D9NqR12MCG7FfV36SfBFwIGgDD0Lqh0NmcsvP8UGMUUsYx_nA8F6yg7-MVmRNkKkRNFTLsd5HhdFDGyaU0YXLwvD2V2PWhp9qjVhLKsrclts9fdyCr6Fdl5sANWfUccJ3yKkdmKxydKhFlQSMqvi02Dl9l9gbDDsOSdm00]--></g></svg>