<svg xmlns="http://www.w3.org/2000/svg" xmlns:xlink="http://www.w3.org/1999/xlink" contentStyleType="text/css" height="787px" preserveAspectRatio="none" style="width:601px;height:787px;background:#FFFFFF;" version="1.1" viewBox="0 0 601 787" width="601px" zoomAndPan="magnify"><defs/><g><rect fill="#FFD700" height="703.7266" style="stroke:#181818;stroke-width:1.0;" width="10" x="225" y="67.4297"/><rect fill="#0000FF" height="29.1328" style="stroke:#181818;stroke-width:1.0;" width="10" x="443" y="145.6953"/><rect fill="#0000FF" height="30" style="stroke:#181818;stroke-width:1.0;" width="10" x="443" y="502.625"/><rect fill="#008000" height="29.1328" style="stroke:#181818;stroke-width:1.0;" width="10" x="537.5" y="296.0938"/><rect fill="#008000" height="30" style="stroke:#181818;stroke-width:1.0;" width="10" x="537.5" y="628.8906"/><rect fill="none" height="342.9297" style="stroke:#000000;stroke-width:1.5;" width="417" x="178" y="82.4297"/><rect fill="none" height="294.6641" style="stroke:#000000;stroke-width:1.5;" width="417" x="178" y="439.3594"/><line style="stroke:#181818;stroke-width:0.5;stroke-dasharray:5.0,5.0;" x1="230" x2="230" y1="36.2969" y2="780.1563"/><line style="stroke:#181818;stroke-width:0.5;stroke-dasharray:5.0,5.0;" x1="448" x2="448" y1="36.2969" y2="780.1563"/><line style="stroke:#181818;stroke-width:0.5;stroke-dasharray:5.0,5.0;" x1="542" x2="542" y1="36.2969" y2="780.1563"/><rect fill="#E2E2F0" height="30.2969" rx="2.5" ry="2.5" style="stroke:#181818;stroke-width:0.5;" width="84" x="188" y="5"/><text fill="#000000" font-family="sans-serif" font-size="14" lengthAdjust="spacing" textLength="70" x="195" y="24.9951">EntryPoint</text><rect fill="#E2E2F0" height="30.2969" rx="2.5" ry="2.5" style="stroke:#181818;stroke-width:0.5;" width="84" x="406" y="5"/><text fill="#000000" font-family="sans-serif" font-size="14" lengthAdjust="spacing" textLength="70" x="413" y="24.9951">Account A</text><rect fill="#E2E2F0" height="30.2969" rx="2.5" ry="2.5" style="stroke:#181818;stroke-width:0.5;" width="85" x="500" y="5"/><text fill="#000000" font-family="sans-serif" font-size="14" lengthAdjust="spacing" textLength="71" x="507" y="24.9951">Account B</text><rect fill="#FFD700" height="703.7266" style="stroke:#181818;stroke-width:1.0;" width="10" x="225" y="67.4297"/><rect fill="#0000FF" height="29.1328" style="stroke:#181818;stroke-width:1.0;" width="10" x="443" y="145.6953"/><rect fill="#0000FF" height="30" style="stroke:#181818;stroke-width:1.0;" width="10" x="443" y="502.625"/><rect fill="#008000" height="29.1328" style="stroke:#181818;stroke-width:1.0;" width="10" x="537.5" y="296.0938"/><rect fill="#008000" height="30" style="stroke:#181818;stroke-width:1.0;" width="10" x="537.5" y="628.8906"/><polygon fill="#181818" points="213,63.4297,223,67.4297,213,71.4297,217,67.4297" style="stroke:#181818;stroke-width:1.0;"/><line style="stroke:#181818;stroke-width:1.0;" x1="0" x2="219" y1="67.4297" y2="67.4297"/><text fill="#000000" font-family="sans-serif" font-size="13" font-weight="bold" lengthAdjust="spacing" textLength="9" x="7" y="62.3638">1</text><text fill="#000000" font-family="monospace" font-size="13" lengthAdjust="spacing" textLength="160" x="20" y="62.3638">handleOps(userOps[])</text><text fill="#000000" font-family="sans-serif" font-size="13" lengthAdjust="spacing" textLength="4" x="180" y="62.3638">:</text><path d="M178,82.4297 L305,82.4297 L305,89.5625 L295,99.5625 L178,99.5625 L178,82.4297 " fill="#EEEEEE" style="stroke:#000000;stroke-width:1.5;"/><rect fill="none" height="342.9297" style="stroke:#000000;stroke-width:1.5;" width="417" x="178" y="82.4297"/><text fill="#000000" font-family="sans-serif" font-size="13" font-weight="bold" lengthAdjust="spacing" textLength="82" x="193" y="95.4966">Validations</text><polygon fill="#181818" points="431,141.6953,441,145.6953,431,149.6953,435,145.6953" style="stroke:#181818;stroke-width:1.0;"/><line style="stroke:#181818;stroke-width:1.0;" x1="235" x2="437" y1="145.6953" y2="145.6953"/><text fill="#000000" font-family="sans-serif" font-size="13" font-weight="bold" lengthAdjust="spacing" textLength="9" x="242" y="140.6294">2</text><text fill="#0000FF" font-family="sans-serif" font-size="13" lengthAdjust="spacing" textLength="4" x="255" y="140.6294">&#160;</text><text fill="#0000FF" font-family="monospace" font-size="13" lengthAdjust="spacing" textLength="112" x="259" y="140.6294">validateUserOp</text><polygon fill="#181818" points="246,170.8281,236,174.8281,246,178.8281,242,174.8281" style="stroke:#181818;stroke-width:1.0;"/><line style="stroke:#181818;stroke-width:1.0;stroke-dasharray:2.0,2.0;" x1="240" x2="447" y1="174.8281" y2="174.8281"/><text fill="#000000" font-family="sans-serif" font-size="13" font-weight="bold" lengthAdjust="spacing" textLength="9" x="252" y="169.7622">3</text><text fill="#000000" font-family="monospace" font-size="13" lengthAdjust="spacing" textLength="56" x="265" y="169.7622">deposit</text><line style="stroke:#181818;stroke-width:1.0;" x1="235" x2="277" y1="228.9609" y2="228.9609"/><line style="stroke:#181818;stroke-width:1.0;" x1="277" x2="277" y1="228.9609" y2="241.9609"/><line style="stroke:#181818;stroke-width:1.0;" x1="236" x2="277" y1="241.9609" y2="241.9609"/><polygon fill="#181818" points="246,237.9609,236,241.9609,246,245.9609,242,241.9609" style="stroke:#181818;stroke-width:1.0;"/><text fill="#000000" font-family="sans-serif" font-size="13" font-weight="bold" lengthAdjust="spacing" textLength="9" x="242" y="223.895">4</text><text fill="#000000" font-family="sans-serif" font-size="13" lengthAdjust="spacing" textLength="44" x="255" y="223.895">deduct</text><text fill="#000000" font-family="monospace" font-size="13" lengthAdjust="spacing" textLength="72" x="303" y="223.895">Account_A</text><text fill="#000000" font-family="sans-serif" font-size="13" lengthAdjust="spacing" textLength="47" x="379" y="223.895">deposit</text><polygon fill="#181818" points="525.5,292.0938,535.5,296.0938,525.5,300.0938,529.5,296.0938" style="stroke:#181818;stroke-width:1.0;"/><line style="stroke:#181818;stroke-width:1.0;" x1="235" x2="531.5" y1="296.0938" y2="296.0938"/><text fill="#000000" font-family="sans-serif" font-size="13" font-weight="bold" lengthAdjust="spacing" textLength="9" x="242" y="291.0278">5</text><text fill="#008000" font-family="sans-serif" font-size="13" lengthAdjust="spacing" textLength="4" x="255" y="291.0278">&#160;</text><text fill="#008000" font-family="monospace" font-size="13" lengthAdjust="spacing" textLength="112" x="259" y="291.0278">validateUserOp</text><polygon fill="#181818" points="246,321.2266,236,325.2266,246,329.2266,242,325.2266" style="stroke:#181818;stroke-width:1.0;"/><line style="stroke:#181818;stroke-width:1.0;stroke-dasharray:2.0,2.0;" x1="240" x2="541.5" y1="325.2266" y2="325.2266"/><text fill="#000000" font-family="sans-serif" font-size="13" font-weight="bold" lengthAdjust="spacing" textLength="9" x="252" y="320.1606">6</text><text fill="#000000" font-family="monospace" font-size="13" lengthAdjust="spacing" textLength="56" x="265" y="320.1606">deposit</text><line style="stroke:#181818;stroke-width:1.0;" x1="235" x2="277" y1="379.3594" y2="379.3594"/><line style="stroke:#181818;stroke-width:1.0;" x1="277" x2="277" y1="379.3594" y2="392.3594"/><line style="stroke:#181818;stroke-width:1.0;" x1="236" x2="277" y1="392.3594" y2="392.3594"/><polygon fill="#181818" points="246,388.3594,236,392.3594,246,396.3594,242,392.3594" style="stroke:#181818;stroke-width:1.0;"/><text fill="#000000" font-family="sans-serif" font-size="13" font-weight="bold" lengthAdjust="spacing" textLength="9" x="242" y="374.2935">7</text><text fill="#000000" font-family="sans-serif" font-size="13" lengthAdjust="spacing" textLength="44" x="255" y="374.2935">deduct</text><text fill="#000000" font-family="monospace" font-size="13" lengthAdjust="spacing" textLength="72" x="303" y="374.2935">Account_B</text><text fill="#000000" font-family="sans-serif" font-size="13" lengthAdjust="spacing" textLength="47" x="379" y="374.2935">deposit</text><path d="M178,439.3594 L302,439.3594 L302,446.4922 L292,456.4922 L178,456.4922 L178,439.3594 " fill="#EEEEEE" style="stroke:#000000;stroke-width:1.5;"/><rect fill="none" height="294.6641" style="stroke:#000000;stroke-width:1.5;" width="417" x="178" y="439.3594"/><text fill="#000000" font-family="sans-serif" font-size="13" font-weight="bold" lengthAdjust="spacing" textLength="79" x="193" y="452.4263">Executions</text><polygon fill="#181818" points="431,498.625,441,502.625,431,506.625,435,502.625" style="stroke:#181818;stroke-width:1.0;"/><line style="stroke:#181818;stroke-width:1.0;" x1="235" x2="437" y1="502.625" y2="502.625"/><text fill="#000000" font-family="sans-serif" font-size="13" font-weight="bold" lengthAdjust="spacing" textLength="9" x="242" y="497.5591">8</text><text fill="#0000FF" font-family="sans-serif" font-size="13" lengthAdjust="spacing" textLength="4" x="255" y="497.5591">&#160;</text><text fill="#0000FF" font-family="monospace" font-size="13" lengthAdjust="spacing" textLength="104" x="259" y="497.5591">executeUserOp</text><line style="stroke:#181818;stroke-width:1.0;" x1="235" x2="277" y1="561.7578" y2="561.7578"/><line style="stroke:#181818;stroke-width:1.0;" x1="277" x2="277" y1="561.7578" y2="574.7578"/><line style="stroke:#181818;stroke-width:1.0;" x1="236" x2="277" y1="574.7578" y2="574.7578"/><polygon fill="#181818" points="246,570.7578,236,574.7578,246,578.7578,242,574.7578" style="stroke:#181818;stroke-width:1.0;"/><text fill="#000000" font-family="sans-serif" font-size="13" font-weight="bold" lengthAdjust="spacing" textLength="9" x="242" y="556.6919">9</text><text fill="#000000" font-family="sans-serif" font-size="13" lengthAdjust="spacing" textLength="41" x="255" y="556.6919">refund</text><text fill="#000000" font-family="monospace" font-size="13" lengthAdjust="spacing" textLength="72" x="300" y="556.6919">Account_A</text><polygon fill="#181818" points="525.5,624.8906,535.5,628.8906,525.5,632.8906,529.5,628.8906" style="stroke:#181818;stroke-width:1.0;"/><line style="stroke:#181818;stroke-width:1.0;" x1="235" x2="531.5" y1="628.8906" y2="628.8906"/><text fill="#000000" font-family="sans-serif" font-size="13" font-weight="bold" lengthAdjust="spacing" textLength="18" x="242" y="623.8247">10</text><text fill="#008000" font-family="sans-serif" font-size="13" lengthAdjust="spacing" textLength="4" x="264" y="623.8247">&#160;</text><text fill="#008000" font-family="monospace" font-size="13" lengthAdjust="spacing" textLength="104" x="268" y="623.8247">executeUserOp</text><line style="stroke:#181818;stroke-width:1.0;" x1="235" x2="277" y1="688.0234" y2="688.0234"/><line style="stroke:#181818;stroke-width:1.0;" x1="277" x2="277" y1="688.0234" y2="701.0234"/><line style="stroke:#181818;stroke-width:1.0;" x1="236" x2="277" y1="701.0234" y2="701.0234"/><polygon fill="#181818" points="246,697.0234,236,701.0234,246,705.0234,242,701.0234" style="stroke:#181818;stroke-width:1.0;"/><text fill="#000000" font-family="sans-serif" font-size="13" font-weight="bold" lengthAdjust="spacing" textLength="18" x="242" y="682.9575">11</text><text fill="#000000" font-family="sans-serif" font-size="13" lengthAdjust="spacing" textLength="41" x="264" y="682.9575">refund</text><text fill="#000000" font-family="monospace" font-size="13" lengthAdjust="spacing" textLength="72" x="309" y="682.9575">Account_B</text><polygon fill="#181818" points="11,758.1563,1,762.1563,11,766.1563,7,762.1563" style="stroke:#181818;stroke-width:1.0;"/><line style="stroke:#181818;stroke-width:1.0;stroke-dasharray:2.0,2.0;" x1="5" x2="224" y1="762.1563" y2="762.1563"/><text fill="#000000" font-family="sans-serif" font-size="13" font-weight="bold" lengthAdjust="spacing" textLength="18" x="17" y="757.0903">12</text><text fill="#000000" font-family="monospace" font-size="13" lengthAdjust="spacing" textLength="184" x="39" y="757.0903">compensate(beneficiary)</text><!--SRC=[hLBBQiCm4BphAuHwIGc- -6XQWmCvjvVsOagHfNKYSBH2Zv20Fxvhnsxhq59QUfAqEvePZLQcY3OT6l3CIH-DCaxQoCNMHdz-H6EZu39mSCjsfHGcsbHZLrvENqCsdo4vgxCIt7hDRtROwO8BiPTMT_3WmYe5yBJMBxT256pdCJd-B3kZPJHe0-lxde7Boebh86cw10M_Qv6457RexuTAIRJ7oqLu6ac5O1vYyfOw6Xm64waq4u8hk0QT5DcUVRzMGl09UgsSZ_uzW5rgZwL_4TzSYrlDfaIs9r3f3u70UE_3aWQfeZcIo_V_c-ruQ9FLoon-dS7FUldtWfjPaDvDeAoiXr5HU71W0r6i6h3Gqgn9VwPfONkZWRU8iS7J6m00]--></g></svg>