<svg xmlns="http://www.w3.org/2000/svg" xmlns:xlink="http://www.w3.org/1999/xlink" width="628" height="504" contentStyleType="text/css" preserveAspectRatio="none" style="width:628px;height:504px;background:#fff" version="1.1" viewBox="0 0 628 504" zoomAndPan="magnify"><g><rect width="10" height="421.195" x="191" fill="gold" style="stroke:#181818;stroke-width:1" y="67.43"/><rect width="10" height="30" x="396" fill="#00F" style="stroke:#181818;stroke-width:1" y="120.695"/><rect width="10" height="30" x="396" fill="#00F" style="stroke:#181818;stroke-width:1" y="312.227"/><rect width="10" height="30" x="484.5" fill="gray" style="stroke:#181818;stroke-width:1" y="179.828"/><rect width="10" height="30" x="484.5" fill="gray" style="stroke:#181818;stroke-width:1" y="371.359"/><rect width="398.5" height="177.531" x="144" fill="none" style="stroke:#000;stroke-width:1.5" y="82.43"/><rect width="398.5" height="177.531" x="144" fill="none" style="stroke:#000;stroke-width:1.5" y="273.961"/><line style="stroke:#181818;stroke-width:.5;stroke-dasharray:5,5" x1="196" x2="196" y1="36.297" y2="497.625"/><line style="stroke:#181818;stroke-width:.5;stroke-dasharray:5,5" x1="400.5" x2="400.5" y1="36.297" y2="497.625"/><line style="stroke:#181818;stroke-width:.5;stroke-dasharray:5,5" x1="489.5" x2="489.5" y1="36.297" y2="497.625"/><line style="stroke:#181818;stroke-width:.5;stroke-dasharray:5,5" x1="582.5" x2="582.5" y1="36.297" y2="497.625"/><rect width="84" height="30.297" x="154" y="5" fill="#E2E2F0" rx="2.5" ry="2.5" style="stroke:#181818;stroke-width:.5"/><text x="161" y="24.995" fill="#000" font-family="sans-serif" font-size="14" lengthAdjust="spacing" textLength="70">EntryPoint</text><rect width="71" height="30.297" x="365.5" y="5" fill="#E2E2F0" rx="2.5" ry="2.5" style="stroke:#181818;stroke-width:.5"/><text x="372.5" y="24.995" fill="#000" font-family="sans-serif" font-size="14" lengthAdjust="spacing" textLength="57">Account</text><rect width="86" height="30.297" x="446.5" y="5" fill="#E2E2F0" rx="2.5" ry="2.5" style="stroke:#181818;stroke-width:.5"/><text x="453.5" y="24.995" fill="#000" font-family="sans-serif" font-size="14" lengthAdjust="spacing" textLength="72">Paymaster</text><rect width="80" height="30.297" x="542.5" y="5" fill="#E2E2F0" rx="2.5" ry="2.5" style="stroke:#181818;stroke-width:.5"/><text x="549.5" y="24.995" fill="#000" font-family="sans-serif" font-size="14" lengthAdjust="spacing" textLength="66">Account2</text><rect width="10" height="421.195" x="191" fill="gold" style="stroke:#181818;stroke-width:1" y="67.43"/><rect width="10" height="30" x="396" fill="#00F" style="stroke:#181818;stroke-width:1" y="120.695"/><rect width="10" height="30" x="396" fill="#00F" style="stroke:#181818;stroke-width:1" y="312.227"/><rect width="10" height="30" x="484.5" fill="gray" style="stroke:#181818;stroke-width:1" y="179.828"/><rect width="10" height="30" x="484.5" fill="gray" style="stroke:#181818;stroke-width:1" y="371.359"/><polygon fill="#181818" points="179 63.43 189 67.43 179 71.43 183 67.43" style="stroke:#181818;stroke-width:1"/><line style="stroke:#181818;stroke-width:1" x1="0" x2="185" y1="67.43" y2="67.43"/><text x="7" y="62.364" fill="#000" font-family="sans-serif" font-size="13" font-weight="bold" lengthAdjust="spacing" textLength="9">1</text><text x="20" y="62.364" fill="#000" font-family="sans-serif" font-size="13" lengthAdjust="spacing" textLength="145">handleOps(userOps[]):</text><path fill="#EEE" d="M144,82.4297 L263,82.4297 L263,89.5625 L253,99.5625 L144,99.5625 L144,82.4297" style="stroke:#000;stroke-width:1.5"/><rect width="398.5" height="177.531" x="144" fill="none" style="stroke:#000;stroke-width:1.5" y="82.43"/><text x="159" y="95.497" fill="#000" font-family="sans-serif" font-size="13" font-weight="bold" lengthAdjust="spacing" textLength="74">Validation</text><polygon fill="#181818" points="384 116.695 394 120.695 384 124.695 388 120.695" style="stroke:#181818;stroke-width:1"/><line style="stroke:#181818;stroke-width:1" x1="201" x2="390" y1="120.695" y2="120.695"/><text x="208" y="115.629" fill="#000" font-family="sans-serif" font-size="13" font-weight="bold" lengthAdjust="spacing" textLength="9">2</text><text x="225" y="115.629" fill="#00F" font-family="sans-serif" font-size="13" lengthAdjust="spacing" textLength="98">validateUserOp</text><polygon fill="#181818" points="472.5 175.828 482.5 179.828 472.5 183.828 476.5 179.828" style="stroke:#181818;stroke-width:1"/><line style="stroke:#181818;stroke-width:1" x1="201" x2="478.5" y1="179.828" y2="179.828"/><text x="208" y="174.762" fill="#000" font-family="sans-serif" font-size="13" font-weight="bold" lengthAdjust="spacing" textLength="9">3</text><text x="221" y="174.762" fill="#000" font-family="sans-serif" font-size="13" lengthAdjust="spacing" textLength="167">validatePaymasterUserOp</text><line style="stroke:#181818;stroke-width:1" x1="201" x2="243" y1="238.961" y2="238.961"/><line style="stroke:#181818;stroke-width:1" x1="243" x2="243" y1="238.961" y2="251.961"/><line style="stroke:#181818;stroke-width:1" x1="202" x2="243" y1="251.961" y2="251.961"/><polygon fill="#181818" points="212 247.961 202 251.961 212 255.961 208 251.961" style="stroke:#181818;stroke-width:1"/><text x="208" y="233.895" fill="#000" font-family="sans-serif" font-size="13" font-weight="bold" lengthAdjust="spacing" textLength="9">4</text><text x="221" y="233.895" fill="#000" font-family="sans-serif" font-size="13" lengthAdjust="spacing" textLength="168">deduct paymaster deposit</text><path fill="#EEE" d="M144,273.9609 L260,273.9609 L260,281.0938 L250,291.0938 L144,291.0938 L144,273.9609" style="stroke:#000;stroke-width:1.5"/><rect width="398.5" height="177.531" x="144" fill="none" style="stroke:#000;stroke-width:1.5" y="273.961"/><text x="159" y="287.028" fill="#000" font-family="sans-serif" font-size="13" font-weight="bold" lengthAdjust="spacing" textLength="71">Execution</text><polygon fill="#181818" points="384 308.227 394 312.227 384 316.227 388 312.227" style="stroke:#181818;stroke-width:1"/><line style="stroke:#181818;stroke-width:1" x1="201" x2="390" y1="312.227" y2="312.227"/><text x="208" y="307.161" fill="#000" font-family="sans-serif" font-size="13" font-weight="bold" lengthAdjust="spacing" textLength="9">5</text><text x="225" y="307.161" fill="#00F" font-family="sans-serif" font-size="13" lengthAdjust="spacing" textLength="30">exec</text><polygon fill="#181818" points="472.5 367.359 482.5 371.359 472.5 375.359 476.5 371.359" style="stroke:#181818;stroke-width:1"/><line style="stroke:#181818;stroke-width:1" x1="201" x2="478.5" y1="371.359" y2="371.359"/><text x="208" y="366.293" fill="#000" font-family="sans-serif" font-size="13" font-weight="bold" lengthAdjust="spacing" textLength="9">6</text><text x="225" y="366.293" fill="gray" font-family="sans-serif" font-size="13" lengthAdjust="spacing" textLength="46">postOp</text><line style="stroke:#181818;stroke-width:1" x1="201" x2="243" y1="430.492" y2="430.492"/><line style="stroke:#181818;stroke-width:1" x1="243" x2="243" y1="430.492" y2="443.492"/><line style="stroke:#181818;stroke-width:1" x1="202" x2="243" y1="443.492" y2="443.492"/><polygon fill="#181818" points="212 439.492 202 443.492 212 447.492 208 443.492" style="stroke:#181818;stroke-width:1"/><text x="208" y="425.426" fill="#000" font-family="sans-serif" font-size="13" font-weight="bold" lengthAdjust="spacing" textLength="9">7</text><text x="221" y="425.426" fill="#000" font-family="sans-serif" font-size="13" lengthAdjust="spacing" textLength="114">refund paymaster</text><polygon fill="#181818" points="11 475.625 1 479.625 11 483.625 7 479.625" style="stroke:#181818;stroke-width:1"/><line style="stroke:#181818;stroke-width:1;stroke-dasharray:2,2" x1="5" x2="190" y1="479.625" y2="479.625"/><text x="17" y="474.559" fill="#000" font-family="sans-serif" font-size="13" font-weight="bold" lengthAdjust="spacing" textLength="9">8</text><text x="30" y="474.559" fill="#000" font-family="sans-serif" font-size="13" lengthAdjust="spacing" textLength="159">compensate(beneficiary)</text></g></svg>