<?xml version="1.0" encoding="us-ascii" standalone="no"?><svg xmlns="http://www.w3.org/2000/svg" xmlns:xlink="http://www.w3.org/1999/xlink" contentStyleType="text/css" height="1484px" preserveAspectRatio="none" style="width:1150px;height:1484px;background:#FFFFFF;" version="1.1" viewBox="0 0 1150 1484" width="1150px" zoomAndPan="magnify"><defs/><g><text fill="#000000" font-family="sans-serif" font-size="14" font-weight="bold" lengthAdjust="spacing" textLength="557" x="292.75" y="30.1074">SmartDerivativeContract with Settlement-Token and off-chain Valuation Service</text><rect fill="#FFFFFF" height="1259.4473" style="stroke:#181818;stroke-width:1.0;" width="10" x="31.5" y="133.2422"/><rect fill="#FFFFFF" height="1259.4473" style="stroke:#181818;stroke-width:1.0;" width="10" x="74.5" y="133.2422"/><rect fill="#FFFFFF" height="1147.2832" style="stroke:#181818;stroke-width:1.0;" width="10" x="272.5" y="245.4063"/><rect fill="#FFFFFF" height="1259.4473" style="stroke:#181818;stroke-width:1.0;" width="10" x="778.5" y="133.2422"/><rect fill="#FFFFFF" height="1259.4473" style="stroke:#181818;stroke-width:1.0;" width="10" x="898.5" y="133.2422"/><rect fill="#FFFFFF" height="1259.4473" style="stroke:#181818;stroke-width:1.0;" width="10" x="1058.5" y="133.2422"/><rect fill="none" height="574.9473" style="stroke:#000000;stroke-width:1.5;" width="953" x="10" y="140.2422"/><rect fill="none" height="655.5" style="stroke:#000000;stroke-width:1.5;" width="1123.5" x="10" y="729.1895"/><rect fill="none" height="268.2988" style="stroke:#000000;stroke-width:1.5;" width="608" x="246" y="1109.3906"/><line style="stroke:#181818;stroke-width:0.5;stroke-dasharray:5.0,5.0;" x1="36" x2="36" y1="123.2422" y2="1401.6895"/><line style="stroke:#181818;stroke-width:0.5;stroke-dasharray:5.0,5.0;" x1="79" x2="79" y1="123.2422" y2="1401.6895"/><line style="stroke:#181818;stroke-width:0.5;stroke-dasharray:5.0,5.0;" x1="277" x2="277" y1="123.2422" y2="1401.6895"/><line style="stroke:#181818;stroke-width:0.5;stroke-dasharray:5.0,5.0;" x1="783" x2="783" y1="123.2422" y2="1401.6895"/><line style="stroke:#181818;stroke-width:0.5;stroke-dasharray:5.0,5.0;" x1="903" x2="903" y1="123.2422" y2="1401.6895"/><line style="stroke:#181818;stroke-width:0.5;stroke-dasharray:5.0,5.0;" x1="1063.5" x2="1063.5" y1="123.2422" y2="1401.6895"/><text fill="#000000" font-family="sans-serif" font-size="14" lengthAdjust="spacing" textLength="27" x="20" y="119.7285">CP1</text><ellipse cx="36.5" cy="53.1211" fill="#E2E2F0" rx="8" ry="8" style="stroke:#181818;stroke-width:0.5;"/><path d="M36.5,61.1211 L36.5,88.1211 M23.5,69.1211 L49.5,69.1211 M36.5,88.1211 L23.5,103.1211 M36.5,88.1211 L49.5,103.1211 " fill="none" style="stroke:#181818;stroke-width:0.5;"/><text fill="#000000" font-family="sans-serif" font-size="14" lengthAdjust="spacing" textLength="27" x="20" y="1415.7969">CP1</text><ellipse cx="36.5" cy="1427.8105" fill="#E2E2F0" rx="8" ry="8" style="stroke:#181818;stroke-width:0.5;"/><path d="M36.5,1435.8105 L36.5,1462.8105 M23.5,1443.8105 L49.5,1443.8105 M36.5,1462.8105 L23.5,1477.8105 M36.5,1462.8105 L49.5,1477.8105 " fill="none" style="stroke:#181818;stroke-width:0.5;"/><text fill="#000000" font-family="sans-serif" font-size="14" lengthAdjust="spacing" textLength="27" x="63" y="119.7285">CP2</text><ellipse cx="79.5" cy="53.1211" fill="#E2E2F0" rx="8" ry="8" style="stroke:#181818;stroke-width:0.5;"/><path d="M79.5,61.1211 L79.5,88.1211 M66.5,69.1211 L92.5,69.1211 M79.5,88.1211 L66.5,103.1211 M79.5,88.1211 L92.5,103.1211 " fill="none" style="stroke:#181818;stroke-width:0.5;"/><text fill="#000000" font-family="sans-serif" font-size="14" lengthAdjust="spacing" textLength="27" x="63" y="1415.7969">CP2</text><ellipse cx="79.5" cy="1427.8105" fill="#E2E2F0" rx="8" ry="8" style="stroke:#181818;stroke-width:0.5;"/><path d="M79.5,1435.8105 L79.5,1462.8105 M66.5,1443.8105 L92.5,1443.8105 M79.5,1462.8105 L66.5,1477.8105 M79.5,1462.8105 L92.5,1477.8105 " fill="none" style="stroke:#181818;stroke-width:0.5;"/><rect fill="#E2E2F0" height="32.6211" rx="2.5" ry="2.5" style="stroke:#181818;stroke-width:0.5;" width="43" x="256" y="89.6211"/><text fill="#000000" font-family="sans-serif" font-size="14" lengthAdjust="spacing" textLength="29" x="263" y="111.7285">SDC</text><rect fill="#E2E2F0" height="32.6211" rx="2.5" ry="2.5" style="stroke:#181818;stroke-width:0.5;" width="43" x="256" y="1400.6895"/><text fill="#000000" font-family="sans-serif" font-size="14" lengthAdjust="spacing" textLength="29" x="263" y="1422.7969">SDC</text><rect fill="#E2E2F0" height="32.6211" rx="2.5" ry="2.5" style="stroke:#181818;stroke-width:0.5;" width="121" x="723" y="89.6211"/><text fill="#000000" font-family="sans-serif" font-size="14" lengthAdjust="spacing" textLength="107" x="730" y="111.7285">SettlementToken</text><rect fill="#E2E2F0" height="32.6211" rx="2.5" ry="2.5" style="stroke:#181818;stroke-width:0.5;" width="121" x="723" y="1400.6895"/><text fill="#000000" font-family="sans-serif" font-size="14" lengthAdjust="spacing" textLength="107" x="730" y="1422.7969">SettlementToken</text><rect fill="#E2E2F0" height="32.6211" rx="2.5" ry="2.5" style="stroke:#181818;stroke-width:0.5;" width="99" x="854" y="89.6211"/><text fill="#000000" font-family="sans-serif" font-size="14" lengthAdjust="spacing" textLength="85" x="861" y="111.7285">EventHandler</text><rect fill="#E2E2F0" height="32.6211" rx="2.5" ry="2.5" style="stroke:#181818;stroke-width:0.5;" width="99" x="854" y="1400.6895"/><text fill="#000000" font-family="sans-serif" font-size="14" lengthAdjust="spacing" textLength="85" x="861" y="1422.7969">EventHandler</text><rect fill="#E2E2F0" height="32.6211" rx="2.5" ry="2.5" style="stroke:#181818;stroke-width:0.5;" width="120" x="1003.5" y="89.6211"/><text fill="#000000" font-family="sans-serif" font-size="14" lengthAdjust="spacing" textLength="106" x="1010.5" y="111.7285">ValuationService</text><rect fill="#E2E2F0" height="32.6211" rx="2.5" ry="2.5" style="stroke:#181818;stroke-width:0.5;" width="120" x="1003.5" y="1400.6895"/><text fill="#000000" font-family="sans-serif" font-size="14" lengthAdjust="spacing" textLength="106" x="1010.5" y="1422.7969">ValuationService</text><rect fill="#FFFFFF" height="1259.4473" style="stroke:#181818;stroke-width:1.0;" width="10" x="31.5" y="133.2422"/><rect fill="#FFFFFF" height="1259.4473" style="stroke:#181818;stroke-width:1.0;" width="10" x="74.5" y="133.2422"/><rect fill="#FFFFFF" height="1147.2832" style="stroke:#181818;stroke-width:1.0;" width="10" x="272.5" y="245.4063"/><rect fill="#FFFFFF" height="1259.4473" style="stroke:#181818;stroke-width:1.0;" width="10" x="778.5" y="133.2422"/><rect fill="#FFFFFF" height="1259.4473" style="stroke:#181818;stroke-width:1.0;" width="10" x="898.5" y="133.2422"/><rect fill="#FFFFFF" height="1259.4473" style="stroke:#181818;stroke-width:1.0;" width="10" x="1058.5" y="133.2422"/><path d="M10,140.2422 L151,140.2422 L151,149.5332 L141,159.5332 L10,159.5332 L10,140.2422 " fill="#EEEEEE" style="stroke:#000000;stroke-width:1.5;"/><rect fill="none" height="574.9473" style="stroke:#000000;stroke-width:1.5;" width="953" x="10" y="140.2422"/><text fill="#000000" font-family="sans-serif" font-size="13" font-weight="bold" lengthAdjust="spacing" textLength="96" x="25" y="155.2705">Initialize Trade</text><polygon fill="#181818" points="766.5,178.8242,776.5,182.8242,766.5,186.8242,770.5,182.8242" style="stroke:#181818;stroke-width:1.0;"/><line style="stroke:#181818;stroke-width:1.0;" x1="41.5" x2="772.5" y1="182.8242" y2="182.8242"/><text fill="#000000" font-family="sans-serif" font-size="13" lengthAdjust="spacing" textLength="101" x="48.5" y="177.5615">allocate balances</text><polygon fill="#181818" points="766.5,210.1152,776.5,214.1152,766.5,218.1152,770.5,214.1152" style="stroke:#181818;stroke-width:1.0;"/><line style="stroke:#181818;stroke-width:1.0;" x1="84.5" x2="772.5" y1="214.1152" y2="214.1152"/><text fill="#000000" font-family="sans-serif" font-size="13" lengthAdjust="spacing" textLength="101" x="91.5" y="208.8525">allocate balances</text><polygon fill="#181818" points="260.5,241.4063,270.5,245.4063,260.5,249.4063,264.5,245.4063" style="stroke:#181818;stroke-width:1.0;"/><line style="stroke:#181818;stroke-width:1.0;" x1="41.5" x2="266.5" y1="245.4063" y2="245.4063"/><text fill="#000000" font-family="sans-serif" font-size="13" lengthAdjust="spacing" textLength="212" x="48.5" y="240.1436">tx 'deploy' a SDC with token address</text><polygon fill="#181818" points="260.5,272.6973,270.5,276.6973,260.5,280.6973,264.5,276.6973" style="stroke:#181818;stroke-width:1.0;"/><line style="stroke:#181818;stroke-width:1.0;" x1="41.5" x2="266.5" y1="276.6973" y2="276.6973"/><text fill="#000000" font-family="sans-serif" font-size="13" lengthAdjust="spacing" textLength="86" x="48.5" y="271.4346">tx 'inceptTrade'</text><polygon fill="#181818" points="886.5,303.9883,896.5,307.9883,886.5,311.9883,890.5,307.9883" style="stroke:#181818;stroke-width:1.0;"/><line style="stroke:#181818;stroke-width:1.0;stroke-dasharray:2.0,2.0;" x1="282.5" x2="892.5" y1="307.9883" y2="307.9883"/><text fill="#000000" font-family="sans-serif" font-size="13" lengthAdjust="spacing" textLength="110" x="289.5" y="302.7256">emit TradeIncepted</text><rect fill="#EEEEEE" height="3" style="stroke:#EEEEEE;stroke-width:1.0;" width="1143.5" x="0" y="337.6338"/><line style="stroke:#000000;stroke-width:1.0;" x1="0" x2="1143.5" y1="337.6338" y2="337.6338"/><line style="stroke:#000000;stroke-width:1.0;" x1="0" x2="1143.5" y1="340.6338" y2="340.6338"/><rect fill="#EEEEEE" height="25.291" style="stroke:#000000;stroke-width:2.0;" width="153" x="495.25" y="325.9883"/><text fill="#000000" font-family="sans-serif" font-size="13" font-weight="bold" lengthAdjust="spacing" textLength="135" x="501.25" y="344.0166">TradeState 'Incepted'</text><polygon fill="#181818" points="260.5,380.5703,270.5,384.5703,260.5,388.5703,264.5,384.5703" style="stroke:#181818;stroke-width:1.0;"/><line style="stroke:#181818;stroke-width:1.0;" x1="84.5" x2="266.5" y1="384.5703" y2="384.5703"/><text fill="#000000" font-family="sans-serif" font-size="13" lengthAdjust="spacing" textLength="93" x="91.5" y="379.3076">tx 'confirmTrade'</text><line style="stroke:#181818;stroke-width:1.0;" x1="282.5" x2="324.5" y1="415.8613" y2="415.8613"/><line style="stroke:#181818;stroke-width:1.0;" x1="324.5" x2="324.5" y1="415.8613" y2="428.8613"/><line style="stroke:#181818;stroke-width:1.0;" x1="283.5" x2="324.5" y1="428.8613" y2="428.8613"/><polygon fill="#181818" points="293.5,424.8613,283.5,428.8613,293.5,432.8613,289.5,428.8613" style="stroke:#181818;stroke-width:1.0;"/><text fill="#000000" font-family="sans-serif" font-size="13" lengthAdjust="spacing" textLength="101" x="289.5" y="410.5986">validate tradedata</text><polygon fill="#181818" points="886.5,456.1523,896.5,460.1523,886.5,464.1523,890.5,460.1523" style="stroke:#181818;stroke-width:1.0;"/><line style="stroke:#181818;stroke-width:1.0;stroke-dasharray:2.0,2.0;" x1="282.5" x2="892.5" y1="460.1523" y2="460.1523"/><text fill="#000000" font-family="sans-serif" font-size="13" lengthAdjust="spacing" textLength="119" x="289.5" y="454.8896">emit TradeConfirmed</text><rect fill="#EEEEEE" height="3" style="stroke:#EEEEEE;stroke-width:1.0;" width="1143.5" x="0" y="489.7979"/><line style="stroke:#000000;stroke-width:1.0;" x1="0" x2="1143.5" y1="489.7979" y2="489.7979"/><line style="stroke:#000000;stroke-width:1.0;" x1="0" x2="1143.5" y1="492.7979" y2="492.7979"/><rect fill="#EEEEEE" height="25.291" style="stroke:#000000;stroke-width:2.0;" width="164" x="489.75" y="478.1523"/><text fill="#000000" font-family="sans-serif" font-size="13" font-weight="bold" lengthAdjust="spacing" textLength="146" x="495.75" y="496.1807">TradeState 'Confirmed'</text><polygon fill="#181818" points="766.5,550.0254,776.5,554.0254,766.5,558.0254,770.5,554.0254" style="stroke:#181818;stroke-width:1.0;"/><line style="stroke:#181818;stroke-width:1.0;" x1="282.5" x2="772.5" y1="554.0254" y2="554.0254"/><text fill="#000000" font-family="sans-serif" font-size="13" lengthAdjust="spacing" textLength="298" x="289.5" y="531.4717">tx 'transferFrom' margin buffers and termination fees</text><text fill="#000000" font-family="sans-serif" font-size="13" lengthAdjust="spacing" textLength="193" x="289.5" y="548.7627">to SDC address for CP1 and CP2</text><polygon fill="#181818" points="766.5,581.3164,776.5,585.3164,766.5,589.3164,770.5,585.3164" style="stroke:#181818;stroke-width:1.0;"/><line style="stroke:#181818;stroke-width:1.0;" x1="282.5" x2="772.5" y1="585.3164" y2="585.3164"/><text fill="#000000" font-family="sans-serif" font-size="13" lengthAdjust="spacing" textLength="394" x="289.5" y="580.0537">tx 'transferFrom' optional Upfront Fee from Paying to Receiving Party</text><rect fill="#EEEEEE" height="3" style="stroke:#EEEEEE;stroke-width:1.0;" width="1143.5" x="0" y="614.9619"/><line style="stroke:#000000;stroke-width:1.0;" x1="0" x2="1143.5" y1="614.9619" y2="614.9619"/><line style="stroke:#000000;stroke-width:1.0;" x1="0" x2="1143.5" y1="617.9619" y2="617.9619"/><rect fill="#EEEEEE" height="25.291" style="stroke:#000000;stroke-width:2.0;" width="162" x="490.75" y="603.3164"/><text fill="#000000" font-family="sans-serif" font-size="13" font-weight="bold" lengthAdjust="spacing" textLength="144" x="496.75" y="621.3447">TradeState 'inTransfer'</text><polygon fill="#181818" points="293.5,657.8984,283.5,661.8984,293.5,665.8984,289.5,661.8984" style="stroke:#181818;stroke-width:1.0;"/><line style="stroke:#181818;stroke-width:1.0;" x1="287.5" x2="777.5" y1="661.8984" y2="661.8984"/><text fill="#000000" font-family="sans-serif" font-size="13" lengthAdjust="spacing" textLength="159" x="299.5" y="656.6357">callback tx 'afterSettlement'</text><rect fill="#EEEEEE" height="3" style="stroke:#EEEEEE;stroke-width:1.0;" width="1143.5" x="0" y="691.5439"/><line style="stroke:#000000;stroke-width:1.0;" x1="0" x2="1143.5" y1="691.5439" y2="691.5439"/><line style="stroke:#000000;stroke-width:1.0;" x1="0" x2="1143.5" y1="694.5439" y2="694.5439"/><rect fill="#EEEEEE" height="25.291" style="stroke:#000000;stroke-width:2.0;" width="155" x="494.25" y="679.8984"/><text fill="#000000" font-family="sans-serif" font-size="13" font-weight="bold" lengthAdjust="spacing" textLength="137" x="500.25" y="697.9268">ProcessState 'Settled'</text><path d="M10,729.1895 L83,729.1895 L83,738.4805 L73,748.4805 L10,748.4805 L10,729.1895 " fill="#EEEEEE" style="stroke:#000000;stroke-width:1.5;"/><rect fill="none" height="655.5" style="stroke:#000000;stroke-width:1.5;" width="1123.5" x="10" y="729.1895"/><text fill="#000000" font-family="sans-serif" font-size="13" font-weight="bold" lengthAdjust="spacing" textLength="28" x="25" y="744.2178">loop</text><text fill="#000000" font-family="sans-serif" font-size="11" font-weight="bold" lengthAdjust="spacing" textLength="102" x="98" y="743.0596">[Every Settlement]</text><polygon fill="#181818" points="260.5,767.7715,270.5,771.7715,260.5,775.7715,264.5,771.7715" style="stroke:#181818;stroke-width:1.0;"/><line style="stroke:#181818;stroke-width:1.0;" x1="41.5" x2="266.5" y1="771.7715" y2="771.7715"/><text fill="#000000" font-family="sans-serif" font-size="13" lengthAdjust="spacing" textLength="124" x="48.5" y="766.5088">tx: 'initiateSettlement'</text><rect fill="#EEEEEE" height="3" style="stroke:#EEEEEE;stroke-width:1.0;" width="1143.5" x="0" y="801.417"/><line style="stroke:#000000;stroke-width:1.0;" x1="0" x2="1143.5" y1="801.417" y2="801.417"/><line style="stroke:#000000;stroke-width:1.0;" x1="0" x2="1143.5" y1="804.417" y2="804.417"/><rect fill="#EEEEEE" height="25.291" style="stroke:#000000;stroke-width:2.0;" width="159" x="492.25" y="789.7715"/><text fill="#000000" font-family="sans-serif" font-size="13" font-weight="bold" lengthAdjust="spacing" textLength="141" x="498.25" y="807.7998">TradeState 'Valuation'</text><polygon fill="#181818" points="886.5,844.3535,896.5,848.3535,886.5,852.3535,890.5,848.3535" style="stroke:#181818;stroke-width:1.0;"/><line style="stroke:#181818;stroke-width:1.0;stroke-dasharray:2.0,2.0;" x1="282.5" x2="892.5" y1="848.3535" y2="848.3535"/><text fill="#000000" font-family="sans-serif" font-size="13" lengthAdjust="spacing" textLength="188" x="289.5" y="843.0908">emit ProcessSettlementRequest</text><polygon fill="#181818" points="1046.5,875.6445,1056.5,879.6445,1046.5,883.6445,1050.5,879.6445" style="stroke:#181818;stroke-width:1.0;"/><line style="stroke:#181818;stroke-width:1.0;" x1="908.5" x2="1052.5" y1="879.6445" y2="879.6445"/><text fill="#000000" font-family="sans-serif" font-size="13" lengthAdjust="spacing" textLength="126" x="915.5" y="874.3818">request valuation data</text><polygon fill="#181818" points="919.5,906.9355,909.5,910.9355,919.5,914.9355,915.5,910.9355" style="stroke:#181818;stroke-width:1.0;"/><line style="stroke:#181818;stroke-width:1.0;" x1="913.5" x2="1057.5" y1="910.9355" y2="910.9355"/><text fill="#000000" font-family="sans-serif" font-size="13" lengthAdjust="spacing" textLength="116" x="925.5" y="905.6729">return valuation data</text><polygon fill="#181818" points="293.5,938.2266,283.5,942.2266,293.5,946.2266,289.5,942.2266" style="stroke:#181818;stroke-width:1.0;"/><line style="stroke:#181818;stroke-width:1.0;" x1="287.5" x2="897.5" y1="942.2266" y2="942.2266"/><text fill="#000000" font-family="sans-serif" font-size="13" lengthAdjust="spacing" textLength="181" x="299.5" y="936.9639">callback: tx 'performSettlement'</text><line style="stroke:#181818;stroke-width:1.0;" x1="282.5" x2="324.5" y1="973.5176" y2="973.5176"/><line style="stroke:#181818;stroke-width:1.0;" x1="324.5" x2="324.5" y1="973.5176" y2="986.5176"/><line style="stroke:#181818;stroke-width:1.0;" x1="283.5" x2="324.5" y1="986.5176" y2="986.5176"/><polygon fill="#181818" points="293.5,982.5176,283.5,986.5176,293.5,990.5176,289.5,986.5176" style="stroke:#181818;stroke-width:1.0;"/><text fill="#000000" font-family="sans-serif" font-size="13" lengthAdjust="spacing" textLength="274" x="289.5" y="968.2549">Caps Settlement Amount at Margin Buffer Level</text><polygon fill="#181818" points="766.5,1013.8086,776.5,1017.8086,766.5,1021.8086,770.5,1017.8086" style="stroke:#181818;stroke-width:1.0;"/><line style="stroke:#181818;stroke-width:1.0;" x1="282.5" x2="772.5" y1="1017.8086" y2="1017.8086"/><text fill="#000000" font-family="sans-serif" font-size="13" lengthAdjust="spacing" textLength="472" x="289.5" y="1012.5459">tx 'transferFrom' settlement amount from Paying Party to Receiving Party Balance</text><rect fill="#EEEEEE" height="3" style="stroke:#EEEEEE;stroke-width:1.0;" width="1143.5" x="0" y="1047.4541"/><line style="stroke:#000000;stroke-width:1.0;" x1="0" x2="1143.5" y1="1047.4541" y2="1047.4541"/><line style="stroke:#000000;stroke-width:1.0;" x1="0" x2="1143.5" y1="1050.4541" y2="1050.4541"/><rect fill="#EEEEEE" height="25.291" style="stroke:#000000;stroke-width:2.0;" width="162" x="490.75" y="1035.8086"/><text fill="#000000" font-family="sans-serif" font-size="13" font-weight="bold" lengthAdjust="spacing" textLength="144" x="496.75" y="1053.8369">TradeState 'inTransfer'</text><polygon fill="#181818" points="886.5,1090.3906,896.5,1094.3906,886.5,1098.3906,890.5,1094.3906" style="stroke:#181818;stroke-width:1.0;"/><line style="stroke:#181818;stroke-width:1.0;stroke-dasharray:2.0,2.0;" x1="282.5" x2="892.5" y1="1094.3906" y2="1094.3906"/><text fill="#000000" font-family="sans-serif" font-size="13" lengthAdjust="spacing" textLength="124" x="289.5" y="1089.1279">emit AwaitingTransfer</text><path d="M246,1109.3906 L307,1109.3906 L307,1118.6816 L297,1128.6816 L246,1128.6816 L246,1109.3906 " fill="#EEEEEE" style="stroke:#000000;stroke-width:1.5;"/><rect fill="none" height="268.2988" style="stroke:#000000;stroke-width:1.5;" width="608" x="246" y="1109.3906"/><text fill="#000000" font-family="sans-serif" font-size="13" font-weight="bold" lengthAdjust="spacing" textLength="16" x="261" y="1124.4189">alt</text><text fill="#000000" font-family="sans-serif" font-size="11" font-weight="bold" lengthAdjust="spacing" textLength="94" x="322" y="1123.2607">[Transfer Check]</text><polygon fill="#181818" points="293.5,1147.9727,283.5,1151.9727,293.5,1155.9727,289.5,1151.9727" style="stroke:#181818;stroke-width:1.0;"/><line style="stroke:#181818;stroke-width:1.0;" x1="287.5" x2="777.5" y1="1151.9727" y2="1151.9727"/><text fill="#000000" font-family="sans-serif" font-size="13" lengthAdjust="spacing" textLength="159" x="299.5" y="1146.71">callback tx 'afterSettlement'</text><line style="stroke:#000000;stroke-width:1.0;stroke-dasharray:2.0,2.0;" x1="246" x2="854" y1="1160.9727" y2="1160.9727"/><text fill="#000000" font-family="sans-serif" font-size="11" font-weight="bold" lengthAdjust="spacing" textLength="55" x="251" y="1172.8428">[success]</text><rect fill="#EEEEEE" height="3" style="stroke:#EEEEEE;stroke-width:1.0;" width="1143.5" x="0" y="1198.249"/><line style="stroke:#000000;stroke-width:1.0;" x1="0" x2="1143.5" y1="1198.249" y2="1198.249"/><line style="stroke:#000000;stroke-width:1.0;" x1="0" x2="1143.5" y1="1201.249" y2="1201.249"/><rect fill="#EEEEEE" height="25.291" style="stroke:#000000;stroke-width:2.0;" width="143" x="500.25" y="1186.6035"/><text fill="#000000" font-family="sans-serif" font-size="13" font-weight="bold" lengthAdjust="spacing" textLength="125" x="506.25" y="1204.6318">TradeState 'Settled'</text><line style="stroke:#000000;stroke-width:1.0;stroke-dasharray:2.0,2.0;" x1="246" x2="854" y1="1222.8945" y2="1222.8945"/><text fill="#000000" font-family="sans-serif" font-size="11" font-weight="bold" lengthAdjust="spacing" textLength="24" x="251" y="1234.7646">[fail]</text><polygon fill="#181818" points="766.5,1257.8164,776.5,1261.8164,766.5,1265.8164,770.5,1261.8164" style="stroke:#181818;stroke-width:1.0;"/><line style="stroke:#181818;stroke-width:1.0;" x1="282.5" x2="772.5" y1="1261.8164" y2="1261.8164"/><text fill="#000000" font-family="sans-serif" font-size="13" lengthAdjust="spacing" textLength="398" x="289.5" y="1256.5537">tx 'transfer' Settlement Amount from SDC Balance to Receiving Party</text><polygon fill="#181818" points="766.5,1289.1074,776.5,1293.1074,766.5,1297.1074,770.5,1293.1074" style="stroke:#181818;stroke-width:1.0;"/><line style="stroke:#181818;stroke-width:1.0;" x1="282.5" x2="772.5" y1="1293.1074" y2="1293.1074"/><text fill="#000000" font-family="sans-serif" font-size="13" lengthAdjust="spacing" textLength="379" x="289.5" y="1287.8447">tx 'transfer' Termination Fee from SDC Balance to Receiving Party</text><polygon fill="#181818" points="766.5,1320.3984,776.5,1324.3984,766.5,1328.3984,770.5,1324.3984" style="stroke:#181818;stroke-width:1.0;"/><line style="stroke:#181818;stroke-width:1.0;" x1="282.5" x2="772.5" y1="1324.3984" y2="1324.3984"/><text fill="#000000" font-family="sans-serif" font-size="13" lengthAdjust="spacing" textLength="290" x="289.5" y="1319.1357">tx 'transfer' - Release  remainigBalances to parties</text><rect fill="#EEEEEE" height="3" style="stroke:#EEEEEE;stroke-width:1.0;" width="1143.5" x="0" y="1354.0439"/><line style="stroke:#000000;stroke-width:1.0;" x1="0" x2="1143.5" y1="1354.0439" y2="1354.0439"/><line style="stroke:#000000;stroke-width:1.0;" x1="0" x2="1143.5" y1="1357.0439" y2="1357.0439"/><rect fill="#EEEEEE" height="25.291" style="stroke:#000000;stroke-width:2.0;" width="171" x="486.25" y="1342.3984"/><text fill="#000000" font-family="sans-serif" font-size="13" font-weight="bold" lengthAdjust="spacing" textLength="153" x="492.25" y="1360.4268">TradeState 'Terminated'</text><!--SRC=[dLN1Rjim33tFNy6RJrwn7WEaGEkkM84D29fifrrKcKw4of8doUwohnybEQwYPaYm719RejuZ7n-LSkTSRnTNLxraoWsT_CXrTsNnru2AOzK8jZMiAvnm4c7TCUFkqOYHEJ5YhPKpZ3ju5Mu7QtGKqw5orKQ_e0Ac6j1jM_4T4mf-C3dGAQqeq8o2Or5yeBFQGBtwzFPuJSiziGWkUae8rlTrKG1zZXPdgi1KP6S-ZxJpXUWbckETEOavXw8WPbyF7X-RLtEkUUCzrhpbAqfUgAQjqKCFZqeumQJuWx0nhC620g6woIWMmAJKt9zzPjGLZfO2hoyD38ZtzGBSRoWRxANUby2yaB5FBZQdQGnQczH9GYU7yuy74yJGkv1vMHGKLbKtgMWBm4wuMDfZYCMcM2xZmjfvblAmNi9owQjASkLQjS9q4xw7ZtiZATRumyxlq1CxHrv796BFwUUTmEzXJidgio4oPLiq3qPt9P3njsJYvw6b9HkixT1qGaLBjuZsft8wg3n92stqTWZs9eWLdUVIlSTa4hxthQ4HWmT4eASELcmlr9Ow24_8KOp-PKNstlioZ-eKQZDXXa8prabOJlPvPlmbvC1QAkWjhYJ8bT5aAJj1nhr9E5IahTIwzrDZzicKq4HHqNDR5puNxtg7ANZUbtcOOhhlknkQUqXe1dhozvGbpZIskib7Sm4c1delJRTGy54Uc5lAe1kCoayTanr96VlPew7cTsd1ivrhrjj4BhZjz40_pC6twB6xu37uYYFAYprZtm1P14mD4pnomZPm5w-Dl1kvU_urRBUlZ5ghjeTekW9b6C7m1lKE-KlnuN_CXz8Ys87xTkVPfKOCSIqJacZEIbMUq3t8vATsakBKS5q4lKckWtbWpm3xY_KYy8gEIcHKArcoexzJiPrWhSSDVt5q-UTA7N8wYEM7Ddp_1G00]--></g></svg>