<svg xmlns="http://www.w3.org/2000/svg" xmlns:xlink="http://www.w3.org/1999/xlink" contentStyleType="text/css" height="1405px" preserveAspectRatio="none" style="width:1231px;height:1405px;background:#FFFFFF;" version="1.1" viewBox="0 0 1231 1405" width="1231px" zoomAndPan="magnify"><defs/><g><text fill="#000000" font-family="sans-serif" font-size="14" font-weight="bold" lengthAdjust="spacing" textLength="581.0205" x="321.0386" y="28.5352">SmartDerivativeContract with Settlement-Token and off-chain Valuation Service</text><rect fill="#FFFFFF" height="1186.7793" style="stroke:#181818;stroke-width:1.0;" width="10" x="31.1387" y="128.9766"/><rect fill="#FFFFFF" height="1186.7793" style="stroke:#181818;stroke-width:1.0;" width="10" x="73.416" y="128.9766"/><rect fill="#FFFFFF" height="1082.5371" style="stroke:#181818;stroke-width:1.0;" width="10" x="290.4824" y="233.2188"/><rect fill="#FFFFFF" height="1186.7793" style="stroke:#181818;stroke-width:1.0;" width="10" x="835.5957" y="128.9766"/><rect fill="#FFFFFF" height="1186.7793" style="stroke:#181818;stroke-width:1.0;" width="10" x="961.7109" y="128.9766"/><rect fill="#FFFFFF" height="1186.7793" style="stroke:#181818;stroke-width:1.0;" width="10" x="1136.4702" y="128.9766"/><rect fill="none" height="541.2793" style="stroke:#000000;stroke-width:1.5;" width="1018.5376" x="10" y="135.9766"/><rect fill="none" height="616.5" style="stroke:#000000;stroke-width:1.5;" width="1204.0977" x="10" y="691.2559"/><rect fill="none" height="251.084" style="stroke:#000000;stroke-width:1.5;" width="650.2583" x="264.626" y="1049.6719"/><line style="stroke:#181818;stroke-width:0.5;stroke-dasharray:5.0,5.0;" x1="36" x2="36" y1="118.9766" y2="1324.7559"/><line style="stroke:#181818;stroke-width:0.5;stroke-dasharray:5.0,5.0;" x1="78.2773" x2="78.2773" y1="118.9766" y2="1324.7559"/><line style="stroke:#181818;stroke-width:0.5;stroke-dasharray:5.0,5.0;" x1="294.626" x2="294.626" y1="118.9766" y2="1324.7559"/><line style="stroke:#181818;stroke-width:0.5;stroke-dasharray:5.0,5.0;" x1="840.3071" x2="840.3071" y1="118.9766" y2="1324.7559"/><line style="stroke:#181818;stroke-width:0.5;stroke-dasharray:5.0,5.0;" x1="965.8843" x2="965.8843" y1="118.9766" y2="1324.7559"/><line style="stroke:#181818;stroke-width:0.5;stroke-dasharray:5.0,5.0;" x1="1140.8428" x2="1140.8428" y1="118.9766" y2="1324.7559"/><text fill="#000000" font-family="sans-serif" font-size="14" lengthAdjust="spacing" textLength="26.2773" x="20" y="116.0234">CP1</text><ellipse cx="36.1387" cy="50.9883" fill="#E2E2F0" rx="8" ry="8" style="stroke:#181818;stroke-width:0.5;"/><path d="M36.1387,58.9883 L36.1387,85.9883 M23.1387,66.9883 L49.1387,66.9883 M36.1387,85.9883 L23.1387,100.9883 M36.1387,85.9883 L49.1387,100.9883 " fill="none" style="stroke:#181818;stroke-width:0.5;"/><text fill="#000000" font-family="sans-serif" font-size="14" lengthAdjust="spacing" textLength="26.2773" x="20" y="1337.291">CP1</text><ellipse cx="36.1387" cy="1348.7441" fill="#E2E2F0" rx="8" ry="8" style="stroke:#181818;stroke-width:0.5;"/><path d="M36.1387,1356.7441 L36.1387,1383.7441 M23.1387,1364.7441 L49.1387,1364.7441 M36.1387,1383.7441 L23.1387,1398.7441 M36.1387,1383.7441 L49.1387,1398.7441 " fill="none" style="stroke:#181818;stroke-width:0.5;"/><text fill="#000000" font-family="sans-serif" font-size="14" lengthAdjust="spacing" textLength="26.2773" x="62.2773" y="116.0234">CP2</text><ellipse cx="78.416" cy="50.9883" fill="#E2E2F0" rx="8" ry="8" style="stroke:#181818;stroke-width:0.5;"/><path d="M78.416,58.9883 L78.416,85.9883 M65.416,66.9883 L91.416,66.9883 M78.416,85.9883 L65.416,100.9883 M78.416,85.9883 L91.416,100.9883 " fill="none" style="stroke:#181818;stroke-width:0.5;"/><text fill="#000000" font-family="sans-serif" font-size="14" lengthAdjust="spacing" textLength="26.2773" x="62.2773" y="1337.291">CP2</text><ellipse cx="78.416" cy="1348.7441" fill="#E2E2F0" rx="8" ry="8" style="stroke:#181818;stroke-width:0.5;"/><path d="M78.416,1356.7441 L78.416,1383.7441 M65.416,1364.7441 L91.416,1364.7441 M78.416,1383.7441 L65.416,1398.7441 M78.416,1383.7441 L91.416,1398.7441 " fill="none" style="stroke:#181818;stroke-width:0.5;"/><rect fill="#E2E2F0" height="30.4883" rx="2.5" ry="2.5" style="stroke:#181818;stroke-width:0.5;" width="41.7129" x="274.626" y="87.4883"/><text fill="#000000" font-family="sans-serif" font-size="14" lengthAdjust="spacing" textLength="27.7129" x="281.626" y="108.0234">SDC</text><rect fill="#E2E2F0" height="30.4883" rx="2.5" ry="2.5" style="stroke:#181818;stroke-width:0.5;" width="41.7129" x="274.626" y="1323.7559"/><text fill="#000000" font-family="sans-serif" font-size="14" lengthAdjust="spacing" textLength="27.7129" x="281.626" y="1344.291">SDC</text><rect fill="#E2E2F0" height="30.4883" rx="2.5" ry="2.5" style="stroke:#181818;stroke-width:0.5;" width="128.5771" x="776.3071" y="87.4883"/><text fill="#000000" font-family="sans-serif" font-size="14" lengthAdjust="spacing" textLength="114.5771" x="783.3071" y="108.0234">SettlementToken</text><rect fill="#E2E2F0" height="30.4883" rx="2.5" ry="2.5" style="stroke:#181818;stroke-width:0.5;" width="128.5771" x="776.3071" y="1323.7559"/><text fill="#000000" font-family="sans-serif" font-size="14" lengthAdjust="spacing" textLength="114.5771" x="783.3071" y="1344.291">SettlementToken</text><rect fill="#E2E2F0" height="30.4883" rx="2.5" ry="2.5" style="stroke:#181818;stroke-width:0.5;" width="103.6533" x="914.8843" y="87.4883"/><text fill="#000000" font-family="sans-serif" font-size="14" lengthAdjust="spacing" textLength="89.6533" x="921.8843" y="108.0234">EventHandler</text><rect fill="#E2E2F0" height="30.4883" rx="2.5" ry="2.5" style="stroke:#181818;stroke-width:0.5;" width="103.6533" x="914.8843" y="1323.7559"/><text fill="#000000" font-family="sans-serif" font-size="14" lengthAdjust="spacing" textLength="89.6533" x="921.8843" y="1344.291">EventHandler</text><rect fill="#E2E2F0" height="30.4883" rx="2.5" ry="2.5" style="stroke:#181818;stroke-width:0.5;" width="125.2549" x="1078.8428" y="87.4883"/><text fill="#000000" font-family="sans-serif" font-size="14" lengthAdjust="spacing" textLength="111.2549" x="1085.8428" y="108.0234">ValuationService</text><rect fill="#E2E2F0" height="30.4883" rx="2.5" ry="2.5" style="stroke:#181818;stroke-width:0.5;" width="125.2549" x="1078.8428" y="1323.7559"/><text fill="#000000" font-family="sans-serif" font-size="14" lengthAdjust="spacing" textLength="111.2549" x="1085.8428" y="1344.291">ValuationService</text><rect fill="#FFFFFF" height="1186.7793" style="stroke:#181818;stroke-width:1.0;" width="10" x="31.1387" y="128.9766"/><rect fill="#FFFFFF" height="1186.7793" style="stroke:#181818;stroke-width:1.0;" width="10" x="73.416" y="128.9766"/><rect fill="#FFFFFF" height="1082.5371" style="stroke:#181818;stroke-width:1.0;" width="10" x="290.4824" y="233.2188"/><rect fill="#FFFFFF" height="1186.7793" style="stroke:#181818;stroke-width:1.0;" width="10" x="835.5957" y="128.9766"/><rect fill="#FFFFFF" height="1186.7793" style="stroke:#181818;stroke-width:1.0;" width="10" x="961.7109" y="128.9766"/><rect fill="#FFFFFF" height="1186.7793" style="stroke:#181818;stroke-width:1.0;" width="10" x="1136.4702" y="128.9766"/><path d="M10,135.9766 L156.0039,135.9766 L156.0039,143.2871 L146.0039,153.2871 L10,153.2871 L10,135.9766 " fill="#EEEEEE" style="stroke:#000000;stroke-width:1.5;"/><rect fill="none" height="541.2793" style="stroke:#000000;stroke-width:1.5;" width="1018.5376" x="10" y="135.9766"/><text fill="#000000" font-family="sans-serif" font-size="13" font-weight="bold" lengthAdjust="spacing" textLength="101.0039" x="25" y="149.5449">Initialize Trade</text><polygon fill="#181818" points="823.5957,170.5977,833.5957,174.5977,823.5957,178.5977,827.5957,174.5977" style="stroke:#181818;stroke-width:1.0;"/><line style="stroke:#181818;stroke-width:1.0;" x1="41.1387" x2="829.5957" y1="174.5977" y2="174.5977"/><text fill="#000000" font-family="sans-serif" font-size="13" lengthAdjust="spacing" textLength="107.6309" x="48.1387" y="169.8555">allocate balances</text><polygon fill="#181818" points="823.5957,199.9082,833.5957,203.9082,823.5957,207.9082,827.5957,203.9082" style="stroke:#181818;stroke-width:1.0;"/><line style="stroke:#181818;stroke-width:1.0;" x1="83.416" x2="829.5957" y1="203.9082" y2="203.9082"/><text fill="#000000" font-family="sans-serif" font-size="13" lengthAdjust="spacing" textLength="107.6309" x="90.416" y="199.166">allocate balances</text><polygon fill="#181818" points="278.4824,229.2188,288.4824,233.2188,278.4824,237.2188,282.4824,233.2188" style="stroke:#181818;stroke-width:1.0;"/><line style="stroke:#181818;stroke-width:1.0;" x1="41.1387" x2="284.4824" y1="233.2188" y2="233.2188"/><text fill="#000000" font-family="sans-serif" font-size="13" lengthAdjust="spacing" textLength="230.3438" x="48.1387" y="228.4766">tx 'deploy' a SDC with token address</text><polygon fill="#181818" points="278.4824,258.5293,288.4824,262.5293,278.4824,266.5293,282.4824,262.5293" style="stroke:#181818;stroke-width:1.0;"/><line style="stroke:#181818;stroke-width:1.0;" x1="41.1387" x2="284.4824" y1="262.5293" y2="262.5293"/><text fill="#000000" font-family="sans-serif" font-size="13" lengthAdjust="spacing" textLength="97.8174" x="48.1387" y="257.7871">tx 'inceptTrade'</text><polygon fill="#181818" points="949.7109,287.8398,959.7109,291.8398,949.7109,295.8398,953.7109,291.8398" style="stroke:#181818;stroke-width:1.0;"/><line style="stroke:#181818;stroke-width:1.0;stroke-dasharray:2.0,2.0;" x1="300.4824" x2="955.7109" y1="291.8398" y2="291.8398"/><text fill="#000000" font-family="sans-serif" font-size="13" lengthAdjust="spacing" textLength="122.4399" x="307.4824" y="287.0977">emit TradeIncepted</text><rect fill="#EEEEEE" height="3" style="stroke:#EEEEEE;stroke-width:1.0;" width="1224.0977" x="0" y="320.4951"/><line style="stroke:#000000;stroke-width:1.0;" x1="0" x2="1224.0977" y1="320.4951" y2="320.4951"/><line style="stroke:#000000;stroke-width:1.0;" x1="0" x2="1224.0977" y1="323.4951" y2="323.4951"/><rect fill="#EEEEEE" height="23.3105" style="stroke:#000000;stroke-width:2.0;" width="158.4663" x="532.8157" y="309.8398"/><text fill="#000000" font-family="sans-serif" font-size="13" font-weight="bold" lengthAdjust="spacing" textLength="140.1816" x="538.8157" y="326.4082">TradeState 'Incepted'</text><polygon fill="#181818" points="278.4824,360.4609,288.4824,364.4609,278.4824,368.4609,282.4824,364.4609" style="stroke:#181818;stroke-width:1.0;"/><line style="stroke:#181818;stroke-width:1.0;" x1="83.416" x2="284.4824" y1="364.4609" y2="364.4609"/><text fill="#000000" font-family="sans-serif" font-size="13" lengthAdjust="spacing" textLength="107.7515" x="90.416" y="359.7188">tx 'confirmTrade'</text><line style="stroke:#181818;stroke-width:1.0;" x1="300.4824" x2="342.4824" y1="393.7715" y2="393.7715"/><line style="stroke:#181818;stroke-width:1.0;" x1="342.4824" x2="342.4824" y1="393.7715" y2="406.7715"/><line style="stroke:#181818;stroke-width:1.0;" x1="301.4824" x2="342.4824" y1="406.7715" y2="406.7715"/><polygon fill="#181818" points="311.4824,402.7715,301.4824,406.7715,311.4824,410.7715,307.4824,406.7715" style="stroke:#181818;stroke-width:1.0;"/><text fill="#000000" font-family="sans-serif" font-size="13" lengthAdjust="spacing" textLength="113.1914" x="307.4824" y="389.0293">validate tradedata</text><polygon fill="#181818" points="949.7109,432.082,959.7109,436.082,949.7109,440.082,953.7109,436.082" style="stroke:#181818;stroke-width:1.0;"/><line style="stroke:#181818;stroke-width:1.0;stroke-dasharray:2.0,2.0;" x1="300.4824" x2="955.7109" y1="436.082" y2="436.082"/><text fill="#000000" font-family="sans-serif" font-size="13" lengthAdjust="spacing" textLength="134.7227" x="307.4824" y="431.3398">emit TradeConfirmed</text><rect fill="#EEEEEE" height="3" style="stroke:#EEEEEE;stroke-width:1.0;" width="1224.0977" x="0" y="464.7373"/><line style="stroke:#000000;stroke-width:1.0;" x1="0" x2="1224.0977" y1="464.7373" y2="464.7373"/><line style="stroke:#000000;stroke-width:1.0;" x1="0" x2="1224.0977" y1="467.7373" y2="467.7373"/><rect fill="#EEEEEE" height="23.3105" style="stroke:#000000;stroke-width:2.0;" width="171.4346" x="526.3315" y="454.082"/><text fill="#000000" font-family="sans-serif" font-size="13" font-weight="bold" lengthAdjust="spacing" textLength="153.1499" x="532.3315" y="470.6504">TradeState 'Confirmed'</text><polygon fill="#181818" points="823.5957,520.0137,833.5957,524.0137,823.5957,528.0137,827.5957,524.0137" style="stroke:#181818;stroke-width:1.0;"/><line style="stroke:#181818;stroke-width:1.0;" x1="300.4824" x2="829.5957" y1="524.0137" y2="524.0137"/><text fill="#000000" font-family="sans-serif" font-size="13" lengthAdjust="spacing" textLength="337.4033" x="307.4824" y="503.9609">tx 'transferFrom' margin buffers and termination fees</text><text fill="#000000" font-family="sans-serif" font-size="13" lengthAdjust="spacing" textLength="202.9346" x="307.4824" y="519.2715">to SDC address for CP1 and CP2</text><polygon fill="#181818" points="823.5957,549.3242,833.5957,553.3242,823.5957,557.3242,827.5957,553.3242" style="stroke:#181818;stroke-width:1.0;"/><line style="stroke:#181818;stroke-width:1.0;" x1="300.4824" x2="829.5957" y1="553.3242" y2="553.3242"/><text fill="#000000" font-family="sans-serif" font-size="13" lengthAdjust="spacing" textLength="434.332" x="307.4824" y="548.582">tx 'transferFrom' optional Upfront Fee from Paying to Receiving Party</text><rect fill="#EEEEEE" height="3" style="stroke:#EEEEEE;stroke-width:1.0;" width="1224.0977" x="0" y="581.9795"/><line style="stroke:#000000;stroke-width:1.0;" x1="0" x2="1224.0977" y1="581.9795" y2="581.9795"/><line style="stroke:#000000;stroke-width:1.0;" x1="0" x2="1224.0977" y1="584.9795" y2="584.9795"/><rect fill="#EEEEEE" height="23.3105" style="stroke:#000000;stroke-width:2.0;" width="171.0601" x="526.5188" y="571.3242"/><text fill="#000000" font-family="sans-serif" font-size="13" font-weight="bold" lengthAdjust="spacing" textLength="152.7754" x="532.5188" y="587.8926">TradeState 'inTransfer'</text><polygon fill="#181818" points="311.4824,621.9453,301.4824,625.9453,311.4824,629.9453,307.4824,625.9453" style="stroke:#181818;stroke-width:1.0;"/><line style="stroke:#181818;stroke-width:1.0;" x1="305.4824" x2="834.5957" y1="625.9453" y2="625.9453"/><text fill="#000000" font-family="sans-serif" font-size="13" lengthAdjust="spacing" textLength="160.126" x="317.4824" y="621.2031">callback tx 'afterTransfer'</text><rect fill="#EEEEEE" height="3" style="stroke:#EEEEEE;stroke-width:1.0;" width="1224.0977" x="0" y="654.6006"/><line style="stroke:#000000;stroke-width:1.0;" x1="0" x2="1224.0977" y1="654.6006" y2="654.6006"/><line style="stroke:#000000;stroke-width:1.0;" x1="0" x2="1224.0977" y1="657.6006" y2="657.6006"/><rect fill="#EEEEEE" height="23.3105" style="stroke:#000000;stroke-width:2.0;" width="159.6787" x="532.2095" y="643.9453"/><text fill="#000000" font-family="sans-serif" font-size="13" font-weight="bold" lengthAdjust="spacing" textLength="141.394" x="538.2095" y="660.5137">ProcessState 'Settled'</text><path d="M10,691.2559 L84.4468,691.2559 L84.4468,698.5664 L74.4468,708.5664 L10,708.5664 L10,691.2559 " fill="#EEEEEE" style="stroke:#000000;stroke-width:1.5;"/><rect fill="none" height="616.5" style="stroke:#000000;stroke-width:1.5;" width="1204.0977" x="10" y="691.2559"/><text fill="#000000" font-family="sans-serif" font-size="13" font-weight="bold" lengthAdjust="spacing" textLength="29.4468" x="25" y="704.8242">loop</text><text fill="#000000" font-family="sans-serif" font-size="11" font-weight="bold" lengthAdjust="spacing" textLength="103.2324" x="99.4468" y="703.8906">[Every Settlement]</text><polygon fill="#181818" points="278.4824,725.877,288.4824,729.877,278.4824,733.877,282.4824,729.877" style="stroke:#181818;stroke-width:1.0;"/><line style="stroke:#181818;stroke-width:1.0;" x1="41.1387" x2="284.4824" y1="729.877" y2="729.877"/><text fill="#000000" font-family="sans-serif" font-size="13" lengthAdjust="spacing" textLength="137.7822" x="48.1387" y="725.1348">tx: 'initiateSettlement'</text><rect fill="#EEEEEE" height="3" style="stroke:#EEEEEE;stroke-width:1.0;" width="1224.0977" x="0" y="758.5322"/><line style="stroke:#000000;stroke-width:1.0;" x1="0" x2="1224.0977" y1="758.5322" y2="758.5322"/><line style="stroke:#000000;stroke-width:1.0;" x1="0" x2="1224.0977" y1="761.5322" y2="761.5322"/><rect fill="#EEEEEE" height="23.3105" style="stroke:#000000;stroke-width:2.0;" width="164.4395" x="529.8291" y="747.877"/><text fill="#000000" font-family="sans-serif" font-size="13" font-weight="bold" lengthAdjust="spacing" textLength="146.1548" x="535.8291" y="764.4453">TradeState 'Valuation'</text><polygon fill="#181818" points="949.7109,798.498,959.7109,802.498,949.7109,806.498,953.7109,802.498" style="stroke:#181818;stroke-width:1.0;"/><line style="stroke:#181818;stroke-width:1.0;stroke-dasharray:2.0,2.0;" x1="300.4824" x2="955.7109" y1="802.498" y2="802.498"/><text fill="#000000" font-family="sans-serif" font-size="13" lengthAdjust="spacing" textLength="197.4819" x="307.4824" y="797.7559">emit ProcessSettlementRequest</text><polygon fill="#181818" points="1124.4702,827.8086,1134.4702,831.8086,1124.4702,835.8086,1128.4702,831.8086" style="stroke:#181818;stroke-width:1.0;"/><line style="stroke:#181818;stroke-width:1.0;" x1="971.7109" x2="1130.4702" y1="831.8086" y2="831.8086"/><text fill="#000000" font-family="sans-serif" font-size="13" lengthAdjust="spacing" textLength="140.7593" x="978.7109" y="827.0664">request valuation data</text><polygon fill="#181818" points="982.7109,857.1191,972.7109,861.1191,982.7109,865.1191,978.7109,861.1191" style="stroke:#181818;stroke-width:1.0;"/><line style="stroke:#181818;stroke-width:1.0;" x1="976.7109" x2="1135.4702" y1="861.1191" y2="861.1191"/><text fill="#000000" font-family="sans-serif" font-size="13" lengthAdjust="spacing" textLength="132.0947" x="988.7109" y="856.377">return valuation data</text><polygon fill="#181818" points="311.4824,886.4297,301.4824,890.4297,311.4824,894.4297,307.4824,890.4297" style="stroke:#181818;stroke-width:1.0;"/><line style="stroke:#181818;stroke-width:1.0;" x1="305.4824" x2="960.7109" y1="890.4297" y2="890.4297"/><text fill="#000000" font-family="sans-serif" font-size="13" lengthAdjust="spacing" textLength="200.3447" x="317.4824" y="885.6875">callback: tx 'performSettlement'</text><line style="stroke:#181818;stroke-width:1.0;" x1="300.4824" x2="342.4824" y1="919.7402" y2="919.7402"/><line style="stroke:#181818;stroke-width:1.0;" x1="342.4824" x2="342.4824" y1="919.7402" y2="932.7402"/><line style="stroke:#181818;stroke-width:1.0;" x1="301.4824" x2="342.4824" y1="932.7402" y2="932.7402"/><polygon fill="#181818" points="311.4824,928.7402,301.4824,932.7402,311.4824,936.7402,307.4824,932.7402" style="stroke:#181818;stroke-width:1.0;"/><text fill="#000000" font-family="sans-serif" font-size="13" lengthAdjust="spacing" textLength="298.27" x="307.4824" y="914.998">Caps Settlement Amount at Margin Buffer Level</text><polygon fill="#181818" points="823.5957,958.0508,833.5957,962.0508,823.5957,966.0508,827.5957,962.0508" style="stroke:#181818;stroke-width:1.0;"/><line style="stroke:#181818;stroke-width:1.0;" x1="300.4824" x2="829.5957" y1="962.0508" y2="962.0508"/><text fill="#000000" font-family="sans-serif" font-size="13" lengthAdjust="spacing" textLength="511.1133" x="307.4824" y="957.3086">tx 'transferFrom' settlement amount from Paying Party to Receiving Party Balance</text><rect fill="#EEEEEE" height="3" style="stroke:#EEEEEE;stroke-width:1.0;" width="1224.0977" x="0" y="990.7061"/><line style="stroke:#000000;stroke-width:1.0;" x1="0" x2="1224.0977" y1="990.7061" y2="990.7061"/><line style="stroke:#000000;stroke-width:1.0;" x1="0" x2="1224.0977" y1="993.7061" y2="993.7061"/><rect fill="#EEEEEE" height="23.3105" style="stroke:#000000;stroke-width:2.0;" width="171.0601" x="526.5188" y="980.0508"/><text fill="#000000" font-family="sans-serif" font-size="13" font-weight="bold" lengthAdjust="spacing" textLength="152.7754" x="532.5188" y="996.6191">TradeState 'inTransfer'</text><polygon fill="#181818" points="949.7109,1030.6719,959.7109,1034.6719,949.7109,1038.6719,953.7109,1034.6719" style="stroke:#181818;stroke-width:1.0;"/><line style="stroke:#181818;stroke-width:1.0;stroke-dasharray:2.0,2.0;" x1="300.4824" x2="955.7109" y1="1034.6719" y2="1034.6719"/><text fill="#000000" font-family="sans-serif" font-size="13" lengthAdjust="spacing" textLength="139.585" x="307.4824" y="1029.9297">emit AwaitingTransfer</text><path d="M264.626,1049.6719 L326.7646,1049.6719 L326.7646,1056.9824 L316.7646,1066.9824 L264.626,1066.9824 L264.626,1049.6719 " fill="#EEEEEE" style="stroke:#000000;stroke-width:1.5;"/><rect fill="none" height="251.084" style="stroke:#000000;stroke-width:1.5;" width="650.2583" x="264.626" y="1049.6719"/><text fill="#000000" font-family="sans-serif" font-size="13" font-weight="bold" lengthAdjust="spacing" textLength="17.1387" x="279.626" y="1063.2402">alt</text><text fill="#000000" font-family="sans-serif" font-size="11" font-weight="bold" lengthAdjust="spacing" textLength="94.6064" x="341.7646" y="1062.3066">[Transfer Check]</text><polygon fill="#181818" points="311.4824,1084.293,301.4824,1088.293,311.4824,1092.293,307.4824,1088.293" style="stroke:#181818;stroke-width:1.0;"/><line style="stroke:#181818;stroke-width:1.0;" x1="305.4824" x2="834.5957" y1="1088.293" y2="1088.293"/><text fill="#000000" font-family="sans-serif" font-size="13" lengthAdjust="spacing" textLength="160.126" x="317.4824" y="1083.5508">callback tx 'afterTransfer'</text><line style="stroke:#000000;stroke-width:1.0;stroke-dasharray:2.0,2.0;" x1="264.626" x2="914.8843" y1="1097.293" y2="1097.293"/><text fill="#000000" font-family="sans-serif" font-size="11" font-weight="bold" lengthAdjust="spacing" textLength="52.1909" x="269.626" y="1107.9277">[success]</text><rect fill="#EEEEEE" height="3" style="stroke:#EEEEEE;stroke-width:1.0;" width="1224.0977" x="0" y="1131.9033"/><line style="stroke:#000000;stroke-width:1.0;" x1="0" x2="1224.0977" y1="1131.9033" y2="1131.9033"/><line style="stroke:#000000;stroke-width:1.0;" x1="0" x2="1224.0977" y1="1134.9033" y2="1134.9033"/><rect fill="#EEEEEE" height="23.3105" style="stroke:#000000;stroke-width:2.0;" width="147.0088" x="538.5444" y="1121.248"/><text fill="#000000" font-family="sans-serif" font-size="13" font-weight="bold" lengthAdjust="spacing" textLength="128.7241" x="544.5444" y="1137.8164">TradeState 'Settled'</text><line style="stroke:#000000;stroke-width:1.0;stroke-dasharray:2.0,2.0;" x1="264.626" x2="914.8843" y1="1155.5586" y2="1155.5586"/><text fill="#000000" font-family="sans-serif" font-size="11" font-weight="bold" lengthAdjust="spacing" textLength="26.3345" x="269.626" y="1166.1934">[fail]</text><polygon fill="#181818" points="823.5957,1186.8242,833.5957,1190.8242,823.5957,1194.8242,827.5957,1190.8242" style="stroke:#181818;stroke-width:1.0;"/><line style="stroke:#181818;stroke-width:1.0;" x1="300.4824" x2="829.5957" y1="1190.8242" y2="1190.8242"/><text fill="#000000" font-family="sans-serif" font-size="13" lengthAdjust="spacing" textLength="430.0601" x="307.4824" y="1186.082">tx 'transfer' Settlement Amount from SDC Balance to Receiving Party</text><polygon fill="#181818" points="823.5957,1216.1348,833.5957,1220.1348,823.5957,1224.1348,827.5957,1220.1348" style="stroke:#181818;stroke-width:1.0;"/><line style="stroke:#181818;stroke-width:1.0;" x1="300.4824" x2="829.5957" y1="1220.1348" y2="1220.1348"/><text fill="#000000" font-family="sans-serif" font-size="13" lengthAdjust="spacing" textLength="410.7441" x="307.4824" y="1215.3926">tx 'transfer' Termination Fee from SDC Balance to Receiving Party</text><polygon fill="#181818" points="823.5957,1245.4453,833.5957,1249.4453,823.5957,1253.4453,827.5957,1249.4453" style="stroke:#181818;stroke-width:1.0;"/><line style="stroke:#181818;stroke-width:1.0;" x1="300.4824" x2="829.5957" y1="1249.4453" y2="1249.4453"/><text fill="#000000" font-family="sans-serif" font-size="13" lengthAdjust="spacing" textLength="317.7891" x="307.4824" y="1244.7031">tx 'transfer' - Release  remainigBalances to parties</text><rect fill="#EEEEEE" height="3" style="stroke:#EEEEEE;stroke-width:1.0;" width="1224.0977" x="0" y="1278.1006"/><line style="stroke:#000000;stroke-width:1.0;" x1="0" x2="1224.0977" y1="1278.1006" y2="1278.1006"/><line style="stroke:#000000;stroke-width:1.0;" x1="0" x2="1224.0977" y1="1281.1006" y2="1281.1006"/><rect fill="#EEEEEE" height="23.3105" style="stroke:#000000;stroke-width:2.0;" width="177.979" x="523.0593" y="1267.4453"/><text fill="#000000" font-family="sans-serif" font-size="13" font-weight="bold" lengthAdjust="spacing" textLength="159.6943" x="529.0593" y="1284.0137">TradeState 'Terminated'</text><!--SRC=[bLN1Rjim33tFNy6RJrwn7WEaGEkkM84D29fifrrKcKw4of8doUwohnybEQgZPaYMGs9Br7lauwDIxfphxUBggfTCkQ6J7xdkhYp-6b1nh1h1jePrXHDE8gmxPjmz6Z4o9qQijNA6SGUlmkrWZOvYEbIkskWNLC1K0xfjAxvZGi4F9WSwfHK5cb5mB8eFT5ORg5UVtXwlQRad5i55Jmd1-huk2g3FqMAY2an5TkRpI3jVY5wYETv9IQGSYeAOVJruV2ojvbnfuprMsl8LpLwefgtHGm-FIZZ1fFY3i36imO82eRh9A1R0fDJSdtrcr1MEbWAlBmqCYFVr0jnlA1lifTwNmBoGiKykDgTf35exgvE4dXtEFnvC44FlGkPbKL1OLTtCHLi0TiB5qXv3B3R5SXaNriwpb8Vr4fPBNzKiLwvLAqmtuNluk3UIOeq_xFmEFR5pv7L48lQSFkq4VWzpIbQV3P4fsw9vCBehWOo_9HC_3oqjsM1jXwOJAbgwHRG_bTD1vKbQQAEtGx0tGQpeF9VkFIQJyBrl3OqOF202FNMmOdkXjjH1U4AEOlGlAxBttfTvLATGcmap59gnJi9oiiypuoyX1zPIGUaG0QwC9aFP2J0YJBAX8cMbrhsV6REVpGZD4vMSchhmcNZFEtoBATzr9OrIJFPzRqDh3mabe2T_IrdYdCTMD_bWBi34GE-awGuABie3SqCPT8DH-QbZiYCXOpTxDDJwRbvmCdFDUZkJ2suxFT0FS_0jEkmkE0o-ueZoOiVODq0M0UTs2GuvOHguYvT6tetSE_yQjTjNHgrLsqCqNO0o361uWtg7_ANuyF_MGsaHxC1zi_FSvZOCSIqJaaZE2bMUK3s8v2Ts4kBKO5q4lPbT1MbOpm3xI_KYy8gEIcHKAncoexzIiPrWhSSDVszqyUTA7N8wYEL7Ddp_1G00]--></g></svg>