<?xml version="1.0" encoding="us-ascii" standalone="no"?><svg xmlns="http://www.w3.org/2000/svg" xmlns:xlink="http://www.w3.org/1999/xlink" contentStyleType="text/css" height="1641px" preserveAspectRatio="none" style="width:1184px;height:1641px;background:#FFFFFF;" version="1.1" viewBox="0 0 1184 1641" width="1184px" zoomAndPan="magnify"><defs/><g><text fill="#000000" font-family="sans-serif" font-size="14" font-weight="bold" lengthAdjust="spacing" textLength="557" x="309.75" y="30.1074">SmartDerivativeContract with Settlement-Token and off-chain Valuation Service</text><rect fill="#FFFFFF" height="1415.9023" style="stroke:#181818;stroke-width:1.0;" width="10" x="31.5" y="133.2422"/><rect fill="#FFFFFF" height="1415.9023" style="stroke:#181818;stroke-width:1.0;" width="10" x="74.5" y="133.2422"/><rect fill="#FFFFFF" height="1303.7383" style="stroke:#181818;stroke-width:1.0;" width="10" x="272.5" y="245.4063"/><rect fill="#FFFFFF" height="1415.9023" style="stroke:#181818;stroke-width:1.0;" width="10" x="778.5" y="133.2422"/><rect fill="#FFFFFF" height="1415.9023" style="stroke:#181818;stroke-width:1.0;" width="10" x="898.5" y="133.2422"/><rect fill="#FFFFFF" height="1415.9023" style="stroke:#181818;stroke-width:1.0;" width="10" x="1092.5" y="133.2422"/><rect fill="none" height="731.4023" style="stroke:#000000;stroke-width:1.5;" width="1157.5" x="10" y="140.2422"/><rect fill="none" height="655.5" style="stroke:#000000;stroke-width:1.5;" width="1157.5" x="10" y="885.6445"/><rect fill="none" height="268.2988" style="stroke:#000000;stroke-width:1.5;" width="608" x="246" y="1265.8457"/><line style="stroke:#181818;stroke-width:0.5;stroke-dasharray:5.0,5.0;" x1="36" x2="36" y1="123.2422" y2="1558.1445"/><line style="stroke:#181818;stroke-width:0.5;stroke-dasharray:5.0,5.0;" x1="79" x2="79" y1="123.2422" y2="1558.1445"/><line style="stroke:#181818;stroke-width:0.5;stroke-dasharray:5.0,5.0;" x1="277" x2="277" y1="123.2422" y2="1558.1445"/><line style="stroke:#181818;stroke-width:0.5;stroke-dasharray:5.0,5.0;" x1="783" x2="783" y1="123.2422" y2="1558.1445"/><line style="stroke:#181818;stroke-width:0.5;stroke-dasharray:5.0,5.0;" x1="903" x2="903" y1="123.2422" y2="1558.1445"/><line style="stroke:#181818;stroke-width:0.5;stroke-dasharray:5.0,5.0;" x1="1097.5" x2="1097.5" y1="123.2422" y2="1558.1445"/><text fill="#000000" font-family="sans-serif" font-size="14" lengthAdjust="spacing" textLength="27" x="20" y="119.7285">CP1</text><ellipse cx="36.5" cy="53.1211" fill="#E2E2F0" rx="8" ry="8" style="stroke:#181818;stroke-width:0.5;"/><path d="M36.5,61.1211 L36.5,88.1211 M23.5,69.1211 L49.5,69.1211 M36.5,88.1211 L23.5,103.1211 M36.5,88.1211 L49.5,103.1211 " fill="none" style="stroke:#181818;stroke-width:0.5;"/><text fill="#000000" font-family="sans-serif" font-size="14" lengthAdjust="spacing" textLength="27" x="20" y="1572.252">CP1</text><ellipse cx="36.5" cy="1584.2656" fill="#E2E2F0" rx="8" ry="8" style="stroke:#181818;stroke-width:0.5;"/><path d="M36.5,1592.2656 L36.5,1619.2656 M23.5,1600.2656 L49.5,1600.2656 M36.5,1619.2656 L23.5,1634.2656 M36.5,1619.2656 L49.5,1634.2656 " fill="none" style="stroke:#181818;stroke-width:0.5;"/><text fill="#000000" font-family="sans-serif" font-size="14" lengthAdjust="spacing" textLength="27" x="63" y="119.7285">CP2</text><ellipse cx="79.5" cy="53.1211" fill="#E2E2F0" rx="8" ry="8" style="stroke:#181818;stroke-width:0.5;"/><path d="M79.5,61.1211 L79.5,88.1211 M66.5,69.1211 L92.5,69.1211 M79.5,88.1211 L66.5,103.1211 M79.5,88.1211 L92.5,103.1211 " fill="none" style="stroke:#181818;stroke-width:0.5;"/><text fill="#000000" font-family="sans-serif" font-size="14" lengthAdjust="spacing" textLength="27" x="63" y="1572.252">CP2</text><ellipse cx="79.5" cy="1584.2656" fill="#E2E2F0" rx="8" ry="8" style="stroke:#181818;stroke-width:0.5;"/><path d="M79.5,1592.2656 L79.5,1619.2656 M66.5,1600.2656 L92.5,1600.2656 M79.5,1619.2656 L66.5,1634.2656 M79.5,1619.2656 L92.5,1634.2656 " fill="none" style="stroke:#181818;stroke-width:0.5;"/><rect fill="#E2E2F0" height="32.6211" rx="2.5" ry="2.5" style="stroke:#181818;stroke-width:0.5;" width="43" x="256" y="89.6211"/><text fill="#000000" font-family="sans-serif" font-size="14" lengthAdjust="spacing" textLength="29" x="263" y="111.7285">SDC</text><rect fill="#E2E2F0" height="32.6211" rx="2.5" ry="2.5" style="stroke:#181818;stroke-width:0.5;" width="43" x="256" y="1557.1445"/><text fill="#000000" font-family="sans-serif" font-size="14" lengthAdjust="spacing" textLength="29" x="263" y="1579.252">SDC</text><rect fill="#E2E2F0" height="32.6211" rx="2.5" ry="2.5" style="stroke:#181818;stroke-width:0.5;" width="121" x="723" y="89.6211"/><text fill="#000000" font-family="sans-serif" font-size="14" lengthAdjust="spacing" textLength="107" x="730" y="111.7285">SettlementToken</text><rect fill="#E2E2F0" height="32.6211" rx="2.5" ry="2.5" style="stroke:#181818;stroke-width:0.5;" width="121" x="723" y="1557.1445"/><text fill="#000000" font-family="sans-serif" font-size="14" lengthAdjust="spacing" textLength="107" x="730" y="1579.252">SettlementToken</text><rect fill="#E2E2F0" height="32.6211" rx="2.5" ry="2.5" style="stroke:#181818;stroke-width:0.5;" width="99" x="854" y="89.6211"/><text fill="#000000" font-family="sans-serif" font-size="14" lengthAdjust="spacing" textLength="85" x="861" y="111.7285">EventHandler</text><rect fill="#E2E2F0" height="32.6211" rx="2.5" ry="2.5" style="stroke:#181818;stroke-width:0.5;" width="99" x="854" y="1557.1445"/><text fill="#000000" font-family="sans-serif" font-size="14" lengthAdjust="spacing" textLength="85" x="861" y="1579.252">EventHandler</text><rect fill="#E2E2F0" height="32.6211" rx="2.5" ry="2.5" style="stroke:#181818;stroke-width:0.5;" width="120" x="1037.5" y="89.6211"/><text fill="#000000" font-family="sans-serif" font-size="14" lengthAdjust="spacing" textLength="106" x="1044.5" y="111.7285">ValuationService</text><rect fill="#E2E2F0" height="32.6211" rx="2.5" ry="2.5" style="stroke:#181818;stroke-width:0.5;" width="120" x="1037.5" y="1557.1445"/><text fill="#000000" font-family="sans-serif" font-size="14" lengthAdjust="spacing" textLength="106" x="1044.5" y="1579.252">ValuationService</text><rect fill="#FFFFFF" height="1415.9023" style="stroke:#181818;stroke-width:1.0;" width="10" x="31.5" y="133.2422"/><rect fill="#FFFFFF" height="1415.9023" style="stroke:#181818;stroke-width:1.0;" width="10" x="74.5" y="133.2422"/><rect fill="#FFFFFF" height="1303.7383" style="stroke:#181818;stroke-width:1.0;" width="10" x="272.5" y="245.4063"/><rect fill="#FFFFFF" height="1415.9023" style="stroke:#181818;stroke-width:1.0;" width="10" x="778.5" y="133.2422"/><rect fill="#FFFFFF" height="1415.9023" style="stroke:#181818;stroke-width:1.0;" width="10" x="898.5" y="133.2422"/><rect fill="#FFFFFF" height="1415.9023" style="stroke:#181818;stroke-width:1.0;" width="10" x="1092.5" y="133.2422"/><path d="M10,140.2422 L151,140.2422 L151,149.5332 L141,159.5332 L10,159.5332 L10,140.2422 " fill="#EEEEEE" style="stroke:#000000;stroke-width:1.5;"/><rect fill="none" height="731.4023" style="stroke:#000000;stroke-width:1.5;" width="1157.5" x="10" y="140.2422"/><text fill="#000000" font-family="sans-serif" font-size="13" font-weight="bold" lengthAdjust="spacing" textLength="96" x="25" y="155.2705">Initialize Trade</text><polygon fill="#181818" points="766.5,178.8242,776.5,182.8242,766.5,186.8242,770.5,182.8242" style="stroke:#181818;stroke-width:1.0;"/><line style="stroke:#181818;stroke-width:1.0;" x1="41.5" x2="772.5" y1="182.8242" y2="182.8242"/><text fill="#000000" font-family="sans-serif" font-size="13" lengthAdjust="spacing" textLength="101" x="48.5" y="177.5615">allocate balances</text><polygon fill="#181818" points="766.5,210.1152,776.5,214.1152,766.5,218.1152,770.5,214.1152" style="stroke:#181818;stroke-width:1.0;"/><line style="stroke:#181818;stroke-width:1.0;" x1="84.5" x2="772.5" y1="214.1152" y2="214.1152"/><text fill="#000000" font-family="sans-serif" font-size="13" lengthAdjust="spacing" textLength="101" x="91.5" y="208.8525">allocate balances</text><polygon fill="#181818" points="260.5,241.4063,270.5,245.4063,260.5,249.4063,264.5,245.4063" style="stroke:#181818;stroke-width:1.0;"/><line style="stroke:#181818;stroke-width:1.0;" x1="41.5" x2="266.5" y1="245.4063" y2="245.4063"/><text fill="#000000" font-family="sans-serif" font-size="13" lengthAdjust="spacing" textLength="212" x="48.5" y="240.1436">tx 'deploy' a SDC with token address</text><polygon fill="#181818" points="766.5,272.6973,776.5,276.6973,766.5,280.6973,770.5,276.6973" style="stroke:#181818;stroke-width:1.0;"/><line style="stroke:#181818;stroke-width:1.0;" x1="41.5" x2="772.5" y1="276.6973" y2="276.6973"/><text fill="#000000" font-family="sans-serif" font-size="13" lengthAdjust="spacing" textLength="197" x="48.5" y="271.4346">tx set 'allowance' for SDC address</text><polygon fill="#181818" points="766.5,303.9883,776.5,307.9883,766.5,311.9883,770.5,307.9883" style="stroke:#181818;stroke-width:1.0;"/><line style="stroke:#181818;stroke-width:1.0;" x1="84.5" x2="772.5" y1="307.9883" y2="307.9883"/><text fill="#000000" font-family="sans-serif" font-size="13" lengthAdjust="spacing" textLength="197" x="91.5" y="302.7256">tx set 'allowance' for SDC address</text><polygon fill="#181818" points="260.5,335.2793,270.5,339.2793,260.5,343.2793,264.5,339.2793" style="stroke:#181818;stroke-width:1.0;"/><line style="stroke:#181818;stroke-width:1.0;" x1="41.5" x2="266.5" y1="339.2793" y2="339.2793"/><text fill="#000000" font-family="sans-serif" font-size="13" lengthAdjust="spacing" textLength="86" x="48.5" y="334.0166">tx 'inceptTrade'</text><polygon fill="#181818" points="886.5,366.5703,896.5,370.5703,886.5,374.5703,890.5,370.5703" style="stroke:#181818;stroke-width:1.0;"/><line style="stroke:#181818;stroke-width:1.0;stroke-dasharray:2.0,2.0;" x1="282.5" x2="892.5" y1="370.5703" y2="370.5703"/><text fill="#000000" font-family="sans-serif" font-size="13" lengthAdjust="spacing" textLength="110" x="289.5" y="365.3076">emit TradeIncepted</text><polygon fill="#181818" points="1080.5,397.8613,1090.5,401.8613,1080.5,405.8613,1084.5,401.8613" style="stroke:#181818;stroke-width:1.0;"/><line style="stroke:#181818;stroke-width:1.0;" x1="908.5" x2="1086.5" y1="401.8613" y2="401.8613"/><text fill="#000000" font-family="sans-serif" font-size="13" lengthAdjust="spacing" textLength="160" x="915.5" y="396.5986">request initial valuation data</text><polygon fill="#181818" points="919.5,429.1523,909.5,433.1523,919.5,437.1523,915.5,433.1523" style="stroke:#181818;stroke-width:1.0;"/><line style="stroke:#181818;stroke-width:1.0;" x1="913.5" x2="1091.5" y1="433.1523" y2="433.1523"/><text fill="#000000" font-family="sans-serif" font-size="13" lengthAdjust="spacing" textLength="150" x="925.5" y="427.8896">return initial valuation data</text><polygon fill="#181818" points="293.5,460.4434,283.5,464.4434,293.5,468.4434,289.5,464.4434" style="stroke:#181818;stroke-width:1.0;"/><line style="stroke:#181818;stroke-width:1.0;" x1="287.5" x2="897.5" y1="464.4434" y2="464.4434"/><text fill="#000000" font-family="sans-serif" font-size="13" lengthAdjust="spacing" textLength="290" x="299.5" y="459.1807">tx 'performSettlement' to store initial valuation data</text><rect fill="#EEEEEE" height="3" style="stroke:#EEEEEE;stroke-width:1.0;" width="1177.5" x="0" y="494.0889"/><line style="stroke:#000000;stroke-width:1.0;" x1="0" x2="1177.5" y1="494.0889" y2="494.0889"/><line style="stroke:#000000;stroke-width:1.0;" x1="0" x2="1177.5" y1="497.0889" y2="497.0889"/><rect fill="#EEEEEE" height="25.291" style="stroke:#000000;stroke-width:2.0;" width="153" x="512.25" y="482.4434"/><text fill="#000000" font-family="sans-serif" font-size="13" font-weight="bold" lengthAdjust="spacing" textLength="135" x="518.25" y="500.4717">TradeState 'Incepted'</text><polygon fill="#181818" points="260.5,537.0254,270.5,541.0254,260.5,545.0254,264.5,541.0254" style="stroke:#181818;stroke-width:1.0;"/><line style="stroke:#181818;stroke-width:1.0;" x1="84.5" x2="266.5" y1="541.0254" y2="541.0254"/><text fill="#000000" font-family="sans-serif" font-size="13" lengthAdjust="spacing" textLength="93" x="91.5" y="535.7627">tx 'confirmTrade'</text><line style="stroke:#181818;stroke-width:1.0;" x1="282.5" x2="324.5" y1="572.3164" y2="572.3164"/><line style="stroke:#181818;stroke-width:1.0;" x1="324.5" x2="324.5" y1="572.3164" y2="585.3164"/><line style="stroke:#181818;stroke-width:1.0;" x1="283.5" x2="324.5" y1="585.3164" y2="585.3164"/><polygon fill="#181818" points="293.5,581.3164,283.5,585.3164,293.5,589.3164,289.5,585.3164" style="stroke:#181818;stroke-width:1.0;"/><text fill="#000000" font-family="sans-serif" font-size="13" lengthAdjust="spacing" textLength="101" x="289.5" y="567.0537">validate tradedata</text><polygon fill="#181818" points="886.5,612.6074,896.5,616.6074,886.5,620.6074,890.5,616.6074" style="stroke:#181818;stroke-width:1.0;"/><line style="stroke:#181818;stroke-width:1.0;stroke-dasharray:2.0,2.0;" x1="282.5" x2="892.5" y1="616.6074" y2="616.6074"/><text fill="#000000" font-family="sans-serif" font-size="13" lengthAdjust="spacing" textLength="119" x="289.5" y="611.3447">emit TradeConfirmed</text><rect fill="#EEEEEE" height="3" style="stroke:#EEEEEE;stroke-width:1.0;" width="1177.5" x="0" y="646.2529"/><line style="stroke:#000000;stroke-width:1.0;" x1="0" x2="1177.5" y1="646.2529" y2="646.2529"/><line style="stroke:#000000;stroke-width:1.0;" x1="0" x2="1177.5" y1="649.2529" y2="649.2529"/><rect fill="#EEEEEE" height="25.291" style="stroke:#000000;stroke-width:2.0;" width="164" x="506.75" y="634.6074"/><text fill="#000000" font-family="sans-serif" font-size="13" font-weight="bold" lengthAdjust="spacing" textLength="146" x="512.75" y="652.6357">TradeState 'Confirmed'</text><polygon fill="#181818" points="766.5,706.4805,776.5,710.4805,766.5,714.4805,770.5,710.4805" style="stroke:#181818;stroke-width:1.0;"/><line style="stroke:#181818;stroke-width:1.0;" x1="282.5" x2="772.5" y1="710.4805" y2="710.4805"/><text fill="#000000" font-family="sans-serif" font-size="13" lengthAdjust="spacing" textLength="298" x="289.5" y="687.9268">tx 'transferFrom' margin buffers and termination fees</text><text fill="#000000" font-family="sans-serif" font-size="13" lengthAdjust="spacing" textLength="193" x="289.5" y="705.2178">to SDC address for CP1 and CP2</text><polygon fill="#181818" points="766.5,737.7715,776.5,741.7715,766.5,745.7715,770.5,741.7715" style="stroke:#181818;stroke-width:1.0;"/><line style="stroke:#181818;stroke-width:1.0;" x1="282.5" x2="772.5" y1="741.7715" y2="741.7715"/><text fill="#000000" font-family="sans-serif" font-size="13" lengthAdjust="spacing" textLength="394" x="289.5" y="736.5088">tx 'transferFrom' optional Upfront Fee from Paying to Receiving Party</text><rect fill="#EEEEEE" height="3" style="stroke:#EEEEEE;stroke-width:1.0;" width="1177.5" x="0" y="771.417"/><line style="stroke:#000000;stroke-width:1.0;" x1="0" x2="1177.5" y1="771.417" y2="771.417"/><line style="stroke:#000000;stroke-width:1.0;" x1="0" x2="1177.5" y1="774.417" y2="774.417"/><rect fill="#EEEEEE" height="25.291" style="stroke:#000000;stroke-width:2.0;" width="162" x="507.75" y="759.7715"/><text fill="#000000" font-family="sans-serif" font-size="13" font-weight="bold" lengthAdjust="spacing" textLength="144" x="513.75" y="777.7998">TradeState 'inTransfer'</text><polygon fill="#181818" points="293.5,814.3535,283.5,818.3535,293.5,822.3535,289.5,818.3535" style="stroke:#181818;stroke-width:1.0;"/><line style="stroke:#181818;stroke-width:1.0;" x1="287.5" x2="777.5" y1="818.3535" y2="818.3535"/><text fill="#000000" font-family="sans-serif" font-size="13" lengthAdjust="spacing" textLength="159" x="299.5" y="813.0908">callback tx 'afterSettlement'</text><rect fill="#EEEEEE" height="3" style="stroke:#EEEEEE;stroke-width:1.0;" width="1177.5" x="0" y="847.999"/><line style="stroke:#000000;stroke-width:1.0;" x1="0" x2="1177.5" y1="847.999" y2="847.999"/><line style="stroke:#000000;stroke-width:1.0;" x1="0" x2="1177.5" y1="850.999" y2="850.999"/><rect fill="#EEEEEE" height="25.291" style="stroke:#000000;stroke-width:2.0;" width="155" x="511.25" y="836.3535"/><text fill="#000000" font-family="sans-serif" font-size="13" font-weight="bold" lengthAdjust="spacing" textLength="137" x="517.25" y="854.3818">ProcessState 'Settled'</text><path d="M10,885.6445 L83,885.6445 L83,894.9355 L73,904.9355 L10,904.9355 L10,885.6445 " fill="#EEEEEE" style="stroke:#000000;stroke-width:1.5;"/><rect fill="none" height="655.5" style="stroke:#000000;stroke-width:1.5;" width="1157.5" x="10" y="885.6445"/><text fill="#000000" font-family="sans-serif" font-size="13" font-weight="bold" lengthAdjust="spacing" textLength="28" x="25" y="900.6729">loop</text><text fill="#000000" font-family="sans-serif" font-size="11" font-weight="bold" lengthAdjust="spacing" textLength="102" x="98" y="899.5146">[Every Settlement]</text><polygon fill="#181818" points="260.5,924.2266,270.5,928.2266,260.5,932.2266,264.5,928.2266" style="stroke:#181818;stroke-width:1.0;"/><line style="stroke:#181818;stroke-width:1.0;" x1="41.5" x2="266.5" y1="928.2266" y2="928.2266"/><text fill="#000000" font-family="sans-serif" font-size="13" lengthAdjust="spacing" textLength="124" x="48.5" y="922.9639">tx: 'initiateSettlement'</text><rect fill="#EEEEEE" height="3" style="stroke:#EEEEEE;stroke-width:1.0;" width="1177.5" x="0" y="957.8721"/><line style="stroke:#000000;stroke-width:1.0;" x1="0" x2="1177.5" y1="957.8721" y2="957.8721"/><line style="stroke:#000000;stroke-width:1.0;" x1="0" x2="1177.5" y1="960.8721" y2="960.8721"/><rect fill="#EEEEEE" height="25.291" style="stroke:#000000;stroke-width:2.0;" width="159" x="509.25" y="946.2266"/><text fill="#000000" font-family="sans-serif" font-size="13" font-weight="bold" lengthAdjust="spacing" textLength="141" x="515.25" y="964.2549">TradeState 'Valuation'</text><polygon fill="#181818" points="886.5,1000.8086,896.5,1004.8086,886.5,1008.8086,890.5,1004.8086" style="stroke:#181818;stroke-width:1.0;"/><line style="stroke:#181818;stroke-width:1.0;stroke-dasharray:2.0,2.0;" x1="282.5" x2="892.5" y1="1004.8086" y2="1004.8086"/><text fill="#000000" font-family="sans-serif" font-size="13" lengthAdjust="spacing" textLength="188" x="289.5" y="999.5459">emit ProcessSettlementRequest</text><polygon fill="#181818" points="1080.5,1032.0996,1090.5,1036.0996,1080.5,1040.0996,1084.5,1036.0996" style="stroke:#181818;stroke-width:1.0;"/><line style="stroke:#181818;stroke-width:1.0;" x1="908.5" x2="1086.5" y1="1036.0996" y2="1036.0996"/><text fill="#000000" font-family="sans-serif" font-size="13" lengthAdjust="spacing" textLength="126" x="915.5" y="1030.8369">request valuation data</text><polygon fill="#181818" points="919.5,1063.3906,909.5,1067.3906,919.5,1071.3906,915.5,1067.3906" style="stroke:#181818;stroke-width:1.0;"/><line style="stroke:#181818;stroke-width:1.0;" x1="913.5" x2="1091.5" y1="1067.3906" y2="1067.3906"/><text fill="#000000" font-family="sans-serif" font-size="13" lengthAdjust="spacing" textLength="116" x="925.5" y="1062.1279">return valuation data</text><polygon fill="#181818" points="293.5,1094.6816,283.5,1098.6816,293.5,1102.6816,289.5,1098.6816" style="stroke:#181818;stroke-width:1.0;"/><line style="stroke:#181818;stroke-width:1.0;" x1="287.5" x2="897.5" y1="1098.6816" y2="1098.6816"/><text fill="#000000" font-family="sans-serif" font-size="13" lengthAdjust="spacing" textLength="181" x="299.5" y="1093.4189">callback: tx 'performSettlement'</text><line style="stroke:#181818;stroke-width:1.0;" x1="282.5" x2="324.5" y1="1129.9727" y2="1129.9727"/><line style="stroke:#181818;stroke-width:1.0;" x1="324.5" x2="324.5" y1="1129.9727" y2="1142.9727"/><line style="stroke:#181818;stroke-width:1.0;" x1="283.5" x2="324.5" y1="1142.9727" y2="1142.9727"/><polygon fill="#181818" points="293.5,1138.9727,283.5,1142.9727,293.5,1146.9727,289.5,1142.9727" style="stroke:#181818;stroke-width:1.0;"/><text fill="#000000" font-family="sans-serif" font-size="13" lengthAdjust="spacing" textLength="274" x="289.5" y="1124.71">Caps Settlement Amount at Margin Buffer Level</text><polygon fill="#181818" points="766.5,1170.2637,776.5,1174.2637,766.5,1178.2637,770.5,1174.2637" style="stroke:#181818;stroke-width:1.0;"/><line style="stroke:#181818;stroke-width:1.0;" x1="282.5" x2="772.5" y1="1174.2637" y2="1174.2637"/><text fill="#000000" font-family="sans-serif" font-size="13" lengthAdjust="spacing" textLength="472" x="289.5" y="1169.001">tx 'transferFrom' settlement amount from Paying Party to Receiving Party Balance</text><rect fill="#EEEEEE" height="3" style="stroke:#EEEEEE;stroke-width:1.0;" width="1177.5" x="0" y="1203.9092"/><line style="stroke:#000000;stroke-width:1.0;" x1="0" x2="1177.5" y1="1203.9092" y2="1203.9092"/><line style="stroke:#000000;stroke-width:1.0;" x1="0" x2="1177.5" y1="1206.9092" y2="1206.9092"/><rect fill="#EEEEEE" height="25.291" style="stroke:#000000;stroke-width:2.0;" width="162" x="507.75" y="1192.2637"/><text fill="#000000" font-family="sans-serif" font-size="13" font-weight="bold" lengthAdjust="spacing" textLength="144" x="513.75" y="1210.292">TradeState 'inTransfer'</text><polygon fill="#181818" points="886.5,1246.8457,896.5,1250.8457,886.5,1254.8457,890.5,1250.8457" style="stroke:#181818;stroke-width:1.0;"/><line style="stroke:#181818;stroke-width:1.0;stroke-dasharray:2.0,2.0;" x1="282.5" x2="892.5" y1="1250.8457" y2="1250.8457"/><text fill="#000000" font-family="sans-serif" font-size="13" lengthAdjust="spacing" textLength="124" x="289.5" y="1245.583">emit AwaitingTransfer</text><path d="M246,1265.8457 L307,1265.8457 L307,1275.1367 L297,1285.1367 L246,1285.1367 L246,1265.8457 " fill="#EEEEEE" style="stroke:#000000;stroke-width:1.5;"/><rect fill="none" height="268.2988" style="stroke:#000000;stroke-width:1.5;" width="608" x="246" y="1265.8457"/><text fill="#000000" font-family="sans-serif" font-size="13" font-weight="bold" lengthAdjust="spacing" textLength="16" x="261" y="1280.874">alt</text><text fill="#000000" font-family="sans-serif" font-size="11" font-weight="bold" lengthAdjust="spacing" textLength="94" x="322" y="1279.7158">[Transfer Check]</text><polygon fill="#181818" points="293.5,1304.4277,283.5,1308.4277,293.5,1312.4277,289.5,1308.4277" style="stroke:#181818;stroke-width:1.0;"/><line style="stroke:#181818;stroke-width:1.0;" x1="287.5" x2="777.5" y1="1308.4277" y2="1308.4277"/><text fill="#000000" font-family="sans-serif" font-size="13" lengthAdjust="spacing" textLength="159" x="299.5" y="1303.165">callback tx 'afterSettlement'</text><line style="stroke:#000000;stroke-width:1.0;stroke-dasharray:2.0,2.0;" x1="246" x2="854" y1="1317.4277" y2="1317.4277"/><text fill="#000000" font-family="sans-serif" font-size="11" font-weight="bold" lengthAdjust="spacing" textLength="55" x="251" y="1329.2979">[success]</text><rect fill="#EEEEEE" height="3" style="stroke:#EEEEEE;stroke-width:1.0;" width="1177.5" x="0" y="1354.7041"/><line style="stroke:#000000;stroke-width:1.0;" x1="0" x2="1177.5" y1="1354.7041" y2="1354.7041"/><line style="stroke:#000000;stroke-width:1.0;" x1="0" x2="1177.5" y1="1357.7041" y2="1357.7041"/><rect fill="#EEEEEE" height="25.291" style="stroke:#000000;stroke-width:2.0;" width="143" x="517.25" y="1343.0586"/><text fill="#000000" font-family="sans-serif" font-size="13" font-weight="bold" lengthAdjust="spacing" textLength="125" x="523.25" y="1361.0869">TradeState 'Settled'</text><line style="stroke:#000000;stroke-width:1.0;stroke-dasharray:2.0,2.0;" x1="246" x2="854" y1="1379.3496" y2="1379.3496"/><text fill="#000000" font-family="sans-serif" font-size="11" font-weight="bold" lengthAdjust="spacing" textLength="24" x="251" y="1391.2197">[fail]</text><polygon fill="#181818" points="766.5,1414.2715,776.5,1418.2715,766.5,1422.2715,770.5,1418.2715" style="stroke:#181818;stroke-width:1.0;"/><line style="stroke:#181818;stroke-width:1.0;" x1="282.5" x2="772.5" y1="1418.2715" y2="1418.2715"/><text fill="#000000" font-family="sans-serif" font-size="13" lengthAdjust="spacing" textLength="398" x="289.5" y="1413.0088">tx 'transfer' Settlement Amount from SDC Balance to Receiving Party</text><polygon fill="#181818" points="766.5,1445.5625,776.5,1449.5625,766.5,1453.5625,770.5,1449.5625" style="stroke:#181818;stroke-width:1.0;"/><line style="stroke:#181818;stroke-width:1.0;" x1="282.5" x2="772.5" y1="1449.5625" y2="1449.5625"/><text fill="#000000" font-family="sans-serif" font-size="13" lengthAdjust="spacing" textLength="379" x="289.5" y="1444.2998">tx 'transfer' Termination Fee from SDC Balance to Receiving Party</text><polygon fill="#181818" points="766.5,1476.8535,776.5,1480.8535,766.5,1484.8535,770.5,1480.8535" style="stroke:#181818;stroke-width:1.0;"/><line style="stroke:#181818;stroke-width:1.0;" x1="282.5" x2="772.5" y1="1480.8535" y2="1480.8535"/><text fill="#000000" font-family="sans-serif" font-size="13" lengthAdjust="spacing" textLength="258" x="289.5" y="1475.5908">tx 'approve' - Unlock remaing Party Balances</text><rect fill="#EEEEEE" height="3" style="stroke:#EEEEEE;stroke-width:1.0;" width="1177.5" x="0" y="1510.499"/><line style="stroke:#000000;stroke-width:1.0;" x1="0" x2="1177.5" y1="1510.499" y2="1510.499"/><line style="stroke:#000000;stroke-width:1.0;" x1="0" x2="1177.5" y1="1513.499" y2="1513.499"/><rect fill="#EEEEEE" height="25.291" style="stroke:#000000;stroke-width:2.0;" width="171" x="503.25" y="1498.8535"/><text fill="#000000" font-family="sans-serif" font-size="13" font-weight="bold" lengthAdjust="spacing" textLength="153" x="509.25" y="1516.8818">TradeState 'Terminated'</text><!--SRC=[dLN1Rjim33rNNy6RJrwn7WEaG9kkM84D29fqfrrKcqw4s98doUwohnyfnOxZD4tG7Dh48X_9znxbPErzxIRNrtKfjM-gyajcgck7VnhK6QQvaYihA-6LBn4MbRJ-0QrgfLSjpepsLcOUtfHVmm8znLIeVReq6zGWTGwcAD9iBPM6Nx9iACje2hIjob28Ayer5cRph_klD_IufYegKpKr18k7cH10duE7VQbGIOnolhLqyftAbsWFJ_ec-Xw4eCey3nwczK_7jVg3Owp-Y2SQ_A2PLjOqDJnfvPKirJ-4fPKv2Wg4z7PKOWAoB4t6kQ-ILCdGKU3DfO41yM4s0VyNaXphqcmJa4narCb7SVBSedE3EOde4-qGa4CF2LTxup8952GM8tOm9_gxABDlUFpX0HGbrJwmbGX1OMbwEnHg0bWf7-by2h6OYs50UZiMQWAMxUqygAW7jBqtS-cb62UCArhqZTMdiW-BzqhKQ6dqQazHGag08zVZAQJfDCwry2nGqesNm7JAX0_0CwCBPQiTJSnIF2D0bNEovvC0UeR3MKGY4iVb-vDGds5EA9vGCUqAj8_ML0dGdR6Y_Nzj2dhamgtWqLPAnqaBHFTR4nK3KmIJi34ucFSdJdI-bgaPavXygGjBjnCy8W9zgs0kjqglcF9dp52r_6DEDyEMnpoOK-db3ZCCEggw8pOZHx_AR1Dwa0KDD12M8EVMq3Qw7MGysn67chWjZQdvmh7RmGL3bn4DtSiwuLxO61w7u6DTUhV6Te_L3U9s3VL0pt47nCNByhabERyS7PMdrcHlvvcitO0kkAjCG_-aXv_HO_V1O_03MomlzepR0ye8E3HCyCWxje7xUEEErHYxvzIotRr9abQlkcXwUvHX1SClcAqnsuYhpvWFIuVWcepb7dStD6A8AwGggSnPgf9tU0yqyTRkg7XlkIw2NWwkWtvXpm3p- -43S5dNrhJqkadXHTCxSaD-hEIHUkvecxfUEf9uMSFV_m00]--></g></svg>