<svg xmlns="http://www.w3.org/2000/svg" xmlns:xlink="http://www.w3.org/1999/xlink" width="900" zoomAndPan="magnify" viewBox="0 0 675 449.999984" height="600" preserveAspectRatio="xMidYMid meet" version="1.0"><defs><g/><clipPath id="de38e516e1"><path d="M 258.84375 208.609375 L 393.84375 208.609375 L 393.84375 343.609375 L 258.84375 343.609375 Z M 258.84375 208.609375 " clip-rule="nonzero"/></clipPath><clipPath id="1c2bcac327"><path d="M 279.84375 208.609375 L 372.84375 208.609375 C 384.441406 208.609375 393.84375 218.011719 393.84375 229.609375 L 393.84375 322.609375 C 393.84375 334.207031 384.441406 343.609375 372.84375 343.609375 L 279.84375 343.609375 C 268.246094 343.609375 258.84375 334.207031 258.84375 322.609375 L 258.84375 229.609375 C 258.84375 218.011719 268.246094 208.609375 279.84375 208.609375 Z M 279.84375 208.609375 " clip-rule="nonzero"/></clipPath><clipPath id="ca67ca5841"><path d="M 69.65625 96.191406 L 204.65625 96.191406 L 204.65625 231.191406 L 69.65625 231.191406 Z M 69.65625 96.191406 " clip-rule="nonzero"/></clipPath><clipPath id="086e51539b"><path d="M 90.65625 96.191406 L 183.65625 96.191406 C 195.253906 96.191406 204.65625 105.59375 204.65625 117.191406 L 204.65625 210.191406 C 204.65625 221.789062 195.253906 231.191406 183.65625 231.191406 L 90.65625 231.191406 C 79.058594 231.191406 69.65625 221.789062 69.65625 210.191406 L 69.65625 117.191406 C 69.65625 105.59375 79.058594 96.191406 90.65625 96.191406 Z M 90.65625 96.191406 " clip-rule="nonzero"/></clipPath><clipPath id="dae2cc4fb9"><path d="M 69.65625 295.753906 L 204.65625 295.753906 L 204.65625 430.753906 L 69.65625 430.753906 Z M 69.65625 295.753906 " clip-rule="nonzero"/></clipPath><clipPath id="32d29fe430"><path d="M 90.65625 295.753906 L 183.65625 295.753906 C 195.253906 295.753906 204.65625 305.15625 204.65625 316.753906 L 204.65625 409.753906 C 204.65625 421.351562 195.253906 430.753906 183.65625 430.753906 L 90.65625 430.753906 C 79.058594 430.753906 69.65625 421.351562 69.65625 409.753906 L 69.65625 316.753906 C 69.65625 305.15625 79.058594 295.753906 90.65625 295.753906 Z M 90.65625 295.753906 " clip-rule="nonzero"/></clipPath><clipPath id="f55c2c1796"><path d="M 470.34375 295.671875 L 605.34375 295.671875 L 605.34375 430.671875 L 470.34375 430.671875 Z M 470.34375 295.671875 " clip-rule="nonzero"/></clipPath><clipPath id="7346a93bd3"><path d="M 491.34375 295.671875 L 584.34375 295.671875 C 595.941406 295.671875 605.34375 305.074219 605.34375 316.671875 L 605.34375 409.671875 C 605.34375 421.269531 595.941406 430.671875 584.34375 430.671875 L 491.34375 430.671875 C 479.746094 430.671875 470.34375 421.269531 470.34375 409.671875 L 470.34375 316.671875 C 470.34375 305.074219 479.746094 295.671875 491.34375 295.671875 Z M 491.34375 295.671875 " clip-rule="nonzero"/></clipPath><clipPath id="2bdaec4773"><path d="M 470.34375 96.109375 L 605.34375 96.109375 L 605.34375 231.109375 L 470.34375 231.109375 Z M 470.34375 96.109375 " clip-rule="nonzero"/></clipPath><clipPath id="d406e32a69"><path d="M 491.34375 96.109375 L 584.34375 96.109375 C 595.941406 96.109375 605.34375 105.511719 605.34375 117.109375 L 605.34375 210.109375 C 605.34375 221.707031 595.941406 231.109375 584.34375 231.109375 L 491.34375 231.109375 C 479.746094 231.109375 470.34375 221.707031 470.34375 210.109375 L 470.34375 117.109375 C 470.34375 105.511719 479.746094 96.109375 491.34375 96.109375 Z M 491.34375 96.109375 " clip-rule="nonzero"/></clipPath></defs><rect x="-67.5" width="810" fill="#ffffff" y="-44.999998" height="539.99998" fill-opacity="1"/><rect x="-67.5" width="810" fill="#ffffff" y="-44.999998" height="539.99998" fill-opacity="1"/><g clip-path="url(#de38e516e1)"><g clip-path="url(#1c2bcac327)"><path fill="#2f2f2f" d="M 258.84375 208.609375 L 393.84375 208.609375 L 393.84375 343.609375 L 258.84375 343.609375 Z M 258.84375 208.609375 " fill-opacity="1" fill-rule="nonzero"/></g></g><g fill="#ffffff" fill-opacity="1"><g transform="translate(290.830331, 263.083441)"><g><path d="M 13.671875 -23.8125 C 14.847656 -23.8125 15.816406 -23.707031 16.578125 -23.5 C 17.347656 -23.300781 18.175781 -23.019531 19.0625 -22.65625 C 19.15625 -22.613281 19.382812 -22.519531 19.75 -22.375 C 20.125 -22.226562 20.460938 -22.15625 20.765625 -22.15625 C 21.617188 -22.15625 22.148438 -22.695312 22.359375 -23.78125 L 23.03125 -23.78125 L 23.03125 -15.984375 L 22.359375 -15.984375 C 22.171875 -17.265625 21.707031 -18.382812 20.96875 -19.34375 C 20.238281 -20.3125 19.351562 -21.050781 18.3125 -21.5625 C 17.269531 -22.070312 16.207031 -22.328125 15.125 -22.328125 C 13.59375 -22.328125 12.253906 -21.867188 11.109375 -20.953125 C 9.960938 -20.035156 9.085938 -18.757812 8.484375 -17.125 C 7.890625 -15.5 7.59375 -13.65625 7.59375 -11.59375 C 7.59375 -8.269531 8.25 -5.664062 9.5625 -3.78125 C 10.875 -1.894531 12.6875 -0.953125 15 -0.953125 C 16.46875 -0.953125 17.785156 -1.300781 18.953125 -2 C 20.128906 -2.695312 21.332031 -3.757812 22.5625 -5.1875 L 22.5625 -3.328125 C 21.289062 -1.992188 19.96875 -1.023438 18.59375 -0.421875 C 17.226562 0.171875 15.664062 0.46875 13.90625 0.46875 C 11.414062 0.46875 9.238281 -0.046875 7.375 -1.078125 C 5.507812 -2.117188 4.070312 -3.53125 3.0625 -5.3125 C 2.0625 -7.101562 1.5625 -9.085938 1.5625 -11.265625 C 1.5625 -13.503906 2.109375 -15.582031 3.203125 -17.5 C 4.296875 -19.425781 5.769531 -20.957031 7.625 -22.09375 C 9.476562 -23.238281 11.492188 -23.8125 13.671875 -23.8125 Z M 13.671875 -23.8125 "/></g></g></g><g fill="#ffffff" fill-opacity="1"><g transform="translate(315.214519, 263.083441)"><g><path d="M 24.96875 -11.5 C 24.96875 -9.101562 24.453125 -7.035156 23.421875 -5.296875 C 22.390625 -3.554688 20.984375 -2.238281 19.203125 -1.34375 C 17.429688 -0.445312 15.460938 0 13.296875 0 L 0.578125 0 L 0.578125 -0.609375 C 1.410156 -0.609375 2.039062 -0.671875 2.46875 -0.796875 C 2.90625 -0.921875 3.226562 -1.1875 3.4375 -1.59375 C 3.65625 -2 3.765625 -2.644531 3.765625 -3.53125 L 3.765625 -19.75 C 3.765625 -20.625 3.648438 -21.269531 3.421875 -21.6875 C 3.203125 -22.113281 2.875 -22.382812 2.4375 -22.5 C 2.007812 -22.625 1.390625 -22.6875 0.578125 -22.6875 L 0.578125 -23.296875 L 12.75 -23.296875 C 14.96875 -23.296875 17.003906 -22.847656 18.859375 -21.953125 C 20.710938 -21.066406 22.191406 -19.734375 23.296875 -17.953125 C 24.410156 -16.179688 24.96875 -14.03125 24.96875 -11.5 Z M 11.8125 -1.1875 C 16.550781 -1.1875 18.921875 -4.566406 18.921875 -11.328125 C 18.921875 -15.109375 18.238281 -17.847656 16.875 -19.546875 C 15.507812 -21.253906 13.785156 -22.109375 11.703125 -22.109375 L 9.1875 -22.109375 L 9.1875 -3.453125 C 9.1875 -2.796875 9.257812 -2.3125 9.40625 -2 C 9.5625 -1.6875 9.816406 -1.472656 10.171875 -1.359375 C 10.535156 -1.242188 11.082031 -1.1875 11.8125 -1.1875 Z M 11.8125 -1.1875 "/></g></g></g><g fill="#ffffff" fill-opacity="1"><g transform="translate(341.36223, 263.083441)"><g><path d="M 9.09375 -23.8125 C 10.15625 -23.8125 11.066406 -23.703125 11.828125 -23.484375 C 12.597656 -23.273438 13.453125 -22.976562 14.390625 -22.59375 C 14.703125 -22.457031 15.003906 -22.335938 15.296875 -22.234375 C 15.585938 -22.128906 15.835938 -22.078125 16.046875 -22.078125 C 16.410156 -22.078125 16.703125 -22.222656 16.921875 -22.515625 C 17.148438 -22.816406 17.265625 -23.25 17.265625 -23.8125 L 17.90625 -23.8125 L 17.90625 -16.28125 L 17.265625 -16.28125 C 17.035156 -17.476562 16.546875 -18.550781 15.796875 -19.5 C 15.054688 -20.457031 14.128906 -21.191406 13.015625 -21.703125 C 11.910156 -22.222656 10.726562 -22.484375 9.46875 -22.484375 C 8.082031 -22.484375 6.945312 -22.148438 6.0625 -21.484375 C 5.1875 -20.816406 4.75 -19.988281 4.75 -19 C 4.75 -18.25 5.007812 -17.613281 5.53125 -17.09375 C 6.050781 -16.570312 6.703125 -16.140625 7.484375 -15.796875 C 8.265625 -15.460938 9.34375 -15.070312 10.71875 -14.625 C 12.09375 -14.164062 13.242188 -13.742188 14.171875 -13.359375 C 15.097656 -12.972656 15.914062 -12.5 16.625 -11.9375 C 17.414062 -11.28125 18.0625 -10.5 18.5625 -9.59375 C 19.070312 -8.695312 19.328125 -7.679688 19.328125 -6.546875 C 19.328125 -5.171875 18.953125 -3.945312 18.203125 -2.875 C 17.460938 -1.8125 16.421875 -0.988281 15.078125 -0.40625 C 13.734375 0.175781 12.175781 0.46875 10.40625 0.46875 C 9.300781 0.46875 8.367188 0.367188 7.609375 0.171875 C 6.859375 -0.015625 6.085938 -0.265625 5.296875 -0.578125 C 4.546875 -0.890625 3.988281 -1.046875 3.625 -1.046875 C 3.21875 -1.046875 2.867188 -0.921875 2.578125 -0.671875 C 2.285156 -0.429688 2.023438 -0.0507812 1.796875 0.46875 L 1.15625 0.46875 L 1.15625 -8.078125 L 1.796875 -8.078125 C 2.203125 -5.816406 3.164062 -4.023438 4.6875 -2.703125 C 6.21875 -1.378906 8.070312 -0.71875 10.25 -0.71875 C 11.875 -0.71875 13.160156 -1.050781 14.109375 -1.71875 C 15.054688 -2.382812 15.53125 -3.28125 15.53125 -4.40625 C 15.53125 -5.289062 15.253906 -6.035156 14.703125 -6.640625 C 14.148438 -7.253906 13.457031 -7.753906 12.625 -8.140625 C 11.800781 -8.523438 10.691406 -8.957031 9.296875 -9.4375 C 7.554688 -10.039062 6.144531 -10.609375 5.0625 -11.140625 C 3.988281 -11.671875 3.070312 -12.414062 2.3125 -13.375 C 1.5625 -14.34375 1.1875 -15.5625 1.1875 -17.03125 C 1.1875 -18.320312 1.523438 -19.476562 2.203125 -20.5 C 2.878906 -21.53125 3.816406 -22.335938 5.015625 -22.921875 C 6.210938 -23.515625 7.570312 -23.8125 9.09375 -23.8125 Z M 9.09375 -23.8125 "/></g></g></g><g clip-path="url(#ca67ca5841)"><g clip-path="url(#086e51539b)"><path fill="#737373" d="M 69.65625 96.191406 L 204.65625 96.191406 L 204.65625 231.191406 L 69.65625 231.191406 Z M 69.65625 96.191406 " fill-opacity="1" fill-rule="nonzero"/></g></g><g fill="#ffffff" fill-opacity="1"><g transform="translate(91.213716, 150.667159)"><g><path d="M 21.8125 -17 C 21.8125 -15.820312 21.457031 -14.75 20.75 -13.78125 C 20.050781 -12.820312 19.019531 -12.0625 17.65625 -11.5 C 16.289062 -10.9375 14.65625 -10.65625 12.75 -10.65625 L 9.359375 -10.65625 L 9.359375 -3.53125 C 9.359375 -2.6875 9.460938 -2.0625 9.671875 -1.65625 C 9.890625 -1.25 10.207031 -0.976562 10.625 -0.84375 C 11.050781 -0.707031 11.660156 -0.628906 12.453125 -0.609375 L 12.453125 0 L 0.609375 0 L 0.609375 -0.609375 C 1.472656 -0.628906 2.128906 -0.703125 2.578125 -0.828125 C 3.023438 -0.953125 3.363281 -1.21875 3.59375 -1.625 C 3.820312 -2.03125 3.9375 -2.664062 3.9375 -3.53125 L 3.9375 -19.984375 C 3.9375 -21.066406 3.664062 -21.785156 3.125 -22.140625 C 2.582031 -22.503906 1.742188 -22.6875 0.609375 -22.6875 L 0.609375 -23.296875 L 13.203125 -23.296875 C 14.597656 -23.296875 15.957031 -23.054688 17.28125 -22.578125 C 18.601562 -22.109375 19.6875 -21.398438 20.53125 -20.453125 C 21.382812 -19.503906 21.8125 -18.351562 21.8125 -17 Z M 15.984375 -16.890625 C 15.984375 -18.335938 15.753906 -19.429688 15.296875 -20.171875 C 14.847656 -20.921875 14.253906 -21.421875 13.515625 -21.671875 C 12.785156 -21.921875 11.863281 -22.046875 10.75 -22.046875 L 9.359375 -22.046875 L 9.359375 -11.90625 L 11.5625 -11.90625 C 12.832031 -11.90625 13.882812 -12.300781 14.71875 -13.09375 C 15.5625 -13.882812 15.984375 -15.148438 15.984375 -16.890625 Z M 15.984375 -16.890625 "/></g></g></g><g fill="#ffffff" fill-opacity="1"><g transform="translate(113.834369, 150.667159)"><g><path d="M 6.4375 -4.640625 C 6.4375 -3.648438 6.554688 -2.929688 6.796875 -2.484375 C 7.035156 -2.046875 7.414062 -1.828125 7.9375 -1.828125 C 8.414062 -1.828125 8.890625 -2.007812 9.359375 -2.375 C 9.835938 -2.738281 10.257812 -3.234375 10.625 -3.859375 L 10.625 -13.234375 C 10.625 -13.890625 10.460938 -14.351562 10.140625 -14.625 C 9.828125 -14.894531 9.332031 -15.0625 8.65625 -15.125 L 8.65625 -15.734375 L 15.265625 -15.734375 L 15.265625 -1.859375 C 15.265625 -1.117188 15.648438 -0.703125 16.421875 -0.609375 L 16.421875 0 L 10.625 0 L 10.625 -2.03125 C 9.988281 -1.289062 9.285156 -0.6875 8.515625 -0.21875 C 7.742188 0.238281 6.953125 0.46875 6.140625 0.46875 C 4.804688 0.46875 3.75 0.0351562 2.96875 -0.828125 C 2.1875 -1.703125 1.796875 -2.863281 1.796875 -4.3125 L 1.796875 -12.984375 C 1.796875 -13.691406 1.703125 -14.203125 1.515625 -14.515625 C 1.335938 -14.835938 1.003906 -15.039062 0.515625 -15.125 L 0.515625 -15.734375 L 6.4375 -15.734375 Z M 6.4375 -4.640625 "/></g></g></g><g fill="#ffffff" fill-opacity="1"><g transform="translate(130.791388, 150.667159)"><g><path d="M 10.515625 -16.109375 C 11.054688 -16.109375 11.492188 -15.898438 11.828125 -15.484375 C 12.171875 -15.066406 12.34375 -14.53125 12.34375 -13.875 C 12.34375 -13.175781 12.171875 -12.609375 11.828125 -12.171875 C 11.492188 -11.742188 11.035156 -11.53125 10.453125 -11.53125 C 10.179688 -11.53125 9.941406 -11.585938 9.734375 -11.703125 C 9.535156 -11.816406 9.285156 -11.972656 8.984375 -12.171875 C 8.554688 -12.472656 8.242188 -12.625 8.046875 -12.625 C 7.679688 -12.625 7.375 -12.328125 7.125 -11.734375 C 6.875 -11.148438 6.75 -10.484375 6.75 -9.734375 L 6.75 -2.6875 C 6.75 -1.9375 6.894531 -1.398438 7.1875 -1.078125 C 7.476562 -0.765625 8.007812 -0.609375 8.78125 -0.609375 L 8.78125 0 L 0.375 0 L 0.375 -0.609375 C 1.53125 -0.609375 2.109375 -1.285156 2.109375 -2.640625 L 2.109375 -13.09375 C 2.109375 -14.425781 1.53125 -15.101562 0.375 -15.125 L 0.375 -15.734375 L 6.75 -15.734375 L 6.75 -12.921875 L 6.8125 -12.921875 C 7.875 -15.046875 9.109375 -16.109375 10.515625 -16.109375 Z M 10.515625 -16.109375 "/></g></g></g><g fill="#ffffff" fill-opacity="1"><g transform="translate(143.848283, 150.667159)"><g><path d="M 7.875 -16.109375 C 9.25 -16.109375 10.40625 -15.757812 11.34375 -15.0625 C 12.28125 -14.363281 12.984375 -13.460938 13.453125 -12.359375 C 13.929688 -11.265625 14.1875 -10.128906 14.21875 -8.953125 L 14.21875 -8.375 L 5.296875 -8.375 C 5.429688 -6.5 5.921875 -4.984375 6.765625 -3.828125 C 7.617188 -2.679688 8.675781 -2.109375 9.9375 -2.109375 C 10.75 -2.109375 11.441406 -2.328125 12.015625 -2.765625 C 12.597656 -3.203125 13.128906 -3.84375 13.609375 -4.6875 L 14.21875 -4.3125 C 13.445312 -2.675781 12.53125 -1.46875 11.46875 -0.6875 C 10.40625 0.0820312 9.148438 0.46875 7.703125 0.46875 C 6.253906 0.46875 5.015625 0.113281 3.984375 -0.59375 C 2.953125 -1.300781 2.164062 -2.265625 1.625 -3.484375 C 1.082031 -4.710938 0.8125 -6.082031 0.8125 -7.59375 C 0.8125 -9.113281 1.128906 -10.519531 1.765625 -11.8125 C 2.398438 -13.113281 3.257812 -14.15625 4.34375 -14.9375 C 5.425781 -15.71875 6.601562 -16.109375 7.875 -16.109375 Z M 10.078125 -10.34375 C 10.078125 -11.945312 9.898438 -13.132812 9.546875 -13.90625 C 9.191406 -14.675781 8.632812 -15.0625 7.875 -15.0625 C 7.0625 -15.0625 6.425781 -14.554688 5.96875 -13.546875 C 5.519531 -12.546875 5.296875 -11.390625 5.296875 -10.078125 L 5.296875 -9.5 L 10.078125 -9.5 Z M 10.078125 -10.34375 "/></g></g></g><g fill="#ffffff" fill-opacity="1"><g transform="translate(158.702622, 150.667159)"><g><path d="M 4.3125 -4.640625 L 12.171875 -23.671875 L 12.515625 -23.671875 L 20.359375 -4.578125 C 20.878906 -3.285156 21.390625 -2.300781 21.890625 -1.625 C 22.398438 -0.945312 23.0625 -0.609375 23.875 -0.609375 L 23.875 0 L 12.984375 0 L 12.984375 -0.609375 C 14.078125 -0.628906 14.800781 -0.710938 15.15625 -0.859375 C 15.519531 -1.003906 15.703125 -1.335938 15.703125 -1.859375 C 15.703125 -2.023438 15.660156 -2.207031 15.578125 -2.40625 C 15.503906 -2.613281 15.445312 -2.785156 15.40625 -2.921875 L 13.9375 -6.578125 L 6.484375 -6.578125 L 5.421875 -4.03125 C 5.109375 -3.40625 4.953125 -2.851562 4.953125 -2.375 C 4.953125 -1.675781 5.210938 -1.207031 5.734375 -0.96875 C 6.253906 -0.726562 6.988281 -0.609375 7.9375 -0.609375 L 7.9375 0 L 0.46875 0 L 0.46875 -0.609375 C 1.238281 -0.679688 1.925781 -1.03125 2.53125 -1.65625 C 3.144531 -2.289062 3.738281 -3.285156 4.3125 -4.640625 Z M 13.4375 -7.84375 L 10.203125 -15.640625 L 6.984375 -7.84375 Z M 13.4375 -7.84375 "/></g></g></g><g clip-path="url(#dae2cc4fb9)"><g clip-path="url(#32d29fe430)"><path fill="#737373" d="M 69.65625 295.753906 L 204.65625 295.753906 L 204.65625 430.753906 L 69.65625 430.753906 Z M 69.65625 295.753906 " fill-opacity="1" fill-rule="nonzero"/></g></g><g fill="#ffffff" fill-opacity="1"><g transform="translate(92.095815, 350.23005)"><g><path d="M 21.8125 -17 C 21.8125 -15.820312 21.457031 -14.75 20.75 -13.78125 C 20.050781 -12.820312 19.019531 -12.0625 17.65625 -11.5 C 16.289062 -10.9375 14.65625 -10.65625 12.75 -10.65625 L 9.359375 -10.65625 L 9.359375 -3.53125 C 9.359375 -2.6875 9.460938 -2.0625 9.671875 -1.65625 C 9.890625 -1.25 10.207031 -0.976562 10.625 -0.84375 C 11.050781 -0.707031 11.660156 -0.628906 12.453125 -0.609375 L 12.453125 0 L 0.609375 0 L 0.609375 -0.609375 C 1.472656 -0.628906 2.128906 -0.703125 2.578125 -0.828125 C 3.023438 -0.953125 3.363281 -1.21875 3.59375 -1.625 C 3.820312 -2.03125 3.9375 -2.664062 3.9375 -3.53125 L 3.9375 -19.984375 C 3.9375 -21.066406 3.664062 -21.785156 3.125 -22.140625 C 2.582031 -22.503906 1.742188 -22.6875 0.609375 -22.6875 L 0.609375 -23.296875 L 13.203125 -23.296875 C 14.597656 -23.296875 15.957031 -23.054688 17.28125 -22.578125 C 18.601562 -22.109375 19.6875 -21.398438 20.53125 -20.453125 C 21.382812 -19.503906 21.8125 -18.351562 21.8125 -17 Z M 15.984375 -16.890625 C 15.984375 -18.335938 15.753906 -19.429688 15.296875 -20.171875 C 14.847656 -20.921875 14.253906 -21.421875 13.515625 -21.671875 C 12.785156 -21.921875 11.863281 -22.046875 10.75 -22.046875 L 9.359375 -22.046875 L 9.359375 -11.90625 L 11.5625 -11.90625 C 12.832031 -11.90625 13.882812 -12.300781 14.71875 -13.09375 C 15.5625 -13.882812 15.984375 -15.148438 15.984375 -16.890625 Z M 15.984375 -16.890625 "/></g></g></g><g fill="#ffffff" fill-opacity="1"><g transform="translate(114.716468, 350.23005)"><g><path d="M 6.4375 -4.640625 C 6.4375 -3.648438 6.554688 -2.929688 6.796875 -2.484375 C 7.035156 -2.046875 7.414062 -1.828125 7.9375 -1.828125 C 8.414062 -1.828125 8.890625 -2.007812 9.359375 -2.375 C 9.835938 -2.738281 10.257812 -3.234375 10.625 -3.859375 L 10.625 -13.234375 C 10.625 -13.890625 10.460938 -14.351562 10.140625 -14.625 C 9.828125 -14.894531 9.332031 -15.0625 8.65625 -15.125 L 8.65625 -15.734375 L 15.265625 -15.734375 L 15.265625 -1.859375 C 15.265625 -1.117188 15.648438 -0.703125 16.421875 -0.609375 L 16.421875 0 L 10.625 0 L 10.625 -2.03125 C 9.988281 -1.289062 9.285156 -0.6875 8.515625 -0.21875 C 7.742188 0.238281 6.953125 0.46875 6.140625 0.46875 C 4.804688 0.46875 3.75 0.0351562 2.96875 -0.828125 C 2.1875 -1.703125 1.796875 -2.863281 1.796875 -4.3125 L 1.796875 -12.984375 C 1.796875 -13.691406 1.703125 -14.203125 1.515625 -14.515625 C 1.335938 -14.835938 1.003906 -15.039062 0.515625 -15.125 L 0.515625 -15.734375 L 6.4375 -15.734375 Z M 6.4375 -4.640625 "/></g></g></g><g fill="#ffffff" fill-opacity="1"><g transform="translate(131.673486, 350.23005)"><g><path d="M 10.515625 -16.109375 C 11.054688 -16.109375 11.492188 -15.898438 11.828125 -15.484375 C 12.171875 -15.066406 12.34375 -14.53125 12.34375 -13.875 C 12.34375 -13.175781 12.171875 -12.609375 11.828125 -12.171875 C 11.492188 -11.742188 11.035156 -11.53125 10.453125 -11.53125 C 10.179688 -11.53125 9.941406 -11.585938 9.734375 -11.703125 C 9.535156 -11.816406 9.285156 -11.972656 8.984375 -12.171875 C 8.554688 -12.472656 8.242188 -12.625 8.046875 -12.625 C 7.679688 -12.625 7.375 -12.328125 7.125 -11.734375 C 6.875 -11.148438 6.75 -10.484375 6.75 -9.734375 L 6.75 -2.6875 C 6.75 -1.9375 6.894531 -1.398438 7.1875 -1.078125 C 7.476562 -0.765625 8.007812 -0.609375 8.78125 -0.609375 L 8.78125 0 L 0.375 0 L 0.375 -0.609375 C 1.53125 -0.609375 2.109375 -1.285156 2.109375 -2.640625 L 2.109375 -13.09375 C 2.109375 -14.425781 1.53125 -15.101562 0.375 -15.125 L 0.375 -15.734375 L 6.75 -15.734375 L 6.75 -12.921875 L 6.8125 -12.921875 C 7.875 -15.046875 9.109375 -16.109375 10.515625 -16.109375 Z M 10.515625 -16.109375 "/></g></g></g><g fill="#ffffff" fill-opacity="1"><g transform="translate(144.730382, 350.23005)"><g><path d="M 7.875 -16.109375 C 9.25 -16.109375 10.40625 -15.757812 11.34375 -15.0625 C 12.28125 -14.363281 12.984375 -13.460938 13.453125 -12.359375 C 13.929688 -11.265625 14.1875 -10.128906 14.21875 -8.953125 L 14.21875 -8.375 L 5.296875 -8.375 C 5.429688 -6.5 5.921875 -4.984375 6.765625 -3.828125 C 7.617188 -2.679688 8.675781 -2.109375 9.9375 -2.109375 C 10.75 -2.109375 11.441406 -2.328125 12.015625 -2.765625 C 12.597656 -3.203125 13.128906 -3.84375 13.609375 -4.6875 L 14.21875 -4.3125 C 13.445312 -2.675781 12.53125 -1.46875 11.46875 -0.6875 C 10.40625 0.0820312 9.148438 0.46875 7.703125 0.46875 C 6.253906 0.46875 5.015625 0.113281 3.984375 -0.59375 C 2.953125 -1.300781 2.164062 -2.265625 1.625 -3.484375 C 1.082031 -4.710938 0.8125 -6.082031 0.8125 -7.59375 C 0.8125 -9.113281 1.128906 -10.519531 1.765625 -11.8125 C 2.398438 -13.113281 3.257812 -14.15625 4.34375 -14.9375 C 5.425781 -15.71875 6.601562 -16.109375 7.875 -16.109375 Z M 10.078125 -10.34375 C 10.078125 -11.945312 9.898438 -13.132812 9.546875 -13.90625 C 9.191406 -14.675781 8.632812 -15.0625 7.875 -15.0625 C 7.0625 -15.0625 6.425781 -14.554688 5.96875 -13.546875 C 5.519531 -12.546875 5.296875 -11.390625 5.296875 -10.078125 L 5.296875 -9.5 L 10.078125 -9.5 Z M 10.078125 -10.34375 "/></g></g></g><g fill="#ffffff" fill-opacity="1"><g transform="translate(159.58472, 350.23005)"><g><path d="M 20.828125 -17.609375 C 20.828125 -16.242188 20.351562 -15.097656 19.40625 -14.171875 C 18.457031 -13.242188 17.097656 -12.613281 15.328125 -12.28125 L 15.328125 -12.21875 C 17.316406 -11.914062 18.894531 -11.234375 20.0625 -10.171875 C 21.226562 -9.109375 21.8125 -7.8125 21.8125 -6.28125 C 21.8125 -4.96875 21.421875 -3.832031 20.640625 -2.875 C 19.859375 -1.925781 18.816406 -1.207031 17.515625 -0.71875 C 16.210938 -0.238281 14.804688 0 13.296875 0 L 0.515625 0 L 0.515625 -0.609375 C 1.347656 -0.609375 1.976562 -0.671875 2.40625 -0.796875 C 2.832031 -0.921875 3.15625 -1.1875 3.375 -1.59375 C 3.59375 -2 3.703125 -2.644531 3.703125 -3.53125 L 3.703125 -19.75 C 3.703125 -20.5625 3.601562 -21.175781 3.40625 -21.59375 C 3.21875 -22.007812 2.910156 -22.289062 2.484375 -22.4375 C 2.066406 -22.582031 1.476562 -22.664062 0.71875 -22.6875 L 0.71875 -23.296875 L 12.828125 -23.296875 C 14.046875 -23.296875 15.265625 -23.113281 16.484375 -22.75 C 17.703125 -22.394531 18.726562 -21.789062 19.5625 -20.9375 C 20.40625 -20.09375 20.828125 -18.984375 20.828125 -17.609375 Z M 10.046875 -12.71875 C 11.898438 -12.71875 13.207031 -13.1875 13.96875 -14.125 C 14.738281 -15.0625 15.125 -16.15625 15.125 -17.40625 C 15.125 -18.550781 14.785156 -19.609375 14.109375 -20.578125 C 13.429688 -21.554688 12.300781 -22.046875 10.71875 -22.046875 L 9.125 -22.046875 L 9.125 -12.71875 Z M 11.09375 -1.1875 C 12.5 -1.1875 13.628906 -1.625 14.484375 -2.5 C 15.347656 -3.382812 15.78125 -4.5625 15.78125 -6.03125 C 15.78125 -7.570312 15.300781 -8.863281 14.34375 -9.90625 C 13.394531 -10.945312 11.90625 -11.46875 9.875 -11.46875 L 9.125 -11.46875 L 9.125 -3.453125 C 9.125 -2.554688 9.28125 -1.953125 9.59375 -1.640625 C 9.914062 -1.335938 10.414062 -1.1875 11.09375 -1.1875 Z M 11.09375 -1.1875 "/></g></g></g><g clip-path="url(#f55c2c1796)"><g clip-path="url(#7346a93bd3)"><path fill="#737373" d="M 470.34375 295.671875 L 605.34375 295.671875 L 605.34375 430.671875 L 470.34375 430.671875 Z M 470.34375 295.671875 " fill-opacity="1" fill-rule="nonzero"/></g></g><g fill="#ffffff" fill-opacity="1"><g transform="translate(491.902774, 350.14635)"><g><path d="M 21.8125 -17 C 21.8125 -15.820312 21.457031 -14.75 20.75 -13.78125 C 20.050781 -12.820312 19.019531 -12.0625 17.65625 -11.5 C 16.289062 -10.9375 14.65625 -10.65625 12.75 -10.65625 L 9.359375 -10.65625 L 9.359375 -3.53125 C 9.359375 -2.6875 9.460938 -2.0625 9.671875 -1.65625 C 9.890625 -1.25 10.207031 -0.976562 10.625 -0.84375 C 11.050781 -0.707031 11.660156 -0.628906 12.453125 -0.609375 L 12.453125 0 L 0.609375 0 L 0.609375 -0.609375 C 1.472656 -0.628906 2.128906 -0.703125 2.578125 -0.828125 C 3.023438 -0.953125 3.363281 -1.21875 3.59375 -1.625 C 3.820312 -2.03125 3.9375 -2.664062 3.9375 -3.53125 L 3.9375 -19.984375 C 3.9375 -21.066406 3.664062 -21.785156 3.125 -22.140625 C 2.582031 -22.503906 1.742188 -22.6875 0.609375 -22.6875 L 0.609375 -23.296875 L 13.203125 -23.296875 C 14.597656 -23.296875 15.957031 -23.054688 17.28125 -22.578125 C 18.601562 -22.109375 19.6875 -21.398438 20.53125 -20.453125 C 21.382812 -19.503906 21.8125 -18.351562 21.8125 -17 Z M 15.984375 -16.890625 C 15.984375 -18.335938 15.753906 -19.429688 15.296875 -20.171875 C 14.847656 -20.921875 14.253906 -21.421875 13.515625 -21.671875 C 12.785156 -21.921875 11.863281 -22.046875 10.75 -22.046875 L 9.359375 -22.046875 L 9.359375 -11.90625 L 11.5625 -11.90625 C 12.832031 -11.90625 13.882812 -12.300781 14.71875 -13.09375 C 15.5625 -13.882812 15.984375 -15.148438 15.984375 -16.890625 Z M 15.984375 -16.890625 "/></g></g></g><g fill="#ffffff" fill-opacity="1"><g transform="translate(514.523427, 350.14635)"><g><path d="M 6.4375 -4.640625 C 6.4375 -3.648438 6.554688 -2.929688 6.796875 -2.484375 C 7.035156 -2.046875 7.414062 -1.828125 7.9375 -1.828125 C 8.414062 -1.828125 8.890625 -2.007812 9.359375 -2.375 C 9.835938 -2.738281 10.257812 -3.234375 10.625 -3.859375 L 10.625 -13.234375 C 10.625 -13.890625 10.460938 -14.351562 10.140625 -14.625 C 9.828125 -14.894531 9.332031 -15.0625 8.65625 -15.125 L 8.65625 -15.734375 L 15.265625 -15.734375 L 15.265625 -1.859375 C 15.265625 -1.117188 15.648438 -0.703125 16.421875 -0.609375 L 16.421875 0 L 10.625 0 L 10.625 -2.03125 C 9.988281 -1.289062 9.285156 -0.6875 8.515625 -0.21875 C 7.742188 0.238281 6.953125 0.46875 6.140625 0.46875 C 4.804688 0.46875 3.75 0.0351562 2.96875 -0.828125 C 2.1875 -1.703125 1.796875 -2.863281 1.796875 -4.3125 L 1.796875 -12.984375 C 1.796875 -13.691406 1.703125 -14.203125 1.515625 -14.515625 C 1.335938 -14.835938 1.003906 -15.039062 0.515625 -15.125 L 0.515625 -15.734375 L 6.4375 -15.734375 Z M 6.4375 -4.640625 "/></g></g></g><g fill="#ffffff" fill-opacity="1"><g transform="translate(531.480446, 350.14635)"><g><path d="M 10.515625 -16.109375 C 11.054688 -16.109375 11.492188 -15.898438 11.828125 -15.484375 C 12.171875 -15.066406 12.34375 -14.53125 12.34375 -13.875 C 12.34375 -13.175781 12.171875 -12.609375 11.828125 -12.171875 C 11.492188 -11.742188 11.035156 -11.53125 10.453125 -11.53125 C 10.179688 -11.53125 9.941406 -11.585938 9.734375 -11.703125 C 9.535156 -11.816406 9.285156 -11.972656 8.984375 -12.171875 C 8.554688 -12.472656 8.242188 -12.625 8.046875 -12.625 C 7.679688 -12.625 7.375 -12.328125 7.125 -11.734375 C 6.875 -11.148438 6.75 -10.484375 6.75 -9.734375 L 6.75 -2.6875 C 6.75 -1.9375 6.894531 -1.398438 7.1875 -1.078125 C 7.476562 -0.765625 8.007812 -0.609375 8.78125 -0.609375 L 8.78125 0 L 0.375 0 L 0.375 -0.609375 C 1.53125 -0.609375 2.109375 -1.285156 2.109375 -2.640625 L 2.109375 -13.09375 C 2.109375 -14.425781 1.53125 -15.101562 0.375 -15.125 L 0.375 -15.734375 L 6.75 -15.734375 L 6.75 -12.921875 L 6.8125 -12.921875 C 7.875 -15.046875 9.109375 -16.109375 10.515625 -16.109375 Z M 10.515625 -16.109375 "/></g></g></g><g fill="#ffffff" fill-opacity="1"><g transform="translate(544.537341, 350.14635)"><g><path d="M 7.875 -16.109375 C 9.25 -16.109375 10.40625 -15.757812 11.34375 -15.0625 C 12.28125 -14.363281 12.984375 -13.460938 13.453125 -12.359375 C 13.929688 -11.265625 14.1875 -10.128906 14.21875 -8.953125 L 14.21875 -8.375 L 5.296875 -8.375 C 5.429688 -6.5 5.921875 -4.984375 6.765625 -3.828125 C 7.617188 -2.679688 8.675781 -2.109375 9.9375 -2.109375 C 10.75 -2.109375 11.441406 -2.328125 12.015625 -2.765625 C 12.597656 -3.203125 13.128906 -3.84375 13.609375 -4.6875 L 14.21875 -4.3125 C 13.445312 -2.675781 12.53125 -1.46875 11.46875 -0.6875 C 10.40625 0.0820312 9.148438 0.46875 7.703125 0.46875 C 6.253906 0.46875 5.015625 0.113281 3.984375 -0.59375 C 2.953125 -1.300781 2.164062 -2.265625 1.625 -3.484375 C 1.082031 -4.710938 0.8125 -6.082031 0.8125 -7.59375 C 0.8125 -9.113281 1.128906 -10.519531 1.765625 -11.8125 C 2.398438 -13.113281 3.257812 -14.15625 4.34375 -14.9375 C 5.425781 -15.71875 6.601562 -16.109375 7.875 -16.109375 Z M 10.078125 -10.34375 C 10.078125 -11.945312 9.898438 -13.132812 9.546875 -13.90625 C 9.191406 -14.675781 8.632812 -15.0625 7.875 -15.0625 C 7.0625 -15.0625 6.425781 -14.554688 5.96875 -13.546875 C 5.519531 -12.546875 5.296875 -11.390625 5.296875 -10.078125 L 5.296875 -9.5 L 10.078125 -9.5 Z M 10.078125 -10.34375 "/></g></g></g><g fill="#ffffff" fill-opacity="1"><g transform="translate(559.391679, 350.14635)"><g><path d="M 13.671875 -23.8125 C 14.847656 -23.8125 15.816406 -23.707031 16.578125 -23.5 C 17.347656 -23.300781 18.175781 -23.019531 19.0625 -22.65625 C 19.15625 -22.613281 19.382812 -22.519531 19.75 -22.375 C 20.125 -22.226562 20.460938 -22.15625 20.765625 -22.15625 C 21.617188 -22.15625 22.148438 -22.695312 22.359375 -23.78125 L 23.03125 -23.78125 L 23.03125 -15.984375 L 22.359375 -15.984375 C 22.171875 -17.265625 21.707031 -18.382812 20.96875 -19.34375 C 20.238281 -20.3125 19.351562 -21.050781 18.3125 -21.5625 C 17.269531 -22.070312 16.207031 -22.328125 15.125 -22.328125 C 13.59375 -22.328125 12.253906 -21.867188 11.109375 -20.953125 C 9.960938 -20.035156 9.085938 -18.757812 8.484375 -17.125 C 7.890625 -15.5 7.59375 -13.65625 7.59375 -11.59375 C 7.59375 -8.269531 8.25 -5.664062 9.5625 -3.78125 C 10.875 -1.894531 12.6875 -0.953125 15 -0.953125 C 16.46875 -0.953125 17.785156 -1.300781 18.953125 -2 C 20.128906 -2.695312 21.332031 -3.757812 22.5625 -5.1875 L 22.5625 -3.328125 C 21.289062 -1.992188 19.96875 -1.023438 18.59375 -0.421875 C 17.226562 0.171875 15.664062 0.46875 13.90625 0.46875 C 11.414062 0.46875 9.238281 -0.046875 7.375 -1.078125 C 5.507812 -2.117188 4.070312 -3.53125 3.0625 -5.3125 C 2.0625 -7.101562 1.5625 -9.085938 1.5625 -11.265625 C 1.5625 -13.503906 2.109375 -15.582031 3.203125 -17.5 C 4.296875 -19.425781 5.769531 -20.957031 7.625 -22.09375 C 9.476562 -23.238281 11.492188 -23.8125 13.671875 -23.8125 Z M 13.671875 -23.8125 "/></g></g></g><g clip-path="url(#2bdaec4773)"><g clip-path="url(#d406e32a69)"><path fill="#737373" d="M 470.34375 96.109375 L 605.34375 96.109375 L 605.34375 231.109375 L 470.34375 231.109375 Z M 470.34375 96.109375 " fill-opacity="1" fill-rule="nonzero"/></g></g><g fill="#ffffff" fill-opacity="1"><g transform="translate(491.02063, 150.58345)"><g><path d="M 21.8125 -17 C 21.8125 -15.820312 21.457031 -14.75 20.75 -13.78125 C 20.050781 -12.820312 19.019531 -12.0625 17.65625 -11.5 C 16.289062 -10.9375 14.65625 -10.65625 12.75 -10.65625 L 9.359375 -10.65625 L 9.359375 -3.53125 C 9.359375 -2.6875 9.460938 -2.0625 9.671875 -1.65625 C 9.890625 -1.25 10.207031 -0.976562 10.625 -0.84375 C 11.050781 -0.707031 11.660156 -0.628906 12.453125 -0.609375 L 12.453125 0 L 0.609375 0 L 0.609375 -0.609375 C 1.472656 -0.628906 2.128906 -0.703125 2.578125 -0.828125 C 3.023438 -0.953125 3.363281 -1.21875 3.59375 -1.625 C 3.820312 -2.03125 3.9375 -2.664062 3.9375 -3.53125 L 3.9375 -19.984375 C 3.9375 -21.066406 3.664062 -21.785156 3.125 -22.140625 C 2.582031 -22.503906 1.742188 -22.6875 0.609375 -22.6875 L 0.609375 -23.296875 L 13.203125 -23.296875 C 14.597656 -23.296875 15.957031 -23.054688 17.28125 -22.578125 C 18.601562 -22.109375 19.6875 -21.398438 20.53125 -20.453125 C 21.382812 -19.503906 21.8125 -18.351562 21.8125 -17 Z M 15.984375 -16.890625 C 15.984375 -18.335938 15.753906 -19.429688 15.296875 -20.171875 C 14.847656 -20.921875 14.253906 -21.421875 13.515625 -21.671875 C 12.785156 -21.921875 11.863281 -22.046875 10.75 -22.046875 L 9.359375 -22.046875 L 9.359375 -11.90625 L 11.5625 -11.90625 C 12.832031 -11.90625 13.882812 -12.300781 14.71875 -13.09375 C 15.5625 -13.882812 15.984375 -15.148438 15.984375 -16.890625 Z M 15.984375 -16.890625 "/></g></g></g><g fill="#ffffff" fill-opacity="1"><g transform="translate(513.641283, 150.58345)"><g><path d="M 6.4375 -4.640625 C 6.4375 -3.648438 6.554688 -2.929688 6.796875 -2.484375 C 7.035156 -2.046875 7.414062 -1.828125 7.9375 -1.828125 C 8.414062 -1.828125 8.890625 -2.007812 9.359375 -2.375 C 9.835938 -2.738281 10.257812 -3.234375 10.625 -3.859375 L 10.625 -13.234375 C 10.625 -13.890625 10.460938 -14.351562 10.140625 -14.625 C 9.828125 -14.894531 9.332031 -15.0625 8.65625 -15.125 L 8.65625 -15.734375 L 15.265625 -15.734375 L 15.265625 -1.859375 C 15.265625 -1.117188 15.648438 -0.703125 16.421875 -0.609375 L 16.421875 0 L 10.625 0 L 10.625 -2.03125 C 9.988281 -1.289062 9.285156 -0.6875 8.515625 -0.21875 C 7.742188 0.238281 6.953125 0.46875 6.140625 0.46875 C 4.804688 0.46875 3.75 0.0351562 2.96875 -0.828125 C 2.1875 -1.703125 1.796875 -2.863281 1.796875 -4.3125 L 1.796875 -12.984375 C 1.796875 -13.691406 1.703125 -14.203125 1.515625 -14.515625 C 1.335938 -14.835938 1.003906 -15.039062 0.515625 -15.125 L 0.515625 -15.734375 L 6.4375 -15.734375 Z M 6.4375 -4.640625 "/></g></g></g><g fill="#ffffff" fill-opacity="1"><g transform="translate(530.598302, 150.58345)"><g><path d="M 10.515625 -16.109375 C 11.054688 -16.109375 11.492188 -15.898438 11.828125 -15.484375 C 12.171875 -15.066406 12.34375 -14.53125 12.34375 -13.875 C 12.34375 -13.175781 12.171875 -12.609375 11.828125 -12.171875 C 11.492188 -11.742188 11.035156 -11.53125 10.453125 -11.53125 C 10.179688 -11.53125 9.941406 -11.585938 9.734375 -11.703125 C 9.535156 -11.816406 9.285156 -11.972656 8.984375 -12.171875 C 8.554688 -12.472656 8.242188 -12.625 8.046875 -12.625 C 7.679688 -12.625 7.375 -12.328125 7.125 -11.734375 C 6.875 -11.148438 6.75 -10.484375 6.75 -9.734375 L 6.75 -2.6875 C 6.75 -1.9375 6.894531 -1.398438 7.1875 -1.078125 C 7.476562 -0.765625 8.007812 -0.609375 8.78125 -0.609375 L 8.78125 0 L 0.375 0 L 0.375 -0.609375 C 1.53125 -0.609375 2.109375 -1.285156 2.109375 -2.640625 L 2.109375 -13.09375 C 2.109375 -14.425781 1.53125 -15.101562 0.375 -15.125 L 0.375 -15.734375 L 6.75 -15.734375 L 6.75 -12.921875 L 6.8125 -12.921875 C 7.875 -15.046875 9.109375 -16.109375 10.515625 -16.109375 Z M 10.515625 -16.109375 "/></g></g></g><g fill="#ffffff" fill-opacity="1"><g transform="translate(543.655197, 150.58345)"><g><path d="M 7.875 -16.109375 C 9.25 -16.109375 10.40625 -15.757812 11.34375 -15.0625 C 12.28125 -14.363281 12.984375 -13.460938 13.453125 -12.359375 C 13.929688 -11.265625 14.1875 -10.128906 14.21875 -8.953125 L 14.21875 -8.375 L 5.296875 -8.375 C 5.429688 -6.5 5.921875 -4.984375 6.765625 -3.828125 C 7.617188 -2.679688 8.675781 -2.109375 9.9375 -2.109375 C 10.75 -2.109375 11.441406 -2.328125 12.015625 -2.765625 C 12.597656 -3.203125 13.128906 -3.84375 13.609375 -4.6875 L 14.21875 -4.3125 C 13.445312 -2.675781 12.53125 -1.46875 11.46875 -0.6875 C 10.40625 0.0820312 9.148438 0.46875 7.703125 0.46875 C 6.253906 0.46875 5.015625 0.113281 3.984375 -0.59375 C 2.953125 -1.300781 2.164062 -2.265625 1.625 -3.484375 C 1.082031 -4.710938 0.8125 -6.082031 0.8125 -7.59375 C 0.8125 -9.113281 1.128906 -10.519531 1.765625 -11.8125 C 2.398438 -13.113281 3.257812 -14.15625 4.34375 -14.9375 C 5.425781 -15.71875 6.601562 -16.109375 7.875 -16.109375 Z M 10.078125 -10.34375 C 10.078125 -11.945312 9.898438 -13.132812 9.546875 -13.90625 C 9.191406 -14.675781 8.632812 -15.0625 7.875 -15.0625 C 7.0625 -15.0625 6.425781 -14.554688 5.96875 -13.546875 C 5.519531 -12.546875 5.296875 -11.390625 5.296875 -10.078125 L 5.296875 -9.5 L 10.078125 -9.5 Z M 10.078125 -10.34375 "/></g></g></g><g fill="#ffffff" fill-opacity="1"><g transform="translate(558.509535, 150.58345)"><g><path d="M 24.96875 -11.5 C 24.96875 -9.101562 24.453125 -7.035156 23.421875 -5.296875 C 22.390625 -3.554688 20.984375 -2.238281 19.203125 -1.34375 C 17.429688 -0.445312 15.460938 0 13.296875 0 L 0.578125 0 L 0.578125 -0.609375 C 1.410156 -0.609375 2.039062 -0.671875 2.46875 -0.796875 C 2.90625 -0.921875 3.226562 -1.1875 3.4375 -1.59375 C 3.65625 -2 3.765625 -2.644531 3.765625 -3.53125 L 3.765625 -19.75 C 3.765625 -20.625 3.648438 -21.269531 3.421875 -21.6875 C 3.203125 -22.113281 2.875 -22.382812 2.4375 -22.5 C 2.007812 -22.625 1.390625 -22.6875 0.578125 -22.6875 L 0.578125 -23.296875 L 12.75 -23.296875 C 14.96875 -23.296875 17.003906 -22.847656 18.859375 -21.953125 C 20.710938 -21.066406 22.191406 -19.734375 23.296875 -17.953125 C 24.410156 -16.179688 24.96875 -14.03125 24.96875 -11.5 Z M 11.8125 -1.1875 C 16.550781 -1.1875 18.921875 -4.566406 18.921875 -11.328125 C 18.921875 -15.109375 18.238281 -17.847656 16.875 -19.546875 C 15.507812 -21.253906 13.785156 -22.109375 11.703125 -22.109375 L 9.1875 -22.109375 L 9.1875 -3.453125 C 9.1875 -2.796875 9.257812 -2.3125 9.40625 -2 C 9.5625 -1.6875 9.816406 -1.472656 10.171875 -1.359375 C 10.535156 -1.242188 11.082031 -1.1875 11.8125 -1.1875 Z M 11.8125 -1.1875 "/></g></g></g><path stroke-linecap="butt" transform="matrix(0.703601, 0.259704, -0.259704, 0.703601, 137.674542, 229.786403)" fill="none" stroke-linejoin="miter" d="M 0.00218427 2.001622 L 172.951112 1.999549 " stroke="#2f2f2f" stroke-width="4" stroke-opacity="1" stroke-miterlimit="4"/><path stroke-linecap="butt" transform="matrix(0.396039, -0.636909, 0.636909, 0.396039, 203.378992, 362.457773)" fill="none" stroke-linejoin="miter" d="M -0.000495312 1.999577 L 136.830697 2.000959 " stroke="#2f2f2f" stroke-width="4" stroke-opacity="1" stroke-miterlimit="4"/><path stroke-linecap="butt" transform="matrix(-0.49505, -0.563405, 0.563405, -0.49505, 469.208832, 364.157052)" fill="none" stroke-linejoin="miter" d="M -0.00127792 1.999402 L 154.528153 1.999031 " stroke="#2f2f2f" stroke-width="4" stroke-opacity="1" stroke-miterlimit="4"/><path stroke-linecap="butt" transform="matrix(-0.421732, 0.620195, -0.620195, -0.421732, 471.582575, 164.452722)" fill="none" stroke-linejoin="miter" d="M -0.00104309 1.998187 L 181.39357 1.998187 " stroke="#2f2f2f" stroke-width="4" stroke-opacity="1" stroke-miterlimit="4"/><path stroke-linecap="butt" transform="matrix(-0.75, 0.000236277, -0.000236277, -0.75, 470.343408, 165.108018)" fill="none" stroke-linejoin="miter" d="M -0.00108605 1.998191 L 354.254172 2.000419 " stroke="#2f2f2f" stroke-width="4" stroke-opacity="1" stroke-miterlimit="4"/><path stroke-linecap="butt" transform="matrix(0, -0.75, 0.75, 0, 135.653308, 295.752486)" fill="none" stroke-linejoin="miter" d="M -0.00189398 1.998714 L 86.081446 1.998714 " stroke="#2f2f2f" stroke-width="4" stroke-opacity="1" stroke-miterlimit="4"/><path stroke-linecap="butt" transform="matrix(0.75, -0.000236275, 0.000236275, 0.75, 204.655016, 361.754621)" fill="none" stroke-linejoin="miter" d="M 0.00101519 1.999047 L 354.251065 2.001273 " stroke="#2f2f2f" stroke-width="4" stroke-opacity="1" stroke-miterlimit="4"/><g fill="#2f2f2f" fill-opacity="1"><g transform="translate(247.822508, 63.499763)"><g><path d="M 9.09375 -23.8125 C 10.15625 -23.8125 11.066406 -23.703125 11.828125 -23.484375 C 12.597656 -23.273438 13.453125 -22.976562 14.390625 -22.59375 C 14.703125 -22.457031 15.003906 -22.335938 15.296875 -22.234375 C 15.585938 -22.128906 15.835938 -22.078125 16.046875 -22.078125 C 16.410156 -22.078125 16.703125 -22.222656 16.921875 -22.515625 C 17.148438 -22.816406 17.265625 -23.25 17.265625 -23.8125 L 17.90625 -23.8125 L 17.90625 -16.28125 L 17.265625 -16.28125 C 17.035156 -17.476562 16.546875 -18.550781 15.796875 -19.5 C 15.054688 -20.457031 14.128906 -21.191406 13.015625 -21.703125 C 11.910156 -22.222656 10.726562 -22.484375 9.46875 -22.484375 C 8.082031 -22.484375 6.945312 -22.148438 6.0625 -21.484375 C 5.1875 -20.816406 4.75 -19.988281 4.75 -19 C 4.75 -18.25 5.007812 -17.613281 5.53125 -17.09375 C 6.050781 -16.570312 6.703125 -16.140625 7.484375 -15.796875 C 8.265625 -15.460938 9.34375 -15.070312 10.71875 -14.625 C 12.09375 -14.164062 13.242188 -13.742188 14.171875 -13.359375 C 15.097656 -12.972656 15.914062 -12.5 16.625 -11.9375 C 17.414062 -11.28125 18.0625 -10.5 18.5625 -9.59375 C 19.070312 -8.695312 19.328125 -7.679688 19.328125 -6.546875 C 19.328125 -5.171875 18.953125 -3.945312 18.203125 -2.875 C 17.460938 -1.8125 16.421875 -0.988281 15.078125 -0.40625 C 13.734375 0.175781 12.175781 0.46875 10.40625 0.46875 C 9.300781 0.46875 8.367188 0.367188 7.609375 0.171875 C 6.859375 -0.015625 6.085938 -0.265625 5.296875 -0.578125 C 4.546875 -0.890625 3.988281 -1.046875 3.625 -1.046875 C 3.21875 -1.046875 2.867188 -0.921875 2.578125 -0.671875 C 2.285156 -0.429688 2.023438 -0.0507812 1.796875 0.46875 L 1.15625 0.46875 L 1.15625 -8.078125 L 1.796875 -8.078125 C 2.203125 -5.816406 3.164062 -4.023438 4.6875 -2.703125 C 6.21875 -1.378906 8.070312 -0.71875 10.25 -0.71875 C 11.875 -0.71875 13.160156 -1.050781 14.109375 -1.71875 C 15.054688 -2.382812 15.53125 -3.28125 15.53125 -4.40625 C 15.53125 -5.289062 15.253906 -6.035156 14.703125 -6.640625 C 14.148438 -7.253906 13.457031 -7.753906 12.625 -8.140625 C 11.800781 -8.523438 10.691406 -8.957031 9.296875 -9.4375 C 7.554688 -10.039062 6.144531 -10.609375 5.0625 -11.140625 C 3.988281 -11.671875 3.070312 -12.414062 2.3125 -13.375 C 1.5625 -14.34375 1.1875 -15.5625 1.1875 -17.03125 C 1.1875 -18.320312 1.523438 -19.476562 2.203125 -20.5 C 2.878906 -21.53125 3.816406 -22.335938 5.015625 -22.921875 C 6.210938 -23.515625 7.570312 -23.8125 9.09375 -23.8125 Z M 9.09375 -23.8125 "/></g></g></g><g fill="#2f2f2f" fill-opacity="1"><g transform="translate(268.306583, 63.499763)"><g><path d="M 8.546875 -16.109375 C 9.546875 -16.109375 10.460938 -15.925781 11.296875 -15.5625 C 12.128906 -15.207031 12.789062 -14.726562 13.28125 -14.125 C 13.769531 -13.53125 14.015625 -12.867188 14.015625 -12.140625 C 14.015625 -11.554688 13.816406 -11.070312 13.421875 -10.6875 C 13.023438 -10.300781 12.53125 -10.109375 11.9375 -10.109375 C 11.082031 -10.109375 10.414062 -10.484375 9.9375 -11.234375 C 9.757812 -11.503906 9.632812 -11.773438 9.5625 -12.046875 C 9.5 -12.316406 9.441406 -12.644531 9.390625 -13.03125 C 9.347656 -13.414062 9.296875 -13.710938 9.234375 -13.921875 C 9.179688 -14.140625 9.078125 -14.328125 8.921875 -14.484375 C 8.628906 -14.773438 8.269531 -14.921875 7.84375 -14.921875 C 6.9375 -14.921875 6.28125 -14.441406 5.875 -13.484375 C 5.46875 -12.523438 5.265625 -11.363281 5.265625 -10 C 5.265625 -8.914062 5.425781 -7.769531 5.75 -6.5625 C 6.070312 -5.351562 6.609375 -4.3125 7.359375 -3.4375 C 8.109375 -2.570312 9.054688 -2.140625 10.203125 -2.140625 C 10.929688 -2.140625 11.554688 -2.253906 12.078125 -2.484375 C 12.597656 -2.722656 13.207031 -3.21875 13.90625 -3.96875 L 14.453125 -3.59375 C 13.722656 -2.28125 12.8125 -1.273438 11.71875 -0.578125 C 10.625 0.117188 9.398438 0.46875 8.046875 0.46875 C 6.660156 0.46875 5.421875 0.128906 4.328125 -0.546875 C 3.234375 -1.222656 2.375 -2.164062 1.75 -3.375 C 1.125 -4.582031 0.8125 -5.957031 0.8125 -7.5 C 0.8125 -9.101562 1.148438 -10.566406 1.828125 -11.890625 C 2.503906 -13.210938 3.429688 -14.242188 4.609375 -14.984375 C 5.785156 -15.734375 7.097656 -16.109375 8.546875 -16.109375 Z M 8.546875 -16.109375 "/></g></g></g><g fill="#2f2f2f" fill-opacity="1"><g transform="translate(283.160922, 63.499763)"><g><path d="M 8.609375 -16.109375 C 10.554688 -16.109375 11.984375 -15.710938 12.890625 -14.921875 C 13.796875 -14.128906 14.25 -13.125 14.25 -11.90625 L 14.25 -3.53125 C 14.25 -2.28125 14.566406 -1.65625 15.203125 -1.65625 C 15.378906 -1.65625 15.53125 -1.707031 15.65625 -1.8125 C 15.78125 -1.914062 15.921875 -2.09375 16.078125 -2.34375 L 16.390625 -2.03125 C 16.066406 -1.257812 15.566406 -0.648438 14.890625 -0.203125 C 14.210938 0.242188 13.457031 0.46875 12.625 0.46875 C 11.757812 0.46875 11.0625 0.253906 10.53125 -0.171875 C 10 -0.597656 9.6875 -1.226562 9.59375 -2.0625 C 9.457031 -1.976562 9.253906 -1.820312 8.984375 -1.59375 C 8.191406 -0.9375 7.457031 -0.425781 6.78125 -0.0625 C 6.101562 0.289062 5.320312 0.46875 4.4375 0.46875 C 3.5625 0.46875 2.820312 0.15625 2.21875 -0.46875 C 1.625 -1.101562 1.328125 -1.875 1.328125 -2.78125 C 1.328125 -3.957031 1.835938 -5.007812 2.859375 -5.9375 C 3.890625 -6.863281 5.015625 -7.609375 6.234375 -8.171875 L 9.59375 -9.796875 L 9.59375 -12.890625 C 9.59375 -13.453125 9.414062 -13.929688 9.0625 -14.328125 C 8.71875 -14.722656 8.171875 -14.921875 7.421875 -14.921875 C 6.765625 -14.921875 6.21875 -14.785156 5.78125 -14.515625 C 5.34375 -14.242188 5.125 -13.914062 5.125 -13.53125 C 5.125 -13.394531 5.160156 -13.257812 5.234375 -13.125 C 5.316406 -12.988281 5.414062 -12.851562 5.53125 -12.71875 C 5.726562 -12.46875 5.882812 -12.226562 6 -12 C 6.113281 -11.78125 6.171875 -11.523438 6.171875 -11.234375 C 6.171875 -10.679688 5.96875 -10.234375 5.5625 -9.890625 C 5.15625 -9.554688 4.625 -9.390625 3.96875 -9.390625 C 3.25 -9.390625 2.660156 -9.582031 2.203125 -9.96875 C 1.753906 -10.351562 1.53125 -10.863281 1.53125 -11.5 C 1.53125 -12.3125 1.847656 -13.070312 2.484375 -13.78125 C 3.128906 -14.5 3.992188 -15.066406 5.078125 -15.484375 C 6.171875 -15.898438 7.347656 -16.109375 8.609375 -16.109375 Z M 5.9375 -4.234375 C 5.9375 -3.691406 6.085938 -3.25 6.390625 -2.90625 C 6.703125 -2.570312 7.09375 -2.40625 7.5625 -2.40625 C 7.945312 -2.40625 8.289062 -2.472656 8.59375 -2.609375 C 8.90625 -2.742188 9.238281 -2.957031 9.59375 -3.25 L 9.59375 -8.609375 C 7.15625 -7.367188 5.9375 -5.910156 5.9375 -4.234375 Z M 5.9375 -4.234375 "/></g></g></g><g fill="#2f2f2f" fill-opacity="1"><g transform="translate(300.11794, 63.499763)"><g><path d="M 7.125 -2.265625 C 7.125 -1.703125 7.257812 -1.285156 7.53125 -1.015625 C 7.800781 -0.742188 8.226562 -0.609375 8.8125 -0.609375 L 8.8125 0 L 0.40625 0 L 0.40625 -0.609375 C 1.101562 -0.609375 1.617188 -0.757812 1.953125 -1.0625 C 2.296875 -1.375 2.46875 -1.84375 2.46875 -2.46875 L 2.46875 -20.625 C 2.46875 -21.394531 2.316406 -21.925781 2.015625 -22.21875 C 1.710938 -22.507812 1.175781 -22.664062 0.40625 -22.6875 L 0.40625 -23.296875 L 7.125 -23.296875 Z M 7.125 -2.265625 "/></g></g></g><g fill="#2f2f2f" fill-opacity="1"><g transform="translate(309.308644, 63.499763)"><g><path d="M 4.78125 -23.8125 C 5.507812 -23.8125 6.125 -23.554688 6.625 -23.046875 C 7.132812 -22.535156 7.390625 -21.921875 7.390625 -21.203125 C 7.390625 -20.472656 7.132812 -19.847656 6.625 -19.328125 C 6.125 -18.816406 5.507812 -18.5625 4.78125 -18.5625 C 4.0625 -18.5625 3.441406 -18.816406 2.921875 -19.328125 C 2.398438 -19.847656 2.140625 -20.472656 2.140625 -21.203125 C 2.140625 -21.921875 2.398438 -22.535156 2.921875 -23.046875 C 3.441406 -23.554688 4.0625 -23.8125 4.78125 -23.8125 Z M 7.015625 -2.578125 C 7.015625 -1.285156 7.582031 -0.628906 8.71875 -0.609375 L 8.71875 0 L 0.40625 0 L 0.40625 -0.609375 C 1.101562 -0.609375 1.601562 -0.765625 1.90625 -1.078125 C 2.21875 -1.398438 2.375 -1.957031 2.375 -2.75 L 2.375 -13.03125 C 2.375 -13.769531 2.226562 -14.300781 1.9375 -14.625 C 1.644531 -14.957031 1.132812 -15.125 0.40625 -15.125 L 0.40625 -15.734375 L 7.015625 -15.734375 Z M 7.015625 -2.578125 "/></g></g></g><g fill="#2f2f2f" fill-opacity="1"><g transform="translate(318.499348, 63.499763)"><g><path d="M 11.0625 -16.109375 C 12.414062 -16.109375 13.445312 -15.648438 14.15625 -14.734375 C 14.875 -13.816406 15.234375 -12.691406 15.234375 -11.359375 L 15.234375 -3.25 C 15.234375 -2.59375 15.257812 -2.113281 15.3125 -1.8125 C 15.375 -1.507812 15.476562 -1.273438 15.625 -1.109375 C 15.769531 -0.953125 16.023438 -0.785156 16.390625 -0.609375 L 16.390625 0 L 9.15625 0 L 9.15625 -0.609375 C 10.101562 -0.722656 10.578125 -1.445312 10.578125 -2.78125 L 10.578125 -11.59375 C 10.578125 -13.15625 10.082031 -13.9375 9.09375 -13.9375 C 8.207031 -13.9375 7.347656 -13.296875 6.515625 -12.015625 L 6.515625 -2.578125 C 6.515625 -1.441406 6.988281 -0.785156 7.9375 -0.609375 L 7.9375 0 L 0.578125 0 L 0.578125 -0.609375 C 0.984375 -0.703125 1.296875 -0.90625 1.515625 -1.21875 C 1.742188 -1.539062 1.859375 -2.050781 1.859375 -2.75 L 1.859375 -13.09375 C 1.859375 -13.539062 1.757812 -13.960938 1.5625 -14.359375 C 1.375 -14.753906 1.046875 -15.007812 0.578125 -15.125 L 0.578125 -15.734375 L 6.515625 -15.734375 L 6.515625 -13.640625 C 7.234375 -14.472656 7.953125 -15.09375 8.671875 -15.5 C 9.398438 -15.90625 10.195312 -16.109375 11.0625 -16.109375 Z M 11.0625 -16.109375 "/></g></g></g><g fill="#2f2f2f" fill-opacity="1"><g transform="translate(335.456366, 63.499763)"><g><path d="M 7.90625 -16.109375 C 8.507812 -16.109375 9.039062 -16.054688 9.5 -15.953125 C 9.96875 -15.859375 10.453125 -15.707031 10.953125 -15.5 L 16.21875 -15.5 L 16.21875 -13.703125 L 13.203125 -13.703125 C 13.691406 -13.273438 14.078125 -12.78125 14.359375 -12.21875 C 14.648438 -11.664062 14.796875 -11.007812 14.796875 -10.25 C 14.796875 -9.25 14.488281 -8.328125 13.875 -7.484375 C 13.257812 -6.648438 12.445312 -5.992188 11.4375 -5.515625 C 10.4375 -5.046875 9.359375 -4.8125 8.203125 -4.8125 C 7.910156 -4.8125 7.617188 -4.828125 7.328125 -4.859375 C 7.035156 -4.898438 6.796875 -4.921875 6.609375 -4.921875 C 6.085938 -4.921875 5.640625 -4.753906 5.265625 -4.421875 C 4.898438 -4.097656 4.71875 -3.722656 4.71875 -3.296875 C 4.71875 -2.773438 4.914062 -2.414062 5.3125 -2.21875 C 5.707031 -2.03125 6.492188 -1.9375 7.671875 -1.9375 C 8.097656 -1.9375 8.582031 -1.957031 9.125 -2 L 10.140625 -2.03125 C 12.015625 -2.03125 13.492188 -1.703125 14.578125 -1.046875 C 15.671875 -0.390625 16.21875 0.671875 16.21875 2.140625 C 16.21875 3.566406 15.585938 4.765625 14.328125 5.734375 C 13.078125 6.703125 11.082031 7.1875 8.34375 7.1875 C 6.039062 7.1875 4.25 6.925781 2.96875 6.40625 C 1.6875 5.882812 1.046875 5.117188 1.046875 4.109375 C 1.046875 3.515625 1.25 3.035156 1.65625 2.671875 C 2.0625 2.316406 2.726562 2.003906 3.65625 1.734375 C 2.976562 1.367188 2.46875 0.945312 2.125 0.46875 C 1.789062 0 1.625 -0.5625 1.625 -1.21875 C 1.625 -2.101562 1.898438 -2.851562 2.453125 -3.46875 C 3.015625 -4.09375 3.960938 -4.710938 5.296875 -5.328125 C 4.023438 -5.773438 3.015625 -6.484375 2.265625 -7.453125 C 1.523438 -8.429688 1.15625 -9.5 1.15625 -10.65625 C 1.15625 -11.644531 1.445312 -12.554688 2.03125 -13.390625 C 2.625 -14.234375 3.429688 -14.894531 4.453125 -15.375 C 5.484375 -15.863281 6.632812 -16.109375 7.90625 -16.109375 Z M 5.828125 -10.203125 C 5.828125 -7.316406 6.578125 -5.875 8.078125 -5.875 C 8.847656 -5.875 9.414062 -6.242188 9.78125 -6.984375 C 10.15625 -7.734375 10.34375 -8.851562 10.34375 -10.34375 C 10.34375 -12.082031 10.144531 -13.300781 9.75 -14 C 9.351562 -14.707031 8.796875 -15.0625 8.078125 -15.0625 C 6.578125 -15.0625 5.828125 -13.441406 5.828125 -10.203125 Z M 3.859375 3.765625 C 3.859375 4.515625 4.242188 5.097656 5.015625 5.515625 C 5.785156 5.929688 6.984375 6.140625 8.609375 6.140625 C 10.128906 6.140625 11.328125 5.9375 12.203125 5.53125 C 13.085938 5.125 13.53125 4.546875 13.53125 3.796875 C 13.53125 3.429688 13.425781 3.128906 13.21875 2.890625 C 13.019531 2.660156 12.59375 2.472656 11.9375 2.328125 C 11.28125 2.179688 10.320312 2.109375 9.0625 2.109375 L 6.3125 2.109375 C 5.675781 2.109375 5.109375 2.238281 4.609375 2.5 C 4.109375 2.757812 3.859375 3.179688 3.859375 3.765625 Z M 3.859375 3.765625 "/></g></g></g><g fill="#2f2f2f" fill-opacity="1"><g transform="translate(352.413385, 63.499763)"><g/></g></g><g fill="#2f2f2f" fill-opacity="1"><g transform="translate(360.891888, 63.499763)"><g><path d="M 13.671875 -23.8125 C 14.847656 -23.8125 15.816406 -23.707031 16.578125 -23.5 C 17.347656 -23.300781 18.175781 -23.019531 19.0625 -22.65625 C 19.15625 -22.613281 19.382812 -22.519531 19.75 -22.375 C 20.125 -22.226562 20.460938 -22.15625 20.765625 -22.15625 C 21.617188 -22.15625 22.148438 -22.695312 22.359375 -23.78125 L 23.03125 -23.78125 L 23.03125 -15.984375 L 22.359375 -15.984375 C 22.171875 -17.265625 21.707031 -18.382812 20.96875 -19.34375 C 20.238281 -20.3125 19.351562 -21.050781 18.3125 -21.5625 C 17.269531 -22.070312 16.207031 -22.328125 15.125 -22.328125 C 13.59375 -22.328125 12.253906 -21.867188 11.109375 -20.953125 C 9.960938 -20.035156 9.085938 -18.757812 8.484375 -17.125 C 7.890625 -15.5 7.59375 -13.65625 7.59375 -11.59375 C 7.59375 -8.269531 8.25 -5.664062 9.5625 -3.78125 C 10.875 -1.894531 12.6875 -0.953125 15 -0.953125 C 16.46875 -0.953125 17.785156 -1.300781 18.953125 -2 C 20.128906 -2.695312 21.332031 -3.757812 22.5625 -5.1875 L 22.5625 -3.328125 C 21.289062 -1.992188 19.96875 -1.023438 18.59375 -0.421875 C 17.226562 0.171875 15.664062 0.46875 13.90625 0.46875 C 11.414062 0.46875 9.238281 -0.046875 7.375 -1.078125 C 5.507812 -2.117188 4.070312 -3.53125 3.0625 -5.3125 C 2.0625 -7.101562 1.5625 -9.085938 1.5625 -11.265625 C 1.5625 -13.503906 2.109375 -15.582031 3.203125 -17.5 C 4.296875 -19.425781 5.769531 -20.957031 7.625 -22.09375 C 9.476562 -23.238281 11.492188 -23.8125 13.671875 -23.8125 Z M 13.671875 -23.8125 "/></g></g></g><g fill="#2f2f2f" fill-opacity="1"><g transform="translate(385.276076, 63.499763)"><g><path d="M 24.96875 -11.5 C 24.96875 -9.101562 24.453125 -7.035156 23.421875 -5.296875 C 22.390625 -3.554688 20.984375 -2.238281 19.203125 -1.34375 C 17.429688 -0.445312 15.460938 0 13.296875 0 L 0.578125 0 L 0.578125 -0.609375 C 1.410156 -0.609375 2.039062 -0.671875 2.46875 -0.796875 C 2.90625 -0.921875 3.226562 -1.1875 3.4375 -1.59375 C 3.65625 -2 3.765625 -2.644531 3.765625 -3.53125 L 3.765625 -19.75 C 3.765625 -20.625 3.648438 -21.269531 3.421875 -21.6875 C 3.203125 -22.113281 2.875 -22.382812 2.4375 -22.5 C 2.007812 -22.625 1.390625 -22.6875 0.578125 -22.6875 L 0.578125 -23.296875 L 12.75 -23.296875 C 14.96875 -23.296875 17.003906 -22.847656 18.859375 -21.953125 C 20.710938 -21.066406 22.191406 -19.734375 23.296875 -17.953125 C 24.410156 -16.179688 24.96875 -14.03125 24.96875 -11.5 Z M 11.8125 -1.1875 C 16.550781 -1.1875 18.921875 -4.566406 18.921875 -11.328125 C 18.921875 -15.109375 18.238281 -17.847656 16.875 -19.546875 C 15.507812 -21.253906 13.785156 -22.109375 11.703125 -22.109375 L 9.1875 -22.109375 L 9.1875 -3.453125 C 9.1875 -2.796875 9.257812 -2.3125 9.40625 -2 C 9.5625 -1.6875 9.816406 -1.472656 10.171875 -1.359375 C 10.535156 -1.242188 11.082031 -1.1875 11.8125 -1.1875 Z M 11.8125 -1.1875 "/></g></g></g><g fill="#2f2f2f" fill-opacity="1"><g transform="translate(411.423787, 63.499763)"><g><path d="M 9.09375 -23.8125 C 10.15625 -23.8125 11.066406 -23.703125 11.828125 -23.484375 C 12.597656 -23.273438 13.453125 -22.976562 14.390625 -22.59375 C 14.703125 -22.457031 15.003906 -22.335938 15.296875 -22.234375 C 15.585938 -22.128906 15.835938 -22.078125 16.046875 -22.078125 C 16.410156 -22.078125 16.703125 -22.222656 16.921875 -22.515625 C 17.148438 -22.816406 17.265625 -23.25 17.265625 -23.8125 L 17.90625 -23.8125 L 17.90625 -16.28125 L 17.265625 -16.28125 C 17.035156 -17.476562 16.546875 -18.550781 15.796875 -19.5 C 15.054688 -20.457031 14.128906 -21.191406 13.015625 -21.703125 C 11.910156 -22.222656 10.726562 -22.484375 9.46875 -22.484375 C 8.082031 -22.484375 6.945312 -22.148438 6.0625 -21.484375 C 5.1875 -20.816406 4.75 -19.988281 4.75 -19 C 4.75 -18.25 5.007812 -17.613281 5.53125 -17.09375 C 6.050781 -16.570312 6.703125 -16.140625 7.484375 -15.796875 C 8.265625 -15.460938 9.34375 -15.070312 10.71875 -14.625 C 12.09375 -14.164062 13.242188 -13.742188 14.171875 -13.359375 C 15.097656 -12.972656 15.914062 -12.5 16.625 -11.9375 C 17.414062 -11.28125 18.0625 -10.5 18.5625 -9.59375 C 19.070312 -8.695312 19.328125 -7.679688 19.328125 -6.546875 C 19.328125 -5.171875 18.953125 -3.945312 18.203125 -2.875 C 17.460938 -1.8125 16.421875 -0.988281 15.078125 -0.40625 C 13.734375 0.175781 12.175781 0.46875 10.40625 0.46875 C 9.300781 0.46875 8.367188 0.367188 7.609375 0.171875 C 6.859375 -0.015625 6.085938 -0.265625 5.296875 -0.578125 C 4.546875 -0.890625 3.988281 -1.046875 3.625 -1.046875 C 3.21875 -1.046875 2.867188 -0.921875 2.578125 -0.671875 C 2.285156 -0.429688 2.023438 -0.0507812 1.796875 0.46875 L 1.15625 0.46875 L 1.15625 -8.078125 L 1.796875 -8.078125 C 2.203125 -5.816406 3.164062 -4.023438 4.6875 -2.703125 C 6.21875 -1.378906 8.070312 -0.71875 10.25 -0.71875 C 11.875 -0.71875 13.160156 -1.050781 14.109375 -1.71875 C 15.054688 -2.382812 15.53125 -3.28125 15.53125 -4.40625 C 15.53125 -5.289062 15.253906 -6.035156 14.703125 -6.640625 C 14.148438 -7.253906 13.457031 -7.753906 12.625 -8.140625 C 11.800781 -8.523438 10.691406 -8.957031 9.296875 -9.4375 C 7.554688 -10.039062 6.144531 -10.609375 5.0625 -11.140625 C 3.988281 -11.671875 3.070312 -12.414062 2.3125 -13.375 C 1.5625 -14.34375 1.1875 -15.5625 1.1875 -17.03125 C 1.1875 -18.320312 1.523438 -19.476562 2.203125 -20.5 C 2.878906 -21.53125 3.816406 -22.335938 5.015625 -22.921875 C 6.210938 -23.515625 7.570312 -23.8125 9.09375 -23.8125 Z M 9.09375 -23.8125 "/></g></g></g></svg>