<svg xmlns="http://www.w3.org/2000/svg" xmlns:xlink="http://www.w3.org/1999/xlink" width="900" zoomAndPan="magnify" viewBox="0 0 675 449.999984" height="600" preserveAspectRatio="xMidYMid meet" version="1.0"><defs><g/><clipPath id="3bc97833a4"><path d="M 21.921875 181.761719 L 181.570312 181.761719 L 181.570312 285.492188 L 21.921875 285.492188 Z M 21.921875 181.761719 " clip-rule="nonzero"/></clipPath><clipPath id="9ed4dbad96"><path d="M 42.921875 181.761719 L 160.207031 181.761719 C 165.773438 181.761719 171.117188 183.976562 175.054688 187.914062 C 178.992188 191.851562 181.207031 197.195312 181.207031 202.761719 L 181.207031 264.492188 C 181.207031 270.0625 178.992188 275.40625 175.054688 279.34375 C 171.117188 283.28125 165.773438 285.492188 160.207031 285.492188 L 42.921875 285.492188 C 37.351562 285.492188 32.011719 283.28125 28.074219 279.34375 C 24.132812 275.40625 21.921875 270.0625 21.921875 264.492188 L 21.921875 202.761719 C 21.921875 197.195312 24.132812 191.851562 28.074219 187.914062 C 32.011719 183.976562 37.351562 181.761719 42.921875 181.761719 Z M 42.921875 181.761719 " clip-rule="nonzero"/></clipPath><clipPath id="8c14f57def"><path d="M 221.746094 160.332031 L 325.410156 160.332031 L 325.410156 227.6875 L 221.746094 227.6875 Z M 221.746094 160.332031 " clip-rule="nonzero"/></clipPath><clipPath id="5070fd1b4d"><path d="M 242.746094 160.332031 L 304.175781 160.332031 C 309.742188 160.332031 315.085938 162.546875 319.023438 166.484375 C 322.960938 170.421875 325.175781 175.765625 325.175781 181.332031 L 325.175781 206.6875 C 325.175781 212.257812 322.960938 217.601562 319.023438 221.539062 C 315.085938 225.476562 309.742188 227.6875 304.175781 227.6875 L 242.746094 227.6875 C 237.175781 227.6875 231.835938 225.476562 227.898438 221.539062 C 223.960938 217.601562 221.746094 212.257812 221.746094 206.6875 L 221.746094 181.332031 C 221.746094 175.765625 223.960938 170.421875 227.898438 166.484375 C 231.835938 162.546875 237.175781 160.332031 242.746094 160.332031 Z M 242.746094 160.332031 " clip-rule="nonzero"/></clipPath><clipPath id="f8080fb984"><path d="M 221.746094 236.765625 L 325.410156 236.765625 L 325.410156 304.121094 L 221.746094 304.121094 Z M 221.746094 236.765625 " clip-rule="nonzero"/></clipPath><clipPath id="2d650c5709"><path d="M 242.746094 236.765625 L 304.175781 236.765625 C 309.742188 236.765625 315.085938 238.976562 319.023438 242.917969 C 322.960938 246.855469 325.175781 252.195312 325.175781 257.765625 L 325.175781 283.121094 C 325.175781 288.691406 322.960938 294.03125 319.023438 297.96875 C 315.085938 301.910156 309.742188 304.121094 304.175781 304.121094 L 242.746094 304.121094 C 237.175781 304.121094 231.835938 301.910156 227.898438 297.96875 C 223.960938 294.03125 221.746094 288.691406 221.746094 283.121094 L 221.746094 257.765625 C 221.746094 252.195312 223.960938 246.855469 227.898438 242.917969 C 231.835938 238.976562 237.175781 236.765625 242.746094 236.765625 Z M 242.746094 236.765625 " clip-rule="nonzero"/></clipPath><clipPath id="1e0dbe3dbc"><path d="M 221.746094 324.527344 L 325.410156 324.527344 L 325.410156 391.882812 L 221.746094 391.882812 Z M 221.746094 324.527344 " clip-rule="nonzero"/></clipPath><clipPath id="86e09536c6"><path d="M 242.746094 324.527344 L 304.175781 324.527344 C 309.742188 324.527344 315.085938 326.738281 319.023438 330.679688 C 322.960938 334.617188 325.175781 339.957031 325.175781 345.527344 L 325.175781 370.882812 C 325.175781 376.453125 322.960938 381.792969 319.023438 385.730469 C 315.085938 389.667969 309.742188 391.882812 304.175781 391.882812 L 242.746094 391.882812 C 237.175781 391.882812 231.835938 389.667969 227.898438 385.730469 C 223.960938 381.792969 221.746094 376.453125 221.746094 370.882812 L 221.746094 345.527344 C 221.746094 339.957031 223.960938 334.617188 227.898438 330.679688 C 231.835938 326.738281 237.175781 324.527344 242.746094 324.527344 Z M 242.746094 324.527344 " clip-rule="nonzero"/></clipPath><clipPath id="129d5fe66a"><path d="M 493.792969 181.761719 L 653.441406 181.761719 L 653.441406 285.492188 L 493.792969 285.492188 Z M 493.792969 181.761719 " clip-rule="nonzero"/></clipPath><clipPath id="e2605a6811"><path d="M 514.792969 181.761719 L 632.078125 181.761719 C 637.648438 181.761719 642.988281 183.976562 646.925781 187.914062 C 650.867188 191.851562 653.078125 197.195312 653.078125 202.761719 L 653.078125 264.492188 C 653.078125 270.0625 650.867188 275.40625 646.925781 279.34375 C 642.988281 283.28125 637.648438 285.492188 632.078125 285.492188 L 514.792969 285.492188 C 509.226562 285.492188 503.882812 283.28125 499.945312 279.34375 C 496.007812 275.40625 493.792969 270.0625 493.792969 264.492188 L 493.792969 202.761719 C 493.792969 197.195312 496.007812 191.851562 499.945312 187.914062 C 503.882812 183.976562 509.226562 181.761719 514.792969 181.761719 Z M 514.792969 181.761719 " clip-rule="nonzero"/></clipPath><clipPath id="9cb9414a3d"><path d="M 365.675781 160.332031 L 469.339844 160.332031 L 469.339844 227.6875 L 365.675781 227.6875 Z M 365.675781 160.332031 " clip-rule="nonzero"/></clipPath><clipPath id="cda5d0f1dd"><path d="M 386.675781 160.332031 L 448.101562 160.332031 C 453.671875 160.332031 459.011719 162.546875 462.949219 166.484375 C 466.890625 170.421875 469.101562 175.765625 469.101562 181.332031 L 469.101562 206.6875 C 469.101562 212.257812 466.890625 217.601562 462.949219 221.539062 C 459.011719 225.476562 453.671875 227.6875 448.101562 227.6875 L 386.675781 227.6875 C 381.105469 227.6875 375.761719 225.476562 371.824219 221.539062 C 367.886719 217.601562 365.675781 212.257812 365.675781 206.6875 L 365.675781 181.332031 C 365.675781 175.765625 367.886719 170.421875 371.824219 166.484375 C 375.761719 162.546875 381.105469 160.332031 386.675781 160.332031 Z M 386.675781 160.332031 " clip-rule="nonzero"/></clipPath><clipPath id="8291cc19f5"><path d="M 365.675781 236.765625 L 469.339844 236.765625 L 469.339844 304.121094 L 365.675781 304.121094 Z M 365.675781 236.765625 " clip-rule="nonzero"/></clipPath><clipPath id="86cab983ba"><path d="M 386.675781 236.765625 L 448.101562 236.765625 C 453.671875 236.765625 459.011719 238.976562 462.949219 242.917969 C 466.890625 246.855469 469.101562 252.195312 469.101562 257.765625 L 469.101562 283.121094 C 469.101562 288.691406 466.890625 294.03125 462.949219 297.96875 C 459.011719 301.910156 453.671875 304.121094 448.101562 304.121094 L 386.675781 304.121094 C 381.105469 304.121094 375.761719 301.910156 371.824219 297.96875 C 367.886719 294.03125 365.675781 288.691406 365.675781 283.121094 L 365.675781 257.765625 C 365.675781 252.195312 367.886719 246.855469 371.824219 242.917969 C 375.761719 238.976562 381.105469 236.765625 386.675781 236.765625 Z M 386.675781 236.765625 " clip-rule="nonzero"/></clipPath><clipPath id="a1c55e5dfd"><path d="M 365.675781 324.527344 L 469.339844 324.527344 L 469.339844 391.882812 L 365.675781 391.882812 Z M 365.675781 324.527344 " clip-rule="nonzero"/></clipPath><clipPath id="23388b3d23"><path d="M 386.675781 324.527344 L 448.101562 324.527344 C 453.671875 324.527344 459.011719 326.738281 462.949219 330.679688 C 466.890625 334.617188 469.101562 339.957031 469.101562 345.527344 L 469.101562 370.882812 C 469.101562 376.453125 466.890625 381.792969 462.949219 385.730469 C 459.011719 389.667969 453.671875 391.882812 448.101562 391.882812 L 386.675781 391.882812 C 381.105469 391.882812 375.761719 389.667969 371.824219 385.730469 C 367.886719 381.792969 365.675781 376.453125 365.675781 370.882812 L 365.675781 345.527344 C 365.675781 339.957031 367.886719 334.617188 371.824219 330.679688 C 375.761719 326.738281 381.105469 324.527344 386.675781 324.527344 Z M 386.675781 324.527344 " clip-rule="nonzero"/></clipPath></defs><rect x="-67.5" width="810" fill="#ffffff" y="-44.999998" height="539.99998" fill-opacity="1"/><rect x="-67.5" width="810" fill="#ffffff" y="-44.999998" height="539.99998" fill-opacity="1"/><g clip-path="url(#3bc97833a4)"><g clip-path="url(#9ed4dbad96)"><path fill="#2f2f2f" d="M 21.921875 181.761719 L 181.164062 181.761719 L 181.164062 285.492188 L 21.921875 285.492188 Z M 21.921875 181.761719 " fill-opacity="1" fill-rule="nonzero"/></g></g><g fill="#ffffff" fill-opacity="1"><g transform="translate(51.440787, 212.179059)"><g><path d="M 6.8125 -13.890625 C 9.0625 -13.890625 10.78125 -13.304688 11.96875 -12.140625 C 13.15625 -10.984375 13.75 -9.253906 13.75 -6.953125 C 13.75 -4.648438 13.15625 -2.914062 11.96875 -1.75 C 10.78125 -0.582031 9.0625 0 6.8125 0 L 1.8125 0 L 1.8125 -13.890625 Z M 6.640625 -2.3125 C 8.078125 -2.3125 9.148438 -2.675781 9.859375 -3.40625 C 10.566406 -4.132812 10.921875 -5.316406 10.921875 -6.953125 C 10.921875 -8.578125 10.566406 -9.753906 9.859375 -10.484375 C 9.148438 -11.222656 8.078125 -11.59375 6.640625 -11.59375 L 4.546875 -11.59375 L 4.546875 -2.3125 Z M 6.640625 -2.3125 "/></g></g><g transform="translate(66.293607, 212.179059)"><g><path d="M 2.828125 -11.734375 C 2.347656 -11.734375 1.957031 -11.878906 1.65625 -12.171875 C 1.363281 -12.460938 1.21875 -12.835938 1.21875 -13.296875 C 1.21875 -13.742188 1.363281 -14.109375 1.65625 -14.390625 C 1.957031 -14.679688 2.347656 -14.828125 2.828125 -14.828125 C 3.140625 -14.828125 3.421875 -14.757812 3.671875 -14.625 C 3.921875 -14.5 4.113281 -14.316406 4.25 -14.078125 C 4.382812 -13.847656 4.453125 -13.585938 4.453125 -13.296875 C 4.453125 -12.992188 4.382812 -12.722656 4.25 -12.484375 C 4.113281 -12.253906 3.921875 -12.070312 3.671875 -11.9375 C 3.421875 -11.800781 3.140625 -11.734375 2.828125 -11.734375 Z M 1.515625 0 L 1.515625 -10.484375 L 4.140625 -10.484375 L 4.140625 0 Z M 1.515625 0 "/></g></g><g transform="translate(71.938248, 212.179059)"><g><path d="M 4.09375 0.203125 C 3.414062 0.203125 2.828125 0.078125 2.328125 -0.171875 C 1.835938 -0.421875 1.457031 -0.785156 1.1875 -1.265625 C 0.925781 -1.742188 0.796875 -2.316406 0.796875 -2.984375 C 0.796875 -3.609375 0.925781 -4.128906 1.1875 -4.546875 C 1.457031 -4.972656 1.867188 -5.316406 2.421875 -5.578125 C 2.984375 -5.847656 3.71875 -6.054688 4.625 -6.203125 C 5.25 -6.304688 5.722656 -6.414062 6.046875 -6.53125 C 6.378906 -6.65625 6.597656 -6.789062 6.703125 -6.9375 C 6.816406 -7.09375 6.875 -7.289062 6.875 -7.53125 C 6.875 -7.863281 6.753906 -8.117188 6.515625 -8.296875 C 6.285156 -8.472656 5.898438 -8.5625 5.359375 -8.5625 C 4.773438 -8.5625 4.21875 -8.429688 3.6875 -8.171875 C 3.164062 -7.910156 2.710938 -7.570312 2.328125 -7.15625 L 2.140625 -7.15625 L 1.03125 -8.8125 C 1.5625 -9.40625 2.210938 -9.863281 2.984375 -10.1875 C 3.753906 -10.519531 4.59375 -10.6875 5.5 -10.6875 C 6.882812 -10.6875 7.882812 -10.390625 8.5 -9.796875 C 9.125 -9.210938 9.4375 -8.378906 9.4375 -7.296875 L 9.4375 -2.734375 C 9.4375 -2.265625 9.644531 -2.03125 10.0625 -2.03125 C 10.21875 -2.03125 10.367188 -2.0625 10.515625 -2.125 L 10.65625 -2.078125 L 10.84375 -0.25 C 10.695312 -0.15625 10.492188 -0.078125 10.234375 -0.015625 C 9.972656 0.046875 9.6875 0.078125 9.375 0.078125 C 8.75 0.078125 8.257812 -0.0390625 7.90625 -0.28125 C 7.5625 -0.519531 7.3125 -0.898438 7.15625 -1.421875 L 6.953125 -1.4375 C 6.441406 -0.34375 5.488281 0.203125 4.09375 0.203125 Z M 4.921875 -1.765625 C 5.535156 -1.765625 6.023438 -1.96875 6.390625 -2.375 C 6.753906 -2.789062 6.9375 -3.363281 6.9375 -4.09375 L 6.9375 -5.15625 L 6.75 -5.1875 C 6.59375 -5.0625 6.382812 -4.957031 6.125 -4.875 C 5.863281 -4.789062 5.492188 -4.707031 5.015625 -4.625 C 4.441406 -4.53125 4.03125 -4.363281 3.78125 -4.125 C 3.53125 -3.894531 3.40625 -3.566406 3.40625 -3.140625 C 3.40625 -2.691406 3.539062 -2.347656 3.8125 -2.109375 C 4.082031 -1.878906 4.453125 -1.765625 4.921875 -1.765625 Z M 4.921875 -1.765625 "/></g></g><g transform="translate(82.989962, 212.179059)"><g><path d="M 1.515625 0 L 1.515625 -10.484375 L 4.046875 -10.484375 L 4.046875 -9.078125 L 4.234375 -9.046875 C 4.578125 -9.609375 4.976562 -10.019531 5.4375 -10.28125 C 5.894531 -10.550781 6.484375 -10.6875 7.203125 -10.6875 C 7.992188 -10.6875 8.628906 -10.53125 9.109375 -10.21875 C 9.597656 -9.90625 9.953125 -9.445312 10.171875 -8.84375 L 10.375 -8.84375 C 10.695312 -9.46875 11.113281 -9.929688 11.625 -10.234375 C 12.132812 -10.535156 12.769531 -10.6875 13.53125 -10.6875 C 15.695312 -10.6875 16.78125 -9.472656 16.78125 -7.046875 L 16.78125 0 L 14.15625 0 L 14.15625 -6.71875 C 14.15625 -7.332031 14.035156 -7.773438 13.796875 -8.046875 C 13.554688 -8.316406 13.171875 -8.453125 12.640625 -8.453125 C 11.191406 -8.453125 10.46875 -7.488281 10.46875 -5.5625 L 10.46875 0 L 7.828125 0 L 7.828125 -6.71875 C 7.828125 -7.332031 7.703125 -7.773438 7.453125 -8.046875 C 7.210938 -8.316406 6.828125 -8.453125 6.296875 -8.453125 C 5.617188 -8.453125 5.085938 -8.222656 4.703125 -7.765625 C 4.328125 -7.316406 4.140625 -6.601562 4.140625 -5.625 L 4.140625 0 Z M 1.515625 0 "/></g></g><g transform="translate(101.121236, 212.179059)"><g><path d="M 6.09375 0.203125 C 5.0625 0.203125 4.15625 -0.00390625 3.375 -0.421875 C 2.601562 -0.847656 2.003906 -1.46875 1.578125 -2.28125 C 1.148438 -3.09375 0.9375 -4.078125 0.9375 -5.234375 C 0.9375 -6.390625 1.148438 -7.375 1.578125 -8.1875 C 2.003906 -9.007812 2.601562 -9.628906 3.375 -10.046875 C 4.15625 -10.472656 5.0625 -10.6875 6.09375 -10.6875 C 7.125 -10.6875 8.023438 -10.472656 8.796875 -10.046875 C 9.578125 -9.628906 10.179688 -9.007812 10.609375 -8.1875 C 11.035156 -7.375 11.25 -6.390625 11.25 -5.234375 C 11.25 -4.078125 11.035156 -3.09375 10.609375 -2.28125 C 10.179688 -1.46875 9.578125 -0.847656 8.796875 -0.421875 C 8.023438 -0.00390625 7.125 0.203125 6.09375 0.203125 Z M 6.09375 -2.03125 C 7.71875 -2.03125 8.53125 -3.097656 8.53125 -5.234375 C 8.53125 -6.347656 8.320312 -7.160156 7.90625 -7.671875 C 7.488281 -8.191406 6.882812 -8.453125 6.09375 -8.453125 C 4.46875 -8.453125 3.65625 -7.378906 3.65625 -5.234375 C 3.65625 -3.097656 4.46875 -2.03125 6.09375 -2.03125 Z M 6.09375 -2.03125 "/></g></g><g transform="translate(113.303779, 212.179059)"><g><path d="M 1.515625 0 L 1.515625 -10.484375 L 4.046875 -10.484375 L 4.046875 -8.953125 L 4.234375 -8.890625 C 4.890625 -10.085938 5.953125 -10.6875 7.421875 -10.6875 C 8.628906 -10.6875 9.515625 -10.351562 10.078125 -9.6875 C 10.648438 -9.03125 10.9375 -8.070312 10.9375 -6.8125 L 10.9375 0 L 8.296875 0 L 8.296875 -6.5 C 8.296875 -7.1875 8.15625 -7.679688 7.875 -7.984375 C 7.601562 -8.296875 7.160156 -8.453125 6.546875 -8.453125 C 5.785156 -8.453125 5.191406 -8.207031 4.765625 -7.71875 C 4.347656 -7.238281 4.140625 -6.472656 4.140625 -5.421875 L 4.140625 0 Z M 1.515625 0 "/></g></g><g transform="translate(125.581349, 212.179059)"><g><path d="M 5.1875 0.203125 C 4.351562 0.203125 3.617188 0.00390625 2.984375 -0.390625 C 2.347656 -0.796875 1.847656 -1.40625 1.484375 -2.21875 C 1.117188 -3.039062 0.9375 -4.046875 0.9375 -5.234375 C 0.9375 -6.429688 1.117188 -7.4375 1.484375 -8.25 C 1.859375 -9.070312 2.375 -9.679688 3.03125 -10.078125 C 3.6875 -10.484375 4.445312 -10.6875 5.3125 -10.6875 C 5.96875 -10.6875 6.535156 -10.570312 7.015625 -10.34375 C 7.492188 -10.125 7.894531 -9.773438 8.21875 -9.296875 L 8.421875 -9.34375 L 8.421875 -14.703125 L 11.0625 -14.703125 L 11.0625 0 L 8.421875 0 L 8.421875 -1.359375 L 8.21875 -1.390625 C 7.925781 -0.898438 7.523438 -0.507812 7.015625 -0.21875 C 6.515625 0.0625 5.90625 0.203125 5.1875 0.203125 Z M 6.03125 -2.03125 C 6.78125 -2.03125 7.367188 -2.296875 7.796875 -2.828125 C 8.222656 -3.359375 8.4375 -4.160156 8.4375 -5.234375 C 8.4375 -6.316406 8.222656 -7.125 7.796875 -7.65625 C 7.367188 -8.1875 6.78125 -8.453125 6.03125 -8.453125 C 5.257812 -8.453125 4.671875 -8.191406 4.265625 -7.671875 C 3.859375 -7.160156 3.65625 -6.347656 3.65625 -5.234375 C 3.65625 -4.128906 3.859375 -3.316406 4.265625 -2.796875 C 4.671875 -2.285156 5.257812 -2.03125 6.03125 -2.03125 Z M 6.03125 -2.03125 "/></g></g><g transform="translate(138.144003, 212.179059)"><g><path d="M 13.34375 0 L 10.453125 0 L 9.40625 -3.203125 L 4.078125 -3.203125 L 3.03125 0 L 0.203125 0 L 5.015625 -13.890625 L 8.53125 -13.890625 Z M 6.609375 -11 L 4.8125 -5.515625 L 8.640625 -5.515625 L 6.84375 -11 Z M 6.609375 -11 "/></g></g></g><g clip-path="url(#8c14f57def)"><g clip-path="url(#5070fd1b4d)"><path fill="#737373" d="M 221.746094 160.332031 L 325.148438 160.332031 L 325.148438 227.6875 L 221.746094 227.6875 Z M 221.746094 160.332031 " fill-opacity="1" fill-rule="nonzero"/></g></g><g fill="#ffffff" fill-opacity="1"><g transform="translate(251.977753, 180.083561)"><g><path d="M 6.890625 -9.03125 L 6.890625 -7.53125 L 2.953125 -7.53125 L 2.953125 -5.140625 L 6.53125 -5.140625 L 6.53125 -3.671875 L 2.953125 -3.671875 L 2.953125 0 L 1.171875 0 L 1.171875 -9.03125 Z M 6.890625 -9.03125 "/></g></g><g transform="translate(259.27117, 180.083561)"><g><path d="M 2.65625 0.125 C 2.21875 0.125 1.835938 0.046875 1.515625 -0.109375 C 1.191406 -0.273438 0.941406 -0.507812 0.765625 -0.8125 C 0.597656 -1.125 0.515625 -1.5 0.515625 -1.9375 C 0.515625 -2.34375 0.597656 -2.679688 0.765625 -2.953125 C 0.941406 -3.222656 1.210938 -3.445312 1.578125 -3.625 C 1.941406 -3.800781 2.414062 -3.9375 3 -4.03125 C 3.40625 -4.09375 3.710938 -4.160156 3.921875 -4.234375 C 4.140625 -4.316406 4.285156 -4.40625 4.359375 -4.5 C 4.429688 -4.601562 4.46875 -4.734375 4.46875 -4.890625 C 4.46875 -5.109375 4.390625 -5.273438 4.234375 -5.390625 C 4.085938 -5.503906 3.835938 -5.5625 3.484375 -5.5625 C 3.097656 -5.5625 2.734375 -5.476562 2.390625 -5.3125 C 2.054688 -5.144531 1.765625 -4.921875 1.515625 -4.640625 L 1.390625 -4.640625 L 0.671875 -5.71875 C 1.015625 -6.101562 1.4375 -6.398438 1.9375 -6.609375 C 2.4375 -6.828125 2.976562 -6.9375 3.5625 -6.9375 C 4.46875 -6.9375 5.117188 -6.742188 5.515625 -6.359375 C 5.921875 -5.984375 6.125 -5.441406 6.125 -4.734375 L 6.125 -1.78125 C 6.125 -1.476562 6.257812 -1.328125 6.53125 -1.328125 C 6.632812 -1.328125 6.734375 -1.34375 6.828125 -1.375 L 6.921875 -1.359375 L 7.046875 -0.15625 C 6.953125 -0.09375 6.816406 -0.0390625 6.640625 0 C 6.472656 0.03125 6.289062 0.046875 6.09375 0.046875 C 5.6875 0.046875 5.367188 -0.03125 5.140625 -0.1875 C 4.910156 -0.34375 4.742188 -0.585938 4.640625 -0.921875 L 4.515625 -0.9375 C 4.179688 -0.226562 3.5625 0.125 2.65625 0.125 Z M 3.203125 -1.140625 C 3.597656 -1.140625 3.910156 -1.269531 4.140625 -1.53125 C 4.378906 -1.800781 4.5 -2.175781 4.5 -2.65625 L 4.5 -3.34375 L 4.375 -3.375 C 4.28125 -3.289062 4.148438 -3.21875 3.984375 -3.15625 C 3.816406 -3.101562 3.578125 -3.050781 3.265625 -3 C 2.890625 -2.9375 2.617188 -2.828125 2.453125 -2.671875 C 2.296875 -2.523438 2.21875 -2.316406 2.21875 -2.046875 C 2.21875 -1.753906 2.300781 -1.53125 2.46875 -1.375 C 2.644531 -1.21875 2.890625 -1.140625 3.203125 -1.140625 Z M 3.203125 -1.140625 "/></g></g><g transform="translate(266.44735, 180.083561)"><g><path d="M 3.96875 0.125 C 3.3125 0.125 2.726562 -0.0078125 2.21875 -0.28125 C 1.71875 -0.550781 1.320312 -0.953125 1.03125 -1.484375 C 0.75 -2.015625 0.609375 -2.65625 0.609375 -3.40625 C 0.609375 -4.15625 0.75 -4.789062 1.03125 -5.3125 C 1.320312 -5.84375 1.71875 -6.242188 2.21875 -6.515625 C 2.71875 -6.796875 3.289062 -6.9375 3.9375 -6.9375 C 5.375 -6.9375 6.296875 -6.414062 6.703125 -5.375 L 5.53125 -4.53125 L 5.390625 -4.53125 C 5.253906 -4.851562 5.070312 -5.09375 4.84375 -5.25 C 4.625 -5.40625 4.320312 -5.484375 3.9375 -5.484375 C 3.445312 -5.484375 3.0625 -5.3125 2.78125 -4.96875 C 2.507812 -4.632812 2.375 -4.113281 2.375 -3.40625 C 2.375 -2.707031 2.507812 -2.1875 2.78125 -1.84375 C 3.0625 -1.5 3.457031 -1.328125 3.96875 -1.328125 C 4.34375 -1.328125 4.65625 -1.425781 4.90625 -1.625 C 5.164062 -1.820312 5.351562 -2.109375 5.46875 -2.484375 L 5.59375 -2.5 L 6.8125 -1.828125 C 6.632812 -1.253906 6.3125 -0.785156 5.84375 -0.421875 C 5.375 -0.0546875 4.75 0.125 3.96875 0.125 Z M 3.96875 0.125 "/></g></g><g transform="translate(273.463099, 180.083561)"><g><path d="M 6.734375 -3.015625 L 2.359375 -3.015625 C 2.398438 -2.421875 2.566406 -1.988281 2.859375 -1.71875 C 3.148438 -1.457031 3.539062 -1.328125 4.03125 -1.328125 C 4.425781 -1.328125 4.742188 -1.398438 4.984375 -1.546875 C 5.222656 -1.691406 5.421875 -1.910156 5.578125 -2.203125 L 5.703125 -2.203125 L 6.84375 -1.46875 C 6.613281 -1 6.273438 -0.613281 5.828125 -0.3125 C 5.378906 -0.0195312 4.78125 0.125 4.03125 0.125 C 3.332031 0.125 2.722656 -0.00390625 2.203125 -0.265625 C 1.691406 -0.535156 1.296875 -0.9375 1.015625 -1.46875 C 0.742188 -2 0.609375 -2.644531 0.609375 -3.40625 C 0.609375 -4.175781 0.753906 -4.828125 1.046875 -5.359375 C 1.335938 -5.890625 1.734375 -6.285156 2.234375 -6.546875 C 2.734375 -6.804688 3.289062 -6.9375 3.90625 -6.9375 C 4.875 -6.9375 5.613281 -6.679688 6.125 -6.171875 C 6.632812 -5.660156 6.890625 -4.910156 6.890625 -3.921875 C 6.890625 -3.566406 6.878906 -3.289062 6.859375 -3.09375 Z M 5.265625 -4.125 C 5.242188 -4.644531 5.117188 -5.019531 4.890625 -5.25 C 4.671875 -5.488281 4.34375 -5.609375 3.90625 -5.609375 C 3.039062 -5.609375 2.535156 -5.113281 2.390625 -4.125 Z M 5.265625 -4.125 "/></g></g><g transform="translate(280.861413, 180.083561)"><g><path d="M 4.703125 -1.625 L 5.140625 -0.359375 C 4.953125 -0.203125 4.71875 -0.0820312 4.4375 0 C 4.164062 0.0820312 3.851562 0.125 3.5 0.125 C 2.757812 0.125 2.195312 -0.0703125 1.8125 -0.46875 C 1.425781 -0.875 1.234375 -1.457031 1.234375 -2.21875 L 1.234375 -5.453125 L 0.203125 -5.453125 L 0.203125 -6.8125 L 1.234375 -6.8125 L 1.234375 -8.140625 L 2.953125 -8.421875 L 2.953125 -6.8125 L 4.875 -6.8125 L 4.875 -5.453125 L 2.953125 -5.453125 L 2.953125 -2.34375 C 2.953125 -2.007812 3.019531 -1.765625 3.15625 -1.609375 C 3.300781 -1.453125 3.503906 -1.375 3.765625 -1.375 C 4.078125 -1.375 4.34375 -1.457031 4.5625 -1.625 Z M 4.703125 -1.625 "/></g></g><g transform="translate(286.14945, 180.083561)"><g><path d="M 8.65625 0 L 6.78125 0 L 6.109375 -2.078125 L 2.640625 -2.078125 L 1.96875 0 L 0.140625 0 L 3.25 -9.03125 L 5.546875 -9.03125 Z M 4.296875 -7.140625 L 3.125 -3.578125 L 5.609375 -3.578125 L 4.4375 -7.140625 Z M 4.296875 -7.140625 "/></g></g></g><g clip-path="url(#f8080fb984)"><g clip-path="url(#2d650c5709)"><path fill="#737373" d="M 221.746094 236.765625 L 325.148438 236.765625 L 325.148438 304.121094 L 221.746094 304.121094 Z M 221.746094 236.765625 " fill-opacity="1" fill-rule="nonzero"/></g></g><g fill="#ffffff" fill-opacity="1"><g transform="translate(251.962327, 256.515909)"><g><path d="M 6.890625 -9.03125 L 6.890625 -7.53125 L 2.953125 -7.53125 L 2.953125 -5.140625 L 6.53125 -5.140625 L 6.53125 -3.671875 L 2.953125 -3.671875 L 2.953125 0 L 1.171875 0 L 1.171875 -9.03125 Z M 6.890625 -9.03125 "/></g></g><g transform="translate(259.255744, 256.515909)"><g><path d="M 2.65625 0.125 C 2.21875 0.125 1.835938 0.046875 1.515625 -0.109375 C 1.191406 -0.273438 0.941406 -0.507812 0.765625 -0.8125 C 0.597656 -1.125 0.515625 -1.5 0.515625 -1.9375 C 0.515625 -2.34375 0.597656 -2.679688 0.765625 -2.953125 C 0.941406 -3.222656 1.210938 -3.445312 1.578125 -3.625 C 1.941406 -3.800781 2.414062 -3.9375 3 -4.03125 C 3.40625 -4.09375 3.710938 -4.160156 3.921875 -4.234375 C 4.140625 -4.316406 4.285156 -4.40625 4.359375 -4.5 C 4.429688 -4.601562 4.46875 -4.734375 4.46875 -4.890625 C 4.46875 -5.109375 4.390625 -5.273438 4.234375 -5.390625 C 4.085938 -5.503906 3.835938 -5.5625 3.484375 -5.5625 C 3.097656 -5.5625 2.734375 -5.476562 2.390625 -5.3125 C 2.054688 -5.144531 1.765625 -4.921875 1.515625 -4.640625 L 1.390625 -4.640625 L 0.671875 -5.71875 C 1.015625 -6.101562 1.4375 -6.398438 1.9375 -6.609375 C 2.4375 -6.828125 2.976562 -6.9375 3.5625 -6.9375 C 4.46875 -6.9375 5.117188 -6.742188 5.515625 -6.359375 C 5.921875 -5.984375 6.125 -5.441406 6.125 -4.734375 L 6.125 -1.78125 C 6.125 -1.476562 6.257812 -1.328125 6.53125 -1.328125 C 6.632812 -1.328125 6.734375 -1.34375 6.828125 -1.375 L 6.921875 -1.359375 L 7.046875 -0.15625 C 6.953125 -0.09375 6.816406 -0.0390625 6.640625 0 C 6.472656 0.03125 6.289062 0.046875 6.09375 0.046875 C 5.6875 0.046875 5.367188 -0.03125 5.140625 -0.1875 C 4.910156 -0.34375 4.742188 -0.585938 4.640625 -0.921875 L 4.515625 -0.9375 C 4.179688 -0.226562 3.5625 0.125 2.65625 0.125 Z M 3.203125 -1.140625 C 3.597656 -1.140625 3.910156 -1.269531 4.140625 -1.53125 C 4.378906 -1.800781 4.5 -2.175781 4.5 -2.65625 L 4.5 -3.34375 L 4.375 -3.375 C 4.28125 -3.289062 4.148438 -3.21875 3.984375 -3.15625 C 3.816406 -3.101562 3.578125 -3.050781 3.265625 -3 C 2.890625 -2.9375 2.617188 -2.828125 2.453125 -2.671875 C 2.296875 -2.523438 2.21875 -2.316406 2.21875 -2.046875 C 2.21875 -1.753906 2.300781 -1.53125 2.46875 -1.375 C 2.644531 -1.21875 2.890625 -1.140625 3.203125 -1.140625 Z M 3.203125 -1.140625 "/></g></g><g transform="translate(266.431924, 256.515909)"><g><path d="M 3.96875 0.125 C 3.3125 0.125 2.726562 -0.0078125 2.21875 -0.28125 C 1.71875 -0.550781 1.320312 -0.953125 1.03125 -1.484375 C 0.75 -2.015625 0.609375 -2.65625 0.609375 -3.40625 C 0.609375 -4.15625 0.75 -4.789062 1.03125 -5.3125 C 1.320312 -5.84375 1.71875 -6.242188 2.21875 -6.515625 C 2.71875 -6.796875 3.289062 -6.9375 3.9375 -6.9375 C 5.375 -6.9375 6.296875 -6.414062 6.703125 -5.375 L 5.53125 -4.53125 L 5.390625 -4.53125 C 5.253906 -4.851562 5.070312 -5.09375 4.84375 -5.25 C 4.625 -5.40625 4.320312 -5.484375 3.9375 -5.484375 C 3.445312 -5.484375 3.0625 -5.3125 2.78125 -4.96875 C 2.507812 -4.632812 2.375 -4.113281 2.375 -3.40625 C 2.375 -2.707031 2.507812 -2.1875 2.78125 -1.84375 C 3.0625 -1.5 3.457031 -1.328125 3.96875 -1.328125 C 4.34375 -1.328125 4.65625 -1.425781 4.90625 -1.625 C 5.164062 -1.820312 5.351562 -2.109375 5.46875 -2.484375 L 5.59375 -2.5 L 6.8125 -1.828125 C 6.632812 -1.253906 6.3125 -0.785156 5.84375 -0.421875 C 5.375 -0.0546875 4.75 0.125 3.96875 0.125 Z M 3.96875 0.125 "/></g></g><g transform="translate(273.447673, 256.515909)"><g><path d="M 6.734375 -3.015625 L 2.359375 -3.015625 C 2.398438 -2.421875 2.566406 -1.988281 2.859375 -1.71875 C 3.148438 -1.457031 3.539062 -1.328125 4.03125 -1.328125 C 4.425781 -1.328125 4.742188 -1.398438 4.984375 -1.546875 C 5.222656 -1.691406 5.421875 -1.910156 5.578125 -2.203125 L 5.703125 -2.203125 L 6.84375 -1.46875 C 6.613281 -1 6.273438 -0.613281 5.828125 -0.3125 C 5.378906 -0.0195312 4.78125 0.125 4.03125 0.125 C 3.332031 0.125 2.722656 -0.00390625 2.203125 -0.265625 C 1.691406 -0.535156 1.296875 -0.9375 1.015625 -1.46875 C 0.742188 -2 0.609375 -2.644531 0.609375 -3.40625 C 0.609375 -4.175781 0.753906 -4.828125 1.046875 -5.359375 C 1.335938 -5.890625 1.734375 -6.285156 2.234375 -6.546875 C 2.734375 -6.804688 3.289062 -6.9375 3.90625 -6.9375 C 4.875 -6.9375 5.613281 -6.679688 6.125 -6.171875 C 6.632812 -5.660156 6.890625 -4.910156 6.890625 -3.921875 C 6.890625 -3.566406 6.878906 -3.289062 6.859375 -3.09375 Z M 5.265625 -4.125 C 5.242188 -4.644531 5.117188 -5.019531 4.890625 -5.25 C 4.671875 -5.488281 4.34375 -5.609375 3.90625 -5.609375 C 3.039062 -5.609375 2.535156 -5.113281 2.390625 -4.125 Z M 5.265625 -4.125 "/></g></g><g transform="translate(280.845987, 256.515909)"><g><path d="M 4.703125 -1.625 L 5.140625 -0.359375 C 4.953125 -0.203125 4.71875 -0.0820312 4.4375 0 C 4.164062 0.0820312 3.851562 0.125 3.5 0.125 C 2.757812 0.125 2.195312 -0.0703125 1.8125 -0.46875 C 1.425781 -0.875 1.234375 -1.457031 1.234375 -2.21875 L 1.234375 -5.453125 L 0.203125 -5.453125 L 0.203125 -6.8125 L 1.234375 -6.8125 L 1.234375 -8.140625 L 2.953125 -8.421875 L 2.953125 -6.8125 L 4.875 -6.8125 L 4.875 -5.453125 L 2.953125 -5.453125 L 2.953125 -2.34375 C 2.953125 -2.007812 3.019531 -1.765625 3.15625 -1.609375 C 3.300781 -1.453125 3.503906 -1.375 3.765625 -1.375 C 4.078125 -1.375 4.34375 -1.457031 4.5625 -1.625 Z M 4.703125 -1.625 "/></g></g><g transform="translate(286.134024, 256.515909)"><g><path d="M 1.171875 0 L 1.171875 -9.03125 L 5.03125 -9.03125 C 5.582031 -9.03125 6.050781 -8.941406 6.4375 -8.765625 C 6.820312 -8.585938 7.113281 -8.335938 7.3125 -8.015625 C 7.507812 -7.691406 7.609375 -7.3125 7.609375 -6.875 C 7.609375 -6.46875 7.507812 -6.113281 7.3125 -5.8125 C 7.125 -5.507812 6.847656 -5.265625 6.484375 -5.078125 L 6.484375 -4.953125 C 7.046875 -4.804688 7.484375 -4.535156 7.796875 -4.140625 C 8.109375 -3.753906 8.265625 -3.273438 8.265625 -2.703125 C 8.265625 -1.835938 8.003906 -1.171875 7.484375 -0.703125 C 6.960938 -0.234375 6.1875 0 5.15625 0 Z M 4.65625 -5.421875 C 5.488281 -5.421875 5.90625 -5.796875 5.90625 -6.546875 C 5.90625 -6.929688 5.800781 -7.21875 5.59375 -7.40625 C 5.382812 -7.59375 5.070312 -7.6875 4.65625 -7.6875 L 2.953125 -7.6875 L 2.953125 -5.421875 Z M 4.984375 -1.40625 C 5.960938 -1.40625 6.453125 -1.851562 6.453125 -2.75 C 6.453125 -3.644531 5.960938 -4.09375 4.984375 -4.09375 L 2.953125 -4.09375 L 2.953125 -1.40625 Z M 4.984375 -1.40625 "/></g></g></g><g clip-path="url(#1e0dbe3dbc)"><g clip-path="url(#86e09536c6)"><path fill="#737373" d="M 221.746094 324.527344 L 325.148438 324.527344 L 325.148438 391.882812 L 221.746094 391.882812 Z M 221.746094 324.527344 " fill-opacity="1" fill-rule="nonzero"/></g></g><g fill="#ffffff" fill-opacity="1"><g transform="translate(251.949986, 344.27699)"><g><path d="M 6.890625 -9.03125 L 6.890625 -7.53125 L 2.953125 -7.53125 L 2.953125 -5.140625 L 6.53125 -5.140625 L 6.53125 -3.671875 L 2.953125 -3.671875 L 2.953125 0 L 1.171875 0 L 1.171875 -9.03125 Z M 6.890625 -9.03125 "/></g></g><g transform="translate(259.243403, 344.27699)"><g><path d="M 2.65625 0.125 C 2.21875 0.125 1.835938 0.046875 1.515625 -0.109375 C 1.191406 -0.273438 0.941406 -0.507812 0.765625 -0.8125 C 0.597656 -1.125 0.515625 -1.5 0.515625 -1.9375 C 0.515625 -2.34375 0.597656 -2.679688 0.765625 -2.953125 C 0.941406 -3.222656 1.210938 -3.445312 1.578125 -3.625 C 1.941406 -3.800781 2.414062 -3.9375 3 -4.03125 C 3.40625 -4.09375 3.710938 -4.160156 3.921875 -4.234375 C 4.140625 -4.316406 4.285156 -4.40625 4.359375 -4.5 C 4.429688 -4.601562 4.46875 -4.734375 4.46875 -4.890625 C 4.46875 -5.109375 4.390625 -5.273438 4.234375 -5.390625 C 4.085938 -5.503906 3.835938 -5.5625 3.484375 -5.5625 C 3.097656 -5.5625 2.734375 -5.476562 2.390625 -5.3125 C 2.054688 -5.144531 1.765625 -4.921875 1.515625 -4.640625 L 1.390625 -4.640625 L 0.671875 -5.71875 C 1.015625 -6.101562 1.4375 -6.398438 1.9375 -6.609375 C 2.4375 -6.828125 2.976562 -6.9375 3.5625 -6.9375 C 4.46875 -6.9375 5.117188 -6.742188 5.515625 -6.359375 C 5.921875 -5.984375 6.125 -5.441406 6.125 -4.734375 L 6.125 -1.78125 C 6.125 -1.476562 6.257812 -1.328125 6.53125 -1.328125 C 6.632812 -1.328125 6.734375 -1.34375 6.828125 -1.375 L 6.921875 -1.359375 L 7.046875 -0.15625 C 6.953125 -0.09375 6.816406 -0.0390625 6.640625 0 C 6.472656 0.03125 6.289062 0.046875 6.09375 0.046875 C 5.6875 0.046875 5.367188 -0.03125 5.140625 -0.1875 C 4.910156 -0.34375 4.742188 -0.585938 4.640625 -0.921875 L 4.515625 -0.9375 C 4.179688 -0.226562 3.5625 0.125 2.65625 0.125 Z M 3.203125 -1.140625 C 3.597656 -1.140625 3.910156 -1.269531 4.140625 -1.53125 C 4.378906 -1.800781 4.5 -2.175781 4.5 -2.65625 L 4.5 -3.34375 L 4.375 -3.375 C 4.28125 -3.289062 4.148438 -3.21875 3.984375 -3.15625 C 3.816406 -3.101562 3.578125 -3.050781 3.265625 -3 C 2.890625 -2.9375 2.617188 -2.828125 2.453125 -2.671875 C 2.296875 -2.523438 2.21875 -2.316406 2.21875 -2.046875 C 2.21875 -1.753906 2.300781 -1.53125 2.46875 -1.375 C 2.644531 -1.21875 2.890625 -1.140625 3.203125 -1.140625 Z M 3.203125 -1.140625 "/></g></g><g transform="translate(266.419583, 344.27699)"><g><path d="M 3.96875 0.125 C 3.3125 0.125 2.726562 -0.0078125 2.21875 -0.28125 C 1.71875 -0.550781 1.320312 -0.953125 1.03125 -1.484375 C 0.75 -2.015625 0.609375 -2.65625 0.609375 -3.40625 C 0.609375 -4.15625 0.75 -4.789062 1.03125 -5.3125 C 1.320312 -5.84375 1.71875 -6.242188 2.21875 -6.515625 C 2.71875 -6.796875 3.289062 -6.9375 3.9375 -6.9375 C 5.375 -6.9375 6.296875 -6.414062 6.703125 -5.375 L 5.53125 -4.53125 L 5.390625 -4.53125 C 5.253906 -4.851562 5.070312 -5.09375 4.84375 -5.25 C 4.625 -5.40625 4.320312 -5.484375 3.9375 -5.484375 C 3.445312 -5.484375 3.0625 -5.3125 2.78125 -4.96875 C 2.507812 -4.632812 2.375 -4.113281 2.375 -3.40625 C 2.375 -2.707031 2.507812 -2.1875 2.78125 -1.84375 C 3.0625 -1.5 3.457031 -1.328125 3.96875 -1.328125 C 4.34375 -1.328125 4.65625 -1.425781 4.90625 -1.625 C 5.164062 -1.820312 5.351562 -2.109375 5.46875 -2.484375 L 5.59375 -2.5 L 6.8125 -1.828125 C 6.632812 -1.253906 6.3125 -0.785156 5.84375 -0.421875 C 5.375 -0.0546875 4.75 0.125 3.96875 0.125 Z M 3.96875 0.125 "/></g></g><g transform="translate(273.435332, 344.27699)"><g><path d="M 6.734375 -3.015625 L 2.359375 -3.015625 C 2.398438 -2.421875 2.566406 -1.988281 2.859375 -1.71875 C 3.148438 -1.457031 3.539062 -1.328125 4.03125 -1.328125 C 4.425781 -1.328125 4.742188 -1.398438 4.984375 -1.546875 C 5.222656 -1.691406 5.421875 -1.910156 5.578125 -2.203125 L 5.703125 -2.203125 L 6.84375 -1.46875 C 6.613281 -1 6.273438 -0.613281 5.828125 -0.3125 C 5.378906 -0.0195312 4.78125 0.125 4.03125 0.125 C 3.332031 0.125 2.722656 -0.00390625 2.203125 -0.265625 C 1.691406 -0.535156 1.296875 -0.9375 1.015625 -1.46875 C 0.742188 -2 0.609375 -2.644531 0.609375 -3.40625 C 0.609375 -4.175781 0.753906 -4.828125 1.046875 -5.359375 C 1.335938 -5.890625 1.734375 -6.285156 2.234375 -6.546875 C 2.734375 -6.804688 3.289062 -6.9375 3.90625 -6.9375 C 4.875 -6.9375 5.613281 -6.679688 6.125 -6.171875 C 6.632812 -5.660156 6.890625 -4.910156 6.890625 -3.921875 C 6.890625 -3.566406 6.878906 -3.289062 6.859375 -3.09375 Z M 5.265625 -4.125 C 5.242188 -4.644531 5.117188 -5.019531 4.890625 -5.25 C 4.671875 -5.488281 4.34375 -5.609375 3.90625 -5.609375 C 3.039062 -5.609375 2.535156 -5.113281 2.390625 -4.125 Z M 5.265625 -4.125 "/></g></g><g transform="translate(280.833647, 344.27699)"><g><path d="M 4.703125 -1.625 L 5.140625 -0.359375 C 4.953125 -0.203125 4.71875 -0.0820312 4.4375 0 C 4.164062 0.0820312 3.851562 0.125 3.5 0.125 C 2.757812 0.125 2.195312 -0.0703125 1.8125 -0.46875 C 1.425781 -0.875 1.234375 -1.457031 1.234375 -2.21875 L 1.234375 -5.453125 L 0.203125 -5.453125 L 0.203125 -6.8125 L 1.234375 -6.8125 L 1.234375 -8.140625 L 2.953125 -8.421875 L 2.953125 -6.8125 L 4.875 -6.8125 L 4.875 -5.453125 L 2.953125 -5.453125 L 2.953125 -2.34375 C 2.953125 -2.007812 3.019531 -1.765625 3.15625 -1.609375 C 3.300781 -1.453125 3.503906 -1.375 3.765625 -1.375 C 4.078125 -1.375 4.34375 -1.457031 4.5625 -1.625 Z M 4.703125 -1.625 "/></g></g><g transform="translate(286.121683, 344.27699)"><g><path d="M 4.9375 0.125 C 4.101562 0.125 3.367188 -0.046875 2.734375 -0.390625 C 2.097656 -0.734375 1.597656 -1.25 1.234375 -1.9375 C 0.878906 -2.632812 0.703125 -3.492188 0.703125 -4.515625 C 0.703125 -5.523438 0.878906 -6.375 1.234375 -7.0625 C 1.597656 -7.757812 2.097656 -8.28125 2.734375 -8.625 C 3.367188 -8.976562 4.101562 -9.15625 4.9375 -9.15625 C 5.800781 -9.15625 6.535156 -8.984375 7.140625 -8.640625 C 7.753906 -8.304688 8.1875 -7.789062 8.4375 -7.09375 L 7.140625 -6.296875 L 6.984375 -6.296875 C 6.796875 -6.765625 6.535156 -7.097656 6.203125 -7.296875 C 5.867188 -7.503906 5.445312 -7.609375 4.9375 -7.609375 C 4.1875 -7.609375 3.597656 -7.359375 3.171875 -6.859375 C 2.753906 -6.367188 2.546875 -5.585938 2.546875 -4.515625 C 2.546875 -3.441406 2.753906 -2.65625 3.171875 -2.15625 C 3.597656 -1.65625 4.1875 -1.40625 4.9375 -1.40625 C 6.101562 -1.40625 6.816406 -1.976562 7.078125 -3.125 L 7.234375 -3.125 L 8.546875 -2.4375 C 8.304688 -1.582031 7.882812 -0.941406 7.28125 -0.515625 C 6.6875 -0.0859375 5.90625 0.125 4.9375 0.125 Z M 4.9375 0.125 "/></g></g></g><g clip-path="url(#129d5fe66a)"><g clip-path="url(#e2605a6811)"><path fill="#2f2f2f" d="M 493.792969 181.761719 L 653.039062 181.761719 L 653.039062 285.492188 L 493.792969 285.492188 Z M 493.792969 181.761719 " fill-opacity="1" fill-rule="nonzero"/></g></g><g fill="#ffffff" fill-opacity="1"><g transform="translate(529.854416, 209.315139)"><g><path d="M 14.3125 -6.59375 C 14.3125 -5.21875 14.015625 -4.03125 13.421875 -3.03125 C 12.835938 -2.03125 12.035156 -1.273438 11.015625 -0.765625 C 10.003906 -0.253906 8.875 0 7.625 0 L 0.328125 0 L 0.328125 -0.34375 C 0.804688 -0.34375 1.171875 -0.378906 1.421875 -0.453125 C 1.671875 -0.523438 1.851562 -0.675781 1.96875 -0.90625 C 2.09375 -1.144531 2.15625 -1.515625 2.15625 -2.015625 L 2.15625 -11.328125 C 2.15625 -11.828125 2.085938 -12.195312 1.953125 -12.4375 C 1.828125 -12.675781 1.640625 -12.832031 1.390625 -12.90625 C 1.148438 -12.976562 0.796875 -13.015625 0.328125 -13.015625 L 0.328125 -13.359375 L 7.3125 -13.359375 C 8.582031 -13.359375 9.75 -13.101562 10.8125 -12.59375 C 11.875 -12.082031 12.722656 -11.316406 13.359375 -10.296875 C 13.992188 -9.273438 14.3125 -8.039062 14.3125 -6.59375 Z M 6.765625 -0.6875 C 9.492188 -0.6875 10.859375 -2.625 10.859375 -6.5 C 10.859375 -8.664062 10.460938 -10.238281 9.671875 -11.21875 C 8.890625 -12.195312 7.90625 -12.6875 6.71875 -12.6875 L 5.265625 -12.6875 L 5.265625 -1.984375 C 5.265625 -1.609375 5.304688 -1.328125 5.390625 -1.140625 C 5.484375 -0.960938 5.628906 -0.84375 5.828125 -0.78125 C 6.035156 -0.71875 6.347656 -0.6875 6.765625 -0.6875 Z M 6.765625 -0.6875 "/></g></g></g><g fill="#ffffff" fill-opacity="1"><g transform="translate(544.852813, 209.315139)"><g><path d="M 2.75 -13.65625 C 3.15625 -13.65625 3.503906 -13.507812 3.796875 -13.21875 C 4.085938 -12.925781 4.234375 -12.570312 4.234375 -12.15625 C 4.234375 -11.738281 4.085938 -11.378906 3.796875 -11.078125 C 3.503906 -10.785156 3.15625 -10.640625 2.75 -10.640625 C 2.332031 -10.640625 1.972656 -10.785156 1.671875 -11.078125 C 1.367188 -11.378906 1.21875 -11.738281 1.21875 -12.15625 C 1.21875 -12.570312 1.367188 -12.925781 1.671875 -13.21875 C 1.972656 -13.507812 2.332031 -13.65625 2.75 -13.65625 Z M 4.03125 -1.484375 C 4.03125 -0.742188 4.351562 -0.363281 5 -0.34375 L 5 0 L 0.234375 0 L 0.234375 -0.34375 C 0.640625 -0.34375 0.925781 -0.429688 1.09375 -0.609375 C 1.269531 -0.796875 1.359375 -1.117188 1.359375 -1.578125 L 1.359375 -7.46875 C 1.359375 -7.894531 1.273438 -8.203125 1.109375 -8.390625 C 0.941406 -8.578125 0.648438 -8.671875 0.234375 -8.671875 L 0.234375 -9.03125 L 4.03125 -9.03125 Z M 4.03125 -1.484375 "/></g></g></g><g fill="#ffffff" fill-opacity="1"><g transform="translate(550.124625, 209.315139)"><g><path d="M 4.9375 -9.234375 C 6.050781 -9.234375 6.867188 -9.003906 7.390625 -8.546875 C 7.910156 -8.097656 8.171875 -7.523438 8.171875 -6.828125 L 8.171875 -2.015625 C 8.171875 -1.304688 8.351562 -0.953125 8.71875 -0.953125 C 8.820312 -0.953125 8.90625 -0.976562 8.96875 -1.03125 C 9.039062 -1.09375 9.125 -1.195312 9.21875 -1.34375 L 9.390625 -1.171875 C 9.210938 -0.722656 8.925781 -0.367188 8.53125 -0.109375 C 8.144531 0.140625 7.710938 0.265625 7.234375 0.265625 C 6.742188 0.265625 6.34375 0.144531 6.03125 -0.09375 C 5.726562 -0.34375 5.550781 -0.707031 5.5 -1.1875 C 5.425781 -1.132812 5.3125 -1.046875 5.15625 -0.921875 C 4.695312 -0.535156 4.273438 -0.238281 3.890625 -0.03125 C 3.503906 0.164062 3.054688 0.265625 2.546875 0.265625 C 2.046875 0.265625 1.625 0.0859375 1.28125 -0.265625 C 0.9375 -0.628906 0.765625 -1.070312 0.765625 -1.59375 C 0.765625 -2.269531 1.054688 -2.875 1.640625 -3.40625 C 2.234375 -3.9375 2.878906 -4.363281 3.578125 -4.6875 L 5.5 -5.625 L 5.5 -7.390625 C 5.5 -7.710938 5.398438 -7.988281 5.203125 -8.21875 C 5.003906 -8.445312 4.691406 -8.5625 4.265625 -8.5625 C 3.890625 -8.5625 3.570312 -8.484375 3.3125 -8.328125 C 3.0625 -8.171875 2.9375 -7.984375 2.9375 -7.765625 C 2.9375 -7.679688 2.957031 -7.597656 3 -7.515625 C 3.050781 -7.441406 3.109375 -7.367188 3.171875 -7.296875 C 3.285156 -7.148438 3.375 -7.007812 3.4375 -6.875 C 3.507812 -6.75 3.546875 -6.601562 3.546875 -6.4375 C 3.546875 -6.125 3.425781 -5.867188 3.1875 -5.671875 C 2.957031 -5.484375 2.65625 -5.390625 2.28125 -5.390625 C 1.863281 -5.390625 1.523438 -5.5 1.265625 -5.71875 C 1.003906 -5.9375 0.875 -6.226562 0.875 -6.59375 C 0.875 -7.0625 1.054688 -7.5 1.421875 -7.90625 C 1.796875 -8.3125 2.296875 -8.632812 2.921875 -8.875 C 3.546875 -9.113281 4.21875 -9.234375 4.9375 -9.234375 Z M 3.40625 -2.4375 C 3.40625 -2.125 3.488281 -1.867188 3.65625 -1.671875 C 3.832031 -1.472656 4.0625 -1.375 4.34375 -1.375 C 4.5625 -1.375 4.753906 -1.410156 4.921875 -1.484375 C 5.097656 -1.566406 5.289062 -1.695312 5.5 -1.875 L 5.5 -4.9375 C 4.101562 -4.226562 3.40625 -3.394531 3.40625 -2.4375 Z M 3.40625 -2.4375 "/></g></g></g><g fill="#ffffff" fill-opacity="1"><g transform="translate(559.85121, 209.315139)"><g><path d="M 6.4375 -9.234375 C 7.03125 -9.234375 7.523438 -9.085938 7.921875 -8.796875 C 8.316406 -8.503906 8.578125 -8.101562 8.703125 -7.59375 C 9.054688 -8.125 9.476562 -8.53125 9.96875 -8.8125 C 10.46875 -9.09375 10.984375 -9.234375 11.515625 -9.234375 C 12.273438 -9.234375 12.859375 -8.992188 13.265625 -8.515625 C 13.671875 -8.035156 13.875 -7.453125 13.875 -6.765625 L 13.875 -1.375 C 13.875 -1.082031 13.941406 -0.84375 14.078125 -0.65625 C 14.210938 -0.46875 14.425781 -0.363281 14.71875 -0.34375 L 14.71875 0 L 10.375 0 L 10.375 -0.34375 C 10.707031 -0.363281 10.925781 -0.453125 11.03125 -0.609375 C 11.144531 -0.773438 11.203125 -1.066406 11.203125 -1.484375 L 11.203125 -6.984375 C 11.203125 -7.191406 11.144531 -7.40625 11.03125 -7.625 C 10.914062 -7.851562 10.710938 -7.96875 10.421875 -7.96875 C 10.148438 -7.96875 9.894531 -7.878906 9.65625 -7.703125 C 9.425781 -7.535156 9.15625 -7.234375 8.84375 -6.796875 L 8.84375 -1.515625 C 8.84375 -0.816406 9.125 -0.425781 9.6875 -0.34375 L 9.6875 0 L 5.375 0 L 5.375 -0.34375 C 5.914062 -0.414062 6.1875 -0.828125 6.1875 -1.578125 L 6.1875 -6.890625 C 6.1875 -7.179688 6.117188 -7.429688 5.984375 -7.640625 C 5.859375 -7.847656 5.644531 -7.953125 5.34375 -7.953125 C 4.84375 -7.953125 4.335938 -7.566406 3.828125 -6.796875 L 3.828125 -1.53125 C 3.828125 -0.820312 4.113281 -0.425781 4.6875 -0.34375 L 4.6875 0 L 0.265625 0 L 0.265625 -0.34375 C 0.578125 -0.382812 0.804688 -0.492188 0.953125 -0.671875 C 1.097656 -0.847656 1.171875 -1.15625 1.171875 -1.59375 L 1.171875 -7.375 C 1.171875 -7.84375 1.09375 -8.171875 0.9375 -8.359375 C 0.78125 -8.546875 0.554688 -8.648438 0.265625 -8.671875 L 0.265625 -9.03125 L 3.828125 -9.03125 L 3.828125 -7.765625 L 3.875 -7.765625 C 4.269531 -8.285156 4.675781 -8.660156 5.09375 -8.890625 C 5.507812 -9.117188 5.957031 -9.234375 6.4375 -9.234375 Z M 6.4375 -9.234375 "/></g></g></g><g fill="#ffffff" fill-opacity="1"><g transform="translate(574.849607, 209.315139)"><g><path d="M 4.828125 -9.234375 C 5.617188 -9.234375 6.335938 -9.046875 6.984375 -8.671875 C 7.640625 -8.296875 8.164062 -7.75 8.5625 -7.03125 C 8.957031 -6.3125 9.15625 -5.453125 9.15625 -4.453125 C 9.15625 -3.390625 8.9375 -2.503906 8.5 -1.796875 C 8.0625 -1.085938 7.515625 -0.566406 6.859375 -0.234375 C 6.203125 0.0976562 5.550781 0.265625 4.90625 0.265625 C 4.1875 0.265625 3.492188 0.0820312 2.828125 -0.28125 C 2.160156 -0.65625 1.613281 -1.203125 1.1875 -1.921875 C 0.769531 -2.640625 0.5625 -3.503906 0.5625 -4.515625 C 0.5625 -5.421875 0.742188 -6.226562 1.109375 -6.9375 C 1.472656 -7.65625 1.976562 -8.21875 2.625 -8.625 C 3.269531 -9.03125 4.003906 -9.234375 4.828125 -9.234375 Z M 3.359375 -4.90625 C 3.359375 -3.738281 3.394531 -2.835938 3.46875 -2.203125 C 3.550781 -1.578125 3.695312 -1.117188 3.90625 -0.828125 C 4.125 -0.546875 4.441406 -0.40625 4.859375 -0.40625 C 5.234375 -0.40625 5.53125 -0.519531 5.75 -0.75 C 5.976562 -0.988281 6.132812 -1.367188 6.21875 -1.890625 C 6.3125 -2.421875 6.359375 -3.140625 6.359375 -4.046875 C 6.359375 -5.210938 6.328125 -6.101562 6.265625 -6.71875 C 6.203125 -7.332031 6.054688 -7.789062 5.828125 -8.09375 C 5.609375 -8.40625 5.273438 -8.5625 4.828125 -8.5625 C 4.253906 -8.5625 3.863281 -8.253906 3.65625 -7.640625 C 3.457031 -7.023438 3.359375 -6.113281 3.359375 -4.90625 Z M 3.359375 -4.90625 "/></g></g></g><g fill="#ffffff" fill-opacity="1"><g transform="translate(584.576191, 209.315139)"><g><path d="M 6.34375 -9.234375 C 7.125 -9.234375 7.71875 -8.972656 8.125 -8.453125 C 8.53125 -7.929688 8.734375 -7.285156 8.734375 -6.515625 L 8.734375 -1.875 C 8.734375 -1.488281 8.75 -1.207031 8.78125 -1.03125 C 8.8125 -0.863281 8.867188 -0.734375 8.953125 -0.640625 C 9.035156 -0.546875 9.179688 -0.445312 9.390625 -0.34375 L 9.390625 0 L 5.25 0 L 5.25 -0.34375 C 5.789062 -0.414062 6.0625 -0.832031 6.0625 -1.59375 L 6.0625 -6.65625 C 6.0625 -7.550781 5.78125 -8 5.21875 -8 C 4.707031 -8 4.210938 -7.628906 3.734375 -6.890625 L 3.734375 -1.484375 C 3.734375 -0.828125 4.003906 -0.445312 4.546875 -0.34375 L 4.546875 0 L 0.328125 0 L 0.328125 -0.34375 C 0.566406 -0.394531 0.75 -0.507812 0.875 -0.6875 C 1 -0.875 1.0625 -1.171875 1.0625 -1.578125 L 1.0625 -7.515625 C 1.0625 -7.765625 1.003906 -8.003906 0.890625 -8.234375 C 0.785156 -8.460938 0.597656 -8.609375 0.328125 -8.671875 L 0.328125 -9.03125 L 3.734375 -9.03125 L 3.734375 -7.8125 C 4.148438 -8.300781 4.566406 -8.660156 4.984375 -8.890625 C 5.398438 -9.117188 5.851562 -9.234375 6.34375 -9.234375 Z M 6.34375 -9.234375 "/></g></g></g><g fill="#ffffff" fill-opacity="1"><g transform="translate(594.302776, 209.315139)"><g><path d="M 8.359375 -2 C 8.359375 -1.582031 8.4375 -1.289062 8.59375 -1.125 C 8.75 -0.957031 9.039062 -0.875 9.46875 -0.875 L 9.46875 -0.53125 L 5.703125 0.25 L 5.703125 -1.046875 L 5.65625 -1.046875 C 5.445312 -0.617188 5.164062 -0.289062 4.8125 -0.0625 C 4.457031 0.15625 4.070312 0.265625 3.65625 0.265625 C 3.03125 0.265625 2.472656 0.0625 1.984375 -0.34375 C 1.503906 -0.757812 1.128906 -1.335938 0.859375 -2.078125 C 0.585938 -2.816406 0.453125 -3.65625 0.453125 -4.59375 C 0.453125 -5.5625 0.613281 -6.398438 0.9375 -7.109375 C 1.269531 -7.816406 1.695312 -8.347656 2.21875 -8.703125 C 2.738281 -9.054688 3.273438 -9.234375 3.828125 -9.234375 C 4.191406 -9.234375 4.519531 -9.160156 4.8125 -9.015625 C 5.101562 -8.867188 5.398438 -8.625 5.703125 -8.28125 L 5.703125 -11.84375 C 5.703125 -12.3125 5.597656 -12.617188 5.390625 -12.765625 C 5.191406 -12.921875 4.851562 -13.003906 4.375 -13.015625 L 4.375 -13.359375 L 8.359375 -13.359375 Z M 3.25 -4.90625 C 3.25 -3.59375 3.34375 -2.597656 3.53125 -1.921875 C 3.726562 -1.253906 4.054688 -0.921875 4.515625 -0.921875 C 4.941406 -0.921875 5.335938 -1.300781 5.703125 -2.0625 L 5.703125 -7.15625 C 5.484375 -7.59375 5.257812 -7.898438 5.03125 -8.078125 C 4.8125 -8.253906 4.570312 -8.34375 4.3125 -8.34375 C 3.90625 -8.34375 3.625 -8.046875 3.46875 -7.453125 C 3.320312 -6.867188 3.25 -6.019531 3.25 -4.90625 Z M 3.25 -4.90625 "/></g></g></g><g fill="#ffffff" fill-opacity="1"><g transform="translate(604.029361, 209.315139)"><g><path d="M 11.9375 -10.09375 C 11.9375 -9.3125 11.664062 -8.65625 11.125 -8.125 C 10.582031 -7.59375 9.804688 -7.234375 8.796875 -7.046875 L 8.796875 -7 C 9.929688 -6.832031 10.832031 -6.441406 11.5 -5.828125 C 12.175781 -5.222656 12.515625 -4.476562 12.515625 -3.59375 C 12.515625 -2.84375 12.289062 -2.195312 11.84375 -1.65625 C 11.394531 -1.113281 10.796875 -0.703125 10.046875 -0.421875 C 9.296875 -0.140625 8.488281 0 7.625 0 L 0.296875 0 L 0.296875 -0.34375 C 0.773438 -0.34375 1.132812 -0.378906 1.375 -0.453125 C 1.625 -0.523438 1.8125 -0.675781 1.9375 -0.90625 C 2.0625 -1.144531 2.125 -1.515625 2.125 -2.015625 L 2.125 -11.328125 C 2.125 -11.785156 2.066406 -12.132812 1.953125 -12.375 C 1.847656 -12.613281 1.671875 -12.773438 1.421875 -12.859375 C 1.179688 -12.953125 0.84375 -13.003906 0.40625 -13.015625 L 0.40625 -13.359375 L 7.359375 -13.359375 C 8.054688 -13.359375 8.753906 -13.253906 9.453125 -13.046875 C 10.148438 -12.835938 10.738281 -12.488281 11.21875 -12 C 11.695312 -11.519531 11.9375 -10.882812 11.9375 -10.09375 Z M 5.765625 -7.296875 C 6.828125 -7.296875 7.578125 -7.5625 8.015625 -8.09375 C 8.453125 -8.632812 8.671875 -9.265625 8.671875 -9.984375 C 8.671875 -10.640625 8.476562 -11.242188 8.09375 -11.796875 C 7.707031 -12.359375 7.054688 -12.640625 6.140625 -12.640625 L 5.234375 -12.640625 L 5.234375 -7.296875 Z M 6.359375 -0.6875 C 7.160156 -0.6875 7.804688 -0.9375 8.296875 -1.4375 C 8.796875 -1.945312 9.046875 -2.625 9.046875 -3.46875 C 9.046875 -4.34375 8.769531 -5.078125 8.21875 -5.671875 C 7.675781 -6.273438 6.820312 -6.578125 5.65625 -6.578125 L 5.234375 -6.578125 L 5.234375 -1.984375 C 5.234375 -1.460938 5.320312 -1.113281 5.5 -0.9375 C 5.6875 -0.769531 5.972656 -0.6875 6.359375 -0.6875 Z M 6.359375 -0.6875 "/></g></g></g><g clip-path="url(#9cb9414a3d)"><g clip-path="url(#cda5d0f1dd)"><path fill="#737373" d="M 365.675781 160.332031 L 469.074219 160.332031 L 469.074219 227.6875 L 365.675781 227.6875 Z M 365.675781 160.332031 " fill-opacity="1" fill-rule="nonzero"/></g></g><g fill="#ffffff" fill-opacity="1"><g transform="translate(395.479487, 180.083561)"><g><path d="M 6.890625 -9.03125 L 6.890625 -7.53125 L 2.953125 -7.53125 L 2.953125 -5.140625 L 6.53125 -5.140625 L 6.53125 -3.671875 L 2.953125 -3.671875 L 2.953125 0 L 1.171875 0 L 1.171875 -9.03125 Z M 6.890625 -9.03125 "/></g></g><g transform="translate(402.772904, 180.083561)"><g><path d="M 2.65625 0.125 C 2.21875 0.125 1.835938 0.046875 1.515625 -0.109375 C 1.191406 -0.273438 0.941406 -0.507812 0.765625 -0.8125 C 0.597656 -1.125 0.515625 -1.5 0.515625 -1.9375 C 0.515625 -2.34375 0.597656 -2.679688 0.765625 -2.953125 C 0.941406 -3.222656 1.210938 -3.445312 1.578125 -3.625 C 1.941406 -3.800781 2.414062 -3.9375 3 -4.03125 C 3.40625 -4.09375 3.710938 -4.160156 3.921875 -4.234375 C 4.140625 -4.316406 4.285156 -4.40625 4.359375 -4.5 C 4.429688 -4.601562 4.46875 -4.734375 4.46875 -4.890625 C 4.46875 -5.109375 4.390625 -5.273438 4.234375 -5.390625 C 4.085938 -5.503906 3.835938 -5.5625 3.484375 -5.5625 C 3.097656 -5.5625 2.734375 -5.476562 2.390625 -5.3125 C 2.054688 -5.144531 1.765625 -4.921875 1.515625 -4.640625 L 1.390625 -4.640625 L 0.671875 -5.71875 C 1.015625 -6.101562 1.4375 -6.398438 1.9375 -6.609375 C 2.4375 -6.828125 2.976562 -6.9375 3.5625 -6.9375 C 4.46875 -6.9375 5.117188 -6.742188 5.515625 -6.359375 C 5.921875 -5.984375 6.125 -5.441406 6.125 -4.734375 L 6.125 -1.78125 C 6.125 -1.476562 6.257812 -1.328125 6.53125 -1.328125 C 6.632812 -1.328125 6.734375 -1.34375 6.828125 -1.375 L 6.921875 -1.359375 L 7.046875 -0.15625 C 6.953125 -0.09375 6.816406 -0.0390625 6.640625 0 C 6.472656 0.03125 6.289062 0.046875 6.09375 0.046875 C 5.6875 0.046875 5.367188 -0.03125 5.140625 -0.1875 C 4.910156 -0.34375 4.742188 -0.585938 4.640625 -0.921875 L 4.515625 -0.9375 C 4.179688 -0.226562 3.5625 0.125 2.65625 0.125 Z M 3.203125 -1.140625 C 3.597656 -1.140625 3.910156 -1.269531 4.140625 -1.53125 C 4.378906 -1.800781 4.5 -2.175781 4.5 -2.65625 L 4.5 -3.34375 L 4.375 -3.375 C 4.28125 -3.289062 4.148438 -3.21875 3.984375 -3.15625 C 3.816406 -3.101562 3.578125 -3.050781 3.265625 -3 C 2.890625 -2.9375 2.617188 -2.828125 2.453125 -2.671875 C 2.296875 -2.523438 2.21875 -2.316406 2.21875 -2.046875 C 2.21875 -1.753906 2.300781 -1.53125 2.46875 -1.375 C 2.644531 -1.21875 2.890625 -1.140625 3.203125 -1.140625 Z M 3.203125 -1.140625 "/></g></g><g transform="translate(409.949084, 180.083561)"><g><path d="M 3.96875 0.125 C 3.3125 0.125 2.726562 -0.0078125 2.21875 -0.28125 C 1.71875 -0.550781 1.320312 -0.953125 1.03125 -1.484375 C 0.75 -2.015625 0.609375 -2.65625 0.609375 -3.40625 C 0.609375 -4.15625 0.75 -4.789062 1.03125 -5.3125 C 1.320312 -5.84375 1.71875 -6.242188 2.21875 -6.515625 C 2.71875 -6.796875 3.289062 -6.9375 3.9375 -6.9375 C 5.375 -6.9375 6.296875 -6.414062 6.703125 -5.375 L 5.53125 -4.53125 L 5.390625 -4.53125 C 5.253906 -4.851562 5.070312 -5.09375 4.84375 -5.25 C 4.625 -5.40625 4.320312 -5.484375 3.9375 -5.484375 C 3.445312 -5.484375 3.0625 -5.3125 2.78125 -4.96875 C 2.507812 -4.632812 2.375 -4.113281 2.375 -3.40625 C 2.375 -2.707031 2.507812 -2.1875 2.78125 -1.84375 C 3.0625 -1.5 3.457031 -1.328125 3.96875 -1.328125 C 4.34375 -1.328125 4.65625 -1.425781 4.90625 -1.625 C 5.164062 -1.820312 5.351562 -2.109375 5.46875 -2.484375 L 5.59375 -2.5 L 6.8125 -1.828125 C 6.632812 -1.253906 6.3125 -0.785156 5.84375 -0.421875 C 5.375 -0.0546875 4.75 0.125 3.96875 0.125 Z M 3.96875 0.125 "/></g></g><g transform="translate(416.964833, 180.083561)"><g><path d="M 6.734375 -3.015625 L 2.359375 -3.015625 C 2.398438 -2.421875 2.566406 -1.988281 2.859375 -1.71875 C 3.148438 -1.457031 3.539062 -1.328125 4.03125 -1.328125 C 4.425781 -1.328125 4.742188 -1.398438 4.984375 -1.546875 C 5.222656 -1.691406 5.421875 -1.910156 5.578125 -2.203125 L 5.703125 -2.203125 L 6.84375 -1.46875 C 6.613281 -1 6.273438 -0.613281 5.828125 -0.3125 C 5.378906 -0.0195312 4.78125 0.125 4.03125 0.125 C 3.332031 0.125 2.722656 -0.00390625 2.203125 -0.265625 C 1.691406 -0.535156 1.296875 -0.9375 1.015625 -1.46875 C 0.742188 -2 0.609375 -2.644531 0.609375 -3.40625 C 0.609375 -4.175781 0.753906 -4.828125 1.046875 -5.359375 C 1.335938 -5.890625 1.734375 -6.285156 2.234375 -6.546875 C 2.734375 -6.804688 3.289062 -6.9375 3.90625 -6.9375 C 4.875 -6.9375 5.613281 -6.679688 6.125 -6.171875 C 6.632812 -5.660156 6.890625 -4.910156 6.890625 -3.921875 C 6.890625 -3.566406 6.878906 -3.289062 6.859375 -3.09375 Z M 5.265625 -4.125 C 5.242188 -4.644531 5.117188 -5.019531 4.890625 -5.25 C 4.671875 -5.488281 4.34375 -5.609375 3.90625 -5.609375 C 3.039062 -5.609375 2.535156 -5.113281 2.390625 -4.125 Z M 5.265625 -4.125 "/></g></g><g transform="translate(424.363147, 180.083561)"><g><path d="M 4.703125 -1.625 L 5.140625 -0.359375 C 4.953125 -0.203125 4.71875 -0.0820312 4.4375 0 C 4.164062 0.0820312 3.851562 0.125 3.5 0.125 C 2.757812 0.125 2.195312 -0.0703125 1.8125 -0.46875 C 1.425781 -0.875 1.234375 -1.457031 1.234375 -2.21875 L 1.234375 -5.453125 L 0.203125 -5.453125 L 0.203125 -6.8125 L 1.234375 -6.8125 L 1.234375 -8.140625 L 2.953125 -8.421875 L 2.953125 -6.8125 L 4.875 -6.8125 L 4.875 -5.453125 L 2.953125 -5.453125 L 2.953125 -2.34375 C 2.953125 -2.007812 3.019531 -1.765625 3.15625 -1.609375 C 3.300781 -1.453125 3.503906 -1.375 3.765625 -1.375 C 4.078125 -1.375 4.34375 -1.457031 4.5625 -1.625 Z M 4.703125 -1.625 "/></g></g><g transform="translate(429.651184, 180.083561)"><g><path d="M 4.421875 -9.03125 C 5.878906 -9.03125 6.992188 -8.648438 7.765625 -7.890625 C 8.546875 -7.128906 8.9375 -6.003906 8.9375 -4.515625 C 8.9375 -3.023438 8.546875 -1.898438 7.765625 -1.140625 C 6.992188 -0.378906 5.878906 0 4.421875 0 L 1.171875 0 L 1.171875 -9.03125 Z M 4.3125 -1.5 C 5.238281 -1.5 5.929688 -1.734375 6.390625 -2.203125 C 6.859375 -2.679688 7.09375 -3.453125 7.09375 -4.515625 C 7.09375 -5.566406 6.859375 -6.332031 6.390625 -6.8125 C 5.929688 -7.289062 5.238281 -7.53125 4.3125 -7.53125 L 2.953125 -7.53125 L 2.953125 -1.5 Z M 4.3125 -1.5 "/></g></g></g><g clip-path="url(#8291cc19f5)"><g clip-path="url(#86cab983ba)"><path fill="#737373" d="M 365.675781 236.765625 L 469.074219 236.765625 L 469.074219 304.121094 L 365.675781 304.121094 Z M 365.675781 236.765625 " fill-opacity="1" fill-rule="nonzero"/></g></g><g fill="#ffffff" fill-opacity="1"><g transform="translate(396.423558, 256.515909)"><g><path d="M 6.890625 -9.03125 L 6.890625 -7.53125 L 2.953125 -7.53125 L 2.953125 -5.140625 L 6.53125 -5.140625 L 6.53125 -3.671875 L 2.953125 -3.671875 L 2.953125 0 L 1.171875 0 L 1.171875 -9.03125 Z M 6.890625 -9.03125 "/></g></g><g transform="translate(403.716976, 256.515909)"><g><path d="M 2.65625 0.125 C 2.21875 0.125 1.835938 0.046875 1.515625 -0.109375 C 1.191406 -0.273438 0.941406 -0.507812 0.765625 -0.8125 C 0.597656 -1.125 0.515625 -1.5 0.515625 -1.9375 C 0.515625 -2.34375 0.597656 -2.679688 0.765625 -2.953125 C 0.941406 -3.222656 1.210938 -3.445312 1.578125 -3.625 C 1.941406 -3.800781 2.414062 -3.9375 3 -4.03125 C 3.40625 -4.09375 3.710938 -4.160156 3.921875 -4.234375 C 4.140625 -4.316406 4.285156 -4.40625 4.359375 -4.5 C 4.429688 -4.601562 4.46875 -4.734375 4.46875 -4.890625 C 4.46875 -5.109375 4.390625 -5.273438 4.234375 -5.390625 C 4.085938 -5.503906 3.835938 -5.5625 3.484375 -5.5625 C 3.097656 -5.5625 2.734375 -5.476562 2.390625 -5.3125 C 2.054688 -5.144531 1.765625 -4.921875 1.515625 -4.640625 L 1.390625 -4.640625 L 0.671875 -5.71875 C 1.015625 -6.101562 1.4375 -6.398438 1.9375 -6.609375 C 2.4375 -6.828125 2.976562 -6.9375 3.5625 -6.9375 C 4.46875 -6.9375 5.117188 -6.742188 5.515625 -6.359375 C 5.921875 -5.984375 6.125 -5.441406 6.125 -4.734375 L 6.125 -1.78125 C 6.125 -1.476562 6.257812 -1.328125 6.53125 -1.328125 C 6.632812 -1.328125 6.734375 -1.34375 6.828125 -1.375 L 6.921875 -1.359375 L 7.046875 -0.15625 C 6.953125 -0.09375 6.816406 -0.0390625 6.640625 0 C 6.472656 0.03125 6.289062 0.046875 6.09375 0.046875 C 5.6875 0.046875 5.367188 -0.03125 5.140625 -0.1875 C 4.910156 -0.34375 4.742188 -0.585938 4.640625 -0.921875 L 4.515625 -0.9375 C 4.179688 -0.226562 3.5625 0.125 2.65625 0.125 Z M 3.203125 -1.140625 C 3.597656 -1.140625 3.910156 -1.269531 4.140625 -1.53125 C 4.378906 -1.800781 4.5 -2.175781 4.5 -2.65625 L 4.5 -3.34375 L 4.375 -3.375 C 4.28125 -3.289062 4.148438 -3.21875 3.984375 -3.15625 C 3.816406 -3.101562 3.578125 -3.050781 3.265625 -3 C 2.890625 -2.9375 2.617188 -2.828125 2.453125 -2.671875 C 2.296875 -2.523438 2.21875 -2.316406 2.21875 -2.046875 C 2.21875 -1.753906 2.300781 -1.53125 2.46875 -1.375 C 2.644531 -1.21875 2.890625 -1.140625 3.203125 -1.140625 Z M 3.203125 -1.140625 "/></g></g><g transform="translate(410.893156, 256.515909)"><g><path d="M 3.96875 0.125 C 3.3125 0.125 2.726562 -0.0078125 2.21875 -0.28125 C 1.71875 -0.550781 1.320312 -0.953125 1.03125 -1.484375 C 0.75 -2.015625 0.609375 -2.65625 0.609375 -3.40625 C 0.609375 -4.15625 0.75 -4.789062 1.03125 -5.3125 C 1.320312 -5.84375 1.71875 -6.242188 2.21875 -6.515625 C 2.71875 -6.796875 3.289062 -6.9375 3.9375 -6.9375 C 5.375 -6.9375 6.296875 -6.414062 6.703125 -5.375 L 5.53125 -4.53125 L 5.390625 -4.53125 C 5.253906 -4.851562 5.070312 -5.09375 4.84375 -5.25 C 4.625 -5.40625 4.320312 -5.484375 3.9375 -5.484375 C 3.445312 -5.484375 3.0625 -5.3125 2.78125 -4.96875 C 2.507812 -4.632812 2.375 -4.113281 2.375 -3.40625 C 2.375 -2.707031 2.507812 -2.1875 2.78125 -1.84375 C 3.0625 -1.5 3.457031 -1.328125 3.96875 -1.328125 C 4.34375 -1.328125 4.65625 -1.425781 4.90625 -1.625 C 5.164062 -1.820312 5.351562 -2.109375 5.46875 -2.484375 L 5.59375 -2.5 L 6.8125 -1.828125 C 6.632812 -1.253906 6.3125 -0.785156 5.84375 -0.421875 C 5.375 -0.0546875 4.75 0.125 3.96875 0.125 Z M 3.96875 0.125 "/></g></g><g transform="translate(417.908905, 256.515909)"><g><path d="M 6.734375 -3.015625 L 2.359375 -3.015625 C 2.398438 -2.421875 2.566406 -1.988281 2.859375 -1.71875 C 3.148438 -1.457031 3.539062 -1.328125 4.03125 -1.328125 C 4.425781 -1.328125 4.742188 -1.398438 4.984375 -1.546875 C 5.222656 -1.691406 5.421875 -1.910156 5.578125 -2.203125 L 5.703125 -2.203125 L 6.84375 -1.46875 C 6.613281 -1 6.273438 -0.613281 5.828125 -0.3125 C 5.378906 -0.0195312 4.78125 0.125 4.03125 0.125 C 3.332031 0.125 2.722656 -0.00390625 2.203125 -0.265625 C 1.691406 -0.535156 1.296875 -0.9375 1.015625 -1.46875 C 0.742188 -2 0.609375 -2.644531 0.609375 -3.40625 C 0.609375 -4.175781 0.753906 -4.828125 1.046875 -5.359375 C 1.335938 -5.890625 1.734375 -6.285156 2.234375 -6.546875 C 2.734375 -6.804688 3.289062 -6.9375 3.90625 -6.9375 C 4.875 -6.9375 5.613281 -6.679688 6.125 -6.171875 C 6.632812 -5.660156 6.890625 -4.910156 6.890625 -3.921875 C 6.890625 -3.566406 6.878906 -3.289062 6.859375 -3.09375 Z M 5.265625 -4.125 C 5.242188 -4.644531 5.117188 -5.019531 4.890625 -5.25 C 4.671875 -5.488281 4.34375 -5.609375 3.90625 -5.609375 C 3.039062 -5.609375 2.535156 -5.113281 2.390625 -4.125 Z M 5.265625 -4.125 "/></g></g><g transform="translate(425.307219, 256.515909)"><g><path d="M 4.703125 -1.625 L 5.140625 -0.359375 C 4.953125 -0.203125 4.71875 -0.0820312 4.4375 0 C 4.164062 0.0820312 3.851562 0.125 3.5 0.125 C 2.757812 0.125 2.195312 -0.0703125 1.8125 -0.46875 C 1.425781 -0.875 1.234375 -1.457031 1.234375 -2.21875 L 1.234375 -5.453125 L 0.203125 -5.453125 L 0.203125 -6.8125 L 1.234375 -6.8125 L 1.234375 -8.140625 L 2.953125 -8.421875 L 2.953125 -6.8125 L 4.875 -6.8125 L 4.875 -5.453125 L 2.953125 -5.453125 L 2.953125 -2.34375 C 2.953125 -2.007812 3.019531 -1.765625 3.15625 -1.609375 C 3.300781 -1.453125 3.503906 -1.375 3.765625 -1.375 C 4.078125 -1.375 4.34375 -1.457031 4.5625 -1.625 Z M 4.703125 -1.625 "/></g></g><g transform="translate(430.595255, 256.515909)"><g><path d="M 2.953125 -3.96875 L 2.953125 -1.5 L 7.265625 -1.5 L 7.265625 0 L 1.171875 0 L 1.171875 -9.03125 L 7.171875 -9.03125 L 7.171875 -7.53125 L 2.953125 -7.53125 L 2.953125 -5.421875 L 6.640625 -5.421875 L 6.640625 -3.96875 Z M 2.953125 -3.96875 "/></g></g></g><g clip-path="url(#a1c55e5dfd)"><g clip-path="url(#23388b3d23)"><path fill="#737373" d="M 365.675781 324.527344 L 469.074219 324.527344 L 469.074219 391.882812 L 365.675781 391.882812 Z M 365.675781 324.527344 " fill-opacity="1" fill-rule="nonzero"/></g></g><g fill="#ffffff" fill-opacity="1"><g transform="translate(396.654949, 344.27699)"><g><path d="M 6.890625 -9.03125 L 6.890625 -7.53125 L 2.953125 -7.53125 L 2.953125 -5.140625 L 6.53125 -5.140625 L 6.53125 -3.671875 L 2.953125 -3.671875 L 2.953125 0 L 1.171875 0 L 1.171875 -9.03125 Z M 6.890625 -9.03125 "/></g></g><g transform="translate(403.948366, 344.27699)"><g><path d="M 2.65625 0.125 C 2.21875 0.125 1.835938 0.046875 1.515625 -0.109375 C 1.191406 -0.273438 0.941406 -0.507812 0.765625 -0.8125 C 0.597656 -1.125 0.515625 -1.5 0.515625 -1.9375 C 0.515625 -2.34375 0.597656 -2.679688 0.765625 -2.953125 C 0.941406 -3.222656 1.210938 -3.445312 1.578125 -3.625 C 1.941406 -3.800781 2.414062 -3.9375 3 -4.03125 C 3.40625 -4.09375 3.710938 -4.160156 3.921875 -4.234375 C 4.140625 -4.316406 4.285156 -4.40625 4.359375 -4.5 C 4.429688 -4.601562 4.46875 -4.734375 4.46875 -4.890625 C 4.46875 -5.109375 4.390625 -5.273438 4.234375 -5.390625 C 4.085938 -5.503906 3.835938 -5.5625 3.484375 -5.5625 C 3.097656 -5.5625 2.734375 -5.476562 2.390625 -5.3125 C 2.054688 -5.144531 1.765625 -4.921875 1.515625 -4.640625 L 1.390625 -4.640625 L 0.671875 -5.71875 C 1.015625 -6.101562 1.4375 -6.398438 1.9375 -6.609375 C 2.4375 -6.828125 2.976562 -6.9375 3.5625 -6.9375 C 4.46875 -6.9375 5.117188 -6.742188 5.515625 -6.359375 C 5.921875 -5.984375 6.125 -5.441406 6.125 -4.734375 L 6.125 -1.78125 C 6.125 -1.476562 6.257812 -1.328125 6.53125 -1.328125 C 6.632812 -1.328125 6.734375 -1.34375 6.828125 -1.375 L 6.921875 -1.359375 L 7.046875 -0.15625 C 6.953125 -0.09375 6.816406 -0.0390625 6.640625 0 C 6.472656 0.03125 6.289062 0.046875 6.09375 0.046875 C 5.6875 0.046875 5.367188 -0.03125 5.140625 -0.1875 C 4.910156 -0.34375 4.742188 -0.585938 4.640625 -0.921875 L 4.515625 -0.9375 C 4.179688 -0.226562 3.5625 0.125 2.65625 0.125 Z M 3.203125 -1.140625 C 3.597656 -1.140625 3.910156 -1.269531 4.140625 -1.53125 C 4.378906 -1.800781 4.5 -2.175781 4.5 -2.65625 L 4.5 -3.34375 L 4.375 -3.375 C 4.28125 -3.289062 4.148438 -3.21875 3.984375 -3.15625 C 3.816406 -3.101562 3.578125 -3.050781 3.265625 -3 C 2.890625 -2.9375 2.617188 -2.828125 2.453125 -2.671875 C 2.296875 -2.523438 2.21875 -2.316406 2.21875 -2.046875 C 2.21875 -1.753906 2.300781 -1.53125 2.46875 -1.375 C 2.644531 -1.21875 2.890625 -1.140625 3.203125 -1.140625 Z M 3.203125 -1.140625 "/></g></g><g transform="translate(411.124546, 344.27699)"><g><path d="M 3.96875 0.125 C 3.3125 0.125 2.726562 -0.0078125 2.21875 -0.28125 C 1.71875 -0.550781 1.320312 -0.953125 1.03125 -1.484375 C 0.75 -2.015625 0.609375 -2.65625 0.609375 -3.40625 C 0.609375 -4.15625 0.75 -4.789062 1.03125 -5.3125 C 1.320312 -5.84375 1.71875 -6.242188 2.21875 -6.515625 C 2.71875 -6.796875 3.289062 -6.9375 3.9375 -6.9375 C 5.375 -6.9375 6.296875 -6.414062 6.703125 -5.375 L 5.53125 -4.53125 L 5.390625 -4.53125 C 5.253906 -4.851562 5.070312 -5.09375 4.84375 -5.25 C 4.625 -5.40625 4.320312 -5.484375 3.9375 -5.484375 C 3.445312 -5.484375 3.0625 -5.3125 2.78125 -4.96875 C 2.507812 -4.632812 2.375 -4.113281 2.375 -3.40625 C 2.375 -2.707031 2.507812 -2.1875 2.78125 -1.84375 C 3.0625 -1.5 3.457031 -1.328125 3.96875 -1.328125 C 4.34375 -1.328125 4.65625 -1.425781 4.90625 -1.625 C 5.164062 -1.820312 5.351562 -2.109375 5.46875 -2.484375 L 5.59375 -2.5 L 6.8125 -1.828125 C 6.632812 -1.253906 6.3125 -0.785156 5.84375 -0.421875 C 5.375 -0.0546875 4.75 0.125 3.96875 0.125 Z M 3.96875 0.125 "/></g></g><g transform="translate(418.140295, 344.27699)"><g><path d="M 6.734375 -3.015625 L 2.359375 -3.015625 C 2.398438 -2.421875 2.566406 -1.988281 2.859375 -1.71875 C 3.148438 -1.457031 3.539062 -1.328125 4.03125 -1.328125 C 4.425781 -1.328125 4.742188 -1.398438 4.984375 -1.546875 C 5.222656 -1.691406 5.421875 -1.910156 5.578125 -2.203125 L 5.703125 -2.203125 L 6.84375 -1.46875 C 6.613281 -1 6.273438 -0.613281 5.828125 -0.3125 C 5.378906 -0.0195312 4.78125 0.125 4.03125 0.125 C 3.332031 0.125 2.722656 -0.00390625 2.203125 -0.265625 C 1.691406 -0.535156 1.296875 -0.9375 1.015625 -1.46875 C 0.742188 -2 0.609375 -2.644531 0.609375 -3.40625 C 0.609375 -4.175781 0.753906 -4.828125 1.046875 -5.359375 C 1.335938 -5.890625 1.734375 -6.285156 2.234375 -6.546875 C 2.734375 -6.804688 3.289062 -6.9375 3.90625 -6.9375 C 4.875 -6.9375 5.613281 -6.679688 6.125 -6.171875 C 6.632812 -5.660156 6.890625 -4.910156 6.890625 -3.921875 C 6.890625 -3.566406 6.878906 -3.289062 6.859375 -3.09375 Z M 5.265625 -4.125 C 5.242188 -4.644531 5.117188 -5.019531 4.890625 -5.25 C 4.671875 -5.488281 4.34375 -5.609375 3.90625 -5.609375 C 3.039062 -5.609375 2.535156 -5.113281 2.390625 -4.125 Z M 5.265625 -4.125 "/></g></g><g transform="translate(425.538609, 344.27699)"><g><path d="M 4.703125 -1.625 L 5.140625 -0.359375 C 4.953125 -0.203125 4.71875 -0.0820312 4.4375 0 C 4.164062 0.0820312 3.851562 0.125 3.5 0.125 C 2.757812 0.125 2.195312 -0.0703125 1.8125 -0.46875 C 1.425781 -0.875 1.234375 -1.457031 1.234375 -2.21875 L 1.234375 -5.453125 L 0.203125 -5.453125 L 0.203125 -6.8125 L 1.234375 -6.8125 L 1.234375 -8.140625 L 2.953125 -8.421875 L 2.953125 -6.8125 L 4.875 -6.8125 L 4.875 -5.453125 L 2.953125 -5.453125 L 2.953125 -2.34375 C 2.953125 -2.007812 3.019531 -1.765625 3.15625 -1.609375 C 3.300781 -1.453125 3.503906 -1.375 3.765625 -1.375 C 4.078125 -1.375 4.34375 -1.457031 4.5625 -1.625 Z M 4.703125 -1.625 "/></g></g><g transform="translate(430.826646, 344.27699)"><g><path d="M 6.890625 -9.03125 L 6.890625 -7.53125 L 2.953125 -7.53125 L 2.953125 -5.140625 L 6.53125 -5.140625 L 6.53125 -3.671875 L 2.953125 -3.671875 L 2.953125 0 L 1.171875 0 L 1.171875 -9.03125 Z M 6.890625 -9.03125 "/></g></g></g><path stroke-linecap="butt" transform="matrix(0.536406, -0.524184, 0.524184, 0.536406, 180.157131, 232.55553)" fill="none" stroke-linejoin="miter" d="M 0.000935035 2.001967 L 75.577977 2.000252 " stroke="#000000" stroke-width="4" stroke-opacity="1" stroke-miterlimit="4"/><path stroke-linecap="butt" transform="matrix(0.55523, 0.504202, -0.504202, 0.55523, 182.21389, 232.518337)" fill="none" stroke-linejoin="miter" d="M 0.00162313 1.998723 L 73.017463 2.001738 " stroke="#000000" stroke-width="4" stroke-opacity="1" stroke-miterlimit="4"/><path stroke-linecap="butt" transform="matrix(0.232093, 0.713185, -0.713185, 0.232093, 182.630931, 233.165754)" fill="none" stroke-linejoin="miter" d="M -0.00190203 2.001394 L 174.677201 1.999671 " stroke="#000000" stroke-width="4" stroke-opacity="1" stroke-miterlimit="4"/><path stroke-linecap="butt" transform="matrix(-0.396714, -0.636488, 0.636488, -0.396714, 492.51619, 234.419089)" fill="none" stroke-linejoin="miter" d="M 0.000820495 2.000348 L 62.243178 2.001973 " stroke="#000000" stroke-width="4" stroke-opacity="1" stroke-miterlimit="4"/><path stroke-linecap="butt" transform="matrix(-0.417775, 0.622868, -0.622868, -0.417775, 495.033142, 234.467838)" fill="none" stroke-linejoin="miter" d="M -0.000650215 1.997777 L 59.108388 1.99948 " stroke="#000000" stroke-width="4" stroke-opacity="1" stroke-miterlimit="4"/><path stroke-linecap="butt" transform="matrix(-0.145824, 0.735687, -0.735687, -0.145824, 495.263518, 233.922051)" fill="none" stroke-linejoin="miter" d="M -0.00217114 1.999309 L 169.334158 2.001976 " stroke="#000000" stroke-width="4" stroke-opacity="1" stroke-miterlimit="4"/><path stroke-linecap="butt" transform="matrix(0.179612, 0.728175, -0.728175, 0.179612, 326.629909, 193.652695)" fill="none" stroke-linejoin="miter" d="M -0.000796005 2.002115 L 225.487733 2.002715 " stroke="#000000" stroke-width="4" stroke-opacity="1" stroke-miterlimit="4"/><path stroke-linecap="butt" transform="matrix(0.179612, -0.728175, 0.728175, 0.179612, 323.717214, 357.844866)" fill="none" stroke-linejoin="miter" d="M 0.000709114 1.997504 L 225.484181 1.998152 " stroke="#000000" stroke-width="4" stroke-opacity="1" stroke-miterlimit="4"/><g fill="#000000" fill-opacity="1"><g transform="translate(150.482336, 82.949994)"><g><path d="M 12.09375 -33.703125 C 13.1875 -33.703125 14.128906 -33.597656 14.921875 -33.390625 C 15.722656 -33.179688 16.539062 -32.898438 17.375 -32.546875 C 17.789062 -32.378906 18.195312 -32.234375 18.59375 -32.109375 C 19 -31.984375 19.363281 -31.921875 19.6875 -31.921875 C 20.445312 -31.921875 21.050781 -32.515625 21.5 -33.703125 L 22.421875 -33.703125 L 22.421875 -22.75 L 21.5 -22.75 C 21.34375 -24.445312 20.835938 -25.988281 19.984375 -27.375 C 19.140625 -28.769531 18.082031 -29.867188 16.8125 -30.671875 C 15.550781 -31.472656 14.203125 -31.875 12.765625 -31.875 C 11.203125 -31.875 9.859375 -31.398438 8.734375 -30.453125 C 7.617188 -29.515625 7.0625 -28.375 7.0625 -27.03125 C 7.0625 -25.457031 7.828125 -24.09375 9.359375 -22.9375 C 10.441406 -22.144531 11.960938 -21.1875 13.921875 -20.0625 C 15.648438 -19.007812 17.085938 -18.097656 18.234375 -17.328125 C 19.390625 -16.554688 20.460938 -15.722656 21.453125 -14.828125 C 22.347656 -13.960938 23.0625 -12.96875 23.59375 -11.84375 C 24.125 -10.726562 24.390625 -9.582031 24.390625 -8.40625 C 24.390625 -6.769531 23.941406 -5.25 23.046875 -3.84375 C 22.148438 -2.4375 20.925781 -1.320312 19.375 -0.5 C 17.820312 0.3125 16.113281 0.71875 14.25 0.71875 C 13.070312 0.71875 12.023438 0.613281 11.109375 0.40625 C 10.203125 0.195312 9.25 -0.0820312 8.25 -0.4375 C 7.164062 -0.820312 6.351562 -1.015625 5.8125 -1.015625 C 4.945312 -1.015625 4.289062 -0.4375 3.84375 0.71875 L 2.96875 0.71875 L 2.96875 -10.375 L 3.84375 -10.375 C 4.382812 -7.519531 5.460938 -5.257812 7.078125 -3.59375 C 8.691406 -1.9375 10.78125 -1.109375 13.34375 -1.109375 C 15.164062 -1.109375 16.664062 -1.601562 17.84375 -2.59375 C 19.03125 -3.582031 19.625 -4.832031 19.625 -6.34375 C 19.625 -7.101562 19.476562 -7.800781 19.1875 -8.4375 C 18.90625 -9.082031 18.429688 -9.773438 17.765625 -10.515625 C 17.148438 -11.148438 16.28125 -11.84375 15.15625 -12.59375 C 14.039062 -13.351562 12.554688 -14.289062 10.703125 -15.40625 C 9.140625 -16.363281 7.941406 -17.125 7.109375 -17.6875 C 6.273438 -18.25 5.648438 -18.738281 5.234375 -19.15625 C 3.597656 -20.8125 2.78125 -22.8125 2.78125 -25.15625 C 2.78125 -26.75 3.1875 -28.191406 4 -29.484375 C 4.820312 -30.785156 5.9375 -31.8125 7.34375 -32.5625 C 8.75 -33.320312 10.332031 -33.703125 12.09375 -33.703125 Z M 12.09375 -33.703125 "/></g></g></g><g fill="#000000" fill-opacity="1"><g transform="translate(176.978291, 82.949994)"><g><path d="M 12.09375 -22.796875 C 13.46875 -22.796875 14.75 -22.554688 15.9375 -22.078125 C 17.125 -21.597656 18.0625 -20.96875 18.75 -20.1875 C 19.4375 -19.40625 19.78125 -18.5625 19.78125 -17.65625 C 19.78125 -17.082031 19.5625 -16.601562 19.125 -16.21875 C 18.695312 -15.832031 18.144531 -15.640625 17.46875 -15.640625 C 15.9375 -15.640625 15.085938 -16.503906 14.921875 -18.234375 C 14.859375 -19.035156 14.539062 -19.753906 13.96875 -20.390625 C 13.394531 -21.035156 12.5 -21.359375 11.28125 -21.359375 C 9.394531 -21.359375 7.875 -20.601562 6.71875 -19.09375 C 5.5625 -17.59375 4.984375 -15.597656 4.984375 -13.109375 C 4.984375 -10.128906 5.6875 -7.734375 7.09375 -5.921875 C 8.507812 -4.117188 10.382812 -3.21875 12.71875 -3.21875 C 14.445312 -3.21875 15.894531 -3.695312 17.0625 -4.65625 C 18.226562 -5.613281 19.066406 -6.941406 19.578125 -8.640625 L 20.359375 -8.296875 C 19.710938 -5.609375 18.53125 -3.441406 16.8125 -1.796875 C 15.101562 -0.148438 13.160156 0.671875 10.984375 0.671875 C 9.128906 0.671875 7.453125 0.175781 5.953125 -0.8125 C 4.453125 -1.800781 3.273438 -3.164062 2.421875 -4.90625 C 1.578125 -6.65625 1.15625 -8.632812 1.15625 -10.84375 C 1.15625 -13.144531 1.617188 -15.203125 2.546875 -17.015625 C 3.472656 -18.828125 4.765625 -20.242188 6.421875 -21.265625 C 8.085938 -22.285156 9.976562 -22.796875 12.09375 -22.796875 Z M 12.09375 -22.796875 "/></g></g></g><g fill="#000000" fill-opacity="1"><g transform="translate(198.002253, 82.949994)"><g><path d="M 11.46875 -22.796875 C 16.269531 -22.796875 18.671875 -20.878906 18.671875 -17.046875 L 18.671875 -4.3125 C 18.671875 -3.457031 18.796875 -2.890625 19.046875 -2.609375 C 19.304688 -2.335938 19.644531 -2.203125 20.0625 -2.203125 C 20.539062 -2.203125 20.988281 -2.335938 21.40625 -2.609375 C 21.820312 -2.890625 22.429688 -3.410156 23.234375 -4.171875 L 23.234375 -2.96875 C 22.015625 -1.59375 21.015625 -0.640625 20.234375 -0.109375 C 19.453125 0.410156 18.644531 0.671875 17.8125 0.671875 C 16.882812 0.671875 16.140625 0.34375 15.578125 -0.3125 C 15.015625 -0.96875 14.734375 -1.9375 14.734375 -3.21875 C 13.328125 -1.875 12.023438 -0.890625 10.828125 -0.265625 C 9.628906 0.359375 8.320312 0.671875 6.90625 0.671875 C 5.5 0.671875 4.316406 0.144531 3.359375 -0.90625 C 2.398438 -1.96875 1.921875 -3.25 1.921875 -4.75 C 1.921875 -7.3125 3.28125 -9.296875 6 -10.703125 C 8.59375 -12.078125 11.503906 -13.34375 14.734375 -14.5 L 14.734375 -15.84375 C 14.734375 -17.125 14.644531 -18.144531 14.46875 -18.90625 C 14.289062 -19.675781 13.890625 -20.289062 13.265625 -20.75 C 12.648438 -21.21875 11.703125 -21.453125 10.421875 -21.453125 C 9.171875 -21.453125 8.238281 -21.144531 7.625 -20.53125 C 7.019531 -19.925781 6.71875 -19.175781 6.71875 -18.28125 L 6.765625 -17.046875 C 6.765625 -16.492188 6.585938 -16.039062 6.234375 -15.6875 C 5.890625 -15.34375 5.441406 -15.171875 4.890625 -15.171875 C 4.285156 -15.171875 3.789062 -15.34375 3.40625 -15.6875 C 3.019531 -16.039062 2.828125 -16.539062 2.828125 -17.1875 C 2.828125 -18.78125 3.578125 -20.113281 5.078125 -21.1875 C 6.585938 -22.257812 8.71875 -22.796875 11.46875 -22.796875 Z M 6 -6 C 6 -4.914062 6.34375 -3.988281 7.03125 -3.21875 C 7.71875 -2.445312 8.570312 -2.0625 9.59375 -2.0625 C 11.226562 -2.0625 12.941406 -2.863281 14.734375 -4.46875 L 14.734375 -13.203125 C 12.492188 -12.273438 10.765625 -11.46875 9.546875 -10.78125 C 8.335938 -10.09375 7.441406 -9.378906 6.859375 -8.640625 C 6.285156 -7.898438 6 -7.019531 6 -6 Z M 6 -6 "/></g></g></g><g fill="#000000" fill-opacity="1"><g transform="translate(222.002205, 82.949994)"><g><path d="M 8.6875 -34.421875 L 8.6875 -5.046875 C 8.6875 -3.441406 8.914062 -2.34375 9.375 -1.75 C 9.84375 -1.15625 10.6875 -0.859375 11.90625 -0.859375 L 11.90625 0 L 1.109375 0 L 1.109375 -0.859375 C 2.003906 -0.859375 2.707031 -0.953125 3.21875 -1.140625 C 3.726562 -1.335938 4.109375 -1.738281 4.359375 -2.34375 C 4.617188 -2.957031 4.75 -3.859375 4.75 -5.046875 L 4.75 -27.75 C 4.75 -29.882812 4 -30.953125 2.5 -30.953125 C 2.082031 -30.953125 1.710938 -30.875 1.390625 -30.71875 L 1.109375 -31.53125 L 7.828125 -34.421875 Z M 8.6875 -34.421875 "/></g></g></g><g fill="#000000" fill-opacity="1"><g transform="translate(235.010177, 82.949994)"><g><path d="M 6.53125 -34.5625 C 7.226562 -34.5625 7.816406 -34.320312 8.296875 -33.84375 C 8.785156 -33.363281 9.03125 -32.785156 9.03125 -32.109375 C 9.03125 -31.410156 8.785156 -30.816406 8.296875 -30.328125 C 7.816406 -29.847656 7.226562 -29.609375 6.53125 -29.609375 C 5.851562 -29.609375 5.273438 -29.847656 4.796875 -30.328125 C 4.316406 -30.816406 4.078125 -31.410156 4.078125 -32.109375 C 4.078125 -32.785156 4.316406 -33.363281 4.796875 -33.84375 C 5.273438 -34.320312 5.851562 -34.5625 6.53125 -34.5625 Z M 8.640625 -4.984375 C 8.640625 -3.421875 8.894531 -2.347656 9.40625 -1.765625 C 9.914062 -1.191406 10.75 -0.890625 11.90625 -0.859375 L 11.90625 0 L 1.109375 0 L 1.109375 -0.859375 C 2.421875 -0.859375 3.347656 -1.160156 3.890625 -1.765625 C 4.429688 -2.378906 4.703125 -3.488281 4.703125 -5.09375 L 4.703125 -16.703125 C 4.703125 -17.566406 4.507812 -18.269531 4.125 -18.8125 C 3.738281 -19.351562 3.148438 -19.625 2.359375 -19.625 C 2.003906 -19.625 1.679688 -19.546875 1.390625 -19.390625 L 1.109375 -20.25 L 7.78125 -22.796875 L 8.640625 -22.796875 Z M 8.640625 -4.984375 "/></g></g></g><g fill="#000000" fill-opacity="1"><g transform="translate(248.018149, 82.949994)"><g><path d="M 8.59375 -18.09375 C 10.257812 -19.882812 11.617188 -21.113281 12.671875 -21.78125 C 13.722656 -22.457031 14.890625 -22.796875 16.171875 -22.796875 C 17.578125 -22.796875 18.710938 -22.421875 19.578125 -21.671875 C 20.441406 -20.921875 21.066406 -20 21.453125 -18.90625 C 21.835938 -17.820312 22.03125 -16.753906 22.03125 -15.703125 L 22.03125 -5.09375 C 22.03125 -3.457031 22.285156 -2.359375 22.796875 -1.796875 C 23.304688 -1.234375 24.1875 -0.921875 25.4375 -0.859375 L 25.4375 0 L 14.203125 0 L 14.203125 -0.859375 C 15.234375 -0.859375 16.019531 -0.96875 16.5625 -1.1875 C 17.101562 -1.414062 17.492188 -1.828125 17.734375 -2.421875 C 17.972656 -3.015625 18.09375 -3.90625 18.09375 -5.09375 L 18.09375 -15.890625 C 18.09375 -16.910156 17.753906 -17.84375 17.078125 -18.6875 C 16.410156 -19.539062 15.484375 -19.96875 14.296875 -19.96875 C 13.304688 -19.96875 12.363281 -19.703125 11.46875 -19.171875 C 10.570312 -18.648438 9.613281 -17.84375 8.59375 -16.75 L 8.59375 -5.09375 C 8.59375 -3.425781 8.863281 -2.3125 9.40625 -1.75 C 9.945312 -1.1875 10.890625 -0.890625 12.234375 -0.859375 L 12.234375 0 L 1.203125 0 L 1.203125 -0.859375 C 2.191406 -0.960938 2.925781 -1.140625 3.40625 -1.390625 C 3.882812 -1.648438 4.210938 -2.050781 4.390625 -2.59375 C 4.566406 -3.132812 4.65625 -3.914062 4.65625 -4.9375 L 4.65625 -16.890625 C 4.65625 -17.628906 4.492188 -18.269531 4.171875 -18.8125 C 3.859375 -19.351562 3.347656 -19.625 2.640625 -19.625 C 2.316406 -19.625 2.019531 -19.566406 1.75 -19.453125 C 1.476562 -19.347656 1.296875 -19.28125 1.203125 -19.25 L 0.859375 -20.15625 L 7.78125 -22.796875 L 8.59375 -22.796875 Z M 8.59375 -18.09375 "/></g></g></g><g fill="#000000" fill-opacity="1"><g transform="translate(274.514104, 82.949994)"><g><path d="M 12.1875 -22.796875 C 13.976562 -22.796875 15.628906 -22.332031 17.140625 -21.40625 L 22.375 -21.40625 C 22.820312 -21.40625 23.082031 -21.34375 23.15625 -21.21875 C 23.238281 -21.09375 23.28125 -20.753906 23.28125 -20.203125 C 23.28125 -19.722656 23.25 -19.425781 23.1875 -19.3125 C 23.125 -19.207031 22.929688 -19.15625 22.609375 -19.15625 L 18.953125 -19.15625 C 19.398438 -18.445312 19.71875 -17.785156 19.90625 -17.171875 C 20.101562 -16.566406 20.203125 -15.867188 20.203125 -15.078125 C 20.203125 -13.597656 19.847656 -12.273438 19.140625 -11.109375 C 18.441406 -9.941406 17.457031 -9.03125 16.1875 -8.375 C 14.925781 -7.71875 13.5 -7.390625 11.90625 -7.390625 C 10.882812 -7.390625 9.828125 -7.550781 8.734375 -7.875 C 7.453125 -6.71875 6.8125 -5.753906 6.8125 -4.984375 C 6.8125 -4.578125 7.039062 -4.242188 7.5 -3.984375 C 7.96875 -3.722656 8.941406 -3.59375 10.421875 -3.59375 L 15.890625 -3.59375 C 17.804688 -3.59375 19.484375 -3.175781 20.921875 -2.34375 C 22.367188 -1.519531 23.09375 -0.289062 23.09375 1.34375 C 23.09375 2.875 22.515625 4.320312 21.359375 5.6875 C 20.203125 7.050781 18.671875 8.140625 16.765625 8.953125 C 14.867188 9.765625 12.832031 10.171875 10.65625 10.171875 C 9.1875 10.171875 7.738281 9.953125 6.3125 9.515625 C 4.882812 9.085938 3.726562 8.519531 2.84375 7.8125 C 1.96875 7.113281 1.53125 6.394531 1.53125 5.65625 C 1.53125 5.050781 1.816406 4.320312 2.390625 3.46875 C 2.972656 2.625 4.207031 1.257812 6.09375 -0.625 C 4.5 -1.101562 3.703125 -1.882812 3.703125 -2.96875 C 3.703125 -3.832031 4.035156 -4.703125 4.703125 -5.578125 C 5.378906 -6.460938 6.320312 -7.390625 7.53125 -8.359375 C 6.25 -9.023438 5.253906 -9.941406 4.546875 -11.109375 C 3.847656 -12.273438 3.5 -13.546875 3.5 -14.921875 C 3.5 -16.398438 3.875 -17.738281 4.625 -18.9375 C 5.382812 -20.132812 6.425781 -21.078125 7.75 -21.765625 C 9.082031 -22.453125 10.5625 -22.796875 12.1875 -22.796875 Z M 7.578125 -16.9375 C 7.578125 -15.757812 7.738281 -14.53125 8.0625 -13.25 C 8.382812 -11.96875 8.925781 -10.867188 9.6875 -9.953125 C 10.457031 -9.046875 11.4375 -8.59375 12.625 -8.59375 C 13.675781 -8.59375 14.519531 -9.09375 15.15625 -10.09375 C 15.800781 -11.101562 16.125 -12.394531 16.125 -13.96875 C 16.125 -14.925781 15.945312 -15.988281 15.59375 -17.15625 C 15.25 -18.320312 14.707031 -19.328125 13.96875 -20.171875 C 13.226562 -21.023438 12.285156 -21.453125 11.140625 -21.453125 C 10.179688 -21.453125 9.347656 -21.046875 8.640625 -20.234375 C 7.929688 -19.421875 7.578125 -18.320312 7.578125 -16.9375 Z M 14.875 0.046875 L 13.109375 0.046875 C 11.660156 0.046875 10.476562 0.0234375 9.5625 -0.015625 C 8.65625 -0.0664062 7.867188 -0.191406 7.203125 -0.390625 C 6.460938 0.441406 5.914062 1.1875 5.5625 1.84375 C 5.21875 2.5 5.046875 3.132812 5.046875 3.75 C 5.046875 4.894531 5.835938 5.769531 7.421875 6.375 C 9.003906 6.988281 10.914062 7.296875 13.15625 7.296875 C 14.75 7.296875 16.1875 7.085938 17.46875 6.671875 C 18.75 6.253906 19.753906 5.675781 20.484375 4.9375 C 21.222656 4.207031 21.59375 3.394531 21.59375 2.5 C 21.59375 1.46875 21.054688 0.804688 19.984375 0.515625 C 18.921875 0.234375 17.21875 0.078125 14.875 0.046875 Z M 14.875 0.046875 "/></g></g></g><g fill="#000000" fill-opacity="1"><g transform="translate(298.514056, 82.949994)"><g/></g></g><g fill="#000000" fill-opacity="1"><g transform="translate(310.514032, 82.949994)"><g><path d="M 37.53125 -16.515625 C 37.53125 -13.210938 36.675781 -10.3125 34.96875 -7.8125 C 33.257812 -5.320312 30.945312 -3.394531 28.03125 -2.03125 C 25.113281 -0.675781 21.929688 0 18.484375 0 L 1.53125 0 L 1.53125 -0.859375 C 3.257812 -0.890625 4.5 -1.175781 5.25 -1.71875 C 6.007812 -2.269531 6.390625 -3.3125 6.390625 -4.84375 L 6.390625 -28.21875 C 6.390625 -29.757812 5.988281 -30.789062 5.1875 -31.3125 C 4.382812 -31.84375 3.164062 -32.109375 1.53125 -32.109375 L 1.53125 -32.96875 L 19.921875 -32.96875 C 23.597656 -32.96875 26.769531 -32.179688 29.4375 -30.609375 C 32.113281 -29.046875 34.128906 -27.007812 35.484375 -24.5 C 36.847656 -21.988281 37.53125 -19.328125 37.53125 -16.515625 Z M 11.5625 -30.34375 L 11.5625 -2.40625 C 13.164062 -1.925781 14.894531 -1.6875 16.75 -1.6875 C 19.695312 -1.6875 22.289062 -2.285156 24.53125 -3.484375 C 26.769531 -4.679688 28.492188 -6.382812 29.703125 -8.59375 C 30.921875 -10.800781 31.53125 -13.34375 31.53125 -16.21875 C 31.53125 -19.101562 30.921875 -21.671875 29.703125 -23.921875 C 28.492188 -26.179688 26.773438 -27.953125 24.546875 -29.234375 C 22.328125 -30.515625 19.773438 -31.15625 16.890625 -31.15625 C 14.972656 -31.15625 13.195312 -30.882812 11.5625 -30.34375 Z M 11.5625 -30.34375 "/></g></g></g><g fill="#000000" fill-opacity="1"><g transform="translate(350.017959, 82.949994)"><g><path d="M 6.53125 -34.5625 C 7.226562 -34.5625 7.816406 -34.320312 8.296875 -33.84375 C 8.785156 -33.363281 9.03125 -32.785156 9.03125 -32.109375 C 9.03125 -31.410156 8.785156 -30.816406 8.296875 -30.328125 C 7.816406 -29.847656 7.226562 -29.609375 6.53125 -29.609375 C 5.851562 -29.609375 5.273438 -29.847656 4.796875 -30.328125 C 4.316406 -30.816406 4.078125 -31.410156 4.078125 -32.109375 C 4.078125 -32.785156 4.316406 -33.363281 4.796875 -33.84375 C 5.273438 -34.320312 5.851562 -34.5625 6.53125 -34.5625 Z M 8.640625 -4.984375 C 8.640625 -3.421875 8.894531 -2.347656 9.40625 -1.765625 C 9.914062 -1.191406 10.75 -0.890625 11.90625 -0.859375 L 11.90625 0 L 1.109375 0 L 1.109375 -0.859375 C 2.421875 -0.859375 3.347656 -1.160156 3.890625 -1.765625 C 4.429688 -2.378906 4.703125 -3.488281 4.703125 -5.09375 L 4.703125 -16.703125 C 4.703125 -17.566406 4.507812 -18.269531 4.125 -18.8125 C 3.738281 -19.351562 3.148438 -19.625 2.359375 -19.625 C 2.003906 -19.625 1.679688 -19.546875 1.390625 -19.390625 L 1.109375 -20.25 L 7.78125 -22.796875 L 8.640625 -22.796875 Z M 8.640625 -4.984375 "/></g></g></g><g fill="#000000" fill-opacity="1"><g transform="translate(363.025931, 82.949994)"><g><path d="M 11.46875 -22.796875 C 16.269531 -22.796875 18.671875 -20.878906 18.671875 -17.046875 L 18.671875 -4.3125 C 18.671875 -3.457031 18.796875 -2.890625 19.046875 -2.609375 C 19.304688 -2.335938 19.644531 -2.203125 20.0625 -2.203125 C 20.539062 -2.203125 20.988281 -2.335938 21.40625 -2.609375 C 21.820312 -2.890625 22.429688 -3.410156 23.234375 -4.171875 L 23.234375 -2.96875 C 22.015625 -1.59375 21.015625 -0.640625 20.234375 -0.109375 C 19.453125 0.410156 18.644531 0.671875 17.8125 0.671875 C 16.882812 0.671875 16.140625 0.34375 15.578125 -0.3125 C 15.015625 -0.96875 14.734375 -1.9375 14.734375 -3.21875 C 13.328125 -1.875 12.023438 -0.890625 10.828125 -0.265625 C 9.628906 0.359375 8.320312 0.671875 6.90625 0.671875 C 5.5 0.671875 4.316406 0.144531 3.359375 -0.90625 C 2.398438 -1.96875 1.921875 -3.25 1.921875 -4.75 C 1.921875 -7.3125 3.28125 -9.296875 6 -10.703125 C 8.59375 -12.078125 11.503906 -13.34375 14.734375 -14.5 L 14.734375 -15.84375 C 14.734375 -17.125 14.644531 -18.144531 14.46875 -18.90625 C 14.289062 -19.675781 13.890625 -20.289062 13.265625 -20.75 C 12.648438 -21.21875 11.703125 -21.453125 10.421875 -21.453125 C 9.171875 -21.453125 8.238281 -21.144531 7.625 -20.53125 C 7.019531 -19.925781 6.71875 -19.175781 6.71875 -18.28125 L 6.765625 -17.046875 C 6.765625 -16.492188 6.585938 -16.039062 6.234375 -15.6875 C 5.890625 -15.34375 5.441406 -15.171875 4.890625 -15.171875 C 4.285156 -15.171875 3.789062 -15.34375 3.40625 -15.6875 C 3.019531 -16.039062 2.828125 -16.539062 2.828125 -17.1875 C 2.828125 -18.78125 3.578125 -20.113281 5.078125 -21.1875 C 6.585938 -22.257812 8.71875 -22.796875 11.46875 -22.796875 Z M 6 -6 C 6 -4.914062 6.34375 -3.988281 7.03125 -3.21875 C 7.71875 -2.445312 8.570312 -2.0625 9.59375 -2.0625 C 11.226562 -2.0625 12.941406 -2.863281 14.734375 -4.46875 L 14.734375 -13.203125 C 12.492188 -12.273438 10.765625 -11.46875 9.546875 -10.78125 C 8.335938 -10.09375 7.441406 -9.378906 6.859375 -8.640625 C 6.285156 -7.898438 6 -7.019531 6 -6 Z M 6 -6 "/></g></g></g><g fill="#000000" fill-opacity="1"><g transform="translate(387.025883, 82.949994)"><g><path d="M 8.40625 -22.796875 L 8.40625 -18.234375 C 11.15625 -21.273438 13.648438 -22.796875 15.890625 -22.796875 C 17.359375 -22.796875 18.5625 -22.390625 19.5 -21.578125 C 20.445312 -20.765625 21.097656 -19.554688 21.453125 -17.953125 C 23.890625 -21.179688 26.546875 -22.796875 29.421875 -22.796875 C 31.503906 -22.796875 33 -22.050781 33.90625 -20.5625 C 34.820312 -19.082031 35.28125 -17.363281 35.28125 -15.40625 L 35.28125 -5.09375 C 35.28125 -3.875 35.398438 -2.96875 35.640625 -2.375 C 35.878906 -1.78125 36.253906 -1.378906 36.765625 -1.171875 C 37.273438 -0.960938 37.992188 -0.859375 38.921875 -0.859375 L 38.921875 0 L 27.59375 0 L 27.59375 -0.859375 C 28.59375 -0.859375 29.347656 -0.953125 29.859375 -1.140625 C 30.367188 -1.335938 30.742188 -1.738281 30.984375 -2.34375 C 31.222656 -2.957031 31.34375 -3.90625 31.34375 -5.1875 L 31.34375 -15.84375 C 31.34375 -16.957031 31.015625 -17.914062 30.359375 -18.71875 C 29.703125 -19.519531 28.75 -19.921875 27.5 -19.921875 C 26.476562 -19.921875 25.429688 -19.644531 24.359375 -19.09375 C 23.285156 -18.550781 22.398438 -17.832031 21.703125 -16.9375 L 21.84375 -14.109375 L 21.84375 -5.09375 C 21.84375 -3.875 21.96875 -2.96875 22.21875 -2.375 C 22.476562 -1.78125 22.851562 -1.378906 23.34375 -1.171875 C 23.84375 -0.960938 24.554688 -0.859375 25.484375 -0.859375 L 25.484375 0 L 14.109375 0 L 14.109375 -0.859375 C 15.097656 -0.859375 15.859375 -0.953125 16.390625 -1.140625 C 16.921875 -1.335938 17.304688 -1.734375 17.546875 -2.328125 C 17.785156 -2.921875 17.90625 -3.84375 17.90625 -5.09375 L 17.90625 -15.453125 C 17.90625 -16.578125 17.582031 -17.601562 16.9375 -18.53125 C 16.300781 -19.457031 15.34375 -19.921875 14.0625 -19.921875 C 13.226562 -19.921875 12.316406 -19.679688 11.328125 -19.203125 C 10.335938 -18.722656 9.363281 -17.984375 8.40625 -16.984375 L 8.40625 -5.09375 C 8.40625 -3.457031 8.660156 -2.34375 9.171875 -1.75 C 9.679688 -1.15625 10.507812 -0.859375 11.65625 -0.859375 L 11.953125 -0.859375 L 11.953125 0 L 0.71875 0 L 0.71875 -0.859375 C 1.707031 -0.859375 2.457031 -0.953125 2.96875 -1.140625 C 3.488281 -1.335938 3.867188 -1.738281 4.109375 -2.34375 C 4.347656 -2.957031 4.46875 -3.875 4.46875 -5.09375 L 4.46875 -16.46875 C 4.46875 -17.394531 4.273438 -18.160156 3.890625 -18.765625 C 3.503906 -19.378906 2.894531 -19.6875 2.0625 -19.6875 C 1.582031 -19.6875 1.132812 -19.601562 0.71875 -19.4375 L 0.390625 -20.25 L 7.578125 -22.796875 Z M 8.40625 -22.796875 "/></g></g></g><g fill="#000000" fill-opacity="1"><g transform="translate(426.52981, 82.949994)"><g><path d="M 13.6875 -22.796875 C 15.570312 -22.796875 17.335938 -22.289062 18.984375 -21.28125 C 20.628906 -20.28125 21.941406 -18.9375 22.921875 -17.25 C 23.898438 -15.570312 24.390625 -13.773438 24.390625 -11.859375 C 24.390625 -9.617188 23.859375 -7.535156 22.796875 -5.609375 C 21.742188 -3.691406 20.328125 -2.164062 18.546875 -1.03125 C 16.773438 0.101562 14.878906 0.671875 12.859375 0.671875 C 10.941406 0.671875 9.160156 0.164062 7.515625 -0.84375 C 5.867188 -1.851562 4.5625 -3.210938 3.59375 -4.921875 C 2.632812 -6.628906 2.15625 -8.492188 2.15625 -10.515625 C 2.15625 -12.691406 2.679688 -14.722656 3.734375 -16.609375 C 4.796875 -18.492188 6.210938 -19.992188 7.984375 -21.109375 C 9.765625 -22.234375 11.664062 -22.796875 13.6875 -22.796875 Z M 6.484375 -12.4375 C 6.484375 -10.539062 6.773438 -8.722656 7.359375 -6.984375 C 7.953125 -5.242188 8.804688 -3.8125 9.921875 -2.6875 C 11.046875 -1.570312 12.394531 -1.015625 13.96875 -1.015625 C 15.789062 -1.015625 17.257812 -1.820312 18.375 -3.4375 C 19.5 -5.050781 20.0625 -7.1875 20.0625 -9.84375 C 20.0625 -11.957031 19.738281 -13.867188 19.09375 -15.578125 C 18.457031 -17.285156 17.5625 -18.632812 16.40625 -19.625 C 15.257812 -20.625 13.953125 -21.125 12.484375 -21.125 C 10.660156 -21.125 9.203125 -20.335938 8.109375 -18.765625 C 7.023438 -17.203125 6.484375 -15.09375 6.484375 -12.4375 Z M 6.484375 -12.4375 "/></g></g></g><g fill="#000000" fill-opacity="1"><g transform="translate(453.025764, 82.949994)"><g><path d="M 8.59375 -18.09375 C 10.257812 -19.882812 11.617188 -21.113281 12.671875 -21.78125 C 13.722656 -22.457031 14.890625 -22.796875 16.171875 -22.796875 C 17.578125 -22.796875 18.710938 -22.421875 19.578125 -21.671875 C 20.441406 -20.921875 21.066406 -20 21.453125 -18.90625 C 21.835938 -17.820312 22.03125 -16.753906 22.03125 -15.703125 L 22.03125 -5.09375 C 22.03125 -3.457031 22.285156 -2.359375 22.796875 -1.796875 C 23.304688 -1.234375 24.1875 -0.921875 25.4375 -0.859375 L 25.4375 0 L 14.203125 0 L 14.203125 -0.859375 C 15.234375 -0.859375 16.019531 -0.96875 16.5625 -1.1875 C 17.101562 -1.414062 17.492188 -1.828125 17.734375 -2.421875 C 17.972656 -3.015625 18.09375 -3.90625 18.09375 -5.09375 L 18.09375 -15.890625 C 18.09375 -16.910156 17.753906 -17.84375 17.078125 -18.6875 C 16.410156 -19.539062 15.484375 -19.96875 14.296875 -19.96875 C 13.304688 -19.96875 12.363281 -19.703125 11.46875 -19.171875 C 10.570312 -18.648438 9.613281 -17.84375 8.59375 -16.75 L 8.59375 -5.09375 C 8.59375 -3.425781 8.863281 -2.3125 9.40625 -1.75 C 9.945312 -1.1875 10.890625 -0.890625 12.234375 -0.859375 L 12.234375 0 L 1.203125 0 L 1.203125 -0.859375 C 2.191406 -0.960938 2.925781 -1.140625 3.40625 -1.390625 C 3.882812 -1.648438 4.210938 -2.050781 4.390625 -2.59375 C 4.566406 -3.132812 4.65625 -3.914062 4.65625 -4.9375 L 4.65625 -16.890625 C 4.65625 -17.628906 4.492188 -18.269531 4.171875 -18.8125 C 3.859375 -19.351562 3.347656 -19.625 2.640625 -19.625 C 2.316406 -19.625 2.019531 -19.566406 1.75 -19.453125 C 1.476562 -19.347656 1.296875 -19.28125 1.203125 -19.25 L 0.859375 -20.15625 L 7.78125 -22.796875 L 8.59375 -22.796875 Z M 8.59375 -18.09375 "/></g></g></g><g fill="#000000" fill-opacity="1"><g transform="translate(479.521719, 82.949994)"><g><path d="M 21.84375 -34.421875 L 21.84375 -6.390625 C 21.84375 -4.847656 22.007812 -3.835938 22.34375 -3.359375 C 22.675781 -2.878906 23.195312 -2.640625 23.90625 -2.640625 C 24.226562 -2.640625 24.707031 -2.75 25.34375 -2.96875 L 25.6875 -2.203125 L 17.90625 0.578125 L 17.90625 -2.59375 C 16.8125 -1.46875 15.738281 -0.640625 14.6875 -0.109375 C 13.632812 0.410156 12.46875 0.671875 11.1875 0.671875 C 9.457031 0.671875 7.851562 0.175781 6.375 -0.8125 C 4.90625 -1.800781 3.726562 -3.144531 2.84375 -4.84375 C 1.96875 -6.539062 1.53125 -8.363281 1.53125 -10.3125 C 1.53125 -12.519531 2.050781 -14.582031 3.09375 -16.5 C 4.132812 -18.425781 5.519531 -19.957031 7.25 -21.09375 C 8.976562 -22.226562 10.832031 -22.796875 12.8125 -22.796875 C 13.738281 -22.796875 14.601562 -22.664062 15.40625 -22.40625 C 16.207031 -22.15625 17.039062 -21.726562 17.90625 -21.125 L 17.90625 -27.984375 C 17.90625 -30.003906 17.21875 -31.015625 15.84375 -31.015625 C 15.613281 -31.015625 15.398438 -30.988281 15.203125 -30.9375 C 15.015625 -30.882812 14.78125 -30.796875 14.5 -30.671875 L 14.109375 -31.484375 L 21.03125 -34.421875 Z M 5.859375 -12.046875 C 5.859375 -10.191406 6.203125 -8.503906 6.890625 -6.984375 C 7.578125 -5.460938 8.503906 -4.253906 9.671875 -3.359375 C 10.835938 -2.460938 12.125 -2.015625 13.53125 -2.015625 C 15.257812 -2.015625 16.71875 -2.75 17.90625 -4.21875 L 17.90625 -15.078125 C 17.90625 -16.703125 17.566406 -17.988281 16.890625 -18.9375 C 16.222656 -19.882812 15.457031 -20.539062 14.59375 -20.90625 C 13.726562 -21.269531 12.941406 -21.453125 12.234375 -21.453125 C 11.117188 -21.453125 10.070312 -21.035156 9.09375 -20.203125 C 8.113281 -19.367188 7.328125 -18.234375 6.734375 -16.796875 C 6.148438 -15.359375 5.859375 -13.773438 5.859375 -12.046875 Z M 5.859375 -12.046875 "/></g></g></g><g fill="#000000" fill-opacity="1"><g transform="translate(506.017673, 82.949994)"><g><path d="M 9.03125 -22.796875 C 9.957031 -22.796875 10.898438 -22.632812 11.859375 -22.3125 C 12.523438 -22.09375 13.066406 -21.984375 13.484375 -21.984375 C 13.773438 -21.984375 14.082031 -22.078125 14.40625 -22.265625 L 15.265625 -22.265625 L 15.265625 -15.5 L 14.40625 -15.5 C 14.144531 -17.257812 13.519531 -18.691406 12.53125 -19.796875 C 11.539062 -20.898438 10.335938 -21.453125 8.921875 -21.453125 C 7.804688 -21.453125 6.890625 -21.179688 6.171875 -20.640625 C 5.453125 -20.097656 5.09375 -19.363281 5.09375 -18.4375 C 5.09375 -17.695312 5.289062 -17.0625 5.6875 -16.53125 C 6.082031 -16.007812 6.640625 -15.523438 7.359375 -15.078125 C 8.085938 -14.628906 9.21875 -14.003906 10.75 -13.203125 C 12.738281 -12.140625 14.257812 -11.097656 15.3125 -10.078125 C 16.363281 -9.054688 16.890625 -7.679688 16.890625 -5.953125 C 16.890625 -4.410156 16.5 -3.144531 15.71875 -2.15625 C 14.9375 -1.164062 13.992188 -0.445312 12.890625 0 C 11.785156 0.445312 10.738281 0.671875 9.75 0.671875 C 8.78125 0.671875 7.484375 0.445312 5.859375 0 C 5.117188 -0.226562 4.625 -0.34375 4.375 -0.34375 C 3.957031 -0.34375 3.664062 -0.226562 3.5 0 L 2.5 0 L 2.5 -7.484375 L 3.3125 -7.484375 C 3.53125 -5.503906 4.25 -3.894531 5.46875 -2.65625 C 6.6875 -1.425781 8.128906 -0.8125 9.796875 -0.8125 C 10.785156 -0.8125 11.644531 -1.128906 12.375 -1.765625 C 13.113281 -2.410156 13.484375 -3.210938 13.484375 -4.171875 C 13.484375 -5.296875 13.160156 -6.175781 12.515625 -6.8125 C 11.878906 -7.457031 11.171875 -8.007812 10.390625 -8.46875 C 9.609375 -8.9375 9.085938 -9.234375 8.828125 -9.359375 C 8.703125 -9.453125 8.253906 -9.707031 7.484375 -10.125 C 6.335938 -10.769531 5.421875 -11.335938 4.734375 -11.828125 C 4.046875 -12.328125 3.46875 -12.972656 3 -13.765625 C 2.53125 -14.566406 2.296875 -15.5625 2.296875 -16.75 C 2.296875 -18.539062 2.925781 -19.992188 4.1875 -21.109375 C 5.457031 -22.234375 7.070312 -22.796875 9.03125 -22.796875 Z M 9.03125 -22.796875 "/></g></g></g></svg>