<svg xmlns="http://www.w3.org/2000/svg" xmlns:xlink="http://www.w3.org/1999/xlink" width="900" zoomAndPan="magnify" viewBox="0 0 675 449.999984" height="600" preserveAspectRatio="xMidYMid meet" version="1.0"><defs><g/><clipPath id="f79302b8b7"><path d="M 45 233.210938 L 190 233.210938 L 190 325.828125 L 45 325.828125 Z M 45 233.210938 " clip-rule="nonzero"/></clipPath><clipPath id="c95f2c4904"><path d="M 66 233.210938 L 168.972656 233.210938 C 180.570312 233.210938 189.972656 242.613281 189.972656 254.210938 L 189.972656 304.828125 C 189.972656 316.425781 180.570312 325.828125 168.972656 325.828125 L 66 325.828125 C 54.402344 325.828125 45 316.425781 45 304.828125 L 45 254.210938 C 45 242.613281 54.402344 233.210938 66 233.210938 Z M 66 233.210938 " clip-rule="nonzero"/></clipPath><clipPath id="310988613a"><path d="M 45 124.171875 L 190 124.171875 L 190 216.789062 L 45 216.789062 Z M 45 124.171875 " clip-rule="nonzero"/></clipPath><clipPath id="f90b3fad5f"><path d="M 66 124.171875 L 168.972656 124.171875 C 180.570312 124.171875 189.972656 133.574219 189.972656 145.171875 L 189.972656 195.789062 C 189.972656 207.386719 180.570312 216.789062 168.972656 216.789062 L 66 216.789062 C 54.402344 216.789062 45 207.386719 45 195.789062 L 45 145.171875 C 45 133.574219 54.402344 124.171875 66 124.171875 Z M 66 124.171875 " clip-rule="nonzero"/></clipPath><clipPath id="981ba137f9"><path d="M 239.023438 233.210938 L 384 233.210938 L 384 325.828125 L 239.023438 325.828125 Z M 239.023438 233.210938 " clip-rule="nonzero"/></clipPath><clipPath id="1b5664cf28"><path d="M 260.023438 233.210938 L 362.996094 233.210938 C 374.59375 233.210938 383.996094 242.613281 383.996094 254.210938 L 383.996094 304.828125 C 383.996094 316.425781 374.59375 325.828125 362.996094 325.828125 L 260.023438 325.828125 C 248.425781 325.828125 239.023438 316.425781 239.023438 304.828125 L 239.023438 254.210938 C 239.023438 242.613281 248.425781 233.210938 260.023438 233.210938 Z M 260.023438 233.210938 " clip-rule="nonzero"/></clipPath><clipPath id="b710f9da8f"><path d="M 239.023438 124.171875 L 384 124.171875 L 384 216.789062 L 239.023438 216.789062 Z M 239.023438 124.171875 " clip-rule="nonzero"/></clipPath><clipPath id="e88a4f4175"><path d="M 260.023438 124.171875 L 362.996094 124.171875 C 374.59375 124.171875 383.996094 133.574219 383.996094 145.171875 L 383.996094 195.789062 C 383.996094 207.386719 374.59375 216.789062 362.996094 216.789062 L 260.023438 216.789062 C 248.425781 216.789062 239.023438 207.386719 239.023438 195.789062 L 239.023438 145.171875 C 239.023438 133.574219 248.425781 124.171875 260.023438 124.171875 Z M 260.023438 124.171875 " clip-rule="nonzero"/></clipPath><clipPath id="e0ed8bc4e1"><path d="M 432.746094 233.210938 L 577.824219 233.210938 L 577.824219 325.828125 L 432.746094 325.828125 Z M 432.746094 233.210938 " clip-rule="nonzero"/></clipPath><clipPath id="87f56ebda0"><path d="M 453.746094 233.210938 L 556.71875 233.210938 C 568.316406 233.210938 577.71875 242.613281 577.71875 254.210938 L 577.71875 304.828125 C 577.71875 316.425781 568.316406 325.828125 556.71875 325.828125 L 453.746094 325.828125 C 442.148438 325.828125 432.746094 316.425781 432.746094 304.828125 L 432.746094 254.210938 C 432.746094 242.613281 442.148438 233.210938 453.746094 233.210938 Z M 453.746094 233.210938 " clip-rule="nonzero"/></clipPath><clipPath id="34581fd1ff"><path d="M 432.746094 124.171875 L 577.824219 124.171875 L 577.824219 216.789062 L 432.746094 216.789062 Z M 432.746094 124.171875 " clip-rule="nonzero"/></clipPath><clipPath id="98602bf828"><path d="M 453.746094 124.171875 L 556.71875 124.171875 C 568.316406 124.171875 577.71875 133.574219 577.71875 145.171875 L 577.71875 195.789062 C 577.71875 207.386719 568.316406 216.789062 556.71875 216.789062 L 453.746094 216.789062 C 442.148438 216.789062 432.746094 207.386719 432.746094 195.789062 L 432.746094 145.171875 C 432.746094 133.574219 442.148438 124.171875 453.746094 124.171875 Z M 453.746094 124.171875 " clip-rule="nonzero"/></clipPath></defs><rect x="-67.5" width="810" fill="#ffffff" y="-44.999998" height="539.99998" fill-opacity="1"/><rect x="-67.5" width="810" fill="#ffffff" y="-44.999998" height="539.99998" fill-opacity="1"/><g clip-path="url(#f79302b8b7)"><g clip-path="url(#c95f2c4904)"><path fill="#737373" d="M 45 233.210938 L 190.078125 233.210938 L 190.078125 325.828125 L 45 325.828125 Z M 45 233.210938 " fill-opacity="1" fill-rule="nonzero"/></g></g><g clip-path="url(#310988613a)"><g clip-path="url(#f90b3fad5f)"><path fill="#2f2f2f" d="M 45 124.171875 L 190.078125 124.171875 L 190.078125 216.789062 L 45 216.789062 Z M 45 124.171875 " fill-opacity="1" fill-rule="nonzero"/></g></g><g fill="#000000" fill-opacity="1"><g transform="translate(72.726829, 73.471737)"><g><path d="M 12.09375 -33.703125 C 13.1875 -33.703125 14.128906 -33.597656 14.921875 -33.390625 C 15.722656 -33.179688 16.539062 -32.898438 17.375 -32.546875 C 17.789062 -32.378906 18.195312 -32.234375 18.59375 -32.109375 C 19 -31.984375 19.363281 -31.921875 19.6875 -31.921875 C 20.445312 -31.921875 21.050781 -32.515625 21.5 -33.703125 L 22.421875 -33.703125 L 22.421875 -22.75 L 21.5 -22.75 C 21.34375 -24.445312 20.835938 -25.988281 19.984375 -27.375 C 19.140625 -28.769531 18.082031 -29.867188 16.8125 -30.671875 C 15.550781 -31.472656 14.203125 -31.875 12.765625 -31.875 C 11.203125 -31.875 9.859375 -31.398438 8.734375 -30.453125 C 7.617188 -29.515625 7.0625 -28.375 7.0625 -27.03125 C 7.0625 -25.457031 7.828125 -24.09375 9.359375 -22.9375 C 10.441406 -22.144531 11.960938 -21.1875 13.921875 -20.0625 C 15.648438 -19.007812 17.085938 -18.097656 18.234375 -17.328125 C 19.390625 -16.554688 20.460938 -15.722656 21.453125 -14.828125 C 22.347656 -13.960938 23.0625 -12.96875 23.59375 -11.84375 C 24.125 -10.726562 24.390625 -9.582031 24.390625 -8.40625 C 24.390625 -6.769531 23.941406 -5.25 23.046875 -3.84375 C 22.148438 -2.4375 20.925781 -1.320312 19.375 -0.5 C 17.820312 0.3125 16.113281 0.71875 14.25 0.71875 C 13.070312 0.71875 12.023438 0.613281 11.109375 0.40625 C 10.203125 0.195312 9.25 -0.0820312 8.25 -0.4375 C 7.164062 -0.820312 6.351562 -1.015625 5.8125 -1.015625 C 4.945312 -1.015625 4.289062 -0.4375 3.84375 0.71875 L 2.96875 0.71875 L 2.96875 -10.375 L 3.84375 -10.375 C 4.382812 -7.519531 5.460938 -5.257812 7.078125 -3.59375 C 8.691406 -1.9375 10.78125 -1.109375 13.34375 -1.109375 C 15.164062 -1.109375 16.664062 -1.601562 17.84375 -2.59375 C 19.03125 -3.582031 19.625 -4.832031 19.625 -6.34375 C 19.625 -7.101562 19.476562 -7.800781 19.1875 -8.4375 C 18.90625 -9.082031 18.429688 -9.773438 17.765625 -10.515625 C 17.148438 -11.148438 16.28125 -11.84375 15.15625 -12.59375 C 14.039062 -13.351562 12.554688 -14.289062 10.703125 -15.40625 C 9.140625 -16.363281 7.941406 -17.125 7.109375 -17.6875 C 6.273438 -18.25 5.648438 -18.738281 5.234375 -19.15625 C 3.597656 -20.8125 2.78125 -22.8125 2.78125 -25.15625 C 2.78125 -26.75 3.1875 -28.191406 4 -29.484375 C 4.820312 -30.785156 5.9375 -31.8125 7.34375 -32.5625 C 8.75 -33.320312 10.332031 -33.703125 12.09375 -33.703125 Z M 12.09375 -33.703125 "/></g></g></g><g fill="#000000" fill-opacity="1"><g transform="translate(99.222783, 73.471737)"><g><path d="M 12.09375 -22.796875 C 13.46875 -22.796875 14.75 -22.554688 15.9375 -22.078125 C 17.125 -21.597656 18.0625 -20.96875 18.75 -20.1875 C 19.4375 -19.40625 19.78125 -18.5625 19.78125 -17.65625 C 19.78125 -17.082031 19.5625 -16.601562 19.125 -16.21875 C 18.695312 -15.832031 18.144531 -15.640625 17.46875 -15.640625 C 15.9375 -15.640625 15.085938 -16.503906 14.921875 -18.234375 C 14.859375 -19.035156 14.539062 -19.753906 13.96875 -20.390625 C 13.394531 -21.035156 12.5 -21.359375 11.28125 -21.359375 C 9.394531 -21.359375 7.875 -20.601562 6.71875 -19.09375 C 5.5625 -17.59375 4.984375 -15.597656 4.984375 -13.109375 C 4.984375 -10.128906 5.6875 -7.734375 7.09375 -5.921875 C 8.507812 -4.117188 10.382812 -3.21875 12.71875 -3.21875 C 14.445312 -3.21875 15.894531 -3.695312 17.0625 -4.65625 C 18.226562 -5.613281 19.066406 -6.941406 19.578125 -8.640625 L 20.359375 -8.296875 C 19.710938 -5.609375 18.53125 -3.441406 16.8125 -1.796875 C 15.101562 -0.148438 13.160156 0.671875 10.984375 0.671875 C 9.128906 0.671875 7.453125 0.175781 5.953125 -0.8125 C 4.453125 -1.800781 3.273438 -3.164062 2.421875 -4.90625 C 1.578125 -6.65625 1.15625 -8.632812 1.15625 -10.84375 C 1.15625 -13.144531 1.617188 -15.203125 2.546875 -17.015625 C 3.472656 -18.828125 4.765625 -20.242188 6.421875 -21.265625 C 8.085938 -22.285156 9.976562 -22.796875 12.09375 -22.796875 Z M 12.09375 -22.796875 "/></g></g></g><g fill="#000000" fill-opacity="1"><g transform="translate(120.246746, 73.471737)"><g><path d="M 11.46875 -22.796875 C 16.269531 -22.796875 18.671875 -20.878906 18.671875 -17.046875 L 18.671875 -4.3125 C 18.671875 -3.457031 18.796875 -2.890625 19.046875 -2.609375 C 19.304688 -2.335938 19.644531 -2.203125 20.0625 -2.203125 C 20.539062 -2.203125 20.988281 -2.335938 21.40625 -2.609375 C 21.820312 -2.890625 22.429688 -3.410156 23.234375 -4.171875 L 23.234375 -2.96875 C 22.015625 -1.59375 21.015625 -0.640625 20.234375 -0.109375 C 19.453125 0.410156 18.644531 0.671875 17.8125 0.671875 C 16.882812 0.671875 16.140625 0.34375 15.578125 -0.3125 C 15.015625 -0.96875 14.734375 -1.9375 14.734375 -3.21875 C 13.328125 -1.875 12.023438 -0.890625 10.828125 -0.265625 C 9.628906 0.359375 8.320312 0.671875 6.90625 0.671875 C 5.5 0.671875 4.316406 0.144531 3.359375 -0.90625 C 2.398438 -1.96875 1.921875 -3.25 1.921875 -4.75 C 1.921875 -7.3125 3.28125 -9.296875 6 -10.703125 C 8.59375 -12.078125 11.503906 -13.34375 14.734375 -14.5 L 14.734375 -15.84375 C 14.734375 -17.125 14.644531 -18.144531 14.46875 -18.90625 C 14.289062 -19.675781 13.890625 -20.289062 13.265625 -20.75 C 12.648438 -21.21875 11.703125 -21.453125 10.421875 -21.453125 C 9.171875 -21.453125 8.238281 -21.144531 7.625 -20.53125 C 7.019531 -19.925781 6.71875 -19.175781 6.71875 -18.28125 L 6.765625 -17.046875 C 6.765625 -16.492188 6.585938 -16.039062 6.234375 -15.6875 C 5.890625 -15.34375 5.441406 -15.171875 4.890625 -15.171875 C 4.285156 -15.171875 3.789062 -15.34375 3.40625 -15.6875 C 3.019531 -16.039062 2.828125 -16.539062 2.828125 -17.1875 C 2.828125 -18.78125 3.578125 -20.113281 5.078125 -21.1875 C 6.585938 -22.257812 8.71875 -22.796875 11.46875 -22.796875 Z M 6 -6 C 6 -4.914062 6.34375 -3.988281 7.03125 -3.21875 C 7.71875 -2.445312 8.570312 -2.0625 9.59375 -2.0625 C 11.226562 -2.0625 12.941406 -2.863281 14.734375 -4.46875 L 14.734375 -13.203125 C 12.492188 -12.273438 10.765625 -11.46875 9.546875 -10.78125 C 8.335938 -10.09375 7.441406 -9.378906 6.859375 -8.640625 C 6.285156 -7.898438 6 -7.019531 6 -6 Z M 6 -6 "/></g></g></g><g fill="#000000" fill-opacity="1"><g transform="translate(144.246698, 73.471737)"><g><path d="M 8.6875 -34.421875 L 8.6875 -5.046875 C 8.6875 -3.441406 8.914062 -2.34375 9.375 -1.75 C 9.84375 -1.15625 10.6875 -0.859375 11.90625 -0.859375 L 11.90625 0 L 1.109375 0 L 1.109375 -0.859375 C 2.003906 -0.859375 2.707031 -0.953125 3.21875 -1.140625 C 3.726562 -1.335938 4.109375 -1.738281 4.359375 -2.34375 C 4.617188 -2.957031 4.75 -3.859375 4.75 -5.046875 L 4.75 -27.75 C 4.75 -29.882812 4 -30.953125 2.5 -30.953125 C 2.082031 -30.953125 1.710938 -30.875 1.390625 -30.71875 L 1.109375 -31.53125 L 7.828125 -34.421875 Z M 8.6875 -34.421875 "/></g></g></g><g fill="#000000" fill-opacity="1"><g transform="translate(157.25467, 73.471737)"><g><path d="M 6.53125 -34.5625 C 7.226562 -34.5625 7.816406 -34.320312 8.296875 -33.84375 C 8.785156 -33.363281 9.03125 -32.785156 9.03125 -32.109375 C 9.03125 -31.410156 8.785156 -30.816406 8.296875 -30.328125 C 7.816406 -29.847656 7.226562 -29.609375 6.53125 -29.609375 C 5.851562 -29.609375 5.273438 -29.847656 4.796875 -30.328125 C 4.316406 -30.816406 4.078125 -31.410156 4.078125 -32.109375 C 4.078125 -32.785156 4.316406 -33.363281 4.796875 -33.84375 C 5.273438 -34.320312 5.851562 -34.5625 6.53125 -34.5625 Z M 8.640625 -4.984375 C 8.640625 -3.421875 8.894531 -2.347656 9.40625 -1.765625 C 9.914062 -1.191406 10.75 -0.890625 11.90625 -0.859375 L 11.90625 0 L 1.109375 0 L 1.109375 -0.859375 C 2.421875 -0.859375 3.347656 -1.160156 3.890625 -1.765625 C 4.429688 -2.378906 4.703125 -3.488281 4.703125 -5.09375 L 4.703125 -16.703125 C 4.703125 -17.566406 4.507812 -18.269531 4.125 -18.8125 C 3.738281 -19.351562 3.148438 -19.625 2.359375 -19.625 C 2.003906 -19.625 1.679688 -19.546875 1.390625 -19.390625 L 1.109375 -20.25 L 7.78125 -22.796875 L 8.640625 -22.796875 Z M 8.640625 -4.984375 "/></g></g></g><g fill="#000000" fill-opacity="1"><g transform="translate(170.262642, 73.471737)"><g><path d="M 8.59375 -18.09375 C 10.257812 -19.882812 11.617188 -21.113281 12.671875 -21.78125 C 13.722656 -22.457031 14.890625 -22.796875 16.171875 -22.796875 C 17.578125 -22.796875 18.710938 -22.421875 19.578125 -21.671875 C 20.441406 -20.921875 21.066406 -20 21.453125 -18.90625 C 21.835938 -17.820312 22.03125 -16.753906 22.03125 -15.703125 L 22.03125 -5.09375 C 22.03125 -3.457031 22.285156 -2.359375 22.796875 -1.796875 C 23.304688 -1.234375 24.1875 -0.921875 25.4375 -0.859375 L 25.4375 0 L 14.203125 0 L 14.203125 -0.859375 C 15.234375 -0.859375 16.019531 -0.96875 16.5625 -1.1875 C 17.101562 -1.414062 17.492188 -1.828125 17.734375 -2.421875 C 17.972656 -3.015625 18.09375 -3.90625 18.09375 -5.09375 L 18.09375 -15.890625 C 18.09375 -16.910156 17.753906 -17.84375 17.078125 -18.6875 C 16.410156 -19.539062 15.484375 -19.96875 14.296875 -19.96875 C 13.304688 -19.96875 12.363281 -19.703125 11.46875 -19.171875 C 10.570312 -18.648438 9.613281 -17.84375 8.59375 -16.75 L 8.59375 -5.09375 C 8.59375 -3.425781 8.863281 -2.3125 9.40625 -1.75 C 9.945312 -1.1875 10.890625 -0.890625 12.234375 -0.859375 L 12.234375 0 L 1.203125 0 L 1.203125 -0.859375 C 2.191406 -0.960938 2.925781 -1.140625 3.40625 -1.390625 C 3.882812 -1.648438 4.210938 -2.050781 4.390625 -2.59375 C 4.566406 -3.132812 4.65625 -3.914062 4.65625 -4.9375 L 4.65625 -16.890625 C 4.65625 -17.628906 4.492188 -18.269531 4.171875 -18.8125 C 3.859375 -19.351562 3.347656 -19.625 2.640625 -19.625 C 2.316406 -19.625 2.019531 -19.566406 1.75 -19.453125 C 1.476562 -19.347656 1.296875 -19.28125 1.203125 -19.25 L 0.859375 -20.15625 L 7.78125 -22.796875 L 8.59375 -22.796875 Z M 8.59375 -18.09375 "/></g></g></g><g fill="#000000" fill-opacity="1"><g transform="translate(196.758597, 73.471737)"><g><path d="M 12.1875 -22.796875 C 13.976562 -22.796875 15.628906 -22.332031 17.140625 -21.40625 L 22.375 -21.40625 C 22.820312 -21.40625 23.082031 -21.34375 23.15625 -21.21875 C 23.238281 -21.09375 23.28125 -20.753906 23.28125 -20.203125 C 23.28125 -19.722656 23.25 -19.425781 23.1875 -19.3125 C 23.125 -19.207031 22.929688 -19.15625 22.609375 -19.15625 L 18.953125 -19.15625 C 19.398438 -18.445312 19.71875 -17.785156 19.90625 -17.171875 C 20.101562 -16.566406 20.203125 -15.867188 20.203125 -15.078125 C 20.203125 -13.597656 19.847656 -12.273438 19.140625 -11.109375 C 18.441406 -9.941406 17.457031 -9.03125 16.1875 -8.375 C 14.925781 -7.71875 13.5 -7.390625 11.90625 -7.390625 C 10.882812 -7.390625 9.828125 -7.550781 8.734375 -7.875 C 7.453125 -6.71875 6.8125 -5.753906 6.8125 -4.984375 C 6.8125 -4.578125 7.039062 -4.242188 7.5 -3.984375 C 7.96875 -3.722656 8.941406 -3.59375 10.421875 -3.59375 L 15.890625 -3.59375 C 17.804688 -3.59375 19.484375 -3.175781 20.921875 -2.34375 C 22.367188 -1.519531 23.09375 -0.289062 23.09375 1.34375 C 23.09375 2.875 22.515625 4.320312 21.359375 5.6875 C 20.203125 7.050781 18.671875 8.140625 16.765625 8.953125 C 14.867188 9.765625 12.832031 10.171875 10.65625 10.171875 C 9.1875 10.171875 7.738281 9.953125 6.3125 9.515625 C 4.882812 9.085938 3.726562 8.519531 2.84375 7.8125 C 1.96875 7.113281 1.53125 6.394531 1.53125 5.65625 C 1.53125 5.050781 1.816406 4.320312 2.390625 3.46875 C 2.972656 2.625 4.207031 1.257812 6.09375 -0.625 C 4.5 -1.101562 3.703125 -1.882812 3.703125 -2.96875 C 3.703125 -3.832031 4.035156 -4.703125 4.703125 -5.578125 C 5.378906 -6.460938 6.320312 -7.390625 7.53125 -8.359375 C 6.25 -9.023438 5.253906 -9.941406 4.546875 -11.109375 C 3.847656 -12.273438 3.5 -13.546875 3.5 -14.921875 C 3.5 -16.398438 3.875 -17.738281 4.625 -18.9375 C 5.382812 -20.132812 6.425781 -21.078125 7.75 -21.765625 C 9.082031 -22.453125 10.5625 -22.796875 12.1875 -22.796875 Z M 7.578125 -16.9375 C 7.578125 -15.757812 7.738281 -14.53125 8.0625 -13.25 C 8.382812 -11.96875 8.925781 -10.867188 9.6875 -9.953125 C 10.457031 -9.046875 11.4375 -8.59375 12.625 -8.59375 C 13.675781 -8.59375 14.519531 -9.09375 15.15625 -10.09375 C 15.800781 -11.101562 16.125 -12.394531 16.125 -13.96875 C 16.125 -14.925781 15.945312 -15.988281 15.59375 -17.15625 C 15.25 -18.320312 14.707031 -19.328125 13.96875 -20.171875 C 13.226562 -21.023438 12.285156 -21.453125 11.140625 -21.453125 C 10.179688 -21.453125 9.347656 -21.046875 8.640625 -20.234375 C 7.929688 -19.421875 7.578125 -18.320312 7.578125 -16.9375 Z M 14.875 0.046875 L 13.109375 0.046875 C 11.660156 0.046875 10.476562 0.0234375 9.5625 -0.015625 C 8.65625 -0.0664062 7.867188 -0.191406 7.203125 -0.390625 C 6.460938 0.441406 5.914062 1.1875 5.5625 1.84375 C 5.21875 2.5 5.046875 3.132812 5.046875 3.75 C 5.046875 4.894531 5.835938 5.769531 7.421875 6.375 C 9.003906 6.988281 10.914062 7.296875 13.15625 7.296875 C 14.75 7.296875 16.1875 7.085938 17.46875 6.671875 C 18.75 6.253906 19.753906 5.675781 20.484375 4.9375 C 21.222656 4.207031 21.59375 3.394531 21.59375 2.5 C 21.59375 1.46875 21.054688 0.804688 19.984375 0.515625 C 18.921875 0.234375 17.21875 0.078125 14.875 0.046875 Z M 14.875 0.046875 "/></g></g></g><g fill="#000000" fill-opacity="1"><g transform="translate(220.758549, 73.471737)"><g/></g></g><g fill="#000000" fill-opacity="1"><g transform="translate(232.758525, 73.471737)"><g><path d="M 28.125 -23.765625 C 28.125 -22.066406 27.660156 -20.519531 26.734375 -19.125 C 25.804688 -17.738281 24.535156 -16.644531 22.921875 -15.84375 C 21.304688 -15.039062 19.488281 -14.640625 17.46875 -14.640625 C 15.226562 -14.640625 13.101562 -15.007812 11.09375 -15.75 L 11.09375 -4.84375 C 11.09375 -3.25 11.484375 -2.1875 12.265625 -1.65625 C 13.046875 -1.125 14.300781 -0.859375 16.03125 -0.859375 L 16.03125 0 L 1.203125 0 L 1.203125 -0.859375 C 2.960938 -0.859375 4.1875 -1.15625 4.875 -1.75 C 5.5625 -2.34375 5.90625 -3.375 5.90625 -4.84375 L 5.90625 -28.171875 C 5.90625 -29.679688 5.535156 -30.710938 4.796875 -31.265625 C 4.066406 -31.828125 2.960938 -32.109375 1.484375 -32.109375 L 1.203125 -32.109375 L 1.203125 -32.96875 L 15.640625 -32.96875 C 17.722656 -32.96875 19.71875 -32.648438 21.625 -32.015625 C 23.53125 -31.378906 25.085938 -30.363281 26.296875 -28.96875 C 27.515625 -27.570312 28.125 -25.835938 28.125 -23.765625 Z M 11.09375 -30.53125 L 11.09375 -17.421875 C 12.59375 -16.785156 13.953125 -16.46875 15.171875 -16.46875 C 17.242188 -16.46875 18.921875 -17.113281 20.203125 -18.40625 C 21.484375 -19.707031 22.125 -21.425781 22.125 -23.5625 C 22.125 -25.800781 21.453125 -27.625 20.109375 -29.03125 C 18.765625 -30.445312 16.910156 -31.15625 14.546875 -31.15625 C 13.484375 -31.15625 12.332031 -30.945312 11.09375 -30.53125 Z M 11.09375 -30.53125 "/></g></g></g><g fill="#000000" fill-opacity="1"><g transform="translate(261.75047, 73.471737)"><g><path d="M 8.875 -18.28125 L 8.96875 -18.28125 C 9.800781 -19.757812 10.707031 -20.878906 11.6875 -21.640625 C 12.664062 -22.410156 13.757812 -22.796875 14.96875 -22.796875 C 15.832031 -22.796875 16.535156 -22.53125 17.078125 -22 C 17.628906 -21.476562 17.90625 -20.832031 17.90625 -20.0625 C 17.90625 -19.457031 17.6875 -18.945312 17.25 -18.53125 C 16.820312 -18.113281 16.335938 -17.90625 15.796875 -17.90625 C 15.347656 -17.90625 14.976562 -17.992188 14.6875 -18.171875 C 14.394531 -18.347656 14.109375 -18.578125 13.828125 -18.859375 C 13.765625 -18.890625 13.648438 -18.984375 13.484375 -19.140625 C 13.328125 -19.304688 13.160156 -19.425781 12.984375 -19.5 C 12.804688 -19.582031 12.625 -19.625 12.4375 -19.625 C 11.695312 -19.625 11.0625 -19.328125 10.53125 -18.734375 C 10.007812 -18.148438 9.457031 -17.34375 8.875 -16.3125 L 8.875 -5.09375 C 8.875 -3.84375 9.007812 -2.910156 9.28125 -2.296875 C 9.5625 -1.691406 9.988281 -1.300781 10.5625 -1.125 C 11.132812 -0.945312 11.984375 -0.859375 13.109375 -0.859375 L 13.109375 0 L 1.296875 0 L 1.296875 -0.859375 L 1.53125 -0.859375 C 2.71875 -0.859375 3.582031 -1.144531 4.125 -1.71875 C 4.664062 -2.300781 4.9375 -3.359375 4.9375 -4.890625 L 4.9375 -15.84375 C 4.9375 -17.34375 4.773438 -18.320312 4.453125 -18.78125 C 4.140625 -19.25 3.582031 -19.484375 2.78125 -19.484375 C 2.300781 -19.484375 1.898438 -19.390625 1.578125 -19.203125 L 1.296875 -20.015625 L 8.015625 -22.796875 L 8.875 -22.796875 Z M 8.875 -18.28125 "/></g></g></g><g fill="#000000" fill-opacity="1"><g transform="translate(280.230446, 73.471737)"><g><path d="M 13.6875 -22.796875 C 15.570312 -22.796875 17.335938 -22.289062 18.984375 -21.28125 C 20.628906 -20.28125 21.941406 -18.9375 22.921875 -17.25 C 23.898438 -15.570312 24.390625 -13.773438 24.390625 -11.859375 C 24.390625 -9.617188 23.859375 -7.535156 22.796875 -5.609375 C 21.742188 -3.691406 20.328125 -2.164062 18.546875 -1.03125 C 16.773438 0.101562 14.878906 0.671875 12.859375 0.671875 C 10.941406 0.671875 9.160156 0.164062 7.515625 -0.84375 C 5.867188 -1.851562 4.5625 -3.210938 3.59375 -4.921875 C 2.632812 -6.628906 2.15625 -8.492188 2.15625 -10.515625 C 2.15625 -12.691406 2.679688 -14.722656 3.734375 -16.609375 C 4.796875 -18.492188 6.210938 -19.992188 7.984375 -21.109375 C 9.765625 -22.234375 11.664062 -22.796875 13.6875 -22.796875 Z M 6.484375 -12.4375 C 6.484375 -10.539062 6.773438 -8.722656 7.359375 -6.984375 C 7.953125 -5.242188 8.804688 -3.8125 9.921875 -2.6875 C 11.046875 -1.570312 12.394531 -1.015625 13.96875 -1.015625 C 15.789062 -1.015625 17.257812 -1.820312 18.375 -3.4375 C 19.5 -5.050781 20.0625 -7.1875 20.0625 -9.84375 C 20.0625 -11.957031 19.738281 -13.867188 19.09375 -15.578125 C 18.457031 -17.285156 17.5625 -18.632812 16.40625 -19.625 C 15.257812 -20.625 13.953125 -21.125 12.484375 -21.125 C 10.660156 -21.125 9.203125 -20.335938 8.109375 -18.765625 C 7.023438 -17.203125 6.484375 -15.09375 6.484375 -12.4375 Z M 6.484375 -12.4375 "/></g></g></g><g fill="#000000" fill-opacity="1"><g transform="translate(306.7264, 73.471737)"><g><path d="M 11.09375 -21.40625 C 9.90625 -21.375 9.3125 -20.988281 9.3125 -20.25 C 9.3125 -19.769531 9.597656 -19.082031 10.171875 -18.1875 L 12.28125 -14.875 L 14.40625 -18 C 15.070312 -18.957031 15.40625 -19.675781 15.40625 -20.15625 C 15.40625 -20.925781 14.8125 -21.34375 13.625 -21.40625 L 13.625 -22.265625 L 21.03125 -22.265625 L 21.03125 -21.40625 C 20.09375 -21.28125 19.222656 -20.9375 18.421875 -20.375 C 17.628906 -19.8125 16.6875 -18.703125 15.59375 -17.046875 L 13.203125 -13.4375 L 16.890625 -7.484375 C 18.554688 -4.828125 19.828125 -3.082031 20.703125 -2.25 C 21.585938 -1.425781 22.414062 -0.960938 23.1875 -0.859375 L 23.1875 0 L 13.390625 0 L 13.390625 -0.859375 C 14.734375 -0.859375 15.40625 -1.242188 15.40625 -2.015625 C 15.40625 -2.304688 15.316406 -2.632812 15.140625 -3 C 14.960938 -3.363281 14.585938 -3.992188 14.015625 -4.890625 L 10.84375 -9.984375 L 6.765625 -3.890625 C 6.222656 -3.085938 5.953125 -2.476562 5.953125 -2.0625 C 5.953125 -1.675781 6.144531 -1.378906 6.53125 -1.171875 C 6.914062 -0.960938 7.441406 -0.859375 8.109375 -0.859375 L 8.109375 0 L 0.8125 0 L 0.8125 -0.859375 C 1.613281 -0.859375 2.40625 -1.25 3.1875 -2.03125 C 3.976562 -2.820312 4.800781 -3.84375 5.65625 -5.09375 L 9.9375 -11.421875 L 6.28125 -17.1875 C 5.226562 -18.851562 4.363281 -19.960938 3.6875 -20.515625 C 3.019531 -21.078125 2.160156 -21.375 1.109375 -21.40625 L 1.109375 -22.265625 L 11.09375 -22.265625 Z M 11.09375 -21.40625 "/></g></g></g><g fill="#000000" fill-opacity="1"><g transform="translate(330.726353, 73.471737)"><g><path d="M 10.703125 -21.40625 C 9.773438 -21.40625 9.109375 -21.285156 8.703125 -21.046875 C 8.304688 -20.804688 8.109375 -20.332031 8.109375 -19.625 C 8.109375 -19.019531 8.210938 -18.492188 8.421875 -18.046875 C 8.628906 -17.597656 8.75 -17.34375 8.78125 -17.28125 L 14.015625 -5.5625 L 18.765625 -18.390625 C 19.023438 -19.148438 19.15625 -19.675781 19.15625 -19.96875 C 19.15625 -20.476562 18.976562 -20.828125 18.625 -21.015625 C 18.269531 -21.210938 17.691406 -21.34375 16.890625 -21.40625 L 16.890625 -22.265625 L 23.28125 -22.265625 L 23.28125 -21.40625 C 22.707031 -21.34375 22.210938 -21.078125 21.796875 -20.609375 C 21.378906 -20.148438 21.007812 -19.488281 20.6875 -18.625 L 13.203125 1.53125 C 12.304688 3.875 11.25 5.898438 10.03125 7.609375 C 8.8125 9.316406 7.113281 10.171875 4.9375 10.171875 C 3.976562 10.171875 3.203125 9.921875 2.609375 9.421875 C 2.023438 8.929688 1.734375 8.300781 1.734375 7.53125 C 1.734375 6.894531 1.960938 6.367188 2.421875 5.953125 C 2.890625 5.535156 3.488281 5.328125 4.21875 5.328125 C 4.664062 5.328125 5.082031 5.40625 5.46875 5.5625 C 5.851562 5.726562 6.078125 5.828125 6.140625 5.859375 C 6.785156 6.109375 7.25 6.234375 7.53125 6.234375 C 8.394531 6.234375 9.171875 5.671875 9.859375 4.546875 C 10.546875 3.429688 11.320312 1.753906 12.1875 -0.484375 L 5.28125 -15.890625 C 4.601562 -17.359375 4.085938 -18.421875 3.734375 -19.078125 C 3.390625 -19.734375 2.984375 -20.269531 2.515625 -20.6875 C 2.054688 -21.101562 1.472656 -21.34375 0.765625 -21.40625 L 0.765625 -22.265625 L 10.703125 -22.265625 Z M 10.703125 -21.40625 "/></g></g></g><g fill="#000000" fill-opacity="1"><g transform="translate(354.726305, 73.471737)"><g><path d="M 13.96875 -9.265625 L 2.0625 -9.265625 L 2.0625 -13.0625 L 13.96875 -13.0625 Z M 13.96875 -9.265625 "/></g></g></g><g fill="#000000" fill-opacity="1"><g transform="translate(370.710267, 73.471737)"><g><path d="M 37.53125 -16.515625 C 37.53125 -13.210938 36.675781 -10.3125 34.96875 -7.8125 C 33.257812 -5.320312 30.945312 -3.394531 28.03125 -2.03125 C 25.113281 -0.675781 21.929688 0 18.484375 0 L 1.53125 0 L 1.53125 -0.859375 C 3.257812 -0.890625 4.5 -1.175781 5.25 -1.71875 C 6.007812 -2.269531 6.390625 -3.3125 6.390625 -4.84375 L 6.390625 -28.21875 C 6.390625 -29.757812 5.988281 -30.789062 5.1875 -31.3125 C 4.382812 -31.84375 3.164062 -32.109375 1.53125 -32.109375 L 1.53125 -32.96875 L 19.921875 -32.96875 C 23.597656 -32.96875 26.769531 -32.179688 29.4375 -30.609375 C 32.113281 -29.046875 34.128906 -27.007812 35.484375 -24.5 C 36.847656 -21.988281 37.53125 -19.328125 37.53125 -16.515625 Z M 11.5625 -30.34375 L 11.5625 -2.40625 C 13.164062 -1.925781 14.894531 -1.6875 16.75 -1.6875 C 19.695312 -1.6875 22.289062 -2.285156 24.53125 -3.484375 C 26.769531 -4.679688 28.492188 -6.382812 29.703125 -8.59375 C 30.921875 -10.800781 31.53125 -13.34375 31.53125 -16.21875 C 31.53125 -19.101562 30.921875 -21.671875 29.703125 -23.921875 C 28.492188 -26.179688 26.773438 -27.953125 24.546875 -29.234375 C 22.328125 -30.515625 19.773438 -31.15625 16.890625 -31.15625 C 14.972656 -31.15625 13.195312 -30.882812 11.5625 -30.34375 Z M 11.5625 -30.34375 "/></g></g></g><g fill="#000000" fill-opacity="1"><g transform="translate(410.214193, 73.471737)"><g><path d="M 11.28125 -22.796875 C 13.78125 -22.796875 15.804688 -21.960938 17.359375 -20.296875 C 18.910156 -18.640625 19.6875 -16.484375 19.6875 -13.828125 L 4.609375 -13.828125 L 4.609375 -13.203125 C 4.609375 -11.503906 4.941406 -9.878906 5.609375 -8.328125 C 6.285156 -6.773438 7.226562 -5.519531 8.4375 -4.5625 C 9.65625 -3.601562 11.035156 -3.125 12.578125 -3.125 C 15.617188 -3.125 17.742188 -4.816406 18.953125 -8.203125 L 19.6875 -7.828125 C 19.164062 -5.203125 18.101562 -3.128906 16.5 -1.609375 C 14.90625 -0.0859375 12.988281 0.671875 10.75 0.671875 C 9.082031 0.671875 7.535156 0.238281 6.109375 -0.625 C 4.691406 -1.488281 3.539062 -2.785156 2.65625 -4.515625 C 1.78125 -6.242188 1.34375 -8.335938 1.34375 -10.796875 C 1.34375 -13.171875 1.757812 -15.269531 2.59375 -17.09375 C 3.425781 -18.914062 4.59375 -20.320312 6.09375 -21.3125 C 7.601562 -22.300781 9.332031 -22.796875 11.28125 -22.796875 Z M 9.9375 -21.125 C 8.59375 -21.125 7.429688 -20.59375 6.453125 -19.53125 C 5.472656 -18.476562 4.890625 -17.070312 4.703125 -15.3125 L 14.734375 -15.3125 C 14.671875 -17.039062 14.226562 -18.441406 13.40625 -19.515625 C 12.59375 -20.585938 11.4375 -21.125 9.9375 -21.125 Z M 9.9375 -21.125 "/></g></g></g><g fill="#000000" fill-opacity="1"><g transform="translate(431.238156, 73.471737)"><g><path d="M 8.6875 -34.421875 L 8.6875 -5.046875 C 8.6875 -3.441406 8.914062 -2.34375 9.375 -1.75 C 9.84375 -1.15625 10.6875 -0.859375 11.90625 -0.859375 L 11.90625 0 L 1.109375 0 L 1.109375 -0.859375 C 2.003906 -0.859375 2.707031 -0.953125 3.21875 -1.140625 C 3.726562 -1.335938 4.109375 -1.738281 4.359375 -2.34375 C 4.617188 -2.957031 4.75 -3.859375 4.75 -5.046875 L 4.75 -27.75 C 4.75 -29.882812 4 -30.953125 2.5 -30.953125 C 2.082031 -30.953125 1.710938 -30.875 1.390625 -30.71875 L 1.109375 -31.53125 L 7.828125 -34.421875 Z M 8.6875 -34.421875 "/></g></g></g><g fill="#000000" fill-opacity="1"><g transform="translate(444.246128, 73.471737)"><g><path d="M 11.28125 -22.796875 C 13.78125 -22.796875 15.804688 -21.960938 17.359375 -20.296875 C 18.910156 -18.640625 19.6875 -16.484375 19.6875 -13.828125 L 4.609375 -13.828125 L 4.609375 -13.203125 C 4.609375 -11.503906 4.941406 -9.878906 5.609375 -8.328125 C 6.285156 -6.773438 7.226562 -5.519531 8.4375 -4.5625 C 9.65625 -3.601562 11.035156 -3.125 12.578125 -3.125 C 15.617188 -3.125 17.742188 -4.816406 18.953125 -8.203125 L 19.6875 -7.828125 C 19.164062 -5.203125 18.101562 -3.128906 16.5 -1.609375 C 14.90625 -0.0859375 12.988281 0.671875 10.75 0.671875 C 9.082031 0.671875 7.535156 0.238281 6.109375 -0.625 C 4.691406 -1.488281 3.539062 -2.785156 2.65625 -4.515625 C 1.78125 -6.242188 1.34375 -8.335938 1.34375 -10.796875 C 1.34375 -13.171875 1.757812 -15.269531 2.59375 -17.09375 C 3.425781 -18.914062 4.59375 -20.320312 6.09375 -21.3125 C 7.601562 -22.300781 9.332031 -22.796875 11.28125 -22.796875 Z M 9.9375 -21.125 C 8.59375 -21.125 7.429688 -20.59375 6.453125 -19.53125 C 5.472656 -18.476562 4.890625 -17.070312 4.703125 -15.3125 L 14.734375 -15.3125 C 14.671875 -17.039062 14.226562 -18.441406 13.40625 -19.515625 C 12.59375 -20.585938 11.4375 -21.125 9.9375 -21.125 Z M 9.9375 -21.125 "/></g></g></g><g fill="#000000" fill-opacity="1"><g transform="translate(465.27009, 73.471737)"><g><path d="M 12.1875 -22.796875 C 13.976562 -22.796875 15.628906 -22.332031 17.140625 -21.40625 L 22.375 -21.40625 C 22.820312 -21.40625 23.082031 -21.34375 23.15625 -21.21875 C 23.238281 -21.09375 23.28125 -20.753906 23.28125 -20.203125 C 23.28125 -19.722656 23.25 -19.425781 23.1875 -19.3125 C 23.125 -19.207031 22.929688 -19.15625 22.609375 -19.15625 L 18.953125 -19.15625 C 19.398438 -18.445312 19.71875 -17.785156 19.90625 -17.171875 C 20.101562 -16.566406 20.203125 -15.867188 20.203125 -15.078125 C 20.203125 -13.597656 19.847656 -12.273438 19.140625 -11.109375 C 18.441406 -9.941406 17.457031 -9.03125 16.1875 -8.375 C 14.925781 -7.71875 13.5 -7.390625 11.90625 -7.390625 C 10.882812 -7.390625 9.828125 -7.550781 8.734375 -7.875 C 7.453125 -6.71875 6.8125 -5.753906 6.8125 -4.984375 C 6.8125 -4.578125 7.039062 -4.242188 7.5 -3.984375 C 7.96875 -3.722656 8.941406 -3.59375 10.421875 -3.59375 L 15.890625 -3.59375 C 17.804688 -3.59375 19.484375 -3.175781 20.921875 -2.34375 C 22.367188 -1.519531 23.09375 -0.289062 23.09375 1.34375 C 23.09375 2.875 22.515625 4.320312 21.359375 5.6875 C 20.203125 7.050781 18.671875 8.140625 16.765625 8.953125 C 14.867188 9.765625 12.832031 10.171875 10.65625 10.171875 C 9.1875 10.171875 7.738281 9.953125 6.3125 9.515625 C 4.882812 9.085938 3.726562 8.519531 2.84375 7.8125 C 1.96875 7.113281 1.53125 6.394531 1.53125 5.65625 C 1.53125 5.050781 1.816406 4.320312 2.390625 3.46875 C 2.972656 2.625 4.207031 1.257812 6.09375 -0.625 C 4.5 -1.101562 3.703125 -1.882812 3.703125 -2.96875 C 3.703125 -3.832031 4.035156 -4.703125 4.703125 -5.578125 C 5.378906 -6.460938 6.320312 -7.390625 7.53125 -8.359375 C 6.25 -9.023438 5.253906 -9.941406 4.546875 -11.109375 C 3.847656 -12.273438 3.5 -13.546875 3.5 -14.921875 C 3.5 -16.398438 3.875 -17.738281 4.625 -18.9375 C 5.382812 -20.132812 6.425781 -21.078125 7.75 -21.765625 C 9.082031 -22.453125 10.5625 -22.796875 12.1875 -22.796875 Z M 7.578125 -16.9375 C 7.578125 -15.757812 7.738281 -14.53125 8.0625 -13.25 C 8.382812 -11.96875 8.925781 -10.867188 9.6875 -9.953125 C 10.457031 -9.046875 11.4375 -8.59375 12.625 -8.59375 C 13.675781 -8.59375 14.519531 -9.09375 15.15625 -10.09375 C 15.800781 -11.101562 16.125 -12.394531 16.125 -13.96875 C 16.125 -14.925781 15.945312 -15.988281 15.59375 -17.15625 C 15.25 -18.320312 14.707031 -19.328125 13.96875 -20.171875 C 13.226562 -21.023438 12.285156 -21.453125 11.140625 -21.453125 C 10.179688 -21.453125 9.347656 -21.046875 8.640625 -20.234375 C 7.929688 -19.421875 7.578125 -18.320312 7.578125 -16.9375 Z M 14.875 0.046875 L 13.109375 0.046875 C 11.660156 0.046875 10.476562 0.0234375 9.5625 -0.015625 C 8.65625 -0.0664062 7.867188 -0.191406 7.203125 -0.390625 C 6.460938 0.441406 5.914062 1.1875 5.5625 1.84375 C 5.21875 2.5 5.046875 3.132812 5.046875 3.75 C 5.046875 4.894531 5.835938 5.769531 7.421875 6.375 C 9.003906 6.988281 10.914062 7.296875 13.15625 7.296875 C 14.75 7.296875 16.1875 7.085938 17.46875 6.671875 C 18.75 6.253906 19.753906 5.675781 20.484375 4.9375 C 21.222656 4.207031 21.59375 3.394531 21.59375 2.5 C 21.59375 1.46875 21.054688 0.804688 19.984375 0.515625 C 18.921875 0.234375 17.21875 0.078125 14.875 0.046875 Z M 14.875 0.046875 "/></g></g></g><g fill="#000000" fill-opacity="1"><g transform="translate(489.270042, 73.471737)"><g><path d="M 11.46875 -22.796875 C 16.269531 -22.796875 18.671875 -20.878906 18.671875 -17.046875 L 18.671875 -4.3125 C 18.671875 -3.457031 18.796875 -2.890625 19.046875 -2.609375 C 19.304688 -2.335938 19.644531 -2.203125 20.0625 -2.203125 C 20.539062 -2.203125 20.988281 -2.335938 21.40625 -2.609375 C 21.820312 -2.890625 22.429688 -3.410156 23.234375 -4.171875 L 23.234375 -2.96875 C 22.015625 -1.59375 21.015625 -0.640625 20.234375 -0.109375 C 19.453125 0.410156 18.644531 0.671875 17.8125 0.671875 C 16.882812 0.671875 16.140625 0.34375 15.578125 -0.3125 C 15.015625 -0.96875 14.734375 -1.9375 14.734375 -3.21875 C 13.328125 -1.875 12.023438 -0.890625 10.828125 -0.265625 C 9.628906 0.359375 8.320312 0.671875 6.90625 0.671875 C 5.5 0.671875 4.316406 0.144531 3.359375 -0.90625 C 2.398438 -1.96875 1.921875 -3.25 1.921875 -4.75 C 1.921875 -7.3125 3.28125 -9.296875 6 -10.703125 C 8.59375 -12.078125 11.503906 -13.34375 14.734375 -14.5 L 14.734375 -15.84375 C 14.734375 -17.125 14.644531 -18.144531 14.46875 -18.90625 C 14.289062 -19.675781 13.890625 -20.289062 13.265625 -20.75 C 12.648438 -21.21875 11.703125 -21.453125 10.421875 -21.453125 C 9.171875 -21.453125 8.238281 -21.144531 7.625 -20.53125 C 7.019531 -19.925781 6.71875 -19.175781 6.71875 -18.28125 L 6.765625 -17.046875 C 6.765625 -16.492188 6.585938 -16.039062 6.234375 -15.6875 C 5.890625 -15.34375 5.441406 -15.171875 4.890625 -15.171875 C 4.285156 -15.171875 3.789062 -15.34375 3.40625 -15.6875 C 3.019531 -16.039062 2.828125 -16.539062 2.828125 -17.1875 C 2.828125 -18.78125 3.578125 -20.113281 5.078125 -21.1875 C 6.585938 -22.257812 8.71875 -22.796875 11.46875 -22.796875 Z M 6 -6 C 6 -4.914062 6.34375 -3.988281 7.03125 -3.21875 C 7.71875 -2.445312 8.570312 -2.0625 9.59375 -2.0625 C 11.226562 -2.0625 12.941406 -2.863281 14.734375 -4.46875 L 14.734375 -13.203125 C 12.492188 -12.273438 10.765625 -11.46875 9.546875 -10.78125 C 8.335938 -10.09375 7.441406 -9.378906 6.859375 -8.640625 C 6.285156 -7.898438 6 -7.019531 6 -6 Z M 6 -6 "/></g></g></g><g fill="#000000" fill-opacity="1"><g transform="translate(513.269995, 73.471737)"><g><path d="M 7.96875 -29.328125 L 8.734375 -29.328125 L 8.734375 -22.265625 L 13.78125 -22.265625 L 13.78125 -20.78125 L 8.734375 -20.78125 L 8.734375 -5.328125 C 8.734375 -4.492188 8.972656 -3.75 9.453125 -3.09375 C 9.929688 -2.4375 10.601562 -2.109375 11.46875 -2.109375 C 12.050781 -2.109375 12.566406 -2.242188 13.015625 -2.515625 C 13.460938 -2.785156 13.941406 -3.257812 14.453125 -3.9375 L 15.40625 -3.9375 C 14.570312 -2.394531 13.675781 -1.238281 12.71875 -0.46875 C 11.757812 0.289062 10.640625 0.671875 9.359375 0.671875 C 7.953125 0.671875 6.835938 0.148438 6.015625 -0.890625 C 5.203125 -1.929688 4.796875 -3.347656 4.796875 -5.140625 L 4.796875 -20.78125 L 1.390625 -20.78125 L 1.390625 -21.75 C 3.023438 -22.414062 4.398438 -23.394531 5.515625 -24.6875 C 6.640625 -25.988281 7.457031 -27.535156 7.96875 -29.328125 Z M 7.96875 -29.328125 "/></g></g></g><g fill="#000000" fill-opacity="1"><g transform="translate(529.253957, 73.471737)"><g><path d="M 11.28125 -22.796875 C 13.78125 -22.796875 15.804688 -21.960938 17.359375 -20.296875 C 18.910156 -18.640625 19.6875 -16.484375 19.6875 -13.828125 L 4.609375 -13.828125 L 4.609375 -13.203125 C 4.609375 -11.503906 4.941406 -9.878906 5.609375 -8.328125 C 6.285156 -6.773438 7.226562 -5.519531 8.4375 -4.5625 C 9.65625 -3.601562 11.035156 -3.125 12.578125 -3.125 C 15.617188 -3.125 17.742188 -4.816406 18.953125 -8.203125 L 19.6875 -7.828125 C 19.164062 -5.203125 18.101562 -3.128906 16.5 -1.609375 C 14.90625 -0.0859375 12.988281 0.671875 10.75 0.671875 C 9.082031 0.671875 7.535156 0.238281 6.109375 -0.625 C 4.691406 -1.488281 3.539062 -2.785156 2.65625 -4.515625 C 1.78125 -6.242188 1.34375 -8.335938 1.34375 -10.796875 C 1.34375 -13.171875 1.757812 -15.269531 2.59375 -17.09375 C 3.425781 -18.914062 4.59375 -20.320312 6.09375 -21.3125 C 7.601562 -22.300781 9.332031 -22.796875 11.28125 -22.796875 Z M 9.9375 -21.125 C 8.59375 -21.125 7.429688 -20.59375 6.453125 -19.53125 C 5.472656 -18.476562 4.890625 -17.070312 4.703125 -15.3125 L 14.734375 -15.3125 C 14.671875 -17.039062 14.226562 -18.441406 13.40625 -19.515625 C 12.59375 -20.585938 11.4375 -21.125 9.9375 -21.125 Z M 9.9375 -21.125 "/></g></g></g><g fill="#ffffff" fill-opacity="1"><g transform="translate(73.681606, 158.541981)"><g><path d="M 16.953125 -13.203125 C 16.953125 -12.285156 16.675781 -11.453125 16.125 -10.703125 C 15.582031 -9.960938 14.78125 -9.375 13.71875 -8.9375 C 12.65625 -8.5 11.382812 -8.28125 9.90625 -8.28125 L 7.28125 -8.28125 L 7.28125 -2.734375 C 7.28125 -2.085938 7.363281 -1.601562 7.53125 -1.28125 C 7.695312 -0.96875 7.941406 -0.757812 8.265625 -0.65625 C 8.585938 -0.550781 9.054688 -0.488281 9.671875 -0.46875 L 9.671875 0 L 0.46875 0 L 0.46875 -0.46875 C 1.132812 -0.488281 1.644531 -0.546875 2 -0.640625 C 2.351562 -0.742188 2.617188 -0.953125 2.796875 -1.265625 C 2.972656 -1.578125 3.0625 -2.066406 3.0625 -2.734375 L 3.0625 -15.53125 C 3.0625 -16.375 2.847656 -16.9375 2.421875 -17.21875 C 2.003906 -17.5 1.351562 -17.640625 0.46875 -17.640625 L 0.46875 -18.109375 L 10.25 -18.109375 C 11.34375 -18.109375 12.398438 -17.921875 13.421875 -17.546875 C 14.453125 -17.179688 15.296875 -16.628906 15.953125 -15.890625 C 16.617188 -15.148438 16.953125 -14.253906 16.953125 -13.203125 Z M 12.421875 -13.125 C 12.421875 -14.25 12.242188 -15.097656 11.890625 -15.671875 C 11.535156 -16.253906 11.070312 -16.644531 10.5 -16.84375 C 9.925781 -17.039062 9.210938 -17.140625 8.359375 -17.140625 L 7.28125 -17.140625 L 7.28125 -9.25 L 8.984375 -9.25 C 9.972656 -9.25 10.789062 -9.554688 11.4375 -10.171875 C 12.09375 -10.785156 12.421875 -11.769531 12.421875 -13.125 Z M 12.421875 -13.125 "/></g></g></g><g fill="#ffffff" fill-opacity="1"><g transform="translate(91.266375, 158.541981)"><g><path d="M 8.171875 -12.515625 C 8.585938 -12.515625 8.925781 -12.351562 9.1875 -12.03125 C 9.457031 -11.707031 9.59375 -11.289062 9.59375 -10.78125 C 9.59375 -10.238281 9.457031 -9.800781 9.1875 -9.46875 C 8.925781 -9.132812 8.570312 -8.96875 8.125 -8.96875 C 7.90625 -8.96875 7.71875 -9.007812 7.5625 -9.09375 C 7.40625 -9.175781 7.210938 -9.300781 6.984375 -9.46875 C 6.648438 -9.695312 6.40625 -9.8125 6.25 -9.8125 C 5.96875 -9.8125 5.726562 -9.582031 5.53125 -9.125 C 5.34375 -8.664062 5.25 -8.144531 5.25 -7.5625 L 5.25 -2.078125 C 5.25 -1.503906 5.363281 -1.09375 5.59375 -0.84375 C 5.820312 -0.59375 6.234375 -0.46875 6.828125 -0.46875 L 6.828125 0 L 0.296875 0 L 0.296875 -0.46875 C 1.191406 -0.46875 1.640625 -1 1.640625 -2.0625 L 1.640625 -10.171875 C 1.640625 -11.210938 1.191406 -11.738281 0.296875 -11.75 L 0.296875 -12.234375 L 5.25 -12.234375 L 5.25 -10.046875 L 5.296875 -10.046875 C 6.117188 -11.691406 7.078125 -12.515625 8.171875 -12.515625 Z M 8.171875 -12.515625 "/></g></g></g><g fill="#ffffff" fill-opacity="1"><g transform="translate(101.416503, 158.541981)"><g><path d="M 6.53125 -12.515625 C 7.601562 -12.515625 8.582031 -12.257812 9.46875 -11.75 C 10.363281 -11.238281 11.078125 -10.492188 11.609375 -9.515625 C 12.148438 -8.546875 12.421875 -7.382812 12.421875 -6.03125 C 12.421875 -4.59375 12.117188 -3.394531 11.515625 -2.4375 C 10.921875 -1.476562 10.175781 -0.769531 9.28125 -0.3125 C 8.394531 0.144531 7.515625 0.375 6.640625 0.375 C 5.671875 0.375 4.734375 0.125 3.828125 -0.375 C 2.929688 -0.882812 2.195312 -1.625 1.625 -2.59375 C 1.050781 -3.570312 0.765625 -4.742188 0.765625 -6.109375 C 0.765625 -7.335938 1.007812 -8.4375 1.5 -9.40625 C 1.988281 -10.375 2.671875 -11.132812 3.546875 -11.6875 C 4.429688 -12.238281 5.425781 -12.515625 6.53125 -12.515625 Z M 4.5625 -6.640625 C 4.5625 -5.054688 4.613281 -3.835938 4.71875 -2.984375 C 4.820312 -2.140625 5.019531 -1.519531 5.3125 -1.125 C 5.601562 -0.738281 6.03125 -0.546875 6.59375 -0.546875 C 7.101562 -0.546875 7.503906 -0.703125 7.796875 -1.015625 C 8.097656 -1.335938 8.3125 -1.851562 8.4375 -2.5625 C 8.5625 -3.28125 8.625 -4.253906 8.625 -5.484375 C 8.625 -7.066406 8.578125 -8.273438 8.484375 -9.109375 C 8.398438 -9.941406 8.207031 -10.5625 7.90625 -10.96875 C 7.601562 -11.382812 7.144531 -11.59375 6.53125 -11.59375 C 5.757812 -11.59375 5.238281 -11.175781 4.96875 -10.34375 C 4.695312 -9.507812 4.5625 -8.273438 4.5625 -6.640625 Z M 4.5625 -6.640625 "/></g></g></g><g fill="#ffffff" fill-opacity="1"><g transform="translate(114.598486, 158.541981)"><g><path d="M 7.28125 -11.75 C 6.90625 -11.75 6.613281 -11.710938 6.40625 -11.640625 C 6.207031 -11.578125 6.109375 -11.441406 6.109375 -11.234375 C 6.109375 -11.035156 6.25 -10.71875 6.53125 -10.28125 L 8.140625 -7.9375 L 9.671875 -9.859375 C 10.097656 -10.347656 10.3125 -10.757812 10.3125 -11.09375 C 10.3125 -11.53125 9.929688 -11.75 9.171875 -11.75 L 9.171875 -12.234375 L 13.515625 -12.234375 L 13.515625 -11.75 C 13.023438 -11.71875 12.625 -11.617188 12.3125 -11.453125 C 12.007812 -11.285156 11.664062 -10.960938 11.28125 -10.484375 L 8.625 -7.25 L 12.25 -1.953125 C 12.695312 -1.316406 13.019531 -0.910156 13.21875 -0.734375 C 13.414062 -0.554688 13.65625 -0.46875 13.9375 -0.46875 L 14.046875 -0.46875 L 14.046875 0 L 7.28125 0 L 7.28125 -0.46875 L 7.453125 -0.46875 C 7.847656 -0.46875 8.109375 -0.503906 8.234375 -0.578125 C 8.367188 -0.648438 8.4375 -0.78125 8.4375 -0.96875 C 8.4375 -1.195312 8.3125 -1.5 8.0625 -1.875 L 6.328125 -4.484375 L 4.84375 -2.71875 C 4.28125 -2.03125 4 -1.507812 4 -1.15625 C 4 -0.695312 4.421875 -0.46875 5.265625 -0.46875 L 5.265625 0 L 0.53125 0 L 0.53125 -0.46875 C 1.050781 -0.488281 1.5 -0.585938 1.875 -0.765625 C 2.257812 -0.941406 2.671875 -1.300781 3.109375 -1.84375 L 5.859375 -5.171875 L 2.109375 -10.59375 C 1.847656 -10.96875 1.597656 -11.253906 1.359375 -11.453125 C 1.117188 -11.648438 0.84375 -11.75 0.53125 -11.75 L 0.53125 -12.234375 L 7.28125 -12.234375 Z M 7.28125 -11.75 "/></g></g></g><g fill="#ffffff" fill-opacity="1"><g transform="translate(129.1514, 158.541981)"><g><path d="M 6.875 -11.75 C 6.457031 -11.738281 6.15625 -11.675781 5.96875 -11.5625 C 5.78125 -11.445312 5.6875 -11.253906 5.6875 -10.984375 C 5.6875 -10.617188 5.820312 -10.128906 6.09375 -9.515625 L 8.203125 -4.421875 L 9.5625 -8.375 C 9.9375 -9.445312 10.125 -10.1875 10.125 -10.59375 C 10.125 -11.363281 9.65625 -11.75 8.71875 -11.75 L 8.71875 -12.234375 L 12.734375 -12.234375 L 12.734375 -11.75 C 12.273438 -11.75 11.890625 -11.535156 11.578125 -11.109375 C 11.273438 -10.679688 10.9375 -9.929688 10.5625 -8.859375 L 6.859375 1.765625 C 6.359375 3.191406 5.832031 4.1875 5.28125 4.75 C 4.726562 5.3125 4.039062 5.59375 3.21875 5.59375 C 2.53125 5.59375 1.972656 5.394531 1.546875 5 C 1.128906 4.613281 0.921875 4.125 0.921875 3.53125 C 0.921875 3.039062 1.078125 2.625 1.390625 2.28125 C 1.710938 1.9375 2.101562 1.765625 2.5625 1.765625 C 3.15625 1.765625 3.566406 2.035156 3.796875 2.578125 C 3.878906 2.804688 3.921875 3.097656 3.921875 3.453125 C 3.941406 3.710938 3.976562 3.910156 4.03125 4.046875 C 4.082031 4.179688 4.195312 4.25 4.375 4.25 C 4.726562 4.25 5.0625 3.960938 5.375 3.390625 C 5.695312 2.816406 6.066406 1.867188 6.484375 0.546875 L 2.453125 -9.203125 C 2.078125 -10.078125 1.757812 -10.691406 1.5 -11.046875 C 1.238281 -11.410156 0.890625 -11.644531 0.453125 -11.75 L 0.453125 -12.234375 L 6.875 -12.234375 Z M 6.875 -11.75 "/></g></g></g><g fill="#ffffff" fill-opacity="1"><g transform="translate(142.333383, 158.541981)"><g><path d="M 3.34375 -3.609375 L 9.46875 -18.40625 L 9.734375 -18.40625 L 15.8125 -3.5625 C 16.21875 -2.5625 16.617188 -1.796875 17.015625 -1.265625 C 17.410156 -0.734375 17.925781 -0.46875 18.5625 -0.46875 L 18.5625 0 L 10.09375 0 L 10.09375 -0.46875 C 10.9375 -0.488281 11.5 -0.554688 11.78125 -0.671875 C 12.0625 -0.785156 12.203125 -1.046875 12.203125 -1.453125 C 12.203125 -1.578125 12.171875 -1.71875 12.109375 -1.875 C 12.046875 -2.03125 12 -2.160156 11.96875 -2.265625 L 10.828125 -5.109375 L 5.03125 -5.109375 L 4.21875 -3.140625 C 3.96875 -2.648438 3.84375 -2.21875 3.84375 -1.84375 C 3.84375 -1.300781 4.046875 -0.9375 4.453125 -0.75 C 4.859375 -0.5625 5.429688 -0.46875 6.171875 -0.46875 L 6.171875 0 L 0.375 0 L 0.375 -0.46875 C 0.96875 -0.519531 1.5 -0.789062 1.96875 -1.28125 C 2.445312 -1.78125 2.90625 -2.554688 3.34375 -3.609375 Z M 10.4375 -6.09375 L 7.9375 -12.15625 L 5.4375 -6.09375 Z M 10.4375 -6.09375 "/></g></g></g><g fill="#ffffff" fill-opacity="1"><g transform="translate(88.492056, 268.973758)"><g><path d="M 19.40625 -8.9375 C 19.40625 -7.070312 19.003906 -5.460938 18.203125 -4.109375 C 17.398438 -2.753906 16.304688 -1.726562 14.921875 -1.03125 C 13.546875 -0.34375 12.015625 0 10.328125 0 L 0.453125 0 L 0.453125 -0.46875 C 1.097656 -0.46875 1.585938 -0.515625 1.921875 -0.609375 C 2.253906 -0.710938 2.503906 -0.921875 2.671875 -1.234375 C 2.835938 -1.554688 2.921875 -2.054688 2.921875 -2.734375 L 2.921875 -15.34375 C 2.921875 -16.03125 2.832031 -16.535156 2.65625 -16.859375 C 2.488281 -17.179688 2.234375 -17.390625 1.890625 -17.484375 C 1.554688 -17.585938 1.078125 -17.640625 0.453125 -17.640625 L 0.453125 -18.109375 L 9.90625 -18.109375 C 11.632812 -18.109375 13.21875 -17.757812 14.65625 -17.0625 C 16.09375 -16.375 17.242188 -15.335938 18.109375 -13.953125 C 18.972656 -12.578125 19.40625 -10.90625 19.40625 -8.9375 Z M 9.171875 -0.921875 C 12.859375 -0.921875 14.703125 -3.546875 14.703125 -8.796875 C 14.703125 -11.734375 14.171875 -13.863281 13.109375 -15.1875 C 12.046875 -16.519531 10.707031 -17.1875 9.09375 -17.1875 L 7.140625 -17.1875 L 7.140625 -2.6875 C 7.140625 -2.175781 7.195312 -1.796875 7.3125 -1.546875 C 7.425781 -1.304688 7.625 -1.140625 7.90625 -1.046875 C 8.1875 -0.960938 8.609375 -0.921875 9.171875 -0.921875 Z M 9.171875 -0.921875 "/></g></g></g><g fill="#ffffff" fill-opacity="1"><g transform="translate(108.818679, 268.973758)"><g><path d="M 6.109375 -12.515625 C 7.179688 -12.515625 8.082031 -12.242188 8.8125 -11.703125 C 9.539062 -11.160156 10.085938 -10.460938 10.453125 -9.609375 C 10.828125 -8.753906 11.023438 -7.867188 11.046875 -6.953125 L 11.046875 -6.515625 L 4.109375 -6.515625 C 4.210938 -5.054688 4.59375 -3.878906 5.25 -2.984375 C 5.914062 -2.085938 6.738281 -1.640625 7.71875 -1.640625 C 8.351562 -1.640625 8.894531 -1.804688 9.34375 -2.140625 C 9.789062 -2.484375 10.195312 -2.984375 10.5625 -3.640625 L 11.046875 -3.34375 C 10.441406 -2.082031 9.726562 -1.144531 8.90625 -0.53125 C 8.082031 0.0703125 7.109375 0.375 5.984375 0.375 C 4.859375 0.375 3.894531 0.0976562 3.09375 -0.453125 C 2.289062 -1.015625 1.675781 -1.769531 1.25 -2.71875 C 0.832031 -3.664062 0.625 -4.726562 0.625 -5.90625 C 0.625 -7.082031 0.867188 -8.175781 1.359375 -9.1875 C 1.859375 -10.195312 2.53125 -11.003906 3.375 -11.609375 C 4.21875 -12.210938 5.128906 -12.515625 6.109375 -12.515625 Z M 7.828125 -8.046875 C 7.828125 -9.285156 7.691406 -10.203125 7.421875 -10.796875 C 7.148438 -11.398438 6.710938 -11.703125 6.109375 -11.703125 C 5.484375 -11.703125 4.992188 -11.3125 4.640625 -10.53125 C 4.285156 -9.75 4.109375 -8.847656 4.109375 -7.828125 L 4.109375 -7.375 L 7.828125 -7.375 Z M 7.828125 -8.046875 "/></g></g></g><g fill="#ffffff" fill-opacity="1"><g transform="translate(120.366099, 268.973758)"><g><path d="M 5.53125 -1.765625 C 5.53125 -1.328125 5.632812 -1 5.84375 -0.78125 C 6.0625 -0.570312 6.398438 -0.46875 6.859375 -0.46875 L 6.859375 0 L 0.3125 0 L 0.3125 -0.46875 C 0.863281 -0.46875 1.269531 -0.585938 1.53125 -0.828125 C 1.789062 -1.066406 1.921875 -1.429688 1.921875 -1.921875 L 1.921875 -16.03125 C 1.921875 -16.625 1.800781 -17.035156 1.5625 -17.265625 C 1.332031 -17.492188 0.914062 -17.617188 0.3125 -17.640625 L 0.3125 -18.109375 L 5.53125 -18.109375 Z M 5.53125 -1.765625 "/></g></g></g><g fill="#ffffff" fill-opacity="1"><g transform="translate(127.510733, 268.973758)"><g><path d="M 3.34375 -3.609375 L 9.46875 -18.40625 L 9.734375 -18.40625 L 15.8125 -3.5625 C 16.21875 -2.5625 16.617188 -1.796875 17.015625 -1.265625 C 17.410156 -0.734375 17.925781 -0.46875 18.5625 -0.46875 L 18.5625 0 L 10.09375 0 L 10.09375 -0.46875 C 10.9375 -0.488281 11.5 -0.554688 11.78125 -0.671875 C 12.0625 -0.785156 12.203125 -1.046875 12.203125 -1.453125 C 12.203125 -1.578125 12.171875 -1.71875 12.109375 -1.875 C 12.046875 -2.03125 12 -2.160156 11.96875 -2.265625 L 10.828125 -5.109375 L 5.03125 -5.109375 L 4.21875 -3.140625 C 3.96875 -2.648438 3.84375 -2.21875 3.84375 -1.84375 C 3.84375 -1.300781 4.046875 -0.9375 4.453125 -0.75 C 4.859375 -0.5625 5.429688 -0.46875 6.171875 -0.46875 L 6.171875 0 L 0.375 0 L 0.375 -0.46875 C 0.96875 -0.519531 1.5 -0.789062 1.96875 -1.28125 C 2.445312 -1.78125 2.90625 -2.554688 3.34375 -3.609375 Z M 10.4375 -6.09375 L 7.9375 -12.15625 L 5.4375 -6.09375 Z M 10.4375 -6.09375 "/></g></g></g><g clip-path="url(#981ba137f9)"><g clip-path="url(#1b5664cf28)"><path fill="#737373" d="M 239.023438 233.210938 L 384.101562 233.210938 L 384.101562 325.828125 L 239.023438 325.828125 Z M 239.023438 233.210938 " fill-opacity="1" fill-rule="nonzero"/></g></g><g clip-path="url(#b710f9da8f)"><g clip-path="url(#e88a4f4175)"><path fill="#2f2f2f" d="M 239.023438 124.171875 L 384.101562 124.171875 L 384.101562 216.789062 L 239.023438 216.789062 Z M 239.023438 124.171875 " fill-opacity="1" fill-rule="nonzero"/></g></g><g fill="#ffffff" fill-opacity="1"><g transform="translate(268.387403, 158.541981)"><g><path d="M 16.953125 -13.203125 C 16.953125 -12.285156 16.675781 -11.453125 16.125 -10.703125 C 15.582031 -9.960938 14.78125 -9.375 13.71875 -8.9375 C 12.65625 -8.5 11.382812 -8.28125 9.90625 -8.28125 L 7.28125 -8.28125 L 7.28125 -2.734375 C 7.28125 -2.085938 7.363281 -1.601562 7.53125 -1.28125 C 7.695312 -0.96875 7.941406 -0.757812 8.265625 -0.65625 C 8.585938 -0.550781 9.054688 -0.488281 9.671875 -0.46875 L 9.671875 0 L 0.46875 0 L 0.46875 -0.46875 C 1.132812 -0.488281 1.644531 -0.546875 2 -0.640625 C 2.351562 -0.742188 2.617188 -0.953125 2.796875 -1.265625 C 2.972656 -1.578125 3.0625 -2.066406 3.0625 -2.734375 L 3.0625 -15.53125 C 3.0625 -16.375 2.847656 -16.9375 2.421875 -17.21875 C 2.003906 -17.5 1.351562 -17.640625 0.46875 -17.640625 L 0.46875 -18.109375 L 10.25 -18.109375 C 11.34375 -18.109375 12.398438 -17.921875 13.421875 -17.546875 C 14.453125 -17.179688 15.296875 -16.628906 15.953125 -15.890625 C 16.617188 -15.148438 16.953125 -14.253906 16.953125 -13.203125 Z M 12.421875 -13.125 C 12.421875 -14.25 12.242188 -15.097656 11.890625 -15.671875 C 11.535156 -16.253906 11.070312 -16.644531 10.5 -16.84375 C 9.925781 -17.039062 9.210938 -17.140625 8.359375 -17.140625 L 7.28125 -17.140625 L 7.28125 -9.25 L 8.984375 -9.25 C 9.972656 -9.25 10.789062 -9.554688 11.4375 -10.171875 C 12.09375 -10.785156 12.421875 -11.769531 12.421875 -13.125 Z M 12.421875 -13.125 "/></g></g></g><g fill="#ffffff" fill-opacity="1"><g transform="translate(285.972173, 158.541981)"><g><path d="M 8.171875 -12.515625 C 8.585938 -12.515625 8.925781 -12.351562 9.1875 -12.03125 C 9.457031 -11.707031 9.59375 -11.289062 9.59375 -10.78125 C 9.59375 -10.238281 9.457031 -9.800781 9.1875 -9.46875 C 8.925781 -9.132812 8.570312 -8.96875 8.125 -8.96875 C 7.90625 -8.96875 7.71875 -9.007812 7.5625 -9.09375 C 7.40625 -9.175781 7.210938 -9.300781 6.984375 -9.46875 C 6.648438 -9.695312 6.40625 -9.8125 6.25 -9.8125 C 5.96875 -9.8125 5.726562 -9.582031 5.53125 -9.125 C 5.34375 -8.664062 5.25 -8.144531 5.25 -7.5625 L 5.25 -2.078125 C 5.25 -1.503906 5.363281 -1.09375 5.59375 -0.84375 C 5.820312 -0.59375 6.234375 -0.46875 6.828125 -0.46875 L 6.828125 0 L 0.296875 0 L 0.296875 -0.46875 C 1.191406 -0.46875 1.640625 -1 1.640625 -2.0625 L 1.640625 -10.171875 C 1.640625 -11.210938 1.191406 -11.738281 0.296875 -11.75 L 0.296875 -12.234375 L 5.25 -12.234375 L 5.25 -10.046875 L 5.296875 -10.046875 C 6.117188 -11.691406 7.078125 -12.515625 8.171875 -12.515625 Z M 8.171875 -12.515625 "/></g></g></g><g fill="#ffffff" fill-opacity="1"><g transform="translate(296.1223, 158.541981)"><g><path d="M 6.53125 -12.515625 C 7.601562 -12.515625 8.582031 -12.257812 9.46875 -11.75 C 10.363281 -11.238281 11.078125 -10.492188 11.609375 -9.515625 C 12.148438 -8.546875 12.421875 -7.382812 12.421875 -6.03125 C 12.421875 -4.59375 12.117188 -3.394531 11.515625 -2.4375 C 10.921875 -1.476562 10.175781 -0.769531 9.28125 -0.3125 C 8.394531 0.144531 7.515625 0.375 6.640625 0.375 C 5.671875 0.375 4.734375 0.125 3.828125 -0.375 C 2.929688 -0.882812 2.195312 -1.625 1.625 -2.59375 C 1.050781 -3.570312 0.765625 -4.742188 0.765625 -6.109375 C 0.765625 -7.335938 1.007812 -8.4375 1.5 -9.40625 C 1.988281 -10.375 2.671875 -11.132812 3.546875 -11.6875 C 4.429688 -12.238281 5.425781 -12.515625 6.53125 -12.515625 Z M 4.5625 -6.640625 C 4.5625 -5.054688 4.613281 -3.835938 4.71875 -2.984375 C 4.820312 -2.140625 5.019531 -1.519531 5.3125 -1.125 C 5.601562 -0.738281 6.03125 -0.546875 6.59375 -0.546875 C 7.101562 -0.546875 7.503906 -0.703125 7.796875 -1.015625 C 8.097656 -1.335938 8.3125 -1.851562 8.4375 -2.5625 C 8.5625 -3.28125 8.625 -4.253906 8.625 -5.484375 C 8.625 -7.066406 8.578125 -8.273438 8.484375 -9.109375 C 8.398438 -9.941406 8.207031 -10.5625 7.90625 -10.96875 C 7.601562 -11.382812 7.144531 -11.59375 6.53125 -11.59375 C 5.757812 -11.59375 5.238281 -11.175781 4.96875 -10.34375 C 4.695312 -9.507812 4.5625 -8.273438 4.5625 -6.640625 Z M 4.5625 -6.640625 "/></g></g></g><g fill="#ffffff" fill-opacity="1"><g transform="translate(309.304284, 158.541981)"><g><path d="M 7.28125 -11.75 C 6.90625 -11.75 6.613281 -11.710938 6.40625 -11.640625 C 6.207031 -11.578125 6.109375 -11.441406 6.109375 -11.234375 C 6.109375 -11.035156 6.25 -10.71875 6.53125 -10.28125 L 8.140625 -7.9375 L 9.671875 -9.859375 C 10.097656 -10.347656 10.3125 -10.757812 10.3125 -11.09375 C 10.3125 -11.53125 9.929688 -11.75 9.171875 -11.75 L 9.171875 -12.234375 L 13.515625 -12.234375 L 13.515625 -11.75 C 13.023438 -11.71875 12.625 -11.617188 12.3125 -11.453125 C 12.007812 -11.285156 11.664062 -10.960938 11.28125 -10.484375 L 8.625 -7.25 L 12.25 -1.953125 C 12.695312 -1.316406 13.019531 -0.910156 13.21875 -0.734375 C 13.414062 -0.554688 13.65625 -0.46875 13.9375 -0.46875 L 14.046875 -0.46875 L 14.046875 0 L 7.28125 0 L 7.28125 -0.46875 L 7.453125 -0.46875 C 7.847656 -0.46875 8.109375 -0.503906 8.234375 -0.578125 C 8.367188 -0.648438 8.4375 -0.78125 8.4375 -0.96875 C 8.4375 -1.195312 8.3125 -1.5 8.0625 -1.875 L 6.328125 -4.484375 L 4.84375 -2.71875 C 4.28125 -2.03125 4 -1.507812 4 -1.15625 C 4 -0.695312 4.421875 -0.46875 5.265625 -0.46875 L 5.265625 0 L 0.53125 0 L 0.53125 -0.46875 C 1.050781 -0.488281 1.5 -0.585938 1.875 -0.765625 C 2.257812 -0.941406 2.671875 -1.300781 3.109375 -1.84375 L 5.859375 -5.171875 L 2.109375 -10.59375 C 1.847656 -10.96875 1.597656 -11.253906 1.359375 -11.453125 C 1.117188 -11.648438 0.84375 -11.75 0.53125 -11.75 L 0.53125 -12.234375 L 7.28125 -12.234375 Z M 7.28125 -11.75 "/></g></g></g><g fill="#ffffff" fill-opacity="1"><g transform="translate(323.857197, 158.541981)"><g><path d="M 6.875 -11.75 C 6.457031 -11.738281 6.15625 -11.675781 5.96875 -11.5625 C 5.78125 -11.445312 5.6875 -11.253906 5.6875 -10.984375 C 5.6875 -10.617188 5.820312 -10.128906 6.09375 -9.515625 L 8.203125 -4.421875 L 9.5625 -8.375 C 9.9375 -9.445312 10.125 -10.1875 10.125 -10.59375 C 10.125 -11.363281 9.65625 -11.75 8.71875 -11.75 L 8.71875 -12.234375 L 12.734375 -12.234375 L 12.734375 -11.75 C 12.273438 -11.75 11.890625 -11.535156 11.578125 -11.109375 C 11.273438 -10.679688 10.9375 -9.929688 10.5625 -8.859375 L 6.859375 1.765625 C 6.359375 3.191406 5.832031 4.1875 5.28125 4.75 C 4.726562 5.3125 4.039062 5.59375 3.21875 5.59375 C 2.53125 5.59375 1.972656 5.394531 1.546875 5 C 1.128906 4.613281 0.921875 4.125 0.921875 3.53125 C 0.921875 3.039062 1.078125 2.625 1.390625 2.28125 C 1.710938 1.9375 2.101562 1.765625 2.5625 1.765625 C 3.15625 1.765625 3.566406 2.035156 3.796875 2.578125 C 3.878906 2.804688 3.921875 3.097656 3.921875 3.453125 C 3.941406 3.710938 3.976562 3.910156 4.03125 4.046875 C 4.082031 4.179688 4.195312 4.25 4.375 4.25 C 4.726562 4.25 5.0625 3.960938 5.375 3.390625 C 5.695312 2.816406 6.066406 1.867188 6.484375 0.546875 L 2.453125 -9.203125 C 2.078125 -10.078125 1.757812 -10.691406 1.5 -11.046875 C 1.238281 -11.410156 0.890625 -11.644531 0.453125 -11.75 L 0.453125 -12.234375 L 6.875 -12.234375 Z M 6.875 -11.75 "/></g></g></g><g fill="#ffffff" fill-opacity="1"><g transform="translate(337.039181, 158.541981)"><g><path d="M 16.1875 -13.6875 C 16.1875 -12.625 15.816406 -11.734375 15.078125 -11.015625 C 14.335938 -10.296875 13.285156 -9.804688 11.921875 -9.546875 L 11.921875 -9.484375 C 13.460938 -9.253906 14.6875 -8.726562 15.59375 -7.90625 C 16.5 -7.082031 16.953125 -6.070312 16.953125 -4.875 C 16.953125 -3.851562 16.644531 -2.972656 16.03125 -2.234375 C 15.425781 -1.503906 14.617188 -0.945312 13.609375 -0.5625 C 12.597656 -0.1875 11.503906 0 10.328125 0 L 0.390625 0 L 0.390625 -0.46875 C 1.046875 -0.46875 1.539062 -0.515625 1.875 -0.609375 C 2.207031 -0.710938 2.457031 -0.921875 2.625 -1.234375 C 2.789062 -1.554688 2.875 -2.054688 2.875 -2.734375 L 2.875 -15.34375 C 2.875 -15.976562 2.796875 -16.457031 2.640625 -16.78125 C 2.492188 -17.101562 2.257812 -17.320312 1.9375 -17.4375 C 1.613281 -17.550781 1.148438 -17.617188 0.546875 -17.640625 L 0.546875 -18.109375 L 9.96875 -18.109375 C 10.914062 -18.109375 11.863281 -17.96875 12.8125 -17.6875 C 13.757812 -17.40625 14.554688 -16.929688 15.203125 -16.265625 C 15.859375 -15.609375 16.1875 -14.75 16.1875 -13.6875 Z M 7.796875 -9.890625 C 9.242188 -9.890625 10.265625 -10.253906 10.859375 -10.984375 C 11.453125 -11.710938 11.75 -12.554688 11.75 -13.515625 C 11.75 -14.410156 11.484375 -15.238281 10.953125 -16 C 10.429688 -16.757812 9.554688 -17.140625 8.328125 -17.140625 L 7.09375 -17.140625 L 7.09375 -9.890625 Z M 8.625 -0.921875 C 9.707031 -0.921875 10.582031 -1.265625 11.25 -1.953125 C 11.914062 -2.640625 12.25 -3.550781 12.25 -4.6875 C 12.25 -5.882812 11.878906 -6.882812 11.140625 -7.6875 C 10.410156 -8.5 9.253906 -8.90625 7.671875 -8.90625 L 7.09375 -8.90625 L 7.09375 -2.6875 C 7.09375 -1.988281 7.210938 -1.519531 7.453125 -1.28125 C 7.703125 -1.039062 8.09375 -0.921875 8.625 -0.921875 Z M 8.625 -0.921875 "/></g></g></g><g fill="#ffffff" fill-opacity="1"><g transform="translate(283.20429, 268.973758)"><g><path d="M 19.40625 -8.9375 C 19.40625 -7.070312 19.003906 -5.460938 18.203125 -4.109375 C 17.398438 -2.753906 16.304688 -1.726562 14.921875 -1.03125 C 13.546875 -0.34375 12.015625 0 10.328125 0 L 0.453125 0 L 0.453125 -0.46875 C 1.097656 -0.46875 1.585938 -0.515625 1.921875 -0.609375 C 2.253906 -0.710938 2.503906 -0.921875 2.671875 -1.234375 C 2.835938 -1.554688 2.921875 -2.054688 2.921875 -2.734375 L 2.921875 -15.34375 C 2.921875 -16.03125 2.832031 -16.535156 2.65625 -16.859375 C 2.488281 -17.179688 2.234375 -17.390625 1.890625 -17.484375 C 1.554688 -17.585938 1.078125 -17.640625 0.453125 -17.640625 L 0.453125 -18.109375 L 9.90625 -18.109375 C 11.632812 -18.109375 13.21875 -17.757812 14.65625 -17.0625 C 16.09375 -16.375 17.242188 -15.335938 18.109375 -13.953125 C 18.972656 -12.578125 19.40625 -10.90625 19.40625 -8.9375 Z M 9.171875 -0.921875 C 12.859375 -0.921875 14.703125 -3.546875 14.703125 -8.796875 C 14.703125 -11.734375 14.171875 -13.863281 13.109375 -15.1875 C 12.046875 -16.519531 10.707031 -17.1875 9.09375 -17.1875 L 7.140625 -17.1875 L 7.140625 -2.6875 C 7.140625 -2.175781 7.195312 -1.796875 7.3125 -1.546875 C 7.425781 -1.304688 7.625 -1.140625 7.90625 -1.046875 C 8.1875 -0.960938 8.609375 -0.921875 9.171875 -0.921875 Z M 9.171875 -0.921875 "/></g></g></g><g fill="#ffffff" fill-opacity="1"><g transform="translate(303.530913, 268.973758)"><g><path d="M 6.109375 -12.515625 C 7.179688 -12.515625 8.082031 -12.242188 8.8125 -11.703125 C 9.539062 -11.160156 10.085938 -10.460938 10.453125 -9.609375 C 10.828125 -8.753906 11.023438 -7.867188 11.046875 -6.953125 L 11.046875 -6.515625 L 4.109375 -6.515625 C 4.210938 -5.054688 4.59375 -3.878906 5.25 -2.984375 C 5.914062 -2.085938 6.738281 -1.640625 7.71875 -1.640625 C 8.351562 -1.640625 8.894531 -1.804688 9.34375 -2.140625 C 9.789062 -2.484375 10.195312 -2.984375 10.5625 -3.640625 L 11.046875 -3.34375 C 10.441406 -2.082031 9.726562 -1.144531 8.90625 -0.53125 C 8.082031 0.0703125 7.109375 0.375 5.984375 0.375 C 4.859375 0.375 3.894531 0.0976562 3.09375 -0.453125 C 2.289062 -1.015625 1.675781 -1.769531 1.25 -2.71875 C 0.832031 -3.664062 0.625 -4.726562 0.625 -5.90625 C 0.625 -7.082031 0.867188 -8.175781 1.359375 -9.1875 C 1.859375 -10.195312 2.53125 -11.003906 3.375 -11.609375 C 4.21875 -12.210938 5.128906 -12.515625 6.109375 -12.515625 Z M 7.828125 -8.046875 C 7.828125 -9.285156 7.691406 -10.203125 7.421875 -10.796875 C 7.148438 -11.398438 6.710938 -11.703125 6.109375 -11.703125 C 5.484375 -11.703125 4.992188 -11.3125 4.640625 -10.53125 C 4.285156 -9.75 4.109375 -8.847656 4.109375 -7.828125 L 4.109375 -7.375 L 7.828125 -7.375 Z M 7.828125 -8.046875 "/></g></g></g><g fill="#ffffff" fill-opacity="1"><g transform="translate(315.078333, 268.973758)"><g><path d="M 5.53125 -1.765625 C 5.53125 -1.328125 5.632812 -1 5.84375 -0.78125 C 6.0625 -0.570312 6.398438 -0.46875 6.859375 -0.46875 L 6.859375 0 L 0.3125 0 L 0.3125 -0.46875 C 0.863281 -0.46875 1.269531 -0.585938 1.53125 -0.828125 C 1.789062 -1.066406 1.921875 -1.429688 1.921875 -1.921875 L 1.921875 -16.03125 C 1.921875 -16.625 1.800781 -17.035156 1.5625 -17.265625 C 1.332031 -17.492188 0.914062 -17.617188 0.3125 -17.640625 L 0.3125 -18.109375 L 5.53125 -18.109375 Z M 5.53125 -1.765625 "/></g></g></g><g fill="#ffffff" fill-opacity="1"><g transform="translate(322.222967, 268.973758)"><g><path d="M 16.1875 -13.6875 C 16.1875 -12.625 15.816406 -11.734375 15.078125 -11.015625 C 14.335938 -10.296875 13.285156 -9.804688 11.921875 -9.546875 L 11.921875 -9.484375 C 13.460938 -9.253906 14.6875 -8.726562 15.59375 -7.90625 C 16.5 -7.082031 16.953125 -6.070312 16.953125 -4.875 C 16.953125 -3.851562 16.644531 -2.972656 16.03125 -2.234375 C 15.425781 -1.503906 14.617188 -0.945312 13.609375 -0.5625 C 12.597656 -0.1875 11.503906 0 10.328125 0 L 0.390625 0 L 0.390625 -0.46875 C 1.046875 -0.46875 1.539062 -0.515625 1.875 -0.609375 C 2.207031 -0.710938 2.457031 -0.921875 2.625 -1.234375 C 2.789062 -1.554688 2.875 -2.054688 2.875 -2.734375 L 2.875 -15.34375 C 2.875 -15.976562 2.796875 -16.457031 2.640625 -16.78125 C 2.492188 -17.101562 2.257812 -17.320312 1.9375 -17.4375 C 1.613281 -17.550781 1.148438 -17.617188 0.546875 -17.640625 L 0.546875 -18.109375 L 9.96875 -18.109375 C 10.914062 -18.109375 11.863281 -17.96875 12.8125 -17.6875 C 13.757812 -17.40625 14.554688 -16.929688 15.203125 -16.265625 C 15.859375 -15.609375 16.1875 -14.75 16.1875 -13.6875 Z M 7.796875 -9.890625 C 9.242188 -9.890625 10.265625 -10.253906 10.859375 -10.984375 C 11.453125 -11.710938 11.75 -12.554688 11.75 -13.515625 C 11.75 -14.410156 11.484375 -15.238281 10.953125 -16 C 10.429688 -16.757812 9.554688 -17.140625 8.328125 -17.140625 L 7.09375 -17.140625 L 7.09375 -9.890625 Z M 8.625 -0.921875 C 9.707031 -0.921875 10.582031 -1.265625 11.25 -1.953125 C 11.914062 -2.640625 12.25 -3.550781 12.25 -4.6875 C 12.25 -5.882812 11.878906 -6.882812 11.140625 -7.6875 C 10.410156 -8.5 9.253906 -8.90625 7.671875 -8.90625 L 7.09375 -8.90625 L 7.09375 -2.6875 C 7.09375 -1.988281 7.210938 -1.519531 7.453125 -1.28125 C 7.703125 -1.039062 8.09375 -0.921875 8.625 -0.921875 Z M 8.625 -0.921875 "/></g></g></g><g clip-path="url(#e0ed8bc4e1)"><g clip-path="url(#87f56ebda0)"><path fill="#737373" d="M 432.746094 233.210938 L 577.824219 233.210938 L 577.824219 325.828125 L 432.746094 325.828125 Z M 432.746094 233.210938 " fill-opacity="1" fill-rule="nonzero"/></g></g><g clip-path="url(#34581fd1ff)"><g clip-path="url(#98602bf828)"><path fill="#2f2f2f" d="M 432.746094 124.171875 L 577.824219 124.171875 L 577.824219 216.789062 L 432.746094 216.789062 Z M 432.746094 124.171875 " fill-opacity="1" fill-rule="nonzero"/></g></g><g fill="#ffffff" fill-opacity="1"><g transform="translate(461.427455, 158.541981)"><g><path d="M 16.953125 -13.203125 C 16.953125 -12.285156 16.675781 -11.453125 16.125 -10.703125 C 15.582031 -9.960938 14.78125 -9.375 13.71875 -8.9375 C 12.65625 -8.5 11.382812 -8.28125 9.90625 -8.28125 L 7.28125 -8.28125 L 7.28125 -2.734375 C 7.28125 -2.085938 7.363281 -1.601562 7.53125 -1.28125 C 7.695312 -0.96875 7.941406 -0.757812 8.265625 -0.65625 C 8.585938 -0.550781 9.054688 -0.488281 9.671875 -0.46875 L 9.671875 0 L 0.46875 0 L 0.46875 -0.46875 C 1.132812 -0.488281 1.644531 -0.546875 2 -0.640625 C 2.351562 -0.742188 2.617188 -0.953125 2.796875 -1.265625 C 2.972656 -1.578125 3.0625 -2.066406 3.0625 -2.734375 L 3.0625 -15.53125 C 3.0625 -16.375 2.847656 -16.9375 2.421875 -17.21875 C 2.003906 -17.5 1.351562 -17.640625 0.46875 -17.640625 L 0.46875 -18.109375 L 10.25 -18.109375 C 11.34375 -18.109375 12.398438 -17.921875 13.421875 -17.546875 C 14.453125 -17.179688 15.296875 -16.628906 15.953125 -15.890625 C 16.617188 -15.148438 16.953125 -14.253906 16.953125 -13.203125 Z M 12.421875 -13.125 C 12.421875 -14.25 12.242188 -15.097656 11.890625 -15.671875 C 11.535156 -16.253906 11.070312 -16.644531 10.5 -16.84375 C 9.925781 -17.039062 9.210938 -17.140625 8.359375 -17.140625 L 7.28125 -17.140625 L 7.28125 -9.25 L 8.984375 -9.25 C 9.972656 -9.25 10.789062 -9.554688 11.4375 -10.171875 C 12.09375 -10.785156 12.421875 -11.769531 12.421875 -13.125 Z M 12.421875 -13.125 "/></g></g></g><g fill="#ffffff" fill-opacity="1"><g transform="translate(479.012224, 158.541981)"><g><path d="M 8.171875 -12.515625 C 8.585938 -12.515625 8.925781 -12.351562 9.1875 -12.03125 C 9.457031 -11.707031 9.59375 -11.289062 9.59375 -10.78125 C 9.59375 -10.238281 9.457031 -9.800781 9.1875 -9.46875 C 8.925781 -9.132812 8.570312 -8.96875 8.125 -8.96875 C 7.90625 -8.96875 7.71875 -9.007812 7.5625 -9.09375 C 7.40625 -9.175781 7.210938 -9.300781 6.984375 -9.46875 C 6.648438 -9.695312 6.40625 -9.8125 6.25 -9.8125 C 5.96875 -9.8125 5.726562 -9.582031 5.53125 -9.125 C 5.34375 -8.664062 5.25 -8.144531 5.25 -7.5625 L 5.25 -2.078125 C 5.25 -1.503906 5.363281 -1.09375 5.59375 -0.84375 C 5.820312 -0.59375 6.234375 -0.46875 6.828125 -0.46875 L 6.828125 0 L 0.296875 0 L 0.296875 -0.46875 C 1.191406 -0.46875 1.640625 -1 1.640625 -2.0625 L 1.640625 -10.171875 C 1.640625 -11.210938 1.191406 -11.738281 0.296875 -11.75 L 0.296875 -12.234375 L 5.25 -12.234375 L 5.25 -10.046875 L 5.296875 -10.046875 C 6.117188 -11.691406 7.078125 -12.515625 8.171875 -12.515625 Z M 8.171875 -12.515625 "/></g></g></g><g fill="#ffffff" fill-opacity="1"><g transform="translate(489.162352, 158.541981)"><g><path d="M 6.53125 -12.515625 C 7.601562 -12.515625 8.582031 -12.257812 9.46875 -11.75 C 10.363281 -11.238281 11.078125 -10.492188 11.609375 -9.515625 C 12.148438 -8.546875 12.421875 -7.382812 12.421875 -6.03125 C 12.421875 -4.59375 12.117188 -3.394531 11.515625 -2.4375 C 10.921875 -1.476562 10.175781 -0.769531 9.28125 -0.3125 C 8.394531 0.144531 7.515625 0.375 6.640625 0.375 C 5.671875 0.375 4.734375 0.125 3.828125 -0.375 C 2.929688 -0.882812 2.195312 -1.625 1.625 -2.59375 C 1.050781 -3.570312 0.765625 -4.742188 0.765625 -6.109375 C 0.765625 -7.335938 1.007812 -8.4375 1.5 -9.40625 C 1.988281 -10.375 2.671875 -11.132812 3.546875 -11.6875 C 4.429688 -12.238281 5.425781 -12.515625 6.53125 -12.515625 Z M 4.5625 -6.640625 C 4.5625 -5.054688 4.613281 -3.835938 4.71875 -2.984375 C 4.820312 -2.140625 5.019531 -1.519531 5.3125 -1.125 C 5.601562 -0.738281 6.03125 -0.546875 6.59375 -0.546875 C 7.101562 -0.546875 7.503906 -0.703125 7.796875 -1.015625 C 8.097656 -1.335938 8.3125 -1.851562 8.4375 -2.5625 C 8.5625 -3.28125 8.625 -4.253906 8.625 -5.484375 C 8.625 -7.066406 8.578125 -8.273438 8.484375 -9.109375 C 8.398438 -9.941406 8.207031 -10.5625 7.90625 -10.96875 C 7.601562 -11.382812 7.144531 -11.59375 6.53125 -11.59375 C 5.757812 -11.59375 5.238281 -11.175781 4.96875 -10.34375 C 4.695312 -9.507812 4.5625 -8.273438 4.5625 -6.640625 Z M 4.5625 -6.640625 "/></g></g></g><g fill="#ffffff" fill-opacity="1"><g transform="translate(502.344335, 158.541981)"><g><path d="M 7.28125 -11.75 C 6.90625 -11.75 6.613281 -11.710938 6.40625 -11.640625 C 6.207031 -11.578125 6.109375 -11.441406 6.109375 -11.234375 C 6.109375 -11.035156 6.25 -10.71875 6.53125 -10.28125 L 8.140625 -7.9375 L 9.671875 -9.859375 C 10.097656 -10.347656 10.3125 -10.757812 10.3125 -11.09375 C 10.3125 -11.53125 9.929688 -11.75 9.171875 -11.75 L 9.171875 -12.234375 L 13.515625 -12.234375 L 13.515625 -11.75 C 13.023438 -11.71875 12.625 -11.617188 12.3125 -11.453125 C 12.007812 -11.285156 11.664062 -10.960938 11.28125 -10.484375 L 8.625 -7.25 L 12.25 -1.953125 C 12.695312 -1.316406 13.019531 -0.910156 13.21875 -0.734375 C 13.414062 -0.554688 13.65625 -0.46875 13.9375 -0.46875 L 14.046875 -0.46875 L 14.046875 0 L 7.28125 0 L 7.28125 -0.46875 L 7.453125 -0.46875 C 7.847656 -0.46875 8.109375 -0.503906 8.234375 -0.578125 C 8.367188 -0.648438 8.4375 -0.78125 8.4375 -0.96875 C 8.4375 -1.195312 8.3125 -1.5 8.0625 -1.875 L 6.328125 -4.484375 L 4.84375 -2.71875 C 4.28125 -2.03125 4 -1.507812 4 -1.15625 C 4 -0.695312 4.421875 -0.46875 5.265625 -0.46875 L 5.265625 0 L 0.53125 0 L 0.53125 -0.46875 C 1.050781 -0.488281 1.5 -0.585938 1.875 -0.765625 C 2.257812 -0.941406 2.671875 -1.300781 3.109375 -1.84375 L 5.859375 -5.171875 L 2.109375 -10.59375 C 1.847656 -10.96875 1.597656 -11.253906 1.359375 -11.453125 C 1.117188 -11.648438 0.84375 -11.75 0.53125 -11.75 L 0.53125 -12.234375 L 7.28125 -12.234375 Z M 7.28125 -11.75 "/></g></g></g><g fill="#ffffff" fill-opacity="1"><g transform="translate(516.897249, 158.541981)"><g><path d="M 6.875 -11.75 C 6.457031 -11.738281 6.15625 -11.675781 5.96875 -11.5625 C 5.78125 -11.445312 5.6875 -11.253906 5.6875 -10.984375 C 5.6875 -10.617188 5.820312 -10.128906 6.09375 -9.515625 L 8.203125 -4.421875 L 9.5625 -8.375 C 9.9375 -9.445312 10.125 -10.1875 10.125 -10.59375 C 10.125 -11.363281 9.65625 -11.75 8.71875 -11.75 L 8.71875 -12.234375 L 12.734375 -12.234375 L 12.734375 -11.75 C 12.273438 -11.75 11.890625 -11.535156 11.578125 -11.109375 C 11.273438 -10.679688 10.9375 -9.929688 10.5625 -8.859375 L 6.859375 1.765625 C 6.359375 3.191406 5.832031 4.1875 5.28125 4.75 C 4.726562 5.3125 4.039062 5.59375 3.21875 5.59375 C 2.53125 5.59375 1.972656 5.394531 1.546875 5 C 1.128906 4.613281 0.921875 4.125 0.921875 3.53125 C 0.921875 3.039062 1.078125 2.625 1.390625 2.28125 C 1.710938 1.9375 2.101562 1.765625 2.5625 1.765625 C 3.15625 1.765625 3.566406 2.035156 3.796875 2.578125 C 3.878906 2.804688 3.921875 3.097656 3.921875 3.453125 C 3.941406 3.710938 3.976562 3.910156 4.03125 4.046875 C 4.082031 4.179688 4.195312 4.25 4.375 4.25 C 4.726562 4.25 5.0625 3.960938 5.375 3.390625 C 5.695312 2.816406 6.066406 1.867188 6.484375 0.546875 L 2.453125 -9.203125 C 2.078125 -10.078125 1.757812 -10.691406 1.5 -11.046875 C 1.238281 -11.410156 0.890625 -11.644531 0.453125 -11.75 L 0.453125 -12.234375 L 6.875 -12.234375 Z M 6.875 -11.75 "/></g></g></g><g fill="#ffffff" fill-opacity="1"><g transform="translate(530.079232, 158.541981)"><g><path d="M 10.625 -18.5 C 11.539062 -18.5 12.296875 -18.421875 12.890625 -18.265625 C 13.484375 -18.109375 14.125 -17.890625 14.8125 -17.609375 C 14.882812 -17.578125 15.066406 -17.503906 15.359375 -17.390625 C 15.648438 -17.273438 15.90625 -17.21875 16.125 -17.21875 C 16.800781 -17.21875 17.21875 -17.640625 17.375 -18.484375 L 17.890625 -18.484375 L 17.890625 -12.421875 L 17.375 -12.421875 C 17.226562 -13.421875 16.867188 -14.289062 16.296875 -15.03125 C 15.734375 -15.78125 15.046875 -16.351562 14.234375 -16.75 C 13.421875 -17.144531 12.59375 -17.34375 11.75 -17.34375 C 10.5625 -17.34375 9.519531 -16.984375 8.625 -16.265625 C 7.738281 -15.554688 7.0625 -14.566406 6.59375 -13.296875 C 6.132812 -12.035156 5.90625 -10.609375 5.90625 -9.015625 C 5.90625 -6.429688 6.414062 -4.40625 7.4375 -2.9375 C 8.457031 -1.46875 9.863281 -0.734375 11.65625 -0.734375 C 12.789062 -0.734375 13.816406 -1.003906 14.734375 -1.546875 C 15.648438 -2.097656 16.582031 -2.925781 17.53125 -4.03125 L 17.53125 -2.578125 C 16.539062 -1.546875 15.515625 -0.796875 14.453125 -0.328125 C 13.390625 0.140625 12.175781 0.375 10.8125 0.375 C 8.875 0.375 7.179688 -0.03125 5.734375 -0.84375 C 4.285156 -1.65625 3.171875 -2.753906 2.390625 -4.140625 C 1.609375 -5.523438 1.21875 -7.0625 1.21875 -8.75 C 1.21875 -10.488281 1.640625 -12.101562 2.484375 -13.59375 C 3.335938 -15.09375 4.484375 -16.285156 5.921875 -17.171875 C 7.367188 -18.054688 8.9375 -18.5 10.625 -18.5 Z M 10.625 -18.5 "/></g></g></g><g fill="#ffffff" fill-opacity="1"><g transform="translate(476.237905, 268.973758)"><g><path d="M 19.40625 -8.9375 C 19.40625 -7.070312 19.003906 -5.460938 18.203125 -4.109375 C 17.398438 -2.753906 16.304688 -1.726562 14.921875 -1.03125 C 13.546875 -0.34375 12.015625 0 10.328125 0 L 0.453125 0 L 0.453125 -0.46875 C 1.097656 -0.46875 1.585938 -0.515625 1.921875 -0.609375 C 2.253906 -0.710938 2.503906 -0.921875 2.671875 -1.234375 C 2.835938 -1.554688 2.921875 -2.054688 2.921875 -2.734375 L 2.921875 -15.34375 C 2.921875 -16.03125 2.832031 -16.535156 2.65625 -16.859375 C 2.488281 -17.179688 2.234375 -17.390625 1.890625 -17.484375 C 1.554688 -17.585938 1.078125 -17.640625 0.453125 -17.640625 L 0.453125 -18.109375 L 9.90625 -18.109375 C 11.632812 -18.109375 13.21875 -17.757812 14.65625 -17.0625 C 16.09375 -16.375 17.242188 -15.335938 18.109375 -13.953125 C 18.972656 -12.578125 19.40625 -10.90625 19.40625 -8.9375 Z M 9.171875 -0.921875 C 12.859375 -0.921875 14.703125 -3.546875 14.703125 -8.796875 C 14.703125 -11.734375 14.171875 -13.863281 13.109375 -15.1875 C 12.046875 -16.519531 10.707031 -17.1875 9.09375 -17.1875 L 7.140625 -17.1875 L 7.140625 -2.6875 C 7.140625 -2.175781 7.195312 -1.796875 7.3125 -1.546875 C 7.425781 -1.304688 7.625 -1.140625 7.90625 -1.046875 C 8.1875 -0.960938 8.609375 -0.921875 9.171875 -0.921875 Z M 9.171875 -0.921875 "/></g></g></g><g fill="#ffffff" fill-opacity="1"><g transform="translate(496.564528, 268.973758)"><g><path d="M 6.109375 -12.515625 C 7.179688 -12.515625 8.082031 -12.242188 8.8125 -11.703125 C 9.539062 -11.160156 10.085938 -10.460938 10.453125 -9.609375 C 10.828125 -8.753906 11.023438 -7.867188 11.046875 -6.953125 L 11.046875 -6.515625 L 4.109375 -6.515625 C 4.210938 -5.054688 4.59375 -3.878906 5.25 -2.984375 C 5.914062 -2.085938 6.738281 -1.640625 7.71875 -1.640625 C 8.351562 -1.640625 8.894531 -1.804688 9.34375 -2.140625 C 9.789062 -2.484375 10.195312 -2.984375 10.5625 -3.640625 L 11.046875 -3.34375 C 10.441406 -2.082031 9.726562 -1.144531 8.90625 -0.53125 C 8.082031 0.0703125 7.109375 0.375 5.984375 0.375 C 4.859375 0.375 3.894531 0.0976562 3.09375 -0.453125 C 2.289062 -1.015625 1.675781 -1.769531 1.25 -2.71875 C 0.832031 -3.664062 0.625 -4.726562 0.625 -5.90625 C 0.625 -7.082031 0.867188 -8.175781 1.359375 -9.1875 C 1.859375 -10.195312 2.53125 -11.003906 3.375 -11.609375 C 4.21875 -12.210938 5.128906 -12.515625 6.109375 -12.515625 Z M 7.828125 -8.046875 C 7.828125 -9.285156 7.691406 -10.203125 7.421875 -10.796875 C 7.148438 -11.398438 6.710938 -11.703125 6.109375 -11.703125 C 5.484375 -11.703125 4.992188 -11.3125 4.640625 -10.53125 C 4.285156 -9.75 4.109375 -8.847656 4.109375 -7.828125 L 4.109375 -7.375 L 7.828125 -7.375 Z M 7.828125 -8.046875 "/></g></g></g><g fill="#ffffff" fill-opacity="1"><g transform="translate(508.111948, 268.973758)"><g><path d="M 5.53125 -1.765625 C 5.53125 -1.328125 5.632812 -1 5.84375 -0.78125 C 6.0625 -0.570312 6.398438 -0.46875 6.859375 -0.46875 L 6.859375 0 L 0.3125 0 L 0.3125 -0.46875 C 0.863281 -0.46875 1.269531 -0.585938 1.53125 -0.828125 C 1.789062 -1.066406 1.921875 -1.429688 1.921875 -1.921875 L 1.921875 -16.03125 C 1.921875 -16.625 1.800781 -17.035156 1.5625 -17.265625 C 1.332031 -17.492188 0.914062 -17.617188 0.3125 -17.640625 L 0.3125 -18.109375 L 5.53125 -18.109375 Z M 5.53125 -1.765625 "/></g></g></g><g fill="#ffffff" fill-opacity="1"><g transform="translate(515.256582, 268.973758)"><g><path d="M 10.625 -18.5 C 11.539062 -18.5 12.296875 -18.421875 12.890625 -18.265625 C 13.484375 -18.109375 14.125 -17.890625 14.8125 -17.609375 C 14.882812 -17.578125 15.066406 -17.503906 15.359375 -17.390625 C 15.648438 -17.273438 15.90625 -17.21875 16.125 -17.21875 C 16.800781 -17.21875 17.21875 -17.640625 17.375 -18.484375 L 17.890625 -18.484375 L 17.890625 -12.421875 L 17.375 -12.421875 C 17.226562 -13.421875 16.867188 -14.289062 16.296875 -15.03125 C 15.734375 -15.78125 15.046875 -16.351562 14.234375 -16.75 C 13.421875 -17.144531 12.59375 -17.34375 11.75 -17.34375 C 10.5625 -17.34375 9.519531 -16.984375 8.625 -16.265625 C 7.738281 -15.554688 7.0625 -14.566406 6.59375 -13.296875 C 6.132812 -12.035156 5.90625 -10.609375 5.90625 -9.015625 C 5.90625 -6.429688 6.414062 -4.40625 7.4375 -2.9375 C 8.457031 -1.46875 9.863281 -0.734375 11.65625 -0.734375 C 12.789062 -0.734375 13.816406 -1.003906 14.734375 -1.546875 C 15.648438 -2.097656 16.582031 -2.925781 17.53125 -4.03125 L 17.53125 -2.578125 C 16.539062 -1.546875 15.515625 -0.796875 14.453125 -0.328125 C 13.390625 0.140625 12.175781 0.375 10.8125 0.375 C 8.875 0.375 7.179688 -0.03125 5.734375 -0.84375 C 4.285156 -1.65625 3.171875 -2.753906 2.390625 -4.140625 C 1.609375 -5.523438 1.21875 -7.0625 1.21875 -8.75 C 1.21875 -10.488281 1.640625 -12.101562 2.484375 -13.59375 C 3.335938 -15.09375 4.484375 -16.285156 5.921875 -17.171875 C 7.367188 -18.054688 8.9375 -18.5 10.625 -18.5 Z M 10.625 -18.5 "/></g></g></g><path stroke-linecap="butt" transform="matrix(0, 0.75, -0.75, 0, 118.984618, 216.790999)" fill="none" stroke-linejoin="miter" d="M -0.00258215 2.000324 L 21.893253 2.000324 " stroke="#000000" stroke-width="4" stroke-opacity="1" stroke-miterlimit="4"/><path stroke-linecap="butt" transform="matrix(0, -0.75, 0.75, 0, 310.008151, 233.208966)" fill="none" stroke-linejoin="miter" d="M 0.00257945 1.999548 L 21.893206 1.999548 " stroke="#000000" stroke-width="4" stroke-opacity="1" stroke-miterlimit="4"/><path stroke-linecap="butt" transform="matrix(0.000000001309, 0.75, -0.75, 0.000000001309, 499.248309, 213.054226)" fill="none" stroke-linejoin="miter" d="M 0.000615589 1.997746 L 28.542284 1.997746 " stroke="#000000" stroke-width="4" stroke-opacity="1" stroke-miterlimit="4"/><path stroke-linecap="butt" transform="matrix(0.307689, -0.683979, 0.683979, 0.307689, 188.601677, 278.899901)" fill="none" stroke-linejoin="miter" d="M -0.000905296 1.999113 L 159.417478 1.998392 " stroke="#000000" stroke-width="4" stroke-opacity="1" stroke-miterlimit="4"/><path stroke-linecap="butt" transform="matrix(-0.307689, -0.683979, 0.683979, -0.307689, 237.649213, 280.130633)" fill="none" stroke-linejoin="miter" d="M 0.000395431 1.997917 L 159.418778 1.998638 " stroke="#000000" stroke-width="4" stroke-opacity="1" stroke-miterlimit="4"/><path stroke-linecap="butt" transform="matrix(0.306115, -0.684685, 0.684685, 0.306115, 382.625608, 278.905788)" fill="none" stroke-linejoin="miter" d="M -0.0012352 2.002182 L 159.253037 2.002028 " stroke="#000000" stroke-width="4" stroke-opacity="1" stroke-miterlimit="4"/><path stroke-linecap="butt" transform="matrix(-0.306115, -0.684685, 0.684685, -0.306115, 431.374395, 280.130251)" fill="none" stroke-linejoin="miter" d="M -0.00097977 1.997258 L 159.253292 1.997412 " stroke="#000000" stroke-width="4" stroke-opacity="1" stroke-miterlimit="4"/></svg>