<?xml version="1.0" encoding="us-ascii" standalone="no"?><svg xmlns="http://www.w3.org/2000/svg" xmlns:xlink="http://www.w3.org/1999/xlink" contentStyleType="text/css" height="1309px" preserveAspectRatio="none" style="width:1772px;height:1309px;background:#FFFFFF;" version="1.1" viewBox="0 0 1772 1309" width="1772px" zoomAndPan="magnify"><defs/><g><text fill="#000000" font-family="sans-serif" font-size="14" font-weight="bold" lengthAdjust="spacing" textLength="494" x="635" y="28.5352">Alice's Private Transfer ERC-20 to Bob without ZWToken Awareness</text><rect fill="none" height="101.9316" style="stroke:#000000;stroke-width:1.5;" width="618" x="1079" y="379.8398"/><rect fill="none" height="118.8867" style="stroke:#000000;stroke-width:1.5;" width="1229" x="10" y="630.7031"/><line style="stroke:#181818;stroke-width:0.5;stroke-dasharray:5.0,5.0;" x1="44" x2="44" y1="118.9766" y2="1229.0059"/><line style="stroke:#181818;stroke-width:0.5;stroke-dasharray:5.0,5.0;" x1="440.5" x2="440.5" y1="118.9766" y2="1229.0059"/><line style="stroke:#181818;stroke-width:0.5;stroke-dasharray:5.0,5.0;" x1="523.5" x2="523.5" y1="118.9766" y2="1229.0059"/><line style="stroke:#181818;stroke-width:0.5;stroke-dasharray:5.0,5.0;" x1="1159" x2="1159" y1="118.9766" y2="1229.0059"/><line style="stroke:#181818;stroke-width:0.5;stroke-dasharray:5.0,5.0;" x1="1692" x2="1692" y1="118.9766" y2="1229.0059"/><text fill="#000000" font-family="sans-serif" font-size="14" lengthAdjust="spacing" textLength="42" x="20" y="116.0234">Alice1</text><ellipse cx="44" cy="50.9883" fill="#E2E2F0" rx="8" ry="8" style="stroke:#181818;stroke-width:0.5;"/><path d="M44,58.9883 L44,85.9883 M31,66.9883 L57,66.9883 M44,85.9883 L31,100.9883 M44,85.9883 L57,100.9883 " fill="none" style="stroke:#181818;stroke-width:0.5;"/><text fill="#000000" font-family="sans-serif" font-size="14" lengthAdjust="spacing" textLength="42" x="20" y="1241.541">Alice1</text><ellipse cx="44" cy="1252.9941" fill="#E2E2F0" rx="8" ry="8" style="stroke:#181818;stroke-width:0.5;"/><path d="M44,1260.9941 L44,1287.9941 M31,1268.9941 L57,1268.9941 M44,1287.9941 L31,1302.9941 M44,1287.9941 L57,1302.9941 " fill="none" style="stroke:#181818;stroke-width:0.5;"/><text fill="#000000" font-family="sans-serif" font-size="14" lengthAdjust="spacing" textLength="107" x="384.5" y="116.0234">Alice2 / Relayer</text><ellipse cx="441" cy="50.9883" fill="#E2E2F0" rx="8" ry="8" style="stroke:#181818;stroke-width:0.5;"/><path d="M441,58.9883 L441,85.9883 M428,66.9883 L454,66.9883 M441,85.9883 L428,100.9883 M441,85.9883 L454,100.9883 " fill="none" style="stroke:#181818;stroke-width:0.5;"/><text fill="#000000" font-family="sans-serif" font-size="14" lengthAdjust="spacing" textLength="107" x="384.5" y="1241.541">Alice2 / Relayer</text><ellipse cx="441" cy="1252.9941" fill="#E2E2F0" rx="8" ry="8" style="stroke:#181818;stroke-width:0.5;"/><path d="M441,1260.9941 L441,1287.9941 M428,1268.9941 L454,1268.9941 M441,1287.9941 L428,1302.9941 M441,1287.9941 L454,1302.9941 " fill="none" style="stroke:#181818;stroke-width:0.5;"/><text fill="#000000" font-family="sans-serif" font-size="14" lengthAdjust="spacing" textLength="26" x="507.5" y="116.0234">Bob</text><ellipse cx="523.5" cy="50.9883" fill="#E2E2F0" rx="8" ry="8" style="stroke:#181818;stroke-width:0.5;"/><path d="M523.5,58.9883 L523.5,85.9883 M510.5,66.9883 L536.5,66.9883 M523.5,85.9883 L510.5,100.9883 M523.5,85.9883 L536.5,100.9883 " fill="none" style="stroke:#181818;stroke-width:0.5;"/><text fill="#000000" font-family="sans-serif" font-size="14" lengthAdjust="spacing" textLength="26" x="507.5" y="1241.541">Bob</text><ellipse cx="523.5" cy="1252.9941" fill="#E2E2F0" rx="8" ry="8" style="stroke:#181818;stroke-width:0.5;"/><path d="M523.5,1260.9941 L523.5,1287.9941 M510.5,1268.9941 L536.5,1268.9941 M523.5,1287.9941 L510.5,1302.9941 M523.5,1287.9941 L536.5,1302.9941 " fill="none" style="stroke:#181818;stroke-width:0.5;"/><rect fill="#E2E2F0" height="30.4883" rx="2.5" ry="2.5" style="stroke:#181818;stroke-width:0.5;" width="140" x="1089" y="87.4883"/><text fill="#000000" font-family="sans-serif" font-size="14" lengthAdjust="spacing" textLength="126" x="1096" y="108.0234">ZWToken Contract</text><rect fill="#E2E2F0" height="30.4883" rx="2.5" ry="2.5" style="stroke:#181818;stroke-width:0.5;" width="140" x="1089" y="1228.0059"/><text fill="#000000" font-family="sans-serif" font-size="14" lengthAdjust="spacing" textLength="126" x="1096" y="1248.541">ZWToken Contract</text><rect fill="#E2E2F0" height="30.4883" rx="2.5" ry="2.5" style="stroke:#181818;stroke-width:0.5;" width="136" x="1624" y="87.4883"/><text fill="#000000" font-family="sans-serif" font-size="14" lengthAdjust="spacing" textLength="122" x="1631" y="108.0234">Underlying Token</text><rect fill="#E2E2F0" height="30.4883" rx="2.5" ry="2.5" style="stroke:#181818;stroke-width:0.5;" width="136" x="1624" y="1228.0059"/><text fill="#000000" font-family="sans-serif" font-size="14" lengthAdjust="spacing" textLength="122" x="1631" y="1248.541">Underlying Token</text><rect fill="#EEEEEE" height="3" style="stroke:#EEEEEE;stroke-width:1.0;" width="1765" x="0" y="149.6318"/><line style="stroke:#000000;stroke-width:1.0;" x1="0" x2="1765" y1="149.6318" y2="149.6318"/><line style="stroke:#000000;stroke-width:1.0;" x1="0" x2="1765" y1="152.6318" y2="152.6318"/><rect fill="#EEEEEE" height="23.3105" style="stroke:#000000;stroke-width:2.0;" width="334" x="715.5" y="138.9766"/><text fill="#000000" font-family="sans-serif" font-size="13" font-weight="bold" lengthAdjust="spacing" textLength="316" x="721.5" y="155.5449">Alice1 Wraps Token into ZWToken and Burns It</text><polygon fill="#181818" points="1680,189.5977,1690,193.5977,1680,197.5977,1684,193.5977" style="stroke:#181818;stroke-width:1.0;"/><line style="stroke:#181818;stroke-width:1.0;" x1="44" x2="1686" y1="193.5977" y2="193.5977"/><text fill="#000000" font-family="sans-serif" font-size="13" lengthAdjust="spacing" textLength="301" x="51" y="188.8555">underlying.approve(ZWToken Contract, amount)</text><polygon fill="#181818" points="55,203.5977,45,207.5977,55,211.5977,51,207.5977" style="stroke:#181818;stroke-width:1.0;"/><line style="stroke:#181818;stroke-width:1.0;stroke-dasharray:2.0,2.0;" x1="49" x2="1691" y1="207.5977" y2="207.5977"/><line style="stroke:#181818;stroke-width:1.0;" x1="44" x2="86" y1="236.9082" y2="236.9082"/><line style="stroke:#181818;stroke-width:1.0;" x1="86" x2="86" y1="236.9082" y2="249.9082"/><line style="stroke:#181818;stroke-width:1.0;" x1="45" x2="86" y1="249.9082" y2="249.9082"/><polygon fill="#181818" points="55,245.9082,45,249.9082,55,253.9082,51,249.9082" style="stroke:#181818;stroke-width:1.0;"/><text fill="#000000" font-family="sans-serif" font-size="13" lengthAdjust="spacing" textLength="383" x="51" y="232.166">Generate a provable burn address (e.g., using Poseidon hash)</text><polygon fill="#181818" points="1147,275.2188,1157,279.2188,1147,283.2188,1151,279.2188" style="stroke:#181818;stroke-width:1.0;"/><line style="stroke:#181818;stroke-width:1.0;" x1="44" x2="1153" y1="279.2188" y2="279.2188"/><text fill="#000000" font-family="sans-serif" font-size="13" lengthAdjust="spacing" textLength="390" x="51" y="274.4766">ZWToken.depositTo(to=provable burn address, id=0, amount)</text><polygon fill="#181818" points="1680,304.5293,1690,308.5293,1680,312.5293,1684,308.5293" style="stroke:#181818;stroke-width:1.0;"/><line style="stroke:#181818;stroke-width:1.0;" x1="1159" x2="1686" y1="308.5293" y2="308.5293"/><text fill="#000000" font-family="sans-serif" font-size="13" lengthAdjust="spacing" textLength="379" x="1166" y="303.7871">underlying.transferFrom(Alice1, ZWToken Contract, amount)</text><polygon fill="#181818" points="1170,318.5293,1160,322.5293,1170,326.5293,1166,322.5293" style="stroke:#181818;stroke-width:1.0;"/><line style="stroke:#181818;stroke-width:1.0;stroke-dasharray:2.0,2.0;" x1="1164" x2="1691" y1="322.5293" y2="322.5293"/><line style="stroke:#181818;stroke-width:1.0;" x1="1159" x2="1201" y1="351.8398" y2="351.8398"/><line style="stroke:#181818;stroke-width:1.0;" x1="1201" x2="1201" y1="351.8398" y2="364.8398"/><line style="stroke:#181818;stroke-width:1.0;" x1="1160" x2="1201" y1="364.8398" y2="364.8398"/><polygon fill="#181818" points="1170,360.8398,1160,364.8398,1170,368.8398,1166,364.8398" style="stroke:#181818;stroke-width:1.0;"/><text fill="#000000" font-family="sans-serif" font-size="13" lengthAdjust="spacing" textLength="304" x="1166" y="347.0977">mint amount ZWToken to provable burn address</text><path d="M1079,379.8398 L1141,379.8398 L1141,387.1504 L1131,397.1504 L1079,397.1504 L1079,379.8398 " fill="#EEEEEE" style="stroke:#000000;stroke-width:1.5;"/><rect fill="none" height="101.9316" style="stroke:#000000;stroke-width:1.5;" width="618" x="1079" y="379.8398"/><text fill="#000000" font-family="sans-serif" font-size="13" font-weight="bold" lengthAdjust="spacing" textLength="17" x="1094" y="393.4082">alt</text><text fill="#000000" font-family="sans-serif" font-size="11" font-weight="bold" lengthAdjust="spacing" textLength="199" x="1156" y="392.4746">[Contract-maintained commitment]</text><line style="stroke:#181818;stroke-width:1.0;" x1="1159" x2="1201" y1="418.4609" y2="418.4609"/><line style="stroke:#181818;stroke-width:1.0;" x1="1201" x2="1201" y1="418.4609" y2="431.4609"/><line style="stroke:#181818;stroke-width:1.0;" x1="1160" x2="1201" y1="431.4609" y2="431.4609"/><polygon fill="#181818" points="1170,427.4609,1160,431.4609,1170,435.4609,1166,431.4609" style="stroke:#181818;stroke-width:1.0;"/><text fill="#000000" font-family="sans-serif" font-size="13" lengthAdjust="spacing" textLength="127" x="1166" y="413.7188">update commitment</text><line style="stroke:#181818;stroke-width:1.0;" x1="1159" x2="1201" y1="460.7715" y2="460.7715"/><line style="stroke:#181818;stroke-width:1.0;" x1="1201" x2="1201" y1="460.7715" y2="473.7715"/><line style="stroke:#181818;stroke-width:1.0;" x1="1160" x2="1201" y1="473.7715" y2="473.7715"/><polygon fill="#181818" points="1170,469.7715,1160,473.7715,1170,477.7715,1166,473.7715" style="stroke:#181818;stroke-width:1.0;"/><text fill="#000000" font-family="sans-serif" font-size="13" lengthAdjust="spacing" textLength="519" x="1166" y="456.0293">emit CommitmentUpdated(id=0, commitment, to=provable burn address, amount)</text><line style="stroke:#181818;stroke-width:1.0;" x1="1159" x2="1201" y1="510.082" y2="510.082"/><line style="stroke:#181818;stroke-width:1.0;" x1="1201" x2="1201" y1="510.082" y2="523.082"/><line style="stroke:#181818;stroke-width:1.0;" x1="1160" x2="1201" y1="523.082" y2="523.082"/><polygon fill="#181818" points="1170,519.082,1160,523.082,1170,527.082,1166,523.082" style="stroke:#181818;stroke-width:1.0;"/><text fill="#000000" font-family="sans-serif" font-size="13" lengthAdjust="spacing" textLength="448" x="1166" y="505.3398">emit Deposited(from=Alice1, to=provable burn address, id=0, amount)</text><polygon fill="#181818" points="55,533.082,45,537.082,55,541.082,51,537.082" style="stroke:#181818;stroke-width:1.0;"/><line style="stroke:#181818;stroke-width:1.0;stroke-dasharray:2.0,2.0;" x1="49" x2="1158" y1="537.082" y2="537.082"/><path d="M49,550.082 L49,575.082 L439,575.082 L439,560.082 L429,550.082 L49,550.082 " fill="#FEFFDD" style="stroke:#181818;stroke-width:0.5;"/><path d="M429,550.082 L429,560.082 L439,560.082 L429,550.082 " fill="#FEFFDD" style="stroke:#181818;stroke-width:0.5;"/><text fill="#000000" font-family="sans-serif" font-size="13" lengthAdjust="spacing" textLength="369" x="55" y="567.6504">Alice1 does not hold ZWToken and is unaware of ZWToken</text><rect fill="#EEEEEE" height="3" style="stroke:#EEEEEE;stroke-width:1.0;" width="1765" x="0" y="601.0479"/><line style="stroke:#000000;stroke-width:1.0;" x1="0" x2="1765" y1="601.0479" y2="601.0479"/><line style="stroke:#000000;stroke-width:1.0;" x1="0" x2="1765" y1="604.0479" y2="604.0479"/><rect fill="#EEEEEE" height="23.3105" style="stroke:#000000;stroke-width:2.0;" width="445" x="660" y="590.3926"/><text fill="#000000" font-family="sans-serif" font-size="13" font-weight="bold" lengthAdjust="spacing" textLength="427" x="666" y="606.9609">Alice1 Generates Proof of Provable Burn Address for Reminting</text><path d="M10,630.7031 L72,630.7031 L72,638.0137 L62,648.0137 L10,648.0137 L10,630.7031 " fill="#EEEEEE" style="stroke:#000000;stroke-width:1.5;"/><rect fill="none" height="118.8867" style="stroke:#000000;stroke-width:1.5;" width="1229" x="10" y="630.7031"/><text fill="#000000" font-family="sans-serif" font-size="13" font-weight="bold" lengthAdjust="spacing" textLength="17" x="25" y="644.2715">alt</text><text fill="#000000" font-family="sans-serif" font-size="11" font-weight="bold" lengthAdjust="spacing" textLength="199" x="87" y="643.3379">[Contract-maintained commitment]</text><polygon fill="#181818" points="1147,665.3242,1157,669.3242,1147,673.3242,1151,669.3242" style="stroke:#181818;stroke-width:1.0;"/><line style="stroke:#181818;stroke-width:1.0;" x1="44" x2="1153" y1="669.3242" y2="669.3242"/><text fill="#000000" font-family="sans-serif" font-size="13" lengthAdjust="spacing" textLength="302" x="51" y="664.582">fetch commit data / event CommitmentUpdated</text><polygon fill="#181818" points="55,679.3242,45,683.3242,55,687.3242,51,683.3242" style="stroke:#181818;stroke-width:1.0;"/><line style="stroke:#181818;stroke-width:1.0;stroke-dasharray:2.0,2.0;" x1="49" x2="1158" y1="683.3242" y2="683.3242"/><line style="stroke:#000000;stroke-width:1.0;stroke-dasharray:2.0,2.0;" x1="10" x2="1239" y1="692.3242" y2="692.3242"/><text fill="#000000" font-family="sans-serif" font-size="11" font-weight="bold" lengthAdjust="spacing" textLength="193" x="15" y="702.959">[Protocol-level MPT commitment]</text><polygon fill="#181818" points="1147,723.5898,1157,727.5898,1147,731.5898,1151,727.5898" style="stroke:#181818;stroke-width:1.0;"/><line style="stroke:#181818;stroke-width:1.0;" x1="44" x2="1153" y1="727.5898" y2="727.5898"/><text fill="#000000" font-family="sans-serif" font-size="13" lengthAdjust="spacing" textLength="80" x="51" y="722.8477">eth_getProof</text><polygon fill="#181818" points="55,737.5898,45,741.5898,55,745.5898,51,741.5898" style="stroke:#181818;stroke-width:1.0;"/><line style="stroke:#181818;stroke-width:1.0;stroke-dasharray:2.0,2.0;" x1="49" x2="1158" y1="741.5898" y2="741.5898"/><line style="stroke:#181818;stroke-width:1.0;" x1="44" x2="86" y1="777.9004" y2="777.9004"/><line style="stroke:#181818;stroke-width:1.0;" x1="86" x2="86" y1="777.9004" y2="790.9004"/><line style="stroke:#181818;stroke-width:1.0;" x1="45" x2="86" y1="790.9004" y2="790.9004"/><polygon fill="#181818" points="55,786.9004,45,790.9004,55,794.9004,51,790.9004" style="stroke:#181818;stroke-width:1.0;"/><text fill="#000000" font-family="sans-serif" font-size="13" lengthAdjust="spacing" textLength="128" x="51" y="773.1582">rebuild commitment</text><line style="stroke:#181818;stroke-width:1.0;" x1="44" x2="86" y1="820.2109" y2="820.2109"/><line style="stroke:#181818;stroke-width:1.0;" x1="86" x2="86" y1="820.2109" y2="833.2109"/><line style="stroke:#181818;stroke-width:1.0;" x1="45" x2="86" y1="833.2109" y2="833.2109"/><polygon fill="#181818" points="55,829.2109,45,833.2109,55,837.2109,51,833.2109" style="stroke:#181818;stroke-width:1.0;"/><text fill="#000000" font-family="sans-serif" font-size="13" lengthAdjust="spacing" textLength="179" x="51" y="815.4688">generate proof for reminting</text><rect fill="#EEEEEE" height="3" style="stroke:#EEEEEE;stroke-width:1.0;" width="1765" x="0" y="861.8662"/><line style="stroke:#000000;stroke-width:1.0;" x1="0" x2="1765" y1="861.8662" y2="861.8662"/><line style="stroke:#000000;stroke-width:1.0;" x1="0" x2="1765" y1="864.8662" y2="864.8662"/><rect fill="#EEEEEE" height="23.3105" style="stroke:#000000;stroke-width:2.0;" width="451" x="657" y="851.2109"/><text fill="#000000" font-family="sans-serif" font-size="13" font-weight="bold" lengthAdjust="spacing" textLength="433" x="663" y="867.7793">Alice2 / Relayer Remints and Unwraps Underlying Token to Bob</text><polygon fill="#181818" points="429,901.832,439,905.832,429,909.832,433,905.832" style="stroke:#181818;stroke-width:1.0;"/><line style="stroke:#181818;stroke-width:1.0;" x1="44" x2="435" y1="905.832" y2="905.832"/><text fill="#000000" font-family="sans-serif" font-size="13" lengthAdjust="spacing" textLength="172" x="51" y="901.0898">provide proof for reminting</text><polygon fill="#181818" points="55,915.832,45,919.832,55,923.832,51,919.832" style="stroke:#181818;stroke-width:1.0;"/><line style="stroke:#181818;stroke-width:1.0;stroke-dasharray:2.0,2.0;" x1="49" x2="440" y1="919.832" y2="919.832"/><polygon fill="#181818" points="1147,945.1426,1157,949.1426,1147,953.1426,1151,949.1426" style="stroke:#181818;stroke-width:1.0;"/><line style="stroke:#181818;stroke-width:1.0;" x1="441" x2="1153" y1="949.1426" y2="949.1426"/><text fill="#000000" font-family="sans-serif" font-size="13" lengthAdjust="spacing" textLength="694" x="448" y="944.4004">ZWToken.remint(to=Bob, id=0, amount, withdrawUnderlying=true, remintData={commitment,[nullifier],proof})</text><line style="stroke:#181818;stroke-width:1.0;" x1="1159" x2="1201" y1="978.4531" y2="978.4531"/><line style="stroke:#181818;stroke-width:1.0;" x1="1201" x2="1201" y1="978.4531" y2="991.4531"/><line style="stroke:#181818;stroke-width:1.0;" x1="1160" x2="1201" y1="991.4531" y2="991.4531"/><polygon fill="#181818" points="1170,987.4531,1160,991.4531,1170,995.4531,1166,991.4531" style="stroke:#181818;stroke-width:1.0;"/><text fill="#000000" font-family="sans-serif" font-size="13" lengthAdjust="spacing" textLength="90" x="1166" y="973.7109">check nullifier</text><line style="stroke:#181818;stroke-width:1.0;" x1="1159" x2="1201" y1="1020.7637" y2="1020.7637"/><line style="stroke:#181818;stroke-width:1.0;" x1="1201" x2="1201" y1="1020.7637" y2="1033.7637"/><line style="stroke:#181818;stroke-width:1.0;" x1="1160" x2="1201" y1="1033.7637" y2="1033.7637"/><polygon fill="#181818" points="1170,1029.7637,1160,1033.7637,1170,1037.7637,1166,1033.7637" style="stroke:#181818;stroke-width:1.0;"/><text fill="#000000" font-family="sans-serif" font-size="13" lengthAdjust="spacing" textLength="137" x="1166" y="1016.0215">mark nullifier as used</text><line style="stroke:#181818;stroke-width:1.0;" x1="1159" x2="1201" y1="1063.0742" y2="1063.0742"/><line style="stroke:#181818;stroke-width:1.0;" x1="1201" x2="1201" y1="1063.0742" y2="1076.0742"/><line style="stroke:#181818;stroke-width:1.0;" x1="1160" x2="1201" y1="1076.0742" y2="1076.0742"/><polygon fill="#181818" points="1170,1072.0742,1160,1076.0742,1170,1080.0742,1166,1076.0742" style="stroke:#181818;stroke-width:1.0;"/><text fill="#000000" font-family="sans-serif" font-size="13" lengthAdjust="spacing" textLength="93" x="1166" y="1058.332">verify ZK proof</text><polygon fill="#181818" points="1680,1101.3848,1690,1105.3848,1680,1109.3848,1684,1105.3848" style="stroke:#181818;stroke-width:1.0;"/><line style="stroke:#181818;stroke-width:1.0;" x1="1159" x2="1686" y1="1105.3848" y2="1105.3848"/><text fill="#000000" font-family="sans-serif" font-size="13" lengthAdjust="spacing" textLength="230" x="1166" y="1100.6426">underlying.transfer(to=Bob, amount)</text><polygon fill="#181818" points="1170,1115.3848,1160,1119.3848,1170,1123.3848,1166,1119.3848" style="stroke:#181818;stroke-width:1.0;"/><line style="stroke:#181818;stroke-width:1.0;stroke-dasharray:2.0,2.0;" x1="1164" x2="1691" y1="1119.3848" y2="1119.3848"/><line style="stroke:#181818;stroke-width:1.0;" x1="1159" x2="1201" y1="1148.6953" y2="1148.6953"/><line style="stroke:#181818;stroke-width:1.0;" x1="1201" x2="1201" y1="1148.6953" y2="1161.6953"/><line style="stroke:#181818;stroke-width:1.0;" x1="1160" x2="1201" y1="1161.6953" y2="1161.6953"/><polygon fill="#181818" points="1170,1157.6953,1160,1161.6953,1170,1165.6953,1166,1161.6953" style="stroke:#181818;stroke-width:1.0;"/><text fill="#000000" font-family="sans-serif" font-size="13" lengthAdjust="spacing" textLength="393" x="1166" y="1143.9531">emit Withdrawn(from=Alice2 / Relayer, to=Bob, id=0, amount)</text><polygon fill="#181818" points="452,1171.6953,442,1175.6953,452,1179.6953,448,1175.6953" style="stroke:#181818;stroke-width:1.0;"/><line style="stroke:#181818;stroke-width:1.0;stroke-dasharray:2.0,2.0;" x1="446" x2="1158" y1="1175.6953" y2="1175.6953"/><path d="M528,1188.6953 L528,1213.6953 L902,1213.6953 L902,1198.6953 L892,1188.6953 L528,1188.6953 " fill="#FEFFDD" style="stroke:#181818;stroke-width:0.5;"/><path d="M892,1188.6953 L892,1198.6953 L902,1198.6953 L892,1188.6953 " fill="#FEFFDD" style="stroke:#181818;stroke-width:0.5;"/><text fill="#000000" font-family="sans-serif" font-size="13" lengthAdjust="spacing" textLength="353" x="534" y="1206.2637">Bob does not hold ZWToken and is unaware of ZWToken</text><!--SRC=[bLJlYzf04FsUlsAuBrM8zkf7QGhteosb5EHG18zIrkp4B9ViXjsDSfJ-xvtTR3JHtFKgAj5zytRcpRonmXO8DuL8yPs1XHPxPX6McacJeORF3tUJsJLO1RTg2mTXSrLRsAoNwWabt1oOHed6H15BhT8DpuVmuyh_ci5xUC22FQE-0cOQo2n0Y3IgcBOY5HMJ5gvQvZibhIQC3zci-w2LvAYBPo5tuD4Uj8gY90a9m5gpoZI782Hbt_8ooU6srjB0Dmj94WNyv1EiO0xraNZAgaghFOxE4ug1bQgMTjo6VfnCwEuJJtYQmrTIHZin6JWgjYMTjtGrCCurQGOZdEwcCTJ65R9G1WLN4d9cyd67RxCchf35b6EbZB1BDR8g6MIDGV3a-fGbXLyMPqDxlsXLZfghOdYvKk9egcp8V4OboHe0nqZIUJ2dY1NsI3if6ONI1pcagYo5BL7Q2EZLeQyhxgHx6O3qFt6snokFvwEc-5DO32yBrPQ7aaVdpFUDqCIOaKP9gz5RLU_C1WslL5IA5hlSWifE0n8Uk483185S5RmtgC9GqvZpc8iB9zqnRqVC6LSHXDwBDZqtvN0JHYqZhpsWwvcRDPhxDtRaR0mpj6aUC422C_8sxWbysObkU9012uCkFwjILKmA2YpWnsBvZplHvhzsQ7s1GwJKl07pQTpMekZLCu3QjHQjl7nE9TsgTDAviy62YCQtPoKFVisShwDsM_RMIs2QUuS8FdnbfxIm9aFO-HveGjmIe8lwmnVxBSqrEvpoIgokCGuNtLFVajyTYppAkYX49b3_Z7rMVyPTFwGvfazmnFIM0DET4xU5QuCzC-rHY-mPDj-RUbzVHyTwNbiytfxhKABisBFJ9c_K2sN6hPg3jdGTc_ll_pJaNm00]--></g></svg>