<?xml version="1.0" encoding="us-ascii" standalone="no"?><svg xmlns="http://www.w3.org/2000/svg" xmlns:xlink="http://www.w3.org/1999/xlink" contentStyleType="text/css" height="1737px" preserveAspectRatio="none" style="width:1521px;height:1737px;background:#FFFFFF;" version="1.1" viewBox="0 0 1521 1737" width="1521px" zoomAndPan="magnify"><defs/><g><text fill="#000000" font-family="sans-serif" font-size="14" font-weight="bold" lengthAdjust="spacing" textLength="410" x="551.5" y="28.5352">Alice's Private Transfer to Bob with ZWToken Awareness</text><rect fill="none" height="101.9316" style="stroke:#000000;stroke-width:1.5;" width="430" x="958" y="544.082"/><rect fill="none" height="118.8867" style="stroke:#000000;stroke-width:1.5;" width="1108" x="10" y="717.3242"/><rect fill="none" height="112.8418" style="stroke:#000000;stroke-width:1.5;" width="430" x="958" y="1220.0059"/><line style="stroke:#181818;stroke-width:0.5;stroke-dasharray:5.0,5.0;" x1="44" x2="44" y1="118.9766" y2="1656.0215"/><line style="stroke:#181818;stroke-width:0.5;stroke-dasharray:5.0,5.0;" x1="440.5" x2="440.5" y1="118.9766" y2="1656.0215"/><line style="stroke:#181818;stroke-width:0.5;stroke-dasharray:5.0,5.0;" x1="523.5" x2="523.5" y1="118.9766" y2="1656.0215"/><line style="stroke:#181818;stroke-width:0.5;stroke-dasharray:5.0,5.0;" x1="1038" x2="1038" y1="118.9766" y2="1656.0215"/><line style="stroke:#181818;stroke-width:0.5;stroke-dasharray:5.0,5.0;" x1="1441" x2="1441" y1="118.9766" y2="1656.0215"/><text fill="#000000" font-family="sans-serif" font-size="14" lengthAdjust="spacing" textLength="42" x="20" y="116.0234">Alice1</text><ellipse cx="44" cy="50.9883" fill="#E2E2F0" rx="8" ry="8" style="stroke:#181818;stroke-width:0.5;"/><path d="M44,58.9883 L44,85.9883 M31,66.9883 L57,66.9883 M44,85.9883 L31,100.9883 M44,85.9883 L57,100.9883 " fill="none" style="stroke:#181818;stroke-width:0.5;"/><text fill="#000000" font-family="sans-serif" font-size="14" lengthAdjust="spacing" textLength="42" x="20" y="1668.5566">Alice1</text><ellipse cx="44" cy="1680.0098" fill="#E2E2F0" rx="8" ry="8" style="stroke:#181818;stroke-width:0.5;"/><path d="M44,1688.0098 L44,1715.0098 M31,1696.0098 L57,1696.0098 M44,1715.0098 L31,1730.0098 M44,1715.0098 L57,1730.0098 " fill="none" style="stroke:#181818;stroke-width:0.5;"/><text fill="#000000" font-family="sans-serif" font-size="14" lengthAdjust="spacing" textLength="107" x="384.5" y="116.0234">Alice2 / Relayer</text><ellipse cx="441" cy="50.9883" fill="#E2E2F0" rx="8" ry="8" style="stroke:#181818;stroke-width:0.5;"/><path d="M441,58.9883 L441,85.9883 M428,66.9883 L454,66.9883 M441,85.9883 L428,100.9883 M441,85.9883 L454,100.9883 " fill="none" style="stroke:#181818;stroke-width:0.5;"/><text fill="#000000" font-family="sans-serif" font-size="14" lengthAdjust="spacing" textLength="107" x="384.5" y="1668.5566">Alice2 / Relayer</text><ellipse cx="441" cy="1680.0098" fill="#E2E2F0" rx="8" ry="8" style="stroke:#181818;stroke-width:0.5;"/><path d="M441,1688.0098 L441,1715.0098 M428,1696.0098 L454,1696.0098 M441,1715.0098 L428,1730.0098 M441,1715.0098 L454,1730.0098 " fill="none" style="stroke:#181818;stroke-width:0.5;"/><text fill="#000000" font-family="sans-serif" font-size="14" lengthAdjust="spacing" textLength="26" x="507.5" y="116.0234">Bob</text><ellipse cx="523.5" cy="50.9883" fill="#E2E2F0" rx="8" ry="8" style="stroke:#181818;stroke-width:0.5;"/><path d="M523.5,58.9883 L523.5,85.9883 M510.5,66.9883 L536.5,66.9883 M523.5,85.9883 L510.5,100.9883 M523.5,85.9883 L536.5,100.9883 " fill="none" style="stroke:#181818;stroke-width:0.5;"/><text fill="#000000" font-family="sans-serif" font-size="14" lengthAdjust="spacing" textLength="26" x="507.5" y="1668.5566">Bob</text><ellipse cx="523.5" cy="1680.0098" fill="#E2E2F0" rx="8" ry="8" style="stroke:#181818;stroke-width:0.5;"/><path d="M523.5,1688.0098 L523.5,1715.0098 M510.5,1696.0098 L536.5,1696.0098 M523.5,1715.0098 L510.5,1730.0098 M523.5,1715.0098 L536.5,1730.0098 " fill="none" style="stroke:#181818;stroke-width:0.5;"/><rect fill="#E2E2F0" height="30.4883" rx="2.5" ry="2.5" style="stroke:#181818;stroke-width:0.5;" width="140" x="968" y="87.4883"/><text fill="#000000" font-family="sans-serif" font-size="14" lengthAdjust="spacing" textLength="126" x="975" y="108.0234">ZWToken Contract</text><rect fill="#E2E2F0" height="30.4883" rx="2.5" ry="2.5" style="stroke:#181818;stroke-width:0.5;" width="140" x="968" y="1655.0215"/><text fill="#000000" font-family="sans-serif" font-size="14" lengthAdjust="spacing" textLength="126" x="975" y="1675.5566">ZWToken Contract</text><rect fill="#E2E2F0" height="30.4883" rx="2.5" ry="2.5" style="stroke:#181818;stroke-width:0.5;" width="136" x="1373" y="87.4883"/><text fill="#000000" font-family="sans-serif" font-size="14" lengthAdjust="spacing" textLength="122" x="1380" y="108.0234">Underlying Token</text><rect fill="#E2E2F0" height="30.4883" rx="2.5" ry="2.5" style="stroke:#181818;stroke-width:0.5;" width="136" x="1373" y="1655.0215"/><text fill="#000000" font-family="sans-serif" font-size="14" lengthAdjust="spacing" textLength="122" x="1380" y="1675.5566">Underlying Token</text><rect fill="#EEEEEE" height="3" style="stroke:#EEEEEE;stroke-width:1.0;" width="1514" x="0" y="149.6318"/><line style="stroke:#000000;stroke-width:1.0;" x1="0" x2="1514" y1="149.6318" y2="149.6318"/><line style="stroke:#000000;stroke-width:1.0;" x1="0" x2="1514" y1="152.6318" y2="152.6318"/><rect fill="#EEEEEE" height="23.3105" style="stroke:#000000;stroke-width:2.0;" width="248" x="633" y="138.9766"/><text fill="#000000" font-family="sans-serif" font-size="13" font-weight="bold" lengthAdjust="spacing" textLength="230" x="639" y="155.5449">Alice1 Wraps Token into ZWToken</text><polygon fill="#181818" points="1429,189.5977,1439,193.5977,1429,197.5977,1433,193.5977" style="stroke:#181818;stroke-width:1.0;"/><line style="stroke:#181818;stroke-width:1.0;" x1="44" x2="1435" y1="193.5977" y2="193.5977"/><text fill="#000000" font-family="sans-serif" font-size="13" lengthAdjust="spacing" textLength="301" x="51" y="188.8555">underlying.approve(ZWToken Contract, amount)</text><polygon fill="#181818" points="55,203.5977,45,207.5977,55,211.5977,51,207.5977" style="stroke:#181818;stroke-width:1.0;"/><line style="stroke:#181818;stroke-width:1.0;stroke-dasharray:2.0,2.0;" x1="49" x2="1440" y1="207.5977" y2="207.5977"/><polygon fill="#181818" points="1026,232.9082,1036,236.9082,1026,240.9082,1030,236.9082" style="stroke:#181818;stroke-width:1.0;"/><line style="stroke:#181818;stroke-width:1.0;" x1="44" x2="1032" y1="236.9082" y2="236.9082"/><text fill="#000000" font-family="sans-serif" font-size="13" lengthAdjust="spacing" textLength="251" x="51" y="232.166">ZWToken.depositTo(to=Alice1, amount)</text><polygon fill="#181818" points="1429,262.2188,1439,266.2188,1429,270.2188,1433,266.2188" style="stroke:#181818;stroke-width:1.0;"/><line style="stroke:#181818;stroke-width:1.0;" x1="1038" x2="1435" y1="266.2188" y2="266.2188"/><text fill="#000000" font-family="sans-serif" font-size="13" lengthAdjust="spacing" textLength="379" x="1045" y="261.4766">underlying.transferFrom(Alice1, ZWToken Contract, amount)</text><polygon fill="#181818" points="1049,276.2188,1039,280.2188,1049,284.2188,1045,280.2188" style="stroke:#181818;stroke-width:1.0;"/><line style="stroke:#181818;stroke-width:1.0;stroke-dasharray:2.0,2.0;" x1="1043" x2="1440" y1="280.2188" y2="280.2188"/><line style="stroke:#181818;stroke-width:1.0;" x1="1038" x2="1080" y1="309.5293" y2="309.5293"/><line style="stroke:#181818;stroke-width:1.0;" x1="1080" x2="1080" y1="309.5293" y2="322.5293"/><line style="stroke:#181818;stroke-width:1.0;" x1="1039" x2="1080" y1="322.5293" y2="322.5293"/><polygon fill="#181818" points="1049,318.5293,1039,322.5293,1049,326.5293,1045,322.5293" style="stroke:#181818;stroke-width:1.0;"/><text fill="#000000" font-family="sans-serif" font-size="13" lengthAdjust="spacing" textLength="207" x="1045" y="304.7871">mint ZWToken(amount) to Alice1</text><line style="stroke:#181818;stroke-width:1.0;" x1="1038" x2="1080" y1="351.8398" y2="351.8398"/><line style="stroke:#181818;stroke-width:1.0;" x1="1080" x2="1080" y1="351.8398" y2="364.8398"/><line style="stroke:#181818;stroke-width:1.0;" x1="1039" x2="1080" y1="364.8398" y2="364.8398"/><polygon fill="#181818" points="1049,360.8398,1039,364.8398,1049,368.8398,1045,364.8398" style="stroke:#181818;stroke-width:1.0;"/><text fill="#000000" font-family="sans-serif" font-size="13" lengthAdjust="spacing" textLength="246" x="1045" y="347.0977">emit Deposited(Alice1, Alice1, amount)</text><polygon fill="#181818" points="55,374.8398,45,378.8398,55,382.8398,51,378.8398" style="stroke:#181818;stroke-width:1.0;"/><line style="stroke:#181818;stroke-width:1.0;stroke-dasharray:2.0,2.0;" x1="49" x2="1037" y1="378.8398" y2="378.8398"/><path d="M49,391.8398 L49,416.8398 L404,416.8398 L404,401.8398 L394,391.8398 L49,391.8398 " fill="#FEFFDD" style="stroke:#181818;stroke-width:0.5;"/><path d="M394,391.8398 L394,401.8398 L404,401.8398 L394,391.8398 " fill="#FEFFDD" style="stroke:#181818;stroke-width:0.5;"/><text fill="#000000" font-family="sans-serif" font-size="13" lengthAdjust="spacing" textLength="334" x="55" y="409.4082">Alice1 can do anything with ZWToken before burning</text><rect fill="#EEEEEE" height="3" style="stroke:#EEEEEE;stroke-width:1.0;" width="1514" x="0" y="442.8057"/><line style="stroke:#000000;stroke-width:1.0;" x1="0" x2="1514" y1="442.8057" y2="442.8057"/><line style="stroke:#000000;stroke-width:1.0;" x1="0" x2="1514" y1="445.8057" y2="445.8057"/><rect fill="#EEEEEE" height="23.3105" style="stroke:#000000;stroke-width:2.0;" width="169" x="672.5" y="432.1504"/><text fill="#000000" font-family="sans-serif" font-size="13" font-weight="bold" lengthAdjust="spacing" textLength="151" x="678.5" y="448.7188">Alice1 Burns ZWToken</text><line style="stroke:#181818;stroke-width:1.0;" x1="44" x2="86" y1="486.7715" y2="486.7715"/><line style="stroke:#181818;stroke-width:1.0;" x1="86" x2="86" y1="486.7715" y2="499.7715"/><line style="stroke:#181818;stroke-width:1.0;" x1="45" x2="86" y1="499.7715" y2="499.7715"/><polygon fill="#181818" points="55,495.7715,45,499.7715,55,503.7715,51,499.7715" style="stroke:#181818;stroke-width:1.0;"/><text fill="#000000" font-family="sans-serif" font-size="13" lengthAdjust="spacing" textLength="383" x="51" y="482.0293">Generate a provable burn address (e.g., using Poseidon hash)</text><polygon fill="#181818" points="1026,525.082,1036,529.082,1026,533.082,1030,529.082" style="stroke:#181818;stroke-width:1.0;"/><line style="stroke:#181818;stroke-width:1.0;" x1="44" x2="1032" y1="529.082" y2="529.082"/><text fill="#000000" font-family="sans-serif" font-size="13" lengthAdjust="spacing" textLength="338" x="51" y="524.3398">ZWToken.transfer(to=provable burn address, amount)</text><path d="M958,544.082 L1020,544.082 L1020,551.3926 L1010,561.3926 L958,561.3926 L958,544.082 " fill="#EEEEEE" style="stroke:#000000;stroke-width:1.5;"/><rect fill="none" height="101.9316" style="stroke:#000000;stroke-width:1.5;" width="430" x="958" y="544.082"/><text fill="#000000" font-family="sans-serif" font-size="13" font-weight="bold" lengthAdjust="spacing" textLength="17" x="973" y="557.6504">alt</text><text fill="#000000" font-family="sans-serif" font-size="11" font-weight="bold" lengthAdjust="spacing" textLength="199" x="1035" y="556.7168">[Contract-maintained commitment]</text><line style="stroke:#181818;stroke-width:1.0;" x1="1038" x2="1080" y1="582.7031" y2="582.7031"/><line style="stroke:#181818;stroke-width:1.0;" x1="1080" x2="1080" y1="582.7031" y2="595.7031"/><line style="stroke:#181818;stroke-width:1.0;" x1="1039" x2="1080" y1="595.7031" y2="595.7031"/><polygon fill="#181818" points="1049,591.7031,1039,595.7031,1049,599.7031,1045,595.7031" style="stroke:#181818;stroke-width:1.0;"/><text fill="#000000" font-family="sans-serif" font-size="13" lengthAdjust="spacing" textLength="127" x="1045" y="577.9609">update commitment</text><line style="stroke:#181818;stroke-width:1.0;" x1="1038" x2="1080" y1="625.0137" y2="625.0137"/><line style="stroke:#181818;stroke-width:1.0;" x1="1080" x2="1080" y1="625.0137" y2="638.0137"/><line style="stroke:#181818;stroke-width:1.0;" x1="1039" x2="1080" y1="638.0137" y2="638.0137"/><polygon fill="#181818" points="1049,634.0137,1039,638.0137,1049,642.0137,1045,638.0137" style="stroke:#181818;stroke-width:1.0;"/><text fill="#000000" font-family="sans-serif" font-size="13" lengthAdjust="spacing" textLength="331" x="1045" y="620.2715">emit CommitmentUpdated(commitment, to, amount)</text><polygon fill="#181818" points="55,655.0137,45,659.0137,55,663.0137,51,659.0137" style="stroke:#181818;stroke-width:1.0;"/><line style="stroke:#181818;stroke-width:1.0;stroke-dasharray:2.0,2.0;" x1="49" x2="1037" y1="659.0137" y2="659.0137"/><rect fill="#EEEEEE" height="3" style="stroke:#EEEEEE;stroke-width:1.0;" width="1514" x="0" y="687.6689"/><line style="stroke:#000000;stroke-width:1.0;" x1="0" x2="1514" y1="687.6689" y2="687.6689"/><line style="stroke:#000000;stroke-width:1.0;" x1="0" x2="1514" y1="690.6689" y2="690.6689"/><rect fill="#EEEEEE" height="23.3105" style="stroke:#000000;stroke-width:2.0;" width="445" x="534.5" y="677.0137"/><text fill="#000000" font-family="sans-serif" font-size="13" font-weight="bold" lengthAdjust="spacing" textLength="427" x="540.5" y="693.582">Alice1 Generates Proof of Provable Burn Address for Reminting</text><path d="M10,717.3242 L72,717.3242 L72,724.6348 L62,734.6348 L10,734.6348 L10,717.3242 " fill="#EEEEEE" style="stroke:#000000;stroke-width:1.5;"/><rect fill="none" height="118.8867" style="stroke:#000000;stroke-width:1.5;" width="1108" x="10" y="717.3242"/><text fill="#000000" font-family="sans-serif" font-size="13" font-weight="bold" lengthAdjust="spacing" textLength="17" x="25" y="730.8926">alt</text><text fill="#000000" font-family="sans-serif" font-size="11" font-weight="bold" lengthAdjust="spacing" textLength="199" x="87" y="729.959">[Contract-maintained commitment]</text><polygon fill="#181818" points="1026,751.9453,1036,755.9453,1026,759.9453,1030,755.9453" style="stroke:#181818;stroke-width:1.0;"/><line style="stroke:#181818;stroke-width:1.0;" x1="44" x2="1032" y1="755.9453" y2="755.9453"/><text fill="#000000" font-family="sans-serif" font-size="13" lengthAdjust="spacing" textLength="302" x="51" y="751.2031">fetch commit data / event CommitmentUpdated</text><polygon fill="#181818" points="55,765.9453,45,769.9453,55,773.9453,51,769.9453" style="stroke:#181818;stroke-width:1.0;"/><line style="stroke:#181818;stroke-width:1.0;stroke-dasharray:2.0,2.0;" x1="49" x2="1037" y1="769.9453" y2="769.9453"/><line style="stroke:#000000;stroke-width:1.0;stroke-dasharray:2.0,2.0;" x1="10" x2="1118" y1="778.9453" y2="778.9453"/><text fill="#000000" font-family="sans-serif" font-size="11" font-weight="bold" lengthAdjust="spacing" textLength="193" x="15" y="789.5801">[Protocol-level MPT commitment]</text><polygon fill="#181818" points="1026,810.2109,1036,814.2109,1026,818.2109,1030,814.2109" style="stroke:#181818;stroke-width:1.0;"/><line style="stroke:#181818;stroke-width:1.0;" x1="44" x2="1032" y1="814.2109" y2="814.2109"/><text fill="#000000" font-family="sans-serif" font-size="13" lengthAdjust="spacing" textLength="80" x="51" y="809.4688">eth_getProof</text><polygon fill="#181818" points="55,824.2109,45,828.2109,55,832.2109,51,828.2109" style="stroke:#181818;stroke-width:1.0;"/><line style="stroke:#181818;stroke-width:1.0;stroke-dasharray:2.0,2.0;" x1="49" x2="1037" y1="828.2109" y2="828.2109"/><line style="stroke:#181818;stroke-width:1.0;" x1="44" x2="86" y1="864.5215" y2="864.5215"/><line style="stroke:#181818;stroke-width:1.0;" x1="86" x2="86" y1="864.5215" y2="877.5215"/><line style="stroke:#181818;stroke-width:1.0;" x1="45" x2="86" y1="877.5215" y2="877.5215"/><polygon fill="#181818" points="55,873.5215,45,877.5215,55,881.5215,51,877.5215" style="stroke:#181818;stroke-width:1.0;"/><text fill="#000000" font-family="sans-serif" font-size="13" lengthAdjust="spacing" textLength="128" x="51" y="859.7793">rebuild commitment</text><line style="stroke:#181818;stroke-width:1.0;" x1="44" x2="86" y1="906.832" y2="906.832"/><line style="stroke:#181818;stroke-width:1.0;" x1="86" x2="86" y1="906.832" y2="919.832"/><line style="stroke:#181818;stroke-width:1.0;" x1="45" x2="86" y1="919.832" y2="919.832"/><polygon fill="#181818" points="55,915.832,45,919.832,55,923.832,51,919.832" style="stroke:#181818;stroke-width:1.0;"/><text fill="#000000" font-family="sans-serif" font-size="13" lengthAdjust="spacing" textLength="179" x="51" y="902.0898">generate proof for reminting</text><rect fill="#EEEEEE" height="3" style="stroke:#EEEEEE;stroke-width:1.0;" width="1514" x="0" y="948.4873"/><line style="stroke:#000000;stroke-width:1.0;" x1="0" x2="1514" y1="948.4873" y2="948.4873"/><line style="stroke:#000000;stroke-width:1.0;" x1="0" x2="1514" y1="951.4873" y2="951.4873"/><rect fill="#EEEEEE" height="23.3105" style="stroke:#000000;stroke-width:2.0;" width="297" x="608.5" y="937.832"/><text fill="#000000" font-family="sans-serif" font-size="13" font-weight="bold" lengthAdjust="spacing" textLength="279" x="614.5" y="954.4004">Alice2 / Relayer Remints ZWToken to Bob</text><polygon fill="#181818" points="429,988.4531,439,992.4531,429,996.4531,433,992.4531" style="stroke:#181818;stroke-width:1.0;"/><line style="stroke:#181818;stroke-width:1.0;" x1="44" x2="435" y1="992.4531" y2="992.4531"/><text fill="#000000" font-family="sans-serif" font-size="13" lengthAdjust="spacing" textLength="172" x="51" y="987.7109">provide proof for reminting</text><polygon fill="#181818" points="55,1002.4531,45,1006.4531,55,1010.4531,51,1006.4531" style="stroke:#181818;stroke-width:1.0;"/><line style="stroke:#181818;stroke-width:1.0;stroke-dasharray:2.0,2.0;" x1="49" x2="440" y1="1006.4531" y2="1006.4531"/><polygon fill="#181818" points="1026,1031.7637,1036,1035.7637,1026,1039.7637,1030,1035.7637" style="stroke:#181818;stroke-width:1.0;"/><line style="stroke:#181818;stroke-width:1.0;" x1="441" x2="1032" y1="1035.7637" y2="1035.7637"/><text fill="#000000" font-family="sans-serif" font-size="13" lengthAdjust="spacing" textLength="573" x="448" y="1031.0215">ZWToken.remint(proof, commitment, nullifier, to=Bob, amount, withdrawUnderlying=false)</text><line style="stroke:#181818;stroke-width:1.0;" x1="1038" x2="1080" y1="1065.0742" y2="1065.0742"/><line style="stroke:#181818;stroke-width:1.0;" x1="1080" x2="1080" y1="1065.0742" y2="1078.0742"/><line style="stroke:#181818;stroke-width:1.0;" x1="1039" x2="1080" y1="1078.0742" y2="1078.0742"/><polygon fill="#181818" points="1049,1074.0742,1039,1078.0742,1049,1082.0742,1045,1078.0742" style="stroke:#181818;stroke-width:1.0;"/><text fill="#000000" font-family="sans-serif" font-size="13" lengthAdjust="spacing" textLength="90" x="1045" y="1060.332">check nullifier</text><line style="stroke:#181818;stroke-width:1.0;" x1="1038" x2="1080" y1="1107.3848" y2="1107.3848"/><line style="stroke:#181818;stroke-width:1.0;" x1="1080" x2="1080" y1="1107.3848" y2="1120.3848"/><line style="stroke:#181818;stroke-width:1.0;" x1="1039" x2="1080" y1="1120.3848" y2="1120.3848"/><polygon fill="#181818" points="1049,1116.3848,1039,1120.3848,1049,1124.3848,1045,1120.3848" style="stroke:#181818;stroke-width:1.0;"/><text fill="#000000" font-family="sans-serif" font-size="13" lengthAdjust="spacing" textLength="137" x="1045" y="1102.6426">mark nullifier as used</text><line style="stroke:#181818;stroke-width:1.0;" x1="1038" x2="1080" y1="1149.6953" y2="1149.6953"/><line style="stroke:#181818;stroke-width:1.0;" x1="1080" x2="1080" y1="1149.6953" y2="1162.6953"/><line style="stroke:#181818;stroke-width:1.0;" x1="1039" x2="1080" y1="1162.6953" y2="1162.6953"/><polygon fill="#181818" points="1049,1158.6953,1039,1162.6953,1049,1166.6953,1045,1162.6953" style="stroke:#181818;stroke-width:1.0;"/><text fill="#000000" font-family="sans-serif" font-size="13" lengthAdjust="spacing" textLength="93" x="1045" y="1144.9531">verify ZK proof</text><line style="stroke:#181818;stroke-width:1.0;" x1="1038" x2="1080" y1="1192.0059" y2="1192.0059"/><line style="stroke:#181818;stroke-width:1.0;" x1="1080" x2="1080" y1="1192.0059" y2="1205.0059"/><line style="stroke:#181818;stroke-width:1.0;" x1="1039" x2="1080" y1="1205.0059" y2="1205.0059"/><polygon fill="#181818" points="1049,1201.0059,1039,1205.0059,1049,1209.0059,1045,1205.0059" style="stroke:#181818;stroke-width:1.0;"/><text fill="#000000" font-family="sans-serif" font-size="13" lengthAdjust="spacing" textLength="187" x="1045" y="1187.2637">mint amount ZWToken to Bob</text><path d="M958,1220.0059 L1020,1220.0059 L1020,1227.3164 L1010,1237.3164 L958,1237.3164 L958,1220.0059 " fill="#EEEEEE" style="stroke:#000000;stroke-width:1.5;"/><rect fill="none" height="112.8418" style="stroke:#000000;stroke-width:1.5;" width="430" x="958" y="1220.0059"/><text fill="#000000" font-family="sans-serif" font-size="13" font-weight="bold" lengthAdjust="spacing" textLength="17" x="973" y="1233.5742">alt</text><text fill="#000000" font-family="sans-serif" font-size="11" font-weight="bold" lengthAdjust="spacing" textLength="195" x="1035" y="1232.6406">[Contract-maintained commitment</text><text fill="#000000" font-family="sans-serif" font-size="11" font-weight="bold" lengthAdjust="spacing" textLength="227" x="1035" y="1245.5957">(Bob might be a provable burn address)]</text><line style="stroke:#181818;stroke-width:1.0;" x1="1038" x2="1080" y1="1269.5371" y2="1269.5371"/><line style="stroke:#181818;stroke-width:1.0;" x1="1080" x2="1080" y1="1269.5371" y2="1282.5371"/><line style="stroke:#181818;stroke-width:1.0;" x1="1039" x2="1080" y1="1282.5371" y2="1282.5371"/><polygon fill="#181818" points="1049,1278.5371,1039,1282.5371,1049,1286.5371,1045,1282.5371" style="stroke:#181818;stroke-width:1.0;"/><text fill="#000000" font-family="sans-serif" font-size="13" lengthAdjust="spacing" textLength="127" x="1045" y="1264.7949">update commitment</text><line style="stroke:#181818;stroke-width:1.0;" x1="1038" x2="1080" y1="1311.8477" y2="1311.8477"/><line style="stroke:#181818;stroke-width:1.0;" x1="1080" x2="1080" y1="1311.8477" y2="1324.8477"/><line style="stroke:#181818;stroke-width:1.0;" x1="1039" x2="1080" y1="1324.8477" y2="1324.8477"/><polygon fill="#181818" points="1049,1320.8477,1039,1324.8477,1049,1328.8477,1045,1324.8477" style="stroke:#181818;stroke-width:1.0;"/><text fill="#000000" font-family="sans-serif" font-size="13" lengthAdjust="spacing" textLength="331" x="1045" y="1307.1055">emit CommitmentUpdated(commitment, to, amount)</text><line style="stroke:#181818;stroke-width:1.0;" x1="1038" x2="1080" y1="1361.1582" y2="1361.1582"/><line style="stroke:#181818;stroke-width:1.0;" x1="1080" x2="1080" y1="1361.1582" y2="1374.1582"/><line style="stroke:#181818;stroke-width:1.0;" x1="1039" x2="1080" y1="1374.1582" y2="1374.1582"/><polygon fill="#181818" points="1049,1370.1582,1039,1374.1582,1049,1378.1582,1045,1374.1582" style="stroke:#181818;stroke-width:1.0;"/><text fill="#000000" font-family="sans-serif" font-size="13" lengthAdjust="spacing" textLength="348" x="1045" y="1356.416">emit Reminted(from= Alice2 / Relayer,to=Bob, amount)</text><polygon fill="#181818" points="452,1384.1582,442,1388.1582,452,1392.1582,448,1388.1582" style="stroke:#181818;stroke-width:1.0;"/><line style="stroke:#181818;stroke-width:1.0;stroke-dasharray:2.0,2.0;" x1="446" x2="1037" y1="1388.1582" y2="1388.1582"/><path d="M528,1401.1582 L528,1426.1582 L892,1426.1582 L892,1411.1582 L882,1401.1582 L528,1401.1582 " fill="#FEFFDD" style="stroke:#181818;stroke-width:0.5;"/><path d="M882,1401.1582 L882,1411.1582 L892,1411.1582 L882,1401.1582 " fill="#FEFFDD" style="stroke:#181818;stroke-width:0.5;"/><text fill="#000000" font-family="sans-serif" font-size="13" lengthAdjust="spacing" textLength="343" x="534" y="1418.7266">Bob can do anything with ZWToken before unwrapping</text><rect fill="#EEEEEE" height="3" style="stroke:#EEEEEE;stroke-width:1.0;" width="1514" x="0" y="1452.124"/><line style="stroke:#000000;stroke-width:1.0;" x1="0" x2="1514" y1="1452.124" y2="1452.124"/><line style="stroke:#000000;stroke-width:1.0;" x1="0" x2="1514" y1="1455.124" y2="1455.124"/><rect fill="#EEEEEE" height="23.3105" style="stroke:#000000;stroke-width:2.0;" width="173" x="670.5" y="1441.4688"/><text fill="#000000" font-family="sans-serif" font-size="13" font-weight="bold" lengthAdjust="spacing" textLength="155" x="676.5" y="1458.0371">Bob Unwraps ZWToken</text><polygon fill="#181818" points="1026,1492.0898,1036,1496.0898,1026,1500.0898,1030,1496.0898" style="stroke:#181818;stroke-width:1.0;"/><line style="stroke:#181818;stroke-width:1.0;" x1="523.5" x2="1032" y1="1496.0898" y2="1496.0898"/><text fill="#000000" font-family="sans-serif" font-size="13" lengthAdjust="spacing" textLength="245" x="530.5" y="1491.3477">ZWToken.withdrawTo(to=Bob, amount)</text><line style="stroke:#181818;stroke-width:1.0;" x1="1038" x2="1080" y1="1525.4004" y2="1525.4004"/><line style="stroke:#181818;stroke-width:1.0;" x1="1080" x2="1080" y1="1525.4004" y2="1538.4004"/><line style="stroke:#181818;stroke-width:1.0;" x1="1039" x2="1080" y1="1538.4004" y2="1538.4004"/><polygon fill="#181818" points="1049,1534.4004,1039,1538.4004,1049,1542.4004,1045,1538.4004" style="stroke:#181818;stroke-width:1.0;"/><text fill="#000000" font-family="sans-serif" font-size="13" lengthAdjust="spacing" textLength="91" x="1045" y="1520.6582">burn ZWToken</text><polygon fill="#181818" points="1429,1563.7109,1439,1567.7109,1429,1571.7109,1433,1567.7109" style="stroke:#181818;stroke-width:1.0;"/><line style="stroke:#181818;stroke-width:1.0;" x1="1038" x2="1435" y1="1567.7109" y2="1567.7109"/><text fill="#000000" font-family="sans-serif" font-size="13" lengthAdjust="spacing" textLength="230" x="1045" y="1562.9688">underlying.transfer(to=Bob, amount)</text><polygon fill="#181818" points="1049,1577.7109,1039,1581.7109,1049,1585.7109,1045,1581.7109" style="stroke:#181818;stroke-width:1.0;"/><line style="stroke:#181818;stroke-width:1.0;stroke-dasharray:2.0,2.0;" x1="1043" x2="1440" y1="1581.7109" y2="1581.7109"/><line style="stroke:#181818;stroke-width:1.0;" x1="1038" x2="1080" y1="1611.0215" y2="1611.0215"/><line style="stroke:#181818;stroke-width:1.0;" x1="1080" x2="1080" y1="1611.0215" y2="1624.0215"/><line style="stroke:#181818;stroke-width:1.0;" x1="1039" x2="1080" y1="1624.0215" y2="1624.0215"/><polygon fill="#181818" points="1049,1620.0215,1039,1624.0215,1049,1628.0215,1045,1624.0215" style="stroke:#181818;stroke-width:1.0;"/><text fill="#000000" font-family="sans-serif" font-size="13" lengthAdjust="spacing" textLength="279" x="1045" y="1606.2793">emit Withdrawn(from=Bob, to=Bob, amount)</text><polygon fill="#181818" points="534.5,1634.0215,524.5,1638.0215,534.5,1642.0215,530.5,1638.0215" style="stroke:#181818;stroke-width:1.0;"/><line style="stroke:#181818;stroke-width:1.0;stroke-dasharray:2.0,2.0;" x1="528.5" x2="1037" y1="1638.0215" y2="1638.0215"/><!--SRC=[lLLDYzim4BtxLmnxgGD9IlUur8NiblPG2g4a149XKUnnBDQMZ2mdvDztz1L_n6dtr910RBqPpRptDD9SbmYhagVueO6ruYUc4JQAYIP71Lh2ipp0cUi2zhkDV4C1gpDJAB1feeYbMYeN_Sa_FDYdH_W8lx1a5rGFm1e7UVGGoXZLJ6cUyfe93GyXyuiKMX76XkntGz1MPAZA2nT7i6WBsaPHalW2OATOtRX5u89A3tcJ9FAGnHVOmXEqrrnBLjTAdZ0Urp07LibMw5a8_RnOq7PTdlsE4lcePOQrRBZUo5ZBn66w18IytLTxYhyfMSKXuduHbCCLu9BPpIjgCeJ47cWKythqa5Xn3LzTZPXTjniNskkKs8-492ieVYmqo3oG_1J-f4n09e69YowCA0EF732N2k7GAa5hVP6UwLKphSnrX-zaBsLyoC28mmwbImKionGP3s9S7fTpQ1kpyLeso3Cfe61DCRkdKE3R23IPjAE1bVggmA9Yn3BzC8DKLiHZXK97G9yUlssTcNBl0wm0BzVbhSLdSHSm9-6w2b1aOp4w1WCxvhXA4eQ-wz2GOHTMdYMIW0wXSOcXYQX-PsCZ1dFKQU4nG7KpEjju8l1jG_rmNpYM3Phwj4nbkIWfi8IVwyq_zaHTl1vHsmQdadRyz7sZyD3oSj3F1EeOt5LR-WnBAh3KyToRO9x4phL-AjwQzv7I6tFnR3fxhmi_4NtOsAqk9BOvvj2tYMZBakSSbN5CGcK4rypj2SmKEtUJCiaPqJ_hZuAqmFIjopAO9qprLinuRHlIj8SueUBv1VO_N7StmyXLCkBf7RRxBM93Q6LdpU7kkP_zZtCtZdRYKr1Ea_hM7FEX2hEWwFGG9UIJzSvxfcShpdIZrS6M9cnhNmtcftazjazmWhkF1kNrshFK-f2_Nr9JMMwk8ylMpkyi75qsQ1niAdRq_040]--></g></svg>