<?xml version="1.0" encoding="UTF-8" standalone="no"?><!DOCTYPE svg PUBLIC "-//W3C//DTD SVG 1.1//EN" "http://www.w3.org/Graphics/SVG/1.1/DTD/svg11.dtd"><svg width="100%" height="100%" viewBox="0 0 6038 3595" version="1.1" xmlns="http://www.w3.org/2000/svg" xmlns:xlink="http://www.w3.org/1999/xlink" xml:space="preserve" xmlns:serif="http://www.serif.com/" style="fill-rule:evenodd;clip-rule:evenodd;stroke-linecap:round;stroke-linejoin:round;stroke-miterlimit:1.5;"><rect id="Figure-2" serif:id="Figure 2" x="0" y="0" width="6037.83" height="3594.61" style="fill:none;"/><g id="Schéma-2" serif:id="Schéma 2"><g><g><path d="M923.323,438.225c0,-44.276 -35.946,-80.222 -80.222,-80.222l-278.993,-0c-44.276,-0 -80.222,35.946 -80.222,80.222l-0,221.567c-0,44.276 35.946,80.223 80.222,80.223l278.993,-0c44.276,-0 80.222,-35.947 80.222,-80.223l0,-221.567Z" style="fill:#e8783c;"/><g transform="matrix(5.55556,0,0,5.55556,-133.03,544.634)"><text x="146.39px" y="-10.069px" style="font-family:'Carlito-Bold', 'Carlito', sans-serif;font-weight:700;font-size:15px;fill:#fff;">B</text><text x="114.951px" y="19.324px" style="font-family:'Carlito-Bold', 'Carlito', sans-serif;font-weight:700;font-size:15px;fill:#fff;">addr: 0x...B</text></g></g><circle cx="703.604" cy="206.324" r="111.848" style="fill:#e8783c;"/></g></g><g id="args"><path d="M1059.19,876.254c-0,-15.639 -12.697,-28.336 -28.336,-28.336l-654.499,-0c-15.639,-0 -28.336,12.697 -28.336,28.336l0,162.325c0,15.639 12.697,28.336 28.336,28.336l654.499,-0c15.639,-0 28.336,-12.697 28.336,-28.336l-0,-162.325Z" style="fill:none;stroke:#000;stroke-width:4.44px;"/><text x="575.333px" y="980.561px" style="font-family:'Carlito', sans-serif;font-size:66.667px;">Signa<tspan x="718.985px " y="980.561px ">t</tspan>ur<tspan x="798.705px " y="980.561px ">e</tspan></text></g><g id="args1" serif:id="args"><path d="M4079.75,876.254c0,-15.639 -12.697,-28.336 -28.336,-28.336l-654.499,-0c-15.639,-0 -28.336,12.697 -28.336,28.336l0,162.325c0,15.639 12.697,28.336 28.336,28.336l654.499,-0c15.639,-0 28.336,-12.697 28.336,-28.336l0,-162.325Z" style="fill:none;stroke:#000;stroke-width:4.44px;"/><text x="3595.9px" y="980.561px" style="font-family:'Carlito', sans-serif;font-size:66.667px;">Signa<tspan x="3739.55px " y="980.561px ">t</tspan>ur<tspan x="3819.27px " y="980.561px ">e</tspan></text></g><g id="args2" serif:id="args"><path d="M4079.75,2736.73c0,-15.639 -12.697,-28.336 -28.336,-28.336l-654.499,0c-15.639,0 -28.336,12.697 -28.336,28.336l0,162.325c0,15.639 12.697,28.336 28.336,28.336l654.499,0c15.639,0 28.336,-12.697 28.336,-28.336l0,-162.325Z" style="fill:#e8783c;"/><text x="3555.76px" y="2841.03px" style="font-family:'Carlito', sans-serif;font-size:66.667px;fill:#fff;">Caller: 0x...B</text></g><g id="terms"><g><path d="M1108.56,1300.81c-0,-57.837 -46.957,-104.794 -104.794,-104.794l-600.325,-0c-57.837,-0 -104.794,46.957 -104.794,104.794l0,1014.55c0,57.837 46.957,104.794 104.794,104.794l600.325,-0c57.837,-0 104.794,-46.957 104.794,-104.794l-0,-1014.55Z" style="fill:none;stroke:#000;stroke-width:6.67px;"/><text x="443.473px" y="1337.67px" style="font-family:'Carlito', sans-serif;font-size:100px;">Bart<tspan x="613.053px " y="1337.67px ">e</tspan>r T<tspan x="760.123px " y="1337.67px ">e</tspan>rms</text></g><g><path d="M1059.75,1431.9c-0,-15.639 -12.697,-28.336 -28.336,-28.336l-654.401,0c-15.639,0 -28.336,12.697 -28.336,28.336l-0,162.325c-0,15.639 12.697,28.336 28.336,28.336l654.401,0c15.639,0 28.336,-12.697 28.336,-28.336l-0,-162.325Z" style="fill:none;stroke:#000;stroke-width:4.44px;"/><g transform="matrix(5.55556,0,0,5.55556,-589.897,2096.52)"><text x="223.542px" y="-112.857px" style="font-family:'Carlito', sans-serif;font-size:12px;">Bid:</text><text x="186.859px" y="-100.857px" style="font-family:'Carlito', sans-serif;font-size:12px;">T<tspan x="191.641px 197.969px 203.037px " y="-100.857px -100.857px -100.857px ">oke</tspan>n addr: 0x...11</text><text x="206.825px" y="-88.857px" style="font-family:'Carlito', sans-serif;font-size:12px;">T<tspan x="211.607px 217.935px 223.003px " y="-88.857px -88.857px -88.857px ">oke</tspan>n id: 5</text></g></g><g><path d="M1059.75,1650.89c-0,-15.639 -12.697,-28.336 -28.336,-28.336l-654.401,0c-15.639,0 -28.336,12.697 -28.336,28.336l-0,162.325c-0,15.639 12.697,28.336 28.336,28.336l654.401,0c15.639,0 28.336,-12.697 28.336,-28.336l-0,-162.325Z" style="fill:none;stroke:#000;stroke-width:4.44px;"/><g transform="matrix(5.55556,0,0,5.55556,-589.897,2315.52)"><text x="222.789px" y="-112.857px" style="font-family:'Carlito', sans-serif;font-size:12px;">Ask:</text><text x="186.859px" y="-100.857px" style="font-family:'Carlito', sans-serif;font-size:12px;">T<tspan x="191.641px 197.969px 203.037px " y="-100.857px -100.857px -100.857px ">oke</tspan>n addr: 0x...22</text><text x="206.825px" y="-88.857px" style="font-family:'Carlito', sans-serif;font-size:12px;">T<tspan x="211.607px 217.935px 223.003px " y="-88.857px -88.857px -88.857px ">oke</tspan>n id: 3</text></g></g><g><path d="M1059.75,1858c-0,-9.077 -7.37,-16.447 -16.447,-16.447l-678.179,0c-9.078,0 -16.447,7.37 -16.447,16.447l-0,94.216c-0,9.077 7.369,16.447 16.447,16.447l678.179,-0c9.077,-0 16.447,-7.37 16.447,-16.447l-0,-94.216Z" style="fill:none;stroke:#000;stroke-width:4.44px;"/><text x="583.579px" y="1928.25px" style="font-family:'Carlito', sans-serif;font-size:66.667px;">Nonce: 0</text></g><g><path d="M1059.75,1999.55c-0,-15.639 -12.697,-28.336 -28.336,-28.336l-654.401,-0c-15.639,-0 -28.336,12.697 -28.336,28.336l-0,162.325c-0,15.639 12.697,28.336 28.336,28.336l654.401,-0c15.639,-0 28.336,-12.697 28.336,-28.336l-0,-162.325Z" style="fill:#0d5915;"/><g transform="matrix(5.55556,0,0,5.55556,-589.897,2664.17)"><text x="199.797px" y="-106.857px" style="font-family:'Carlito', sans-serif;font-size:12px;fill:#fff;">Owner: 0x...A</text><text x="193.882px" y="-94.857px" style="font-family:'Carlito', sans-serif;font-size:12px;fill:#fff;">(message signer</text></g></g><g><path d="M1059.75,2207.6c-0,-9.077 -7.37,-16.447 -16.447,-16.447l-678.179,0c-9.078,0 -16.447,7.37 -16.447,16.447l-0,94.216c-0,9.077 7.369,16.447 16.447,16.447l678.179,-0c9.077,-0 16.447,-7.37 16.447,-16.447l-0,-94.216Z" style="fill:none;stroke:#000;stroke-width:4.44px;"/><text x="449.986px" y="2277.85px" style="font-family:'Carlito', sans-serif;font-size:66.667px;">Deadline: in 2 da<tspan x="902.818px 932.375px " y="2277.85px 2277.85px ">ys</tspan></text></g></g><path d="M1582.65,1083.19l33.334,16.667l-33.334,16.666c8.334,-8.333 8.334,-25 0,-33.333Z"/><path d="M1059.75,1515.38l301.759,0c21.604,0 39.117,-17.512 39.117,-39.116c-0,-79.266 -0,-258.026 -0,-337.292c-0,-21.604 17.512,-39.116 39.116,-39.116c43.33,-0 112.021,-0 149.567,-0" style="fill:none;stroke:#000;stroke-width:11.11px;stroke-linecap:butt;stroke-linejoin:miter;stroke-miterlimit:1;"/><g id="terms1" serif:id="terms"><g><path d="M4129.12,1300.81c0,-57.837 -46.957,-104.794 -104.794,-104.794l-600.325,-0c-57.837,-0 -104.794,46.957 -104.794,104.794l0,1188.64c0,57.838 46.957,104.795 104.794,104.795l600.325,-0c57.837,-0 104.794,-46.957 104.794,-104.795l0,-1188.64Z" style="fill:none;stroke:#000;stroke-width:6.67px;"/><text x="3464.04px" y="1337.67px" style="font-family:'Carlito', sans-serif;font-size:100px;">Bart<tspan x="3633.62px " y="1337.67px ">e</tspan>r T<tspan x="3780.69px " y="1337.67px ">e</tspan>rms</text></g><g><path d="M4080.32,2087.85c-0,-15.639 -12.697,-28.336 -28.336,-28.336l-654.401,-0c-15.639,-0 -28.336,12.697 -28.336,28.336l0,162.325c0,15.639 12.697,28.336 28.336,28.336l654.401,-0c15.639,-0 28.336,-12.697 28.336,-28.336l-0,-162.325Z" style="fill:none;stroke:#000;stroke-width:4.44px;"/><g transform="matrix(5.55556,0,0,5.55556,2430.67,2752.48)"><text x="223.542px" y="-112.857px" style="font-family:'Carlito', sans-serif;font-size:12px;">Bid:</text><text x="186.859px" y="-100.857px" style="font-family:'Carlito', sans-serif;font-size:12px;">T<tspan x="191.641px 197.969px 203.037px " y="-100.857px -100.857px -100.857px ">oke</tspan>n addr: 0x...11</text><text x="206.825px" y="-88.857px" style="font-family:'Carlito', sans-serif;font-size:12px;">T<tspan x="211.607px 217.935px 223.003px " y="-88.857px -88.857px -88.857px ">oke</tspan>n id: 5</text></g></g><g><path d="M4080.32,2306.85c-0,-15.639 -12.697,-28.336 -28.336,-28.336l-654.401,-0c-15.639,-0 -28.336,12.697 -28.336,28.336l0,162.325c0,15.639 12.697,28.336 28.336,28.336l654.401,0c15.639,0 28.336,-12.697 28.336,-28.336l-0,-162.325Z" style="fill:none;stroke:#000;stroke-width:4.44px;"/><g transform="matrix(5.55556,0,0,5.55556,2430.67,2971.47)"><text x="222.789px" y="-112.857px" style="font-family:'Carlito', sans-serif;font-size:12px;">Ask:</text><text x="186.859px" y="-100.857px" style="font-family:'Carlito', sans-serif;font-size:12px;">T<tspan x="191.641px 197.969px 203.037px " y="-100.857px -100.857px -100.857px ">oke</tspan>n addr: 0x...22</text><text x="206.825px" y="-88.857px" style="font-family:'Carlito', sans-serif;font-size:12px;">T<tspan x="211.607px 217.935px 223.003px " y="-88.857px -88.857px -88.857px ">oke</tspan>n id: 3</text></g></g><g><path d="M4080.32,1431.9c-0,-15.639 -12.697,-28.336 -28.336,-28.336l-654.401,0c-15.639,0 -28.336,12.697 -28.336,28.336l0,162.325c0,15.639 12.697,28.336 28.336,28.336l654.401,0c15.639,0 28.336,-12.697 28.336,-28.336l-0,-162.325Z" style="fill:none;stroke:#000;stroke-width:4.44px;"/><text x="3604.14px" y="1536.2px" style="font-family:'Carlito', sans-serif;font-size:66.667px;">Nonce: 0</text></g><g><path d="M4080.32,1650.89c-0,-15.639 -12.697,-28.336 -28.336,-28.336l-654.401,0c-15.639,0 -28.336,12.697 -28.336,28.336l0,162.325c0,15.639 12.697,28.336 28.336,28.336l654.401,0c15.639,0 28.336,-12.697 28.336,-28.336l-0,-162.325Z" style="fill:#0d5915;"/><g transform="matrix(5.55556,0,0,5.55556,2430.67,2315.52)"><text x="199.797px" y="-106.857px" style="font-family:'Carlito', sans-serif;font-size:12px;fill:#fff;">Owner: 0x...A</text><text x="193.882px" y="-94.857px" style="font-family:'Carlito', sans-serif;font-size:12px;fill:#fff;">(message signer</text></g></g><g><path d="M4080.32,1869.89c-0,-15.639 -12.697,-28.336 -28.336,-28.336l-654.401,0c-15.639,0 -28.336,12.697 -28.336,28.336l0,162.326c0,15.639 12.697,28.336 28.336,28.336l654.401,-0c15.639,-0 28.336,-12.697 28.336,-28.336l-0,-162.326Z" style="fill:none;stroke:#000;stroke-width:4.44px;"/><text x="3470.55px" y="1974.2px" style="font-family:'Carlito', sans-serif;font-size:66.667px;">Deadline: in 2 da<tspan x="3923.38px 3952.94px " y="1974.2px 1974.2px ">ys</tspan></text></g></g><g><path d="M2650.88,240.598c0,-80.647 -65.475,-146.123 -146.122,-146.123l-837.078,0c-80.647,0 -146.122,65.476 -146.122,146.123l-0,2033.43c-0,80.647 65.475,146.123 146.122,146.123l837.078,-0c80.647,-0 146.122,-65.476 146.122,-146.123l0,-2033.43Z" style="fill:none;stroke:#000;stroke-width:6.67px;"/><g transform="matrix(5.55556,0,0,5.55556,904.636,281.107)"><text x="136.531px" y="-8.096px" style="font-family:'Carlito', sans-serif;font-size:18px;">N</text><text x="148.15px" y="-8.096px" style="font-family:'Carlito', sans-serif;font-size:18px;">S<tspan x="156.298px " y="-8.096px ">T</tspan> Y smart c<tspan x="235.856px 245.349px 254.639px 260.668px 266.574px " y="-8.096px -8.096px -8.096px -8.096px -8.096px ">ontra</tspan>ct</text></g></g><path d="M2589.78,2018.77l-33.334,-16.667l33.334,-16.667c-8.334,8.334 -8.334,25 -0,33.334Z"/><path d="M1885.04,1489.4l-0,87.847c-0,10.375 4.121,20.324 11.457,27.66c7.335,7.335 17.285,11.457 27.659,11.457c140.626,-0 619.638,-0 760.264,-0c10.374,-0 20.323,4.121 27.659,11.456c7.336,7.336 11.457,17.285 11.457,27.66c-0,73.967 -0,233.537 -0,307.505c-0,21.603 -17.513,39.116 -39.116,39.116c-31.167,0 -73.969,0 -101.303,0" style="fill:none;stroke:#000;stroke-width:11.11px;stroke-linecap:butt;stroke-linejoin:miter;stroke-miterlimit:1;"/><path d="M2460.46,1702.98l-16.666,33.333l-16.667,-33.333c8.333,8.333 25,8.333 33.333,-0Z"/><path d="M1885.04,1489.4l-0,87.847c-0,10.375 4.121,20.324 11.457,27.66c7.335,7.335 17.285,11.457 27.659,11.457c102.499,-0 378.029,-0 480.528,-0c10.374,-0 20.323,4.121 27.659,11.456c7.336,7.336 11.457,17.285 11.457,27.66c-0,17.73 -0,38.239 -0,54.162" style="fill:none;stroke:#000;stroke-width:11.11px;stroke-linecap:butt;stroke-linejoin:miter;stroke-miterlimit:1;"/><path d="M1961.37,840.919l33.334,16.667l-33.334,16.666c8.334,-8.333 8.334,-25 0,-33.333Z"/><path d="M1827,515.819c0,-0 0,212.931 0,302.651c0,10.374 4.121,20.323 11.457,27.659c7.336,7.336 17.285,11.457 27.66,11.457c31.332,-0 74.447,-0 101.92,-0" style="fill:none;stroke:#000;stroke-width:11.11px;stroke-linecap:butt;stroke-linejoin:miter;stroke-miterlimit:1;stroke-dasharray:11.11,11.11;"/><g><path d="M5733.37,359.495c-0,-89.237 -72.45,-161.687 -161.687,-161.687l-926.241,0c-89.238,0 -161.687,72.45 -161.687,161.687l-0,2406.21c-0,89.238 72.449,161.687 161.687,161.687l926.241,0c89.237,0 161.687,-72.449 161.687,-161.687l-0,-2406.21Z" style="fill:none;stroke:#000;stroke-width:6.67px;"/><g transform="matrix(5.55556,0,0,5.55556,3866.84,384.44)"><text x="147.072px" y="-8.096px" style="font-family:'Carlito', sans-serif;font-size:18px;">N</text><text x="158.691px" y="-8.096px" style="font-family:'Carlito', sans-serif;font-size:18px;">S<tspan x="166.838px " y="-8.096px ">T</tspan> X smart c<tspan x="246.968px 256.46px 265.751px 271.78px 277.686px " y="-8.096px -8.096px -8.096px -8.096px -8.096px ">ontra</tspan>ct</text></g></g><path d="M5672.27,1864.04l-33.333,-16.667l33.333,-16.667c-8.333,8.334 -8.333,25 0,33.334Z"/><path d="M5638.94,1206.7l128.122,-0c10.374,-0 20.323,4.121 27.659,11.456c7.336,7.336 11.457,17.286 11.457,27.66c-0,114.48 -0,447.962 -0,562.442c-0,10.374 -4.121,20.324 -11.457,27.659c-7.336,7.336 -17.285,11.457 -27.659,11.457c-31.208,0 -74.087,0 -101.455,0" style="fill:none;stroke:#000;stroke-width:11.11px;stroke-linecap:butt;stroke-linejoin:miter;stroke-miterlimit:1;"/><path d="M5106.07,1675.12l16.667,-33.334l16.666,33.334c-8.333,-8.334 -25,-8.334 -33.333,-0Z"/><path d="M4080.32,1736.31l1003.3,0c10.374,0 20.323,-4.121 27.659,-11.457c7.336,-7.335 11.457,-17.285 11.457,-27.659c-0,-9.674 -0,-19.817 -0,-28.742" style="fill:none;stroke:#000;stroke-width:11.11px;stroke-linecap:butt;stroke-linejoin:miter;stroke-miterlimit:1;"/><path d="M4842.47,1346.79l16.667,-33.334l16.666,33.334c-8.333,-8.334 -25,-8.334 -33.333,-0Z"/><path d="M5336.7,1489.4l0,-36.992c0,-21.604 -17.512,-39.116 -39.116,-39.116c-89.741,-0 -309.587,-0 -399.328,-0c-10.375,-0 -20.324,-4.122 -27.66,-11.457c-7.335,-7.336 -11.456,-17.285 -11.456,-27.66c-0,-11.407 -0,-23.605 -0,-34.053" style="fill:none;stroke:#000;stroke-width:11.11px;stroke-linecap:butt;stroke-linejoin:miter;stroke-miterlimit:1;"/><path d="M5210.92,738.476l-16.667,33.334l-16.666,-33.334c8.333,8.334 25,8.334 33.333,0Z"/><path d="M5194.26,591.927l0,153.216" style="fill:none;stroke:#000;stroke-width:11.11px;stroke-linecap:butt;stroke-linejoin:miter;stroke-miterlimit:1;"/><g id="mapping"><path d="M2303.13,1800.39l24.046,12.023l-24.046,12.023c6.012,-6.011 6.012,-18.034 0,-24.046Z"/><path d="M2275.89,1812.42l32.048,0" style="fill:none;stroke:#000;stroke-width:5.32px;"/><g><path d="M1990.72,1756.01c-0,-10.871 -8.825,-19.696 -19.696,-19.696l-335.351,0c-10.87,0 -19.695,8.825 -19.695,19.696l-0,112.825c-0,10.87 8.825,19.696 19.695,19.696l335.351,-0c10.871,-0 19.696,-8.826 19.696,-19.696l-0,-112.825Z" style="fill:none;stroke:#000;stroke-width:4.44px;"/><text x="1699.27px" y="1835.56px" style="font-family:'Carlito', sans-serif;font-size:66.667px;">Owner<tspan x="1881.36px " y="1835.56px ">s</tspan></text></g><g><path d="M2275.89,1756.01c0,-10.871 -8.825,-19.696 -19.695,-19.696l-189.879,0c-10.87,0 -19.695,8.825 -19.695,19.696l-0,112.825c-0,10.87 8.825,19.696 19.695,19.696l189.879,-0c10.87,-0 19.695,-8.826 19.695,-19.696l0,-112.825Z" style="fill:none;stroke:#000;stroke-width:4.44px;"/><text x="2144.37px" y="1835.56px" style="font-family:'Carlito', sans-serif;font-size:66.667px;">3</text></g><g><path d="M2556.45,1756.01c0,-10.871 -8.825,-19.696 -19.695,-19.696l-189.879,0c-10.87,0 -19.695,8.825 -19.695,19.696l-0,112.825c-0,10.87 8.825,19.696 19.695,19.696l189.879,-0c10.87,-0 19.695,-8.826 19.695,-19.696l0,-112.825Z" style="fill:#e8783c;"/><text x="2367.11px" y="1835.56px" style="font-family:'Carlito', sans-serif;font-size:66.667px;fill:#fff;">0x...B</text></g></g><g id="mapping1" serif:id="mapping"><path d="M5219.47,1550.58l24.046,12.023l-24.046,12.023c6.012,-6.012 6.012,-18.035 0,-24.046Z"/><path d="M5203.73,1562.6l20.54,-0" style="fill:none;stroke:#000;stroke-width:5.32px;stroke-linecap:butt;"/><path d="M5437.07,1550.58l24.046,12.023l-24.046,12.023c6.012,-6.012 6.012,-18.035 0,-24.046Z"/><path d="M5421.34,1562.6l20.54,-0" style="fill:none;stroke:#000;stroke-width:5.32px;"/><g><path d="M4947.67,1506.19c0,-10.87 -8.825,-19.695 -19.695,-19.695l-330.101,-0c-10.87,-0 -19.695,8.825 -19.695,19.695l-0,112.826c-0,10.87 8.825,19.695 19.695,19.695l330.101,-0c10.87,-0 19.695,-8.825 19.695,-19.695l0,-112.826Z" style="fill:none;stroke:#000;stroke-width:4.44px;"/><text x="4662.6px" y="1585.74px" style="font-family:'Carlito', sans-serif;font-size:66.667px;">Nonces</text></g><g><path d="M5203.73,1506.19c-0,-10.87 -8.825,-19.695 -19.696,-19.695l-155.728,-0c-10.87,-0 -19.695,8.825 -19.695,19.695l0,112.826c0,10.87 8.825,19.695 19.695,19.695l155.728,-0c10.871,-0 19.696,-8.825 19.696,-19.695l-0,-112.826Z" style="fill:#0d5915;"/><text x="5030.12px" y="1585.74px" style="font-family:'Carlito', sans-serif;font-size:66.667px;fill:#fff;">0x...<tspan x="5143.66px " y="1585.74px ">A</tspan></text></g><g><path d="M5421.34,1506.19c-0,-10.87 -8.825,-19.695 -19.695,-19.695l-138.436,-0c-10.87,-0 -19.695,8.825 -19.695,19.695l0,112.826c0,10.87 8.825,19.695 19.695,19.695l138.436,-0c10.87,-0 19.695,-8.825 19.695,-19.695l-0,-112.826Z" style="fill:#fff;stroke:#000;stroke-width:4.44px;"/><text x="5315.53px" y="1585.74px" style="font-family:'Carlito', sans-serif;font-size:66.667px;">0</text></g><g><path d="M5638.94,1506.19c-0,-10.87 -8.825,-19.695 -19.695,-19.695l-138.436,-0c-10.87,-0 -19.695,8.825 -19.695,19.695l0,112.826c0,10.87 8.825,19.695 19.695,19.695l138.436,-0c10.87,-0 19.695,-8.825 19.695,-19.695l-0,-112.826Z" style="fill:#fff;stroke:#000;stroke-width:4.44px;"/><text x="5533.13px" y="1585.74px" style="font-family:'Carlito', sans-serif;font-size:66.667px;">1</text></g></g><g id="mapping2" serif:id="mapping"><path d="M2303.13,1990.08l24.046,12.023l-24.046,12.023c6.012,-6.011 6.012,-18.034 0,-24.046Z"/><path d="M2275.89,2002.1l32.048,0" style="fill:none;stroke:#000;stroke-width:5.32px;"/><g><path d="M1990.72,1945.69c-0,-10.87 -8.825,-19.695 -19.696,-19.695l-335.351,-0c-10.87,-0 -19.695,8.825 -19.695,19.695l-0,112.826c-0,10.87 8.825,19.695 19.695,19.695l335.351,0c10.871,0 19.696,-8.825 19.696,-19.695l-0,-112.826Z" style="fill:none;stroke:#000;stroke-width:4.44px;"/><text x="1650.66px" y="2025.25px" style="font-family:'Carlito', sans-serif;font-size:66.667px;">Allo<tspan x="1754.73px 1801.64px " y="2025.25px 2025.25px ">wa</tspan>nces</text></g><g><path d="M2275.89,1945.69c0,-10.87 -8.825,-19.695 -19.695,-19.695l-189.879,-0c-10.87,-0 -19.695,8.825 -19.695,19.695l-0,112.826c-0,10.87 8.825,19.695 19.695,19.695l189.879,0c10.87,0 19.695,-8.825 19.695,-19.695l0,-112.826Z" style="fill:none;stroke:#000;stroke-width:4.44px;"/><text x="2144.37px" y="2025.25px" style="font-family:'Carlito', sans-serif;font-size:66.667px;">3</text></g><g><path d="M2556.45,1945.69c0,-10.87 -8.825,-19.695 -19.695,-19.695l-189.879,-0c-10.87,-0 -19.695,8.825 -19.695,19.695l-0,112.826c-0,10.87 8.825,19.695 19.695,19.695l189.879,0c10.87,0 19.695,-8.825 19.695,-19.695l0,-112.826Z" style="fill:#e8783c;"/><text x="2367.11px" y="2025.25px" style="font-family:'Carlito', sans-serif;font-size:66.667px;fill:#fff;">0x...B</text></g></g><g id="mapping3" serif:id="mapping"><path d="M5385.62,2342.6l24.046,12.023l-24.046,12.023c6.012,-6.011 6.012,-18.034 0,-24.046Z"/><path d="M5358.39,2354.62l32.048,0" style="fill:none;stroke:#000;stroke-width:5.32px;"/><g><path d="M5043.18,2298.21c-0,-10.87 -8.825,-19.695 -19.695,-19.695l-425.612,-0c-10.87,-0 -19.695,8.825 -19.695,19.695l-0,112.826c-0,10.87 8.825,19.695 19.695,19.695l425.612,0c10.87,0 19.695,-8.825 19.695,-19.695l-0,-112.826Z" style="fill:none;stroke:#000;stroke-width:4.44px;"/><text x="4706.6px" y="2377.77px" style="font-family:'Carlito', sans-serif;font-size:66.667px;">Owner<tspan x="4888.69px " y="2377.77px ">s</tspan></text></g><g><path d="M5358.39,2298.21c-0,-10.87 -8.825,-19.695 -19.696,-19.695l-189.879,-0c-10.87,-0 -19.695,8.825 -19.695,19.695l0,112.826c0,10.87 8.825,19.695 19.695,19.695l189.879,0c10.871,0 19.696,-8.825 19.696,-19.695l-0,-112.826Z" style="fill:none;stroke:#000;stroke-width:4.44px;"/><text x="5226.86px" y="2377.77px" style="font-family:'Carlito', sans-serif;font-size:66.667px;">5</text></g><g><path d="M5638.94,2298.21c-0,-10.87 -8.825,-19.695 -19.695,-19.695l-189.879,-0c-10.87,-0 -19.696,8.825 -19.696,19.695l0,112.826c0,10.87 8.826,19.695 19.696,19.695l189.879,0c10.87,0 19.695,-8.825 19.695,-19.695l-0,-112.826Z" style="fill:#0d5915;"/><text x="5448.25px" y="2377.77px" style="font-family:'Carlito', sans-serif;font-size:66.667px;fill:#fff;">0x...<tspan x="5561.79px " y="2377.77px ">A</tspan></text></g></g><g id="mapping4" serif:id="mapping"><path d="M2303.13,2222.97l24.046,12.023l-24.046,12.023c6.012,-6.012 6.012,-18.035 0,-24.046Z"/><path d="M2275.89,2234.99l32.048,-0" style="fill:none;stroke:#000;stroke-width:5.32px;"/><g><path d="M1990.72,2178.58c-0,-10.87 -8.825,-19.695 -19.696,-19.695l-335.351,-0c-10.87,-0 -19.695,8.825 -19.695,19.695l-0,112.826c-0,10.87 8.825,19.695 19.695,19.695l335.351,0c10.871,0 19.696,-8.825 19.696,-19.695l-0,-112.826Z" style="fill:none;stroke:#000;stroke-width:4.44px;"/><text x="1699.27px" y="2258.13px" style="font-family:'Carlito', sans-serif;font-size:66.667px;">Owner<tspan x="1881.36px " y="2258.13px ">s</tspan></text></g><g><path d="M2275.89,2178.58c0,-10.87 -8.825,-19.695 -19.695,-19.695l-189.879,-0c-10.87,-0 -19.695,8.825 -19.695,19.695l-0,112.826c-0,10.87 8.825,19.695 19.695,19.695l189.879,0c10.87,0 19.695,-8.825 19.695,-19.695l0,-112.826Z" style="fill:none;stroke:#000;stroke-width:4.44px;"/><text x="2144.37px" y="2258.13px" style="font-family:'Carlito', sans-serif;font-size:66.667px;">3</text></g><g><path d="M2556.45,2178.58c0,-10.87 -8.825,-19.695 -19.695,-19.695l-189.879,-0c-10.87,-0 -19.695,8.825 -19.695,19.695l-0,112.826c-0,10.87 8.825,19.695 19.695,19.695l189.879,0c10.87,0 19.695,-8.825 19.695,-19.695l0,-112.826Z" style="fill:#0d5915;"/><text x="2365.76px" y="2258.13px" style="font-family:'Carlito', sans-serif;font-size:66.667px;fill:#fff;">0x...<tspan x="2479.3px " y="2258.13px ">A</tspan></text></g></g><g id="mapping5" serif:id="mapping"><path d="M5385.62,2520.6l24.046,12.023l-24.046,12.023c6.012,-6.011 6.012,-18.034 0,-24.046Z"/><path d="M5358.39,2532.62l32.048,0" style="fill:none;stroke:#000;stroke-width:5.32px;"/><g><path d="M5043.18,2476.21c-0,-10.87 -8.825,-19.695 -19.695,-19.695l-425.612,0c-10.87,0 -19.695,8.825 -19.695,19.695l-0,112.826c-0,10.87 8.825,19.696 19.695,19.696l425.612,-0c10.87,-0 19.695,-8.826 19.695,-19.696l-0,-112.826Z" style="fill:none;stroke:#000;stroke-width:4.44px;"/><text x="4657.99px" y="2555.77px" style="font-family:'Carlito', sans-serif;font-size:66.667px;">Allo<tspan x="4762.06px 4808.97px " y="2555.77px 2555.77px ">wa</tspan>nces</text></g><g><path d="M5358.39,2476.21c-0,-10.87 -8.825,-19.695 -19.696,-19.695l-189.879,0c-10.87,0 -19.695,8.825 -19.695,19.695l0,112.826c0,10.87 8.825,19.696 19.695,19.696l189.879,-0c10.871,-0 19.696,-8.826 19.696,-19.696l-0,-112.826Z" style="fill:none;stroke:#000;stroke-width:4.44px;"/><text x="5226.86px" y="2555.77px" style="font-family:'Carlito', sans-serif;font-size:66.667px;">5</text></g><g><path d="M5638.94,2476.21c-0,-10.87 -8.825,-19.695 -19.695,-19.695l-189.879,0c-10.87,0 -19.696,8.825 -19.696,19.695l0,112.826c0,10.87 8.826,19.696 19.696,19.696l189.879,-0c10.87,-0 19.695,-8.826 19.695,-19.696l-0,-112.826Z" style="fill:#0d5915;"/><text x="5448.25px" y="2555.77px" style="font-family:'Carlito', sans-serif;font-size:66.667px;fill:#fff;">0x...<tspan x="5561.79px " y="2555.77px ">A</tspan></text></g></g><g id="mapping6" serif:id="mapping"><path d="M5385.62,2745.95l24.046,12.023l-24.046,12.023c6.012,-6.012 6.012,-18.035 0,-24.046Z"/><path d="M5358.39,2757.97l32.048,-0" style="fill:none;stroke:#000;stroke-width:5.32px;"/><g><path d="M5043.18,2701.56c-0,-10.87 -8.825,-19.695 -19.695,-19.695l-425.612,-0c-10.87,-0 -19.695,8.825 -19.695,19.695l-0,112.826c-0,10.87 8.825,19.695 19.695,19.695l425.612,-0c10.87,-0 19.695,-8.825 19.695,-19.695l-0,-112.826Z" style="fill:none;stroke:#000;stroke-width:4.44px;"/><text x="4706.6px" y="2781.12px" style="font-family:'Carlito', sans-serif;font-size:66.667px;">Owner<tspan x="4888.69px " y="2781.12px ">s</tspan></text></g><g><path d="M5358.39,2701.56c-0,-10.87 -8.825,-19.695 -19.696,-19.695l-189.879,-0c-10.87,-0 -19.695,8.825 -19.695,19.695l0,112.826c0,10.87 8.825,19.695 19.695,19.695l189.879,-0c10.871,-0 19.696,-8.825 19.696,-19.695l-0,-112.826Z" style="fill:none;stroke:#000;stroke-width:4.44px;"/><text x="5226.86px" y="2781.12px" style="font-family:'Carlito', sans-serif;font-size:66.667px;">5</text></g><g><path d="M5638.94,2701.56c-0,-10.87 -8.825,-19.695 -19.695,-19.695l-189.879,-0c-10.87,-0 -19.696,8.825 -19.696,19.695l0,112.826c0,10.87 8.826,19.695 19.696,19.695l189.879,-0c10.87,-0 19.695,-8.825 19.695,-19.695l-0,-112.826Z" style="fill:#e8783c;"/><text x="5449.6px" y="2781.12px" style="font-family:'Carlito', sans-serif;font-size:66.667px;fill:#fff;">0x...B</text></g></g><g id="mapping7" serif:id="mapping"><path d="M2280.24,1087.92l24.046,12.023l-24.046,12.023c6.011,-6.012 6.011,-18.035 -0,-24.046Z"/><path d="M2253,1099.94l32.048,-0" style="fill:none;stroke:#000;stroke-width:5.32px;"/><g><path d="M1990.72,1043.44c-0,-10.87 -8.825,-19.695 -19.696,-19.695l-335.351,-0c-10.87,-0 -19.695,8.825 -19.695,19.695l-0,112.826c-0,10.87 8.825,19.695 19.695,19.695l335.351,-0c10.871,-0 19.696,-8.825 19.696,-19.695l-0,-112.826Z" style="fill:none;stroke:#000;stroke-width:4.44px;"/><text x="1668.98px" y="1123px" style="font-family:'Carlito', sans-serif;font-size:66.667px;">Whit<tspan x="1800.23px " y="1123px ">e</tspan>lis<tspan x="1889.32px " y="1123px ">t</tspan>s</text></g><g><path d="M2251.62,1043.44c0,-10.87 -8.825,-19.695 -19.695,-19.695l-165.605,-0c-10.87,-0 -19.695,8.825 -19.695,19.695l-0,112.826c-0,10.87 8.825,19.695 19.695,19.695l165.605,-0c10.87,-0 19.695,-8.825 19.695,-19.695l0,-112.826Z" style="fill:none;stroke:#000;stroke-width:4.44px;"/><text x="2058.76px" y="1123px" style="font-family:'Carlito', sans-serif;font-size:66.667px;">0x...11</text></g><g><path d="M2556.45,1043.44c0,-10.87 -8.825,-19.695 -19.695,-19.695l-212.772,-0c-10.87,-0 -19.695,8.825 -19.695,19.695l-0,112.826c-0,10.87 8.825,19.695 19.695,19.695l212.772,-0c10.87,-0 19.695,-8.825 19.695,-19.695l0,-112.826Z" style="fill:#fff;stroke:#000;stroke-width:4.44px;"/><g transform="matrix(5.55556,0,0,5.55556,1365.71,1716.71)"><text x="171.805px" y="-106.592px" style="font-family:'Carlito', sans-serif;font-size:12px;">true</text><text x="194.996px" y="-106.592px" style="font-family:'SegoeUIEmoji', 'Segoe UI Emoji', sans-serif;font-size:12px;">✅</text></g></g></g><g id="mapping8" serif:id="mapping"><path d="M5356.3,835.895l24.046,12.023l-24.046,12.023c6.012,-6.012 6.012,-18.035 0,-24.046Z"/><path d="M5322.5,847.918l38.608,-0" style="fill:none;stroke:#000;stroke-width:5.32px;"/><g><path d="M5000.85,791.505c-0,-10.87 -8.825,-19.695 -19.695,-19.695l-383.284,-0c-10.87,-0 -19.695,8.825 -19.695,19.695l-0,112.826c-0,10.87 8.825,19.695 19.695,19.695l383.284,-0c10.87,-0 19.695,-8.825 19.695,-19.695l-0,-112.826Z" style="fill:none;stroke:#000;stroke-width:4.44px;"/><text x="4655.14px" y="871.062px" style="font-family:'Carlito', sans-serif;font-size:66.667px;">Whit<tspan x="4786.39px " y="871.062px ">e</tspan>lis<tspan x="4875.49px " y="871.062px ">t</tspan>s</text></g><g><path d="M5322.5,791.505c-0,-10.87 -8.825,-19.695 -19.695,-19.695l-219.205,-0c-10.87,-0 -19.695,8.825 -19.695,19.695l0,112.826c0,10.87 8.825,19.695 19.695,19.695l219.205,-0c10.87,-0 19.695,-8.825 19.695,-19.695l-0,-112.826Z" style="fill:none;stroke:#000;stroke-width:4.44px;"/><text x="5102.84px" y="871.062px" style="font-family:'Carlito', sans-serif;font-size:66.667px;">0x...22</text></g><g><path d="M5638.94,791.505c-0,-10.87 -8.825,-19.695 -19.695,-19.695l-219.204,-0c-10.871,-0 -19.696,8.825 -19.696,19.695l0,112.826c0,10.87 8.825,19.695 19.696,19.695l219.204,-0c10.87,-0 19.695,-8.825 19.695,-19.695l-0,-112.826Z" style="fill:#fff;stroke:#000;stroke-width:4.44px;"/><g transform="matrix(5.55556,0,0,5.55556,4441.77,1464.77)"><text x="172.383px" y="-106.592px" style="font-family:'Carlito', sans-serif;font-size:12px;">true</text><text x="195.575px" y="-106.592px" style="font-family:'SegoeUIEmoji', 'Segoe UI Emoji', sans-serif;font-size:12px;">✅</text></g></g></g><g><path d="M2556.45,383.298c0,-10.87 -8.825,-19.696 -19.695,-19.696l-382.657,0c-10.87,0 -19.695,8.826 -19.695,19.696l0,112.826c0,10.87 8.825,19.695 19.695,19.695l382.657,-0c10.87,-0 19.695,-8.825 19.695,-19.695l0,-112.826Z" style="fill:none;stroke:#000;stroke-width:4.44px;"/><text x="2172.67px" y="462.855px" style="font-family:'Carlito', sans-serif;font-size:66.667px;">Addr: 0x...22</text></g><g><path d="M5638.94,459.406c-0,-10.87 -8.825,-19.695 -19.695,-19.695l-514.075,-0c-10.871,-0 -19.696,8.825 -19.696,19.695l0,112.826c0,10.87 8.825,19.695 19.696,19.695l514.075,-0c10.87,-0 19.695,-8.825 19.695,-19.695l-0,-112.826Z" style="fill:none;stroke:#000;stroke-width:4.44px;"/><text x="5098.76px" y="538.963px" style="font-family:'Carlito', sans-serif;font-size:66.667px;">msg.sender: 0x...22</text></g><g><path d="M2556.45,1356.88c0,-10.87 -8.825,-19.696 -19.695,-19.696l-265.438,0c-10.87,0 -19.695,8.826 -19.695,19.696l0,112.825c0,10.871 8.825,19.696 19.695,19.696l265.438,-0c10.87,-0 19.695,-8.825 19.695,-19.696l0,-112.825Z" style="fill:none;stroke:#000;stroke-width:4.44px;"/><text x="2358.95px" y="1436.44px" style="font-family:'Carlito', sans-serif;font-size:66.667px;">c<tspan x="2386.59px " y="1436.44px ">a</tspan>ll</text></g><g><path d="M5638.94,1127.57c-0,-15.247 -12.379,-27.626 -27.626,-27.626l-317.523,-0c-15.248,-0 -27.627,12.379 -27.627,27.626l0,158.261c0,15.247 12.379,27.626 27.627,27.626l317.523,0c15.247,0 27.626,-12.379 27.626,-27.626l-0,-158.261Z" style="fill:none;stroke:#000;stroke-width:4.44px;"/><text x="5319.92px" y="1229.84px" style="font-family:'Carlito', sans-serif;font-size:66.667px;">ecr<tspan x="5403.64px 5436.81px 5464.45px 5499.31px 5528.77px " y="1229.84px 1229.84px 1229.84px 1229.84px 1229.84px ">ecove</tspan>r</text></g><g><path d="M2556.45,801.173c0,-10.87 -8.825,-19.695 -19.695,-19.695l-522.351,-0c-10.87,-0 -19.695,8.825 -19.695,19.695l-0,112.826c-0,10.87 8.825,19.695 19.695,19.695l522.351,-0c10.87,-0 19.695,-8.825 19.695,-19.695l0,-112.826Z" style="fill:#e8783c;"/><text x="2027.79px" y="880.73px" style="font-family:'Carlito', sans-serif;font-size:66.667px;fill:#fff;">msg.sender: 0x...B</text></g><g><path d="M2556.45,639.289c0,-10.871 -8.825,-19.696 -19.695,-19.696l-522.351,0c-10.87,0 -19.695,8.825 -19.695,19.696l-0,112.825c-0,10.87 8.825,19.696 19.695,19.696l522.351,-0c10.87,-0 19.695,-8.826 19.695,-19.696l0,-112.825Z" style="fill:none;stroke:#000;stroke-width:4.44px;"/><text x="2151.91px" y="718.846px" style="font-family:'Carlito', sans-serif;font-size:66.667px;">msg.da<tspan x="2345.79px 2367.31px " y="718.846px 718.846px ">ta</tspan></text></g><g><path d="M2038.03,383.298c-0,-10.87 -8.825,-19.696 -19.695,-19.696l-382.657,0c-10.87,0 -19.695,8.826 -19.695,19.696l-0,112.826c-0,10.87 8.825,19.695 19.695,19.695l382.657,-0c10.87,-0 19.695,-8.825 19.695,-19.695l-0,-112.826Z" style="fill:none;stroke:#000;stroke-width:4.44px;"/><text x="1715.14px" y="462.855px" style="font-family:'Carlito', sans-serif;font-size:66.667px;">bart<tspan x="1826.95px " y="462.855px ">e</tspan>r( )</text></g><path d="M1961.37,679.035l33.334,16.666l-33.334,16.667c8.334,-8.333 8.334,-25 0,-33.333Z"/><path d="M1827,515.819l0,140.766c0,10.375 4.121,20.324 11.457,27.66c7.336,7.335 17.285,11.456 27.66,11.456c31.332,0 74.447,0 101.92,0" style="fill:none;stroke:#000;stroke-width:11.11px;stroke-linecap:butt;stroke-linejoin:miter;stroke-miterlimit:1;stroke-dasharray:11.11,11.11;"/><g><path d="M4982.74,459.406c-0,-10.87 -8.826,-19.695 -19.696,-19.695l-365.173,-0c-10.87,-0 -19.695,8.825 -19.695,19.695l-0,112.826c-0,10.87 8.825,19.695 19.695,19.695l365.173,-0c10.87,-0 19.696,-8.825 19.696,-19.695l-0,-112.826Z" style="fill:none;stroke:#000;stroke-width:4.44px;"/><text x="4602.79px" y="538.963px" style="font-family:'Carlito', sans-serif;font-size:66.667px;">tr<tspan x="4647px " y="538.963px ">a</tspan>ns<tspan x="4739.41px 4758.1px " y="538.963px 538.963px ">fe</tspan>rF<tspan x="4844.23px " y="538.963px ">o</tspan>r( )</text></g><path d="M5052.14,499.152l33.333,16.667l-33.333,16.666c8.333,-8.333 8.333,-25 0,-33.333Z"/><path d="M4982.74,515.819l76.065,-0" style="fill:none;stroke:#000;stroke-width:11.11px;stroke-linecap:butt;stroke-linejoin:miter;stroke-miterlimit:1;stroke-dasharray:11.11,11.11;"/><g><path d="M2154.1,1356.88c0,-10.87 -8.825,-19.696 -19.695,-19.696l-498.726,0c-10.87,0 -19.695,8.826 -19.695,19.696l-0,112.825c-0,10.871 8.825,19.696 19.695,19.696l498.726,-0c10.87,-0 19.695,-8.825 19.695,-19.696l0,-112.825Z" style="fill:#e8783c;"/><text x="1637.25px" y="1436.44px" style="font-family:'Carlito', sans-serif;font-size:66.667px;fill:#fff;">msg.sender: 0x...B</text></g><g><path d="M5140.1,1127.57c0,-15.247 -12.379,-27.626 -27.626,-27.626l-506.663,-0c-15.247,-0 -27.626,12.379 -27.626,27.626l-0,158.261c-0,15.247 12.379,27.626 27.626,27.626l506.663,0c15.247,0 27.626,-12.379 27.626,-27.626l0,-158.261Z" style="fill:none;stroke:#000;stroke-width:4.44px;"/><g transform="matrix(5.55556,0,0,5.55556,3639.6,1792.9)"><text x="182.139px" y="-108.675px" style="font-family:'Carlito', sans-serif;font-size:12px;">Message dig<tspan x="242.344px 248.315px 252.874px " y="-108.675px -108.675px -108.675px ">est</tspan></text><text x="197.555px" y="-94.026px" style="font-family:'Carlito', sans-serif;font-size:12px;">(EIP<tspan x="215.919px " y="-94.026px ">-</tspan>712)</text></g><g transform="matrix(5.55556,0,0,5.55556,2128.49,830.299)"><text x="168.944px" y="-112.654px" style="font-family:'Carlito-Bold', 'Carlito', sans-serif;font-weight:700;font-size:12px;">Call fr<tspan x="197.743px " y="-112.654px ">o</tspan>m NS<tspan x="230.128px " y="-112.654px ">T</tspan> Y smart</text><text x="168.944px" y="-98.005px" style="font-family:'Carlito-Bold', 'Carlito', sans-serif;font-weight:700;font-size:12px;">con<tspan x="186.686px 190.846px 194.848px " y="-98.005px -98.005px -98.005px ">tra</tspan>ct con<tspan x="230.409px 234.422px 240.276px " y="-98.005px -98.005px -98.005px ">tex</tspan>t</text></g></g><g><path d="M5638.94,1817c-0,-10.87 -8.825,-19.695 -19.695,-19.695l-1021.37,-0c-10.87,-0 -19.695,8.825 -19.695,19.695l-0,112.826c-0,10.87 8.825,19.695 19.695,19.695l1021.37,0c10.87,0 19.695,-8.825 19.695,-19.695l-0,-112.826Z" style="fill:none;stroke:#000;stroke-width:4.44px;"/><g transform="matrix(5.55556,0,0,5.55556,3639.6,2490.27)"><text x="222.729px" y="-113.191px" style="font-family:'Carlito', sans-serif;font-size:12px;">R<tspan x="229.034px " y="-113.191px ">e</tspan>co<tspan x="246.254px 251.557px 257.528px 261.553px " y="-113.191px -113.191px -113.191px -113.191px ">vere</tspan>d signer</text><text x="199.411px" y="-100.543px" style="font-family:'Carlito', sans-serif;font-size:12px;">(v<tspan x="208.294px " y="-100.543px ">a</tspan>lid signa<tspan x="253.605px " y="-100.543px ">t</tspan>ur<tspan x="267.954px " y="-100.543px ">e</tspan> if = owner)</text></g></g><g><path d="M5638.94,2055.99c-0,-10.87 -8.825,-19.695 -19.695,-19.695l-1021.37,0c-10.87,0 -19.695,8.825 -19.695,19.695l-0,112.826c-0,10.87 8.825,19.696 19.695,19.696l1021.37,-0c10.87,-0 19.695,-8.826 19.695,-19.696l-0,-112.826Z" style="fill:none;stroke:#000;stroke-width:4.44px;"/><g transform="matrix(66.6667,0,0,66.6667,4894.29,2135.55)"><path d="M0.485,-0.469l0,0.469l-0.086,-0l0,-0.406l-0.227,-0l0,0.285c0,0.019 0.005,0.034 0.013,0.044c0.009,0.01 0.02,0.014 0.034,0.014c0.008,0.001 0.015,-0.001 0.021,-0.003c0.006,-0.002 0.011,-0.005 0.015,-0.008c0.004,-0.003 0.007,-0.005 0.01,-0.008c0.003,-0.002 0.006,-0.003 0.008,-0.003c0.003,0 0.006,0.001 0.008,0.002c0.001,0.001 0.003,0.003 0.005,0.006l0.025,0.041c-0.014,0.014 -0.031,0.025 -0.051,0.032c-0.019,0.008 -0.04,0.011 -0.061,0.011c-0.036,0 -0.064,-0.01 -0.083,-0.031c-0.02,-0.022 -0.03,-0.052 -0.03,-0.091l0,-0.291l-0.052,-0c-0.006,-0 -0.01,-0.002 -0.013,-0.005c-0.004,-0.003 -0.005,-0.008 -0.005,-0.014l-0,-0.034l0.073,-0.01l0.02,-0.147c0.001,-0.005 0.003,-0.009 0.006,-0.012c0.003,-0.003 0.008,-0.004 0.013,-0.004l0.044,-0l0,0.163l0.313,0Zm0.019,-0.161c-0,0.008 -0.002,0.015 -0.005,0.023c-0.003,0.007 -0.008,0.013 -0.013,0.019c-0.006,0.005 -0.013,0.01 -0.02,0.013c-0.007,0.003 -0.015,0.005 -0.023,0.005c-0.008,-0 -0.016,-0.002 -0.023,-0.005c-0.007,-0.003 -0.014,-0.008 -0.019,-0.013c-0.005,-0.006 -0.01,-0.012 -0.013,-0.019c-0.003,-0.008 -0.005,-0.015 -0.005,-0.023c0,-0.009 0.002,-0.017 0.005,-0.024c0.003,-0.007 0.008,-0.014 0.013,-0.019c0.005,-0.006 0.012,-0.01 0.019,-0.014c0.007,-0.003 0.015,-0.004 0.023,-0.004c0.008,-0 0.016,0.001 0.023,0.004c0.007,0.004 0.014,0.008 0.02,0.014c0.005,0.005 0.01,0.012 0.013,0.019c0.003,0.007 0.005,0.015 0.005,0.024Z" style="fill-rule:nonzero;"/></g><text x="4734.91px" y="2135.55px" style="font-family:'Carlito', sans-serif;font-size:66.667px;">block.<tspan x="4931.43px " y="2135.55px ">m</tspan>es<tspan x="5043.18px 5064.7px " y="2135.55px 2135.55px ">ta</tspan>mp &lt; deadline</text></g><path d="M5880.55,151.708c-0,-31.588 -25.645,-57.233 -57.233,-57.233l-2747.16,0c-31.588,0 -57.233,25.645 -57.233,57.233l0,2951.13c0,31.588 25.645,57.233 57.233,57.233l2747.16,-0c31.588,-0 57.233,-25.645 57.233,-57.233l-0,-2951.13Z" style="fill:none;stroke:#000;stroke-width:11.11px;stroke-linecap:butt;stroke-linejoin:miter;stroke-miterlimit:1;stroke-dasharray:11.11,11.11;"/><path d="M5156.07,3093.41l-33.333,66.667l-33.334,-66.667c16.667,16.667 50,16.667 66.667,0Z"/><path d="M5122.73,2927.39l-0,179.352" style="fill:none;stroke:#000;stroke-width:22.22px;stroke-linecap:butt;stroke-linejoin:miter;stroke-miterlimit:1;"/><path d="M1582.65,423.044l33.334,16.667l-33.334,16.666c8.334,-8.333 8.334,-25 0,-33.333Z"/><path d="M923.323,538.382l307.212,0c21.603,0 39.116,-17.513 39.116,-39.116c0,-6.725 0,-13.715 0,-20.439c0,-21.604 17.513,-39.116 39.116,-39.116c71.116,-0 219.842,-0 280.546,-0" style="fill:none;stroke:#000;stroke-width:11.11px;stroke-linecap:butt;stroke-linejoin:miter;stroke-miterlimit:1;"/><path d="M1582.65,423.044l33.334,16.667l-33.334,16.666c8.334,-8.333 8.334,-25 0,-33.333Z"/><path d="M1059.19,955.916l171.345,0c10.374,0 20.324,-4.121 27.66,-11.457c7.335,-7.335 11.456,-17.285 11.456,-27.659c0,-95.935 0,-342.038 0,-437.973c0,-10.375 4.121,-20.324 11.457,-27.66c7.336,-7.335 17.285,-11.456 27.659,-11.456l280.546,-0" style="fill:none;stroke:#000;stroke-width:11.11px;stroke-linecap:butt;stroke-linejoin:miter;stroke-miterlimit:1;"/><path d="M1582.65,423.044l33.334,16.667l-33.334,16.666c8.334,-8.333 8.334,-25 0,-33.333Z"/><path d="M703.604,1196.02l0,-28.266c0.001,-21.603 17.513,-39.116 39.117,-39.116c103.598,0 384.216,0 487.814,0c21.603,0 39.116,-17.513 39.116,-39.116c0,-121.186 0,-489.504 0,-610.69c0,-10.375 4.122,-20.324 11.457,-27.66c7.336,-7.335 17.285,-11.456 27.659,-11.456l280.546,-0" style="fill:none;stroke:#000;stroke-width:11.11px;stroke-linecap:butt;stroke-linejoin:miter;stroke-miterlimit:1;"/><path d="M1582.65,1796.55l33.334,16.666l-33.334,16.667c8.334,-8.333 8.334,-25 0,-33.333Z"/><path d="M1059.75,1736.31l299.252,0c21.233,0 38.445,17.212 38.445,38.445l-0,0.02c-0,10.196 4.05,19.975 11.26,27.184c7.21,7.21 16.988,11.26 27.184,11.26c44.039,0 115.045,0 153.418,0" style="fill:none;stroke:#000;stroke-width:11.11px;stroke-linecap:butt;stroke-linejoin:miter;stroke-miterlimit:1;"/><path d="M1582.65,1985.43l33.334,16.667l-33.334,16.667c8.334,-8.334 8.334,-25 0,-33.334Z"/><path d="M1059.75,1736.31l298.581,0c10.374,0 20.323,4.121 27.659,11.457c7.336,7.336 11.457,17.285 11.457,27.659c-0,50.325 -0,137.236 -0,187.561c-0,21.603 17.513,39.116 39.116,39.116c44.086,0 114.568,0 152.746,0" style="fill:none;stroke:#000;stroke-width:11.11px;stroke-linecap:butt;stroke-linejoin:miter;stroke-miterlimit:1;"/><path d="M1582.65,2218.32l33.334,16.667l-33.334,16.667c8.334,-8.334 8.334,-25 0,-33.334Z"/><path d="M1059.19,2082.8l297.555,-0c21.603,-0 39.116,17.513 39.116,39.116c0,22.716 0,51.24 0,73.956c0,10.374 4.121,20.323 11.457,27.659c7.336,7.336 17.285,11.457 27.66,11.457c44.462,-0 115.842,-0 154.335,-0" style="fill:none;stroke:#000;stroke-width:11.11px;stroke-linecap:butt;stroke-linejoin:miter;stroke-miterlimit:1;"/><path d="M4544.85,499.152l33.334,16.667l-33.334,16.666c8.334,-8.333 8.334,-25 0,-33.333Z"/><path d="M3368.58,955.916l-49.157,0c-21.603,0 -39.116,-17.513 -39.116,-39.116c0,-83.5 0,-278.365 0,-361.865c0,-21.603 17.513,-39.116 39.116,-39.116c195.963,-0 1068.01,-0 1232.09,-0" style="fill:none;stroke:#000;stroke-width:11.11px;stroke-linecap:butt;stroke-linejoin:miter;stroke-miterlimit:1;"/><path d="M4544.85,499.152l33.334,16.667l-33.334,16.666c8.334,-8.333 8.334,-25 0,-33.333Z"/><path d="M3319.21,1895.13l-69.322,-0c-21.604,-0 -39.116,-17.513 -39.116,-39.116c-0,-199.46 -0,-1101.62 -0,-1301.08c-0,-21.603 17.512,-39.116 39.116,-39.116c202.818,-0 1131.88,-0 1301.62,-0" style="fill:none;stroke:#000;stroke-width:11.11px;stroke-linecap:butt;stroke-linejoin:miter;stroke-miterlimit:1;"/><path d="M4544.85,499.152l33.334,16.667l-33.334,16.666c8.334,-8.333 8.334,-25 0,-33.333Z"/><path d="M3368.58,2817.89l-185.746,-0c-10.375,-0 -20.324,-4.121 -27.66,-11.457c-7.335,-7.336 -11.457,-17.285 -11.457,-27.659c0,-277.557 0,-1946.28 0,-2223.84c0,-10.374 4.122,-20.324 11.457,-27.659c7.336,-7.336 17.285,-11.457 27.66,-11.457c209.267,-0 1193.6,-0 1368.68,-0" style="fill:none;stroke:#000;stroke-width:11.11px;stroke-linecap:butt;stroke-linejoin:miter;stroke-miterlimit:1;"/><path d="M5469.22,1066.52l-16.667,33.334l-16.667,-33.334c8.334,8.334 25,8.334 33.334,0Z"/><path d="M4079.75,957.416l205.583,0c8.793,0 17.227,3.493 23.445,9.711c6.217,6.218 9.711,14.651 9.711,23.445c-0,0.007 -0,0.014 -0,0.021c-0,18.311 14.844,33.156 33.155,33.156c163.73,-0 885.188,-0 1061.79,-0c21.603,-0 39.116,17.512 39.116,39.116c0,3.493 0,6.974 0,10.325" style="fill:none;stroke:#000;stroke-width:11.11px;stroke-linecap:butt;stroke-linejoin:miter;stroke-miterlimit:1;"/><path d="M4544.85,1190.03l33.334,16.667l-33.334,16.666c8.334,-8.333 8.334,-25 0,-33.333Z"/><path d="M4129.12,1413.29l150.251,-0c10.375,-0 20.324,-4.122 27.66,-11.457c7.335,-7.336 11.457,-17.285 11.457,-27.66c-0,-36.79 -0,-91.57 -0,-128.36c-0,-10.375 4.121,-20.324 11.456,-27.66c7.336,-7.335 17.286,-11.456 27.66,-11.456l193.905,-0" style="fill:none;stroke:#000;stroke-width:11.11px;stroke-linecap:butt;stroke-linejoin:miter;stroke-miterlimit:1;"/><path d="M5232.83,1188.81l33.333,16.667l-33.333,16.666c8.333,-8.333 8.333,-25 0,-33.333Z"/><path d="M5140.1,1205.47l99.404,-0" style="fill:none;stroke:#000;stroke-width:11.11px;stroke-linecap:butt;stroke-linejoin:miter;stroke-miterlimit:1;"/><path d="M4544.85,2095.74l33.334,16.666l-33.334,16.667c8.334,-8.333 8.334,-25 0,-33.333Z"/><path d="M4080.32,1949.52l199.059,0c10.374,0 20.323,4.121 27.659,11.457c7.336,7.336 11.457,17.285 11.457,27.659c-0,25.635 -0,59.017 -0,84.651c-0,10.374 4.121,20.324 11.456,27.66c7.336,7.335 17.285,11.456 27.66,11.456c53.45,0 147.906,0 193.905,0" style="fill:none;stroke:#000;stroke-width:11.11px;stroke-linecap:butt;stroke-linejoin:miter;stroke-miterlimit:1;"/><path d="M4544.85,2337.96l33.334,16.667l-33.334,16.667c8.334,-8.334 8.334,-25 0,-33.334Z"/><path d="M4080.32,2169.02l200.648,0c10.374,0 20.323,4.121 27.659,11.457c7.336,7.336 11.457,17.285 11.457,27.659c0,31.579 0,75.797 0,107.375c0,21.603 17.513,39.116 39.116,39.116c53.102,0 146.608,0 192.316,0" style="fill:none;stroke:#000;stroke-width:11.11px;stroke-linecap:butt;stroke-linejoin:miter;stroke-miterlimit:1;"/><path d="M4544.85,2515.96l33.334,16.666l-33.334,16.667c8.334,-8.333 8.334,-25 0,-33.333Z"/><path d="M4080.32,2169.02l200.648,0c10.374,0 20.323,4.121 27.659,11.457c7.336,7.336 11.457,17.285 11.457,27.659c0,69.903 0,215.472 0,285.374c0,21.603 17.513,39.116 39.116,39.116c53.102,0 146.608,0 192.316,0" style="fill:none;stroke:#000;stroke-width:11.11px;stroke-linecap:butt;stroke-linejoin:miter;stroke-miterlimit:1;"/><path d="M4544.85,2741.3l33.334,16.667l-33.334,16.666c8.334,-8.333 8.334,-25 0,-33.333Z"/><path d="M4080.32,2817.89l207.665,-0c16.544,-0 29.955,-13.412 29.955,-29.956c0,-0.002 0,-0.005 0,-0.008c0,-16.544 13.412,-29.955 29.956,-29.955c51.205,-0 154.76,-0 203.62,-0" style="fill:none;stroke:#000;stroke-width:11.11px;stroke-linecap:butt;stroke-linejoin:miter;stroke-miterlimit:1;"/><path d="M5672.27,2371.29l-33.333,-16.667l33.333,-16.667c-8.333,8.334 -8.333,25 0,33.334Z"/><path d="M5638.94,1895.13l128.122,-0c10.374,-0 20.323,4.121 27.659,11.457c7.336,7.335 11.457,17.285 11.457,27.659c-0,86.762 -0,294.499 -0,381.262c-0,10.374 -4.121,20.323 -11.457,27.659c-7.336,7.336 -17.285,11.457 -27.659,11.457c-31.208,0 -74.087,0 -101.455,0" style="fill:none;stroke:#000;stroke-width:11.11px;stroke-linecap:butt;stroke-linejoin:miter;stroke-miterlimit:1;"/><path d="M5672.27,2549.29l-33.333,-16.667l33.333,-16.666c-8.333,8.333 -8.333,25 0,33.333Z"/><path d="M5638.94,1895.13l128.122,-0c21.603,-0 39.116,17.513 39.116,39.116c-0,114.029 -0,445.232 -0,559.261c-0,21.604 -17.513,39.116 -39.116,39.116c-31.208,0 -74.087,0 -101.455,0" style="fill:none;stroke:#000;stroke-width:11.11px;stroke-linecap:butt;stroke-linejoin:miter;stroke-miterlimit:1;"/><path d="M2952.25,1379.96l66.666,33.334l-66.666,33.333c16.666,-16.667 16.666,-50 -0,-66.667Z"/><path d="M2556.45,1413.29l409.136,-0" style="fill:none;stroke:#000;stroke-width:22.22px;stroke-linecap:butt;stroke-linejoin:miter;stroke-miterlimit:1;"/><path d="M2717.54,1548.72l-66.667,-33.334l66.667,-33.333c-16.667,16.667 -16.667,50 -0,66.667Z"/><path d="M3018.92,1515.38l-314.708,0" style="fill:none;stroke:#000;stroke-width:22.22px;stroke-linecap:butt;stroke-linejoin:miter;stroke-miterlimit:1;"/><path d="M2985.58,1396.63l33.333,16.667l-33.333,16.666c8.333,-8.333 8.333,-25 -0,-33.333Z"/><path d="M2556.45,697.813l254.29,0c10.266,0 20.111,4.078 27.37,11.337c7.259,7.259 11.337,17.105 11.337,27.37c0,124.475 0,513.591 0,638.065c0,10.266 4.078,20.112 11.337,27.371c7.259,7.258 17.104,11.337 27.37,11.337c31.833,-0 76.109,-0 104.099,-0" style="fill:none;stroke:#000;stroke-width:11.11px;stroke-linecap:butt;stroke-linejoin:miter;stroke-miterlimit:1;"/><path d="M2985.58,1396.63l33.333,16.667l-33.333,16.666c8.333,-8.333 8.333,-25 -0,-33.333Z"/><path d="M2556.45,857.586l254.29,-0c10.266,-0 20.111,4.078 27.37,11.337c7.259,7.259 11.337,17.104 11.337,27.37c0,101.849 0,376.444 0,478.292c0,10.266 4.078,20.112 11.337,27.37c7.259,7.259 17.104,11.338 27.37,11.338c31.833,-0 76.109,-0 104.099,-0" style="fill:none;stroke:#000;stroke-width:11.11px;stroke-linecap:butt;stroke-linejoin:miter;stroke-miterlimit:1;"/><g id="bulle"><circle cx="1269.65" cy="417.245" r="87.481" style="fill:#808080;"/><text x="1244.31px" y="452.328px" style="font-family:'Carlito-Bold', 'Carlito', sans-serif;font-weight:700;font-size:100px;fill:#fff;">1</text></g><g id="bulle1" serif:id="bulle"><circle cx="1362" cy="1274.91" r="87.481" style="fill:#808080;"/><text x="1336.66px" y="1309.99px" style="font-family:'Carlito-Bold', 'Carlito', sans-serif;font-weight:700;font-size:100px;fill:#fff;">2</text></g><g id="bulle2" serif:id="bulle"><circle cx="1247.66" cy="2092.77" r="87.481" style="fill:#808080;"/><text x="1196.98px" y="2127.86px" style="font-family:'Carlito-Bold', 'Carlito', sans-serif;font-weight:700;font-size:100px;fill:#fff;">10</text></g><g id="bulle3" serif:id="bulle"><circle cx="1362" cy="1754.15" r="87.481" style="fill:#808080;"/><text x="1336.66px" y="1789.23px" style="font-family:'Carlito-Bold', 'Carlito', sans-serif;font-weight:700;font-size:100px;fill:#fff;">9</text></g><g id="bulle4" serif:id="bulle"><circle cx="3499.29" cy="527.188" r="87.481" style="fill:#808080;"/><text x="3473.95px" y="562.271px" style="font-family:'Carlito-Bold', 'Carlito', sans-serif;font-weight:700;font-size:100px;fill:#fff;">3</text></g><g id="bulle5" serif:id="bulle"><circle cx="2834.9" cy="1362.39" r="87.481" style="fill:#808080;"/><text x="2809.55px" y="1397.47px" style="font-family:'Carlito-Bold', 'Carlito', sans-serif;font-weight:700;font-size:100px;fill:#fff;">3</text></g><g id="bulle6" serif:id="bulle"><circle cx="5350.72" cy="707.494" r="87.481" style="fill:#808080;"/><text x="5325.38px" y="742.577px" style="font-family:'Carlito-Bold', 'Carlito', sans-serif;font-weight:700;font-size:100px;fill:#fff;">4</text></g><g id="bulle7" serif:id="bulle"><circle cx="5210.21" cy="1088.48" r="87.481" style="fill:#808080;"/><text x="5184.87px" y="1123.57px" style="font-family:'Carlito-Bold', 'Carlito', sans-serif;font-weight:700;font-size:100px;fill:#fff;">5</text></g><g id="bulle8" serif:id="bulle"><circle cx="5442.58" cy="1699.12" r="87.481" style="fill:#808080;"/><text x="5405.57px" y="1734.21px" style="font-family:'Carlito-Bold', 'Carlito', sans-serif;font-weight:700;font-size:100px;fill:#fff;">5&apos;</text></g><g id="bulle9" serif:id="bulle"><circle cx="4312.86" cy="1956.44" r="87.481" style="fill:#808080;"/><text x="4287.52px" y="1991.53px" style="font-family:'Carlito-Bold', 'Carlito', sans-serif;font-weight:700;font-size:100px;fill:#fff;">6</text></g><g id="bulle10" serif:id="bulle"><circle cx="4304.07" cy="2356.63" r="87.481" style="fill:#808080;"/><text x="4278.73px" y="2391.72px" style="font-family:'Carlito-Bold', 'Carlito', sans-serif;font-weight:700;font-size:100px;fill:#fff;">7</text></g><g id="bulle11" serif:id="bulle"><circle cx="4352.44" cy="2761.22" r="87.481" style="fill:#808080;"/><text x="4327.1px" y="2796.31px" style="font-family:'Carlito-Bold', 'Carlito', sans-serif;font-weight:700;font-size:100px;fill:#fff;">8</text></g><g transform="matrix(4.76637,0,0,7.73212,-299.993,-1460.28)"><g transform="matrix(1.16557,0,0,0.718503,-16.2077,146.027)"><rect x="413.593" y="516.992" width="73.284" height="16.988" style="fill:#e6e6e6;"/><rect x="97.888" y="576.992" width="114.205" height="16.988" style="fill:#ebebeb;"/></g><g transform="matrix(1.16557,0,0,0.718503,-16.2077,146.027)"><g transform="matrix(16,0,0,16,201.894,529.98)"><path d="M0.527,-0.481l-0,0.481l-0.124,-0l-0,-0.394l-0.203,0l-0,0.257c-0,0.014 0.003,0.025 0.009,0.033c0.006,0.008 0.014,0.012 0.026,0.012c0.006,0 0.011,-0.001 0.015,-0.002c0.004,-0.001 0.007,-0.003 0.01,-0.005c0.003,-0.002 0.006,-0.004 0.008,-0.005c0.003,-0.002 0.005,-0.002 0.008,-0.002c0.004,-0 0.007,0 0.009,0.002c0.002,0.002 0.005,0.005 0.007,0.009l0.038,0.06c-0.017,0.014 -0.036,0.024 -0.058,0.032c-0.021,0.007 -0.043,0.01 -0.066,0.01c-0.021,0 -0.04,-0.003 -0.056,-0.009c-0.016,-0.007 -0.03,-0.016 -0.041,-0.027c-0.011,-0.012 -0.019,-0.026 -0.025,-0.043c-0.005,-0.017 -0.008,-0.036 -0.008,-0.057l-0,-0.265l-0.043,0c-0.007,0 -0.012,-0.002 -0.017,-0.006c-0.005,-0.005 -0.007,-0.011 -0.007,-0.019l-0,-0.05l0.073,-0.013l0.026,-0.129c0.003,-0.013 0.012,-0.02 0.027,-0.02l0.065,0l-0,0.15l0.327,-0Zm0.02,-0.144c0,0.01 -0.002,0.02 -0.006,0.03c-0.004,0.009 -0.01,0.017 -0.017,0.024c-0.007,0.007 -0.016,0.012 -0.025,0.017c-0.01,0.004 -0.02,0.006 -0.031,0.006c-0.011,-0 -0.02,-0.002 -0.03,-0.006c-0.009,-0.005 -0.017,-0.01 -0.024,-0.017c-0.007,-0.007 -0.013,-0.015 -0.017,-0.024c-0.004,-0.01 -0.006,-0.02 -0.006,-0.03c0,-0.011 0.002,-0.021 0.006,-0.031c0.004,-0.009 0.01,-0.017 0.017,-0.024c0.007,-0.007 0.015,-0.013 0.024,-0.017c0.01,-0.004 0.019,-0.006 0.03,-0.006c0.011,-0 0.021,0.002 0.031,0.006c0.009,0.004 0.018,0.01 0.025,0.017c0.007,0.007 0.013,0.015 0.017,0.024c0.004,0.01 0.006,0.02 0.006,0.031Z" style="fill-rule:nonzero;"/></g><text x="97.888px" y="529.98px" style="font-family:'Carlito-Bold', 'Carlito', sans-serif;font-weight:700;font-size:16px;">Figur<tspan x="130.841px 138.896px 141.969px " y="529.98px 529.98px 529.98px ">e 2</tspan>: <tspan x="157.566px 166.34px " y="529.98px 529.98px ">Re</tspan>solu<tspan x="211.261px " y="529.98px ">o</tspan>n <tspan x="231.522px " y="529.98px ">o</tspan>f <tspan x="248.26px " y="529.98px ">t</tspan>he <tspan x="273.521px " y="529.98px ">b</tspan>art<tspan x="301.044px " y="529.98px ">e</tspan>r <tspan x="317.86px 322.594px " y="529.98px 529.98px ">(o</tspan>n-chain).</text><text x="392.707px" y="529.98px" style="font-family:'Carlito', sans-serif;font-size:16px;"><tspan x="392.707px " y="529.98px ">(</tspan>1)</text><text x="413.593px" y="529.98px" style="font-family:'CascadiaCode-Regular', 'Cascadia Code', monospace;font-size:14px;">barter( <tspan x="478.674px " y="529.98px ">)</tspan></text><text x="489.951px" y="529.98px" style="font-family:'Carlito', sans-serif;font-size:16px;"><tspan x="489.951px " y="529.98px ">i</tspan>s <tspan x="502.954px 509.587px " y="529.98px 529.98px ">ca</tspan>lled <tspan x="544.035px " y="529.98px ">o</tspan>n <tspan x="563.953px " y="529.98px ">t</tspan>he</text><text x="97.888px" y="549.98px" style="font-family:'Carlito', sans-serif;font-size:16px;">ask<tspan x="118.568px " y="549.98px ">e</tspan>d t<tspan x="143.741px 152.179px 158.936px " y="549.98px 549.98px 549.98px ">oke</tspan>n smart c<tspan x="226.784px 235.221px 243.479px 248.838px 254.088px " y="549.98px 549.98px 549.98px 549.98px 549.98px ">ontra</tspan>ct (SmC) b<tspan x="327.779px " y="549.98px ">y</tspan> owner of <tspan x="400.909px " y="549.98px ">t</tspan>he t<tspan x="431.442px 439.88px 446.638px " y="549.98px 549.98px 549.98px ">oke</tspan>n id (her<tspan x="508.875px " y="549.98px ">e</tspan> B). (2 &amp; 4)</text><text x="97.888px" y="569.98px" style="font-family:'Carlito', sans-serif;font-size:16px;">Addr<tspan x="129.325px " y="569.98px ">e</tspan>sses <tspan x="176.286px " y="569.98px ">o</tspan>f <tspan x="201.871px " y="569.98px ">b</tspan>art<tspan x="228.707px 236.668px 242.035px " y="569.98px 569.98px 569.98px ">ere</tspan>d <tspan x="270.667px 275.87px 284.308px 291.066px " y="569.98px 569.98px 569.98px 569.98px ">toke</tspan>n <tspan x="319.698px " y="569.98px ">m</tspan>us<tspan x="346.964px 352.323px 364.588px " y="569.98px 569.98px 569.98px ">t b</tspan>e <tspan x="393.22px " y="569.98px ">a</tspan>ut<tspan x="414.494px " y="569.98px ">o</tspan>riz<tspan x="438.142px " y="569.98px ">e</tspan>d <tspan x="466.774px " y="569.98px ">e</tspan>ach <tspan x="509.836px " y="569.98px ">o</tspan>ther<tspan x="545.305px " y="569.98px ">s</tspan>. <tspan x="567.867px " y="569.98px ">(</tspan>3)</text><text x="97.888px" y="589.98px" style="font-family:'CascadiaCode-Regular', 'Cascadia Code', monospace;font-size:14px;">transferFor( <tspan x="203.89px " y="589.98px ">)</tspan></text><text x="215.071px" y="589.98px" style="font-family:'Carlito', sans-serif;font-size:16px;"><tspan x="215.071px " y="589.98px ">i</tspan>s <tspan x="227.98px 234.613px " y="589.98px 589.98px ">ca</tspan>lled <tspan x="268.966px " y="589.98px ">b</tspan>y <tspan x="287.515px " y="589.98px ">t</tspan>he <tspan x="312.22px " y="589.98px ">a</tspan>sk<tspan x="332.9px " y="589.98px ">e</tspan>d <tspan x="352.245px 357.449px 365.886px 372.644px " y="589.98px 589.98px 589.98px 589.98px ">toke</tspan>n <tspan x="391.99px " y="589.98px ">S</tspan>mC <tspan x="423.632px " y="589.98px ">o</tspan>n <tspan x="443.455px " y="589.98px ">t</tspan>he <tspan x="468.16px " y="589.98px ">b</tspan>id <tspan x="491.623px 496.826px 505.263px 512.021px " y="589.98px 589.98px 589.98px 589.98px ">toke</tspan>n <tspan x="531.367px " y="589.98px ">a</tspan>ddr<tspan x="561.21px " y="589.98px ">e</tspan>ss,</text><text x="97.888px" y="609.98px" style="font-family:'Carlito', sans-serif;font-size:16px;">(5) <tspan x="121.111px " y="609.98px ">b</tspan>art<tspan x="147.947px " y="609.98px ">e</tspan>r <tspan x="166.897px 172.084px " y="609.98px 609.98px ">te</tspan>rms <tspan x="210.073px " y="609.98px ">m</tspan>essag<tspan x="258.393px 266.354px 271.765px " y="609.98px 609.98px 609.98px ">e i</tspan>s <tspan x="287.106px " y="609.98px ">h</tspan>ashed <tspan x="339.618px 344.165px " y="609.98px 609.98px ">fo</tspan>llowing <tspan x="404.779px " y="609.98px ">E</tspan>IP<tspan x="424.411px " y="609.98px ">-</tspan>712 <tspan x="459.049px " y="609.98px ">i</tspan>n <tspan x="476.537px 484.975px 490.334px " y="609.98px 609.98px 609.98px ">ord</tspan>er <tspan x="517.69px 522.893px 531.331px 536.742px 542.109px 550.07px 556.703px 565.07px 572.14px " y="609.98px 609.98px 609.98px 609.98px 609.98px 609.98px 609.98px 609.98px 609.98px ">to recove</tspan>r</text><text x="97.888px" y="629.98px" style="font-family:'Carlito', sans-serif;font-size:16px;">messag<tspan x="146.208px 154.169px 160.323px " y="629.98px 629.98px 629.98px ">e s</tspan>igner&apos;s <tspan x="215.673px " y="629.98px ">a</tspan>ddr<tspan x="245.516px " y="629.98px ">e</tspan>ss <tspan x="272.147px " y="629.98px ">a</tspan>nd <tspan x="302.778px 310.661px 317.653px " y="629.98px 629.98px 629.98px ">eva</tspan>lua<tspan x="344.911px 350.098px 358.059px 364.213px " y="629.98px 629.98px 629.98px 629.98px ">te i</tspan>t. <tspan x="383.438px " y="629.98px ">(</tspan>5&apos;) <tspan x="410.936px " y="629.98px ">M</tspan>essag<tspan x="460.154px 468.115px 474.269px " y="629.98px 629.98px 629.98px ">e s</tspan>igner&apos;s <tspan x="529.619px " y="629.98px ">n</tspan>once <tspan x="575.75px " y="629.98px ">i</tspan>s</text><text x="97.888px" y="649.98px" style="font-family:'Carlito', sans-serif;font-size:16px;">incr<tspan x="122.099px " y="649.98px ">e</tspan>men<tspan x="159.06px 164.247px " y="649.98px 649.98px ">te</tspan>d. <tspan x="188.628px " y="649.98px ">(</tspan>6) <tspan x="210.415px " y="649.98px ">D</tspan>eadline <tspan x="271.975px " y="649.98px ">c</tspan>heck. <tspan x="317.161px " y="649.98px ">(</tspan>7 <tspan x="334.096px 345.01px 348.985px " y="649.98px 649.98px 649.98px ">&amp; 9</tspan>) <tspan x="365.92px 372.295px 380.732px 387.49px " y="649.98px 649.98px 649.98px 649.98px ">Toke</tspan>ns <tspan x="414.09px " y="649.98px ">o</tspan>wner<tspan x="455.574px " y="649.98px ">s</tspan>hip <tspan x="486.291px " y="649.98px ">(</tspan>or <tspan x="509.132px " y="649.98px ">a</tspan>llow<tspan x="543.773px " y="649.98px ">a</tspan>nces)</text><text x="97.888px" y="669.98px" style="font-family:'Carlito', sans-serif;font-size:16px;">ar<tspan x="110.919px 118.88px 126.618px " y="669.98px 669.98px 669.98px ">e c</tspan>heck<tspan x="163.274px " y="669.98px ">e</tspan>d <tspan x="187.379px 195.785px 203.606px 208.153px 216.59px 221.957px 229.918px 237.656px " y="669.98px 669.98px 669.98px 669.98px 669.98px 669.98px 669.98px 669.98px ">before t</tspan>he <tspan x="267.12px 272.48px 277.73px " y="669.98px 669.98px 669.98px ">tra</tspan>ns<tspan x="299.909px 304.394px 312.355px 316.558px 320.55px 328.288px " y="669.98px 669.98px 669.98px 669.98px 669.98px 669.98px ">fer, (</tspan>8 <tspan x="348.987px 359.901px 367.639px " y="669.98px 669.98px 669.98px ">&amp; 1</tspan>0) <tspan x="396.447px " y="669.98px ">t</tspan>hen <tspan x="434.317px 439.677px 444.927px " y="669.98px 669.98px 669.98px ">tra</tspan>ns<tspan x="467.106px 471.591px " y="669.98px 669.98px ">fe</tspan>r <tspan x="492.868px " y="669.98px ">o</tspan>f <tspan x="513.926px 519.129px 527.566px 534.324px " y="669.98px 669.98px 669.98px 669.98px ">toke</tspan>ns <tspan x="564.687px 572.351px 577.718px " y="669.98px 669.98px 669.98px ">are</tspan></text><text x="97.888px" y="689.98px" style="font-family:'Carlito', sans-serif;font-size:16px;">pr<tspan x="111.614px " y="689.98px ">o</tspan>ceeded.</text></g></g></svg>