<?xml version="1.0" encoding="UTF-8" standalone="no"?><!DOCTYPE svg PUBLIC "-//W3C//DTD SVG 1.1//EN" "http://www.w3.org/Graphics/SVG/1.1/DTD/svg11.dtd"><svg width="100%" height="100%" viewBox="0 0 3644 3595" version="1.1" xmlns="http://www.w3.org/2000/svg" xmlns:xlink="http://www.w3.org/1999/xlink" xml:space="preserve" xmlns:serif="http://www.serif.com/" style="fill-rule:evenodd;clip-rule:evenodd;stroke-linecap:round;stroke-linejoin:round;stroke-miterlimit:1.5;"><rect id="Figure-1-framed" serif:id="Figure 1 framed" x="0" y="0" width="3643.18" height="3594.61" style="fill:none;"/><g id="Schéma"><g><path d="M1468.32,314.535c0,-64.423 -52.303,-116.727 -116.727,-116.727l-895.869,0c-64.423,0 -116.726,52.304 -116.726,116.727l-0,668.681c-0,64.423 52.303,116.727 116.726,116.727l895.869,-0c64.424,-0 116.727,-52.304 116.727,-116.727l0,-668.681Z" style="fill:none;stroke:#000;stroke-width:6.67px;"/><g transform="matrix(5.55556,0,0,5.55556,-277.916,384.44)"><text x="136.245px" y="-8.096px" style="font-family:'Carlito', sans-serif;font-size:18px;">N</text><text x="147.865px" y="-8.096px" style="font-family:'Carlito', sans-serif;font-size:18px;">S<tspan x="156.012px " y="-8.096px ">T</tspan> X smart c<tspan x="236.142px 245.634px 254.924px 260.954px 266.86px " y="-8.096px -8.096px -8.096px -8.096px -8.096px ">ontra</tspan>ct</text></g></g><g><g><path d="M1316.32,1446.16c-0,-60.146 -48.831,-108.977 -108.977,-108.977l-624.283,0c-60.146,0 -108.976,48.831 -108.976,108.977l-0,1180.28c-0,60.145 48.83,108.976 108.976,108.976l624.283,0c60.146,0 108.977,-48.831 108.977,-108.976l-0,-1180.28Z" style="fill:none;stroke:#000;stroke-width:6.67px;"/><text x="635.074px" y="1478.84px" style="font-family:'Carlito', sans-serif;font-size:100px;">Bart<tspan x="804.654px " y="1478.84px ">e</tspan>r T<tspan x="951.724px " y="1478.84px ">e</tspan>rms</text></g><g><path d="M1251.36,1573.07c-0,-15.639 -12.697,-28.336 -28.336,-28.336l-654.401,-0c-15.639,-0 -28.336,12.697 -28.336,28.336l0,162.325c0,15.639 12.697,28.336 28.336,28.336l654.401,-0c15.639,-0 28.336,-12.697 28.336,-28.336l-0,-162.325Z" style="fill:none;stroke:#000;stroke-width:4.44px;"/><g transform="matrix(5.55556,0,0,5.55556,-398.295,2237.69)"><text x="223.542px" y="-112.857px" style="font-family:'Carlito', sans-serif;font-size:12px;">Bid:</text><text x="186.859px" y="-100.857px" style="font-family:'Carlito', sans-serif;font-size:12px;">T<tspan x="191.641px 197.969px 203.037px " y="-100.857px -100.857px -100.857px ">oke</tspan>n addr: 0x...11</text><text x="206.825px" y="-88.857px" style="font-family:'Carlito', sans-serif;font-size:12px;">T<tspan x="211.607px 217.935px 223.003px " y="-88.857px -88.857px -88.857px ">oke</tspan>n id: 5</text></g></g><g><path d="M1251.36,1792.06c-0,-15.639 -12.697,-28.336 -28.336,-28.336l-654.401,-0c-15.639,-0 -28.336,12.697 -28.336,28.336l0,162.325c0,15.639 12.697,28.336 28.336,28.336l654.401,-0c15.639,-0 28.336,-12.697 28.336,-28.336l-0,-162.325Z" style="fill:none;stroke:#000;stroke-width:4.44px;"/><g transform="matrix(5.55556,0,0,5.55556,-398.295,2456.69)"><text x="222.789px" y="-112.857px" style="font-family:'Carlito', sans-serif;font-size:12px;">Ask:</text><text x="186.859px" y="-100.857px" style="font-family:'Carlito', sans-serif;font-size:12px;">T<tspan x="191.641px 197.969px 203.037px " y="-100.857px -100.857px -100.857px ">oke</tspan>n addr: 0x...22</text><text x="206.825px" y="-88.857px" style="font-family:'Carlito', sans-serif;font-size:12px;">T<tspan x="211.607px 217.935px 223.003px " y="-88.857px -88.857px -88.857px ">oke</tspan>n id: 3</text></g></g><g><path d="M1251.36,2011.06c-0,-15.639 -12.697,-28.336 -28.336,-28.336l-654.401,-0c-15.639,-0 -28.336,12.697 -28.336,28.336l0,162.325c0,15.639 12.697,28.336 28.336,28.336l654.401,0c15.639,0 28.336,-12.697 28.336,-28.336l-0,-162.325Z" style="fill:none;stroke:#000;stroke-width:4.44px;"/><text x="775.18px" y="2115.37px" style="font-family:'Carlito', sans-serif;font-size:66.667px;">Nonce: 0</text></g><g><path d="M1251.36,2230.06c-0,-15.639 -12.697,-28.336 -28.336,-28.336l-654.401,0c-15.639,0 -28.336,12.697 -28.336,28.336l0,162.325c0,15.639 12.697,28.336 28.336,28.336l654.401,0c15.639,0 28.336,-12.697 28.336,-28.336l-0,-162.325Z" style="fill:#0d5915;"/><g transform="matrix(5.55556,0,0,5.55556,-398.295,2894.68)"><text x="199.797px" y="-106.857px" style="font-family:'Carlito', sans-serif;font-size:12px;fill:#fff;">Owner: 0x...A</text><text x="193.882px" y="-94.857px" style="font-family:'Carlito', sans-serif;font-size:12px;fill:#fff;">(message signer</text></g></g><g><path d="M1251.36,2449.05c-0,-15.639 -12.697,-28.336 -28.336,-28.336l-654.401,0c-15.639,0 -28.336,12.697 -28.336,28.336l0,162.325c0,15.64 12.697,28.336 28.336,28.336l654.401,0c15.639,0 28.336,-12.696 28.336,-28.336l-0,-162.325Z" style="fill:none;stroke:#000;stroke-width:4.44px;"/><text x="641.587px" y="2553.36px" style="font-family:'Carlito', sans-serif;font-size:66.667px;">Deadline: in 2 da<tspan x="1094.42px 1123.98px " y="2553.36px 2553.36px ">ys</tspan></text></g></g><g><path d="M3436.91,285.942c0,-48.642 -39.491,-88.134 -88.133,-88.134l-953.056,0c-48.642,0 -88.133,39.492 -88.133,88.134l-0,504.881c-0,48.642 39.491,88.133 88.133,88.133l953.056,-0c48.642,-0 88.133,-39.491 88.133,-88.133l0,-504.881Z" style="fill:none;stroke:#000;stroke-width:6.67px;"/><g transform="matrix(5.55556,0,0,5.55556,1690.67,384.44)"><text x="136.245px" y="-8.096px" style="font-family:'Carlito', sans-serif;font-size:18px;">N</text><text x="147.865px" y="-8.096px" style="font-family:'Carlito', sans-serif;font-size:18px;">S<tspan x="156.012px " y="-8.096px ">T</tspan> X smart c<tspan x="236.142px 245.634px 254.924px 260.954px 266.86px " y="-8.096px -8.096px -8.096px -8.096px -8.096px ">ontra</tspan>ct</text></g></g><g><g><path d="M2208.09,1680.93c0,-44.276 -35.946,-80.223 -80.222,-80.223l-278.992,0c-44.276,0 -80.223,35.947 -80.223,80.223l0,221.566c0,44.276 35.947,80.223 80.223,80.223l278.992,-0c44.276,-0 80.222,-35.947 80.222,-80.223l0,-221.566Z" style="fill:#0d5915;"/><g transform="matrix(5.55556,0,0,5.55556,1151.73,1787.34)"><text x="146.05px" y="-10.069px" style="font-family:'Carlito-Bold', 'Carlito', sans-serif;font-weight:700;font-size:15px;fill:#fff;">A</text><text x="114.555px" y="19.324px" style="font-family:'Carlito-Bold', 'Carlito', sans-serif;font-weight:700;font-size:15px;fill:#fff;">addr: 0x...<tspan x="177.544px " y="19.324px ">A</tspan></text></g></g><circle cx="1988.37" cy="1449.03" r="111.848" style="fill:#0d5915;"/></g><g><g><path d="M3436.91,1680.93c0,-44.276 -35.946,-80.223 -80.222,-80.223l-278.993,0c-44.276,0 -80.222,35.947 -80.222,80.223l-0,221.566c-0,44.276 35.946,80.223 80.222,80.223l278.993,-0c44.276,-0 80.222,-35.947 80.222,-80.223l0,-221.566Z" style="fill:#e8783c;"/><g transform="matrix(5.55556,0,0,5.55556,2380.56,1787.34)"><text x="146.39px" y="-10.069px" style="font-family:'Carlito-Bold', 'Carlito', sans-serif;font-weight:700;font-size:15px;fill:#fff;">B</text><text x="114.951px" y="19.324px" style="font-family:'Carlito-Bold', 'Carlito', sans-serif;font-weight:700;font-size:15px;fill:#fff;">addr: 0x...B</text></g></g><circle cx="3217.19" cy="1449.03" r="111.848" style="fill:#e8783c;"/></g><g><path d="M1288.19,1669.58l-33.333,-16.666l33.333,-16.667c-8.333,8.333 -8.333,25 0,33.333Z"/><path d="M1365.44,493.353c0,0 68.684,-0.373 113.276,-0.615c9.874,-0.054 19.362,3.831 26.363,10.794c7.001,6.963 10.937,16.43 10.937,26.304c-0,174.79 -0,911.623 -0,1085.98c-0,20.489 -16.61,37.099 -37.099,37.099c-53.371,-0 -150.539,-0 -197.39,-0" style="fill:none;stroke:#000;stroke-width:11.11px;stroke-linecap:butt;stroke-linejoin:miter;stroke-miterlimit:19;"/><path d="M1284.69,1889.89l-33.333,-16.667l33.333,-16.666c-8.333,8.333 -8.333,25 0,33.333Z"/><path d="M2402.01,493.353l-768.011,0c-20.488,0 -37.098,16.61 -37.098,37.099c-0,196.028 -0,1109.65 -0,1305.67c-0,9.839 -3.909,19.275 -10.866,26.232c-6.957,6.958 -16.393,10.866 -26.233,10.866c-70.137,0 -220.624,0 -281.785,0" style="fill:none;stroke:#000;stroke-width:11.11px;stroke-linecap:butt;stroke-linejoin:miter;stroke-miterlimit:1;"/><path d="M1365.44,697.708c0,-0 68.891,-0 113.477,-0c9.84,-0 19.276,3.908 26.233,10.865c6.957,6.958 10.866,16.394 10.866,26.233c-0,72.408 -0,225.545 -0,225.545" style="fill:none;stroke:#000;stroke-width:11.11px;stroke-linecap:butt;stroke-linejoin:miter;stroke-miterlimit:19;"/><path d="M2402.01,697.708l-768.011,-0c-20.488,-0 -37.098,16.609 -37.098,37.098c-0,53.024 -0,144.15 -0,144.15" style="fill:none;stroke:#000;stroke-width:11.11px;stroke-linecap:butt;stroke-linejoin:miter;stroke-miterlimit:19;"/><path d="M1288.19,2327.89l-33.333,-16.666l33.333,-16.667c-8.333,8.333 -8.333,25 0,33.333Z"/><path d="M1957.17,1982.72l-0,43.849c-0.001,20.489 -16.61,37.098 -37.099,37.098c-83.177,0 -283.781,0 -366.959,0c-9.839,0 -19.275,3.909 -26.232,10.866c-6.958,6.958 -10.866,16.394 -10.866,26.233c-0,46.745 -0,126.606 -0,173.351c-0,9.839 -3.909,19.275 -10.866,26.233c-6.957,6.957 -16.393,10.866 -26.233,10.866c-53.371,-0 -150.539,-0 -197.39,-0" style="fill:none;stroke:#000;stroke-width:11.11px;stroke-linecap:butt;stroke-linejoin:miter;stroke-miterlimit:19;"/><path d="M1288.19,2546.88l-33.333,-16.667l33.333,-16.667c-8.333,8.334 -8.333,25 0,33.334Z"/><path d="M1957.17,1982.72l-0,43.849c-0.001,20.489 -16.61,37.098 -37.099,37.098c-83.177,0 -283.781,0 -366.959,0c-9.839,0 -19.275,3.909 -26.232,10.866c-6.958,6.958 -10.866,16.394 -10.866,26.233c-0,87.321 -0,305.027 -0,392.348c-0,20.489 -16.61,37.099 -37.099,37.099c-53.371,-0 -150.539,-0 -197.39,-0" style="fill:none;stroke:#000;stroke-width:11.11px;stroke-linecap:butt;stroke-linejoin:miter;stroke-miterlimit:19;"/><path d="M2653.85,2698.48l-33.359,-16.615l33.308,-16.718c-8.321,8.346 -8.295,25.012 0.051,33.333Z"/><path d="M2031.37,1982.72l0,44.462c0,20.489 16.61,37.098 37.099,37.098c114.628,0 462.315,0 576.944,0c20.488,0 37.098,16.61 37.098,37.099c0,109.977 0,433.405 0,543.382c0,9.839 -3.909,19.275 -10.866,26.233c-6.545,6.545 -15.283,10.392 -24.487,10.825" style="fill:none;stroke:#000;stroke-width:11.11px;stroke-linecap:butt;stroke-linejoin:miter;stroke-miterlimit:19;"/><path d="M1828.9,2261.85l33.334,16.667l-33.334,16.667c8.334,-8.334 8.334,-25 0,-33.334Z"/><path d="M942.482,2735.41l0,78.167c0,9.839 3.909,19.275 10.866,26.232c6.957,6.957 16.394,10.866 26.233,10.866c135.311,-0 601.45,-0 736.762,-0c9.839,-0 19.275,-3.909 26.232,-10.866c6.958,-6.957 10.866,-16.393 10.866,-26.232c0,-103.482 0,-394.484 0,-497.966c0,-9.839 3.909,-19.275 10.866,-26.232c6.958,-6.958 16.394,-10.866 26.233,-10.866c14.786,-0 31.475,-0 45.029,-0" style="fill:none;stroke:#000;stroke-width:11.11px;stroke-linecap:butt;stroke-linejoin:miter;stroke-miterlimit:19;"/><path d="M3200.53,2016.06l16.666,-33.333l16.667,33.333c-8.333,-8.333 -25,-8.333 -33.333,0Z"/><path d="M853.593,2734.96l0,155.332c0,20.489 16.61,37.098 37.099,37.098c276.513,0 2012.89,0 2289.4,0c20.489,0 37.098,-16.609 37.098,-37.098c0,-154.847 0,-747.716 0,-880.9" style="fill:none;stroke:#000;stroke-width:11.11px;stroke-linecap:butt;stroke-linejoin:miter;stroke-miterlimit:19;stroke-dasharray:11.11,11.11;"/><path d="M2241.36,2791.36l0,22.216c0,9.84 3.909,19.276 10.866,26.233c6.958,6.957 16.394,10.866 26.233,10.866c154.63,-0 747.001,-0 901.631,-0c20.489,-0 37.098,-16.61 37.098,-37.099l0,-392.86" style="fill:none;stroke:#000;stroke-width:11.11px;stroke-linecap:butt;stroke-linejoin:miter;stroke-miterlimit:19;stroke-dasharray:11.11,11.11;"/><path d="M2258.03,2539.03l-16.667,33.333l-16.666,-33.333c8.333,8.333 25,8.333 33.333,-0Z"/><path d="M2241.36,2388.01l0,157.684" style="fill:none;stroke:#000;stroke-width:11.11px;stroke-linecap:butt;stroke-linejoin:miter;stroke-miterlimit:19;"/><path d="M506.949,2072.42l33.333,16.666l-33.333,16.667c8.333,-8.333 8.333,-25 -0,-33.333Z"/><path d="M424.971,899.984l-135.914,-0c-20.558,-0 -37.223,16.665 -37.223,37.222l0,1114.66c0,9.872 3.922,19.34 10.903,26.32c6.98,6.981 16.448,10.902 26.32,10.902c59.078,0 172.899,0 224.558,0" style="fill:none;stroke:#000;stroke-width:11.11px;stroke-linecap:butt;stroke-linejoin:miter;stroke-miterlimit:1;"/></g><g><path d="M1365.44,436.94c0,-10.87 -8.825,-19.695 -19.695,-19.695l-901.079,0c-10.87,0 -19.695,8.825 -19.695,19.695l0,112.826c0,10.87 8.825,19.695 19.695,19.695l901.079,0c10.87,0 19.695,-8.825 19.695,-19.695l0,-112.826Z" style="fill:none;stroke:#000;stroke-width:4.44px;"/><text x="722.452px" y="516.498px" style="font-family:'Carlito', sans-serif;font-size:66.667px;">Addr: 0x...11</text></g><g><path d="M2620.49,2197.35c-0,-15.639 -12.697,-28.336 -28.336,-28.336l-701.585,0c-15.639,0 -28.336,12.697 -28.336,28.336l-0,162.326c-0,15.639 12.697,28.336 28.336,28.336l701.585,-0c15.639,-0 28.336,-12.697 28.336,-28.336l-0,-162.326Z" style="fill:none;stroke:#000;stroke-width:4.44px;"/><text x="1904.17px" y="2301.66px" style="font-family:'Carlito', sans-serif;font-size:66.667px;">Messag<tspan x="2109.25px " y="2301.66px ">e</tspan> dig<tspan x="2238.65px 2271.82px 2297.14px " y="2301.66px 2301.66px 2301.66px ">est</tspan> (EIP<tspan x="2436.56px " y="2301.66px ">-</tspan>712)</text></g><g><path d="M2620.49,2600.7c-0,-15.639 -12.697,-28.336 -28.336,-28.336l-701.585,0c-15.639,0 -28.336,12.697 -28.336,28.336l-0,162.325c-0,15.639 12.697,28.336 28.336,28.336l701.585,0c15.639,0 28.336,-12.697 28.336,-28.336l-0,-162.325Z" style="fill:none;stroke:#000;stroke-width:4.44px;"/><text x="2113.09px" y="2705.01px" style="font-family:'Carlito', sans-serif;font-size:66.667px;">Signa<tspan x="2256.74px " y="2705.01px ">t</tspan>ur<tspan x="2336.47px " y="2705.01px ">e</tspan></text></g><g><path d="M3342.48,436.94c0,-10.87 -8.825,-19.695 -19.695,-19.695l-901.078,0c-10.87,0 -19.696,8.825 -19.696,19.695l0,112.826c0,10.87 8.826,19.695 19.696,19.695l901.078,0c10.87,0 19.695,-8.825 19.695,-19.695l0,-112.826Z" style="fill:none;stroke:#000;stroke-width:4.44px;"/><text x="2699.5px" y="516.498px" style="font-family:'Carlito', sans-serif;font-size:66.667px;">Addr: 0x...22</text></g><g id="mapping"><path d="M1112.12,685.685l24.046,12.023l-24.046,12.023c6.011,-6.012 6.011,-18.035 -0,-24.046Z"/><path d="M1084.89,697.708l32.048,-0" style="fill:none;stroke:#000;stroke-width:5.32px;"/><g><path d="M799.713,641.295c0,-10.87 -8.825,-19.696 -19.695,-19.696l-335.352,0c-10.87,0 -19.695,8.826 -19.695,19.696l0,112.826c0,10.87 8.825,19.695 19.695,19.695l335.352,-0c10.87,-0 19.695,-8.825 19.695,-19.695l0,-112.826Z" style="fill:none;stroke:#000;stroke-width:4.44px;"/><text x="508.257px" y="720.852px" style="font-family:'Carlito', sans-serif;font-size:66.667px;">Owner<tspan x="690.353px " y="720.852px ">s</tspan></text></g><g><path d="M1084.89,641.295c-0,-10.87 -8.825,-19.696 -19.695,-19.696l-189.879,0c-10.871,0 -19.696,8.826 -19.696,19.696l0,112.826c0,10.87 8.825,19.695 19.696,19.695l189.879,-0c10.87,-0 19.695,-8.825 19.695,-19.695l-0,-112.826Z" style="fill:none;stroke:#000;stroke-width:4.44px;"/><text x="953.357px" y="720.852px" style="font-family:'Carlito', sans-serif;font-size:66.667px;">5</text></g><g><path d="M1365.44,641.295c0,-10.87 -8.825,-19.696 -19.695,-19.696l-189.879,0c-10.87,0 -19.695,8.826 -19.695,19.696l-0,112.826c-0,10.87 8.825,19.695 19.695,19.695l189.879,-0c10.87,-0 19.695,-8.825 19.695,-19.695l0,-112.826Z" style="fill:#0d5915;"/><text x="1174.75px" y="720.852px" style="font-family:'Carlito', sans-serif;font-size:66.667px;fill:#fff;">0x...<tspan x="1288.29px " y="720.852px ">A</tspan></text></g></g><g id="mapping1" serif:id="mapping"><path d="M3089.17,685.685l24.046,12.023l-24.046,12.023c6.011,-6.012 6.011,-18.035 -0,-24.046Z"/><path d="M3061.93,697.708l32.048,-0" style="fill:none;stroke:#000;stroke-width:5.32px;"/><g><path d="M2776.76,641.295c0,-10.87 -8.825,-19.696 -19.695,-19.696l-335.351,0c-10.87,0 -19.696,8.826 -19.696,19.696l0,112.826c0,10.87 8.826,19.695 19.696,19.695l335.351,-0c10.87,-0 19.695,-8.825 19.695,-19.695l0,-112.826Z" style="fill:none;stroke:#000;stroke-width:4.44px;"/><text x="2485.3px" y="720.852px" style="font-family:'Carlito', sans-serif;font-size:66.667px;">Owner<tspan x="2667.4px " y="720.852px ">s</tspan></text></g><g><path d="M3061.93,641.295c-0,-10.87 -8.825,-19.696 -19.695,-19.696l-189.879,0c-10.87,0 -19.696,8.826 -19.696,19.696l0,112.826c0,10.87 8.826,19.695 19.696,19.695l189.879,-0c10.87,-0 19.695,-8.825 19.695,-19.695l-0,-112.826Z" style="fill:none;stroke:#000;stroke-width:4.44px;"/><text x="2930.4px" y="720.852px" style="font-family:'Carlito', sans-serif;font-size:66.667px;">3</text></g><g><path d="M3342.48,641.295c0,-10.87 -8.825,-19.696 -19.695,-19.696l-189.879,0c-10.87,0 -19.695,8.826 -19.695,19.696l-0,112.826c-0,10.87 8.825,19.695 19.695,19.695l189.879,-0c10.87,-0 19.695,-8.825 19.695,-19.695l0,-112.826Z" style="fill:#e8783c;"/><text x="3153.14px" y="720.852px" style="font-family:'Carlito', sans-serif;font-size:66.667px;fill:#fff;">0x...B</text></g></g><g><path d="M1112.12,887.961l24.046,12.023l-24.046,12.023c6.011,-6.012 6.011,-18.035 -0,-24.046Z"/><path d="M1084.89,899.984l32.048,-0" style="fill:none;stroke:#000;stroke-width:5.32px;"/><g><path d="M799.713,843.571c0,-10.87 -8.825,-19.695 -19.695,-19.695l-335.352,-0c-10.87,-0 -19.695,8.825 -19.695,19.695l0,112.826c0,10.87 8.825,19.695 19.695,19.695l335.352,-0c10.87,-0 19.695,-8.825 19.695,-19.695l0,-112.826Z" style="fill:none;stroke:#000;stroke-width:4.44px;"/><text x="512.017px" y="923.128px" style="font-family:'Carlito', sans-serif;font-size:66.667px;">Nonces</text></g><g><path d="M1084.89,843.571c-0,-10.87 -8.825,-19.695 -19.695,-19.695l-189.879,-0c-10.871,-0 -19.696,8.825 -19.696,19.695l0,112.826c0,10.87 8.825,19.695 19.696,19.695l189.879,-0c10.87,-0 19.695,-8.825 19.695,-19.695l-0,-112.826Z" style="fill:#0d5915;"/><text x="894.193px" y="923.128px" style="font-family:'Carlito', sans-serif;font-size:66.667px;fill:#fff;">0x...<tspan x="1007.74px " y="923.128px ">A</tspan></text></g><g><path d="M1365.44,843.571c0,-10.87 -8.825,-19.695 -19.695,-19.695l-189.879,-0c-10.87,-0 -19.695,8.825 -19.695,19.695l-0,112.826c-0,10.87 8.825,19.695 19.695,19.695l189.879,-0c10.87,-0 19.695,-8.825 19.695,-19.695l0,-112.826Z" style="fill:none;stroke:#000;stroke-width:4.44px;"/><text x="1233.91px" y="923.128px" style="font-family:'Carlito', sans-serif;font-size:66.667px;">0</text></g></g><g transform="matrix(5.55556,0,0,5.55556,-275.755,207.748)"><g transform="matrix(16,0,0,16,188.214,529.98)"><path d="M0.527,-0.481l-0,0.481l-0.124,-0l-0,-0.394l-0.203,0l-0,0.257c-0,0.014 0.003,0.025 0.009,0.033c0.006,0.008 0.014,0.012 0.026,0.012c0.006,0 0.011,-0.001 0.015,-0.002c0.004,-0.001 0.007,-0.003 0.01,-0.005c0.003,-0.002 0.006,-0.004 0.008,-0.005c0.003,-0.002 0.005,-0.002 0.008,-0.002c0.004,-0 0.007,0 0.009,0.002c0.002,0.002 0.005,0.005 0.007,0.009l0.038,0.06c-0.017,0.014 -0.036,0.024 -0.058,0.032c-0.021,0.007 -0.043,0.01 -0.066,0.01c-0.021,0 -0.04,-0.003 -0.056,-0.009c-0.016,-0.007 -0.03,-0.016 -0.041,-0.027c-0.011,-0.012 -0.019,-0.026 -0.025,-0.043c-0.005,-0.017 -0.008,-0.036 -0.008,-0.057l-0,-0.265l-0.043,0c-0.007,0 -0.012,-0.002 -0.017,-0.006c-0.005,-0.005 -0.007,-0.011 -0.007,-0.019l-0,-0.05l0.073,-0.013l0.026,-0.129c0.003,-0.013 0.012,-0.02 0.027,-0.02l0.065,0l-0,0.15l0.327,-0Zm0.02,-0.144c0,0.01 -0.002,0.02 -0.006,0.03c-0.004,0.009 -0.01,0.017 -0.017,0.024c-0.007,0.007 -0.016,0.012 -0.025,0.017c-0.01,0.004 -0.02,0.006 -0.031,0.006c-0.011,-0 -0.02,-0.002 -0.03,-0.006c-0.009,-0.005 -0.017,-0.01 -0.024,-0.017c-0.007,-0.007 -0.013,-0.015 -0.017,-0.024c-0.004,-0.01 -0.006,-0.02 -0.006,-0.03c0,-0.011 0.002,-0.021 0.006,-0.031c0.004,-0.009 0.01,-0.017 0.017,-0.024c0.007,-0.007 0.015,-0.013 0.024,-0.017c0.01,-0.004 0.019,-0.006 0.03,-0.006c0.011,-0 0.021,0.002 0.031,0.006c0.009,0.004 0.018,0.01 0.025,0.017c0.007,0.007 0.013,0.015 0.017,0.024c0.004,0.01 0.006,0.02 0.006,0.031Z" style="fill-rule:nonzero;"/></g><text x="97.888px" y="529.98px" style="font-family:'Carlito-Bold', 'Carlito', sans-serif;font-weight:700;font-size:16px;">Figur<tspan x="130.841px 138.896px 142.403px " y="529.98px 529.98px 529.98px ">e 1</tspan>: <tspan x="158.433px 166.902px 172.41px 180.464px 197.581px " y="529.98px 529.98px 529.98px 529.98px 529.98px ">Creao</tspan>n <tspan x="218.276px " y="529.98px ">o</tspan>f <tspan x="235.447px 243.345px 246.852px " y="529.98px 529.98px 529.98px ">a b</tspan>art<tspan x="274.376px " y="529.98px ">e</tspan>r <tspan x="291.625px 296.976px " y="529.98px 529.98px ">te</tspan>rm <tspan x="327.241px 331.976px 340.577px 349.835px " y="529.98px 529.98px 529.98px 529.98px ">(oﬀ-</tspan>chain).</text><text x="403.194px" y="529.98px" style="font-family:'Carlito', sans-serif;font-size:16px;"><tspan x="403.194px " y="529.98px ">(</tspan>1) <tspan x="424.513px 432.919px " y="529.98px 529.98px ">Re</tspan>ad <tspan x="460.457px " y="529.98px ">o</tspan>n-chain <tspan x="520.621px " y="529.98px ">o</tspan>r <tspan x="538.143px " y="529.98px ">s</tspan>et <tspan x="561.142px " y="529.98px ">a</tspan>rbitr<tspan x="597.072px " y="529.98px ">a</tspan>rily <tspan x="628.407px 636.813px 644.329px 649.493px " y="529.98px 529.98px 529.98px 529.98px ">data</tspan></text><text x="97.888px" y="549.98px" style="font-family:'Carlito', sans-serif;font-size:16px;">f<tspan x="102.435px " y="549.98px ">o</tspan>r <tspan x="120.972px " y="549.98px ">t</tspan>he <tspan x="147.221px " y="549.98px ">b</tspan>art<tspan x="174.057px 182.018px 186.221px 190.213px 194.735px " y="549.98px 549.98px 549.98px 549.98px 549.98px ">er, (</tspan>2) <tspan x="217.07px 222.437px " y="549.98px 549.98px ">re</tspan>ad <tspan x="250.991px " y="549.98px ">t</tspan>he <tspan x="277.239px " y="549.98px ">m</tspan>essag<tspan x="325.56px 333.521px 338.043px " y="549.98px 549.98px 549.98px ">e s</tspan>igner&apos;s <tspan x="391.76px " y="549.98px ">(</tspan>A) <tspan x="415.243px " y="549.98px ">n</tspan>once <tspan x="459.742px " y="549.98px ">o</tspan>n <tspan x="481.108px " y="549.98px ">t</tspan>he <tspan x="507.356px " y="549.98px ">b</tspan>id <tspan x="532.363px 537.566px 546.004px 552.761px " y="549.98px 549.98px 549.98px 549.98px ">toke</tspan>n, <tspan x="577.643px " y="549.98px ">(</tspan>3) <tspan x="599.978px " y="549.98px ">M</tspan>essag<tspan x="649.196px " y="549.98px ">e</tspan></text><g transform="matrix(16,0,0,16,200.764,569.98)"><path d="M0.485,-0.469l0,0.469l-0.086,-0l0,-0.406l-0.227,-0l0,0.285c0,0.019 0.005,0.034 0.013,0.044c0.009,0.01 0.02,0.014 0.034,0.014c0.008,0.001 0.015,-0.001 0.021,-0.003c0.006,-0.002 0.011,-0.005 0.015,-0.008c0.004,-0.003 0.007,-0.005 0.01,-0.008c0.003,-0.002 0.006,-0.003 0.008,-0.003c0.003,0 0.006,0.001 0.008,0.002c0.001,0.001 0.003,0.003 0.005,0.006l0.025,0.041c-0.014,0.014 -0.031,0.025 -0.051,0.032c-0.019,0.008 -0.04,0.011 -0.061,0.011c-0.036,0 -0.064,-0.01 -0.083,-0.031c-0.02,-0.022 -0.03,-0.052 -0.03,-0.091l0,-0.291l-0.052,-0c-0.006,-0 -0.01,-0.002 -0.013,-0.005c-0.004,-0.003 -0.005,-0.008 -0.005,-0.014l-0,-0.034l0.073,-0.01l0.02,-0.147c0.001,-0.005 0.003,-0.009 0.006,-0.012c0.003,-0.003 0.008,-0.004 0.013,-0.004l0.044,-0l0,0.163l0.313,0Zm0.019,-0.161c-0,0.008 -0.002,0.015 -0.005,0.023c-0.003,0.007 -0.008,0.013 -0.013,0.019c-0.006,0.005 -0.013,0.01 -0.02,0.013c-0.007,0.003 -0.015,0.005 -0.023,0.005c-0.008,-0 -0.016,-0.002 -0.023,-0.005c-0.007,-0.003 -0.014,-0.008 -0.019,-0.013c-0.005,-0.006 -0.01,-0.012 -0.013,-0.019c-0.003,-0.008 -0.005,-0.015 -0.005,-0.023c0,-0.009 0.002,-0.017 0.005,-0.024c0.003,-0.007 0.008,-0.014 0.013,-0.019c0.005,-0.006 0.012,-0.01 0.019,-0.014c0.007,-0.003 0.015,-0.004 0.023,-0.004c0.008,-0 0.016,0.001 0.023,0.004c0.007,0.004 0.014,0.008 0.02,0.014c0.005,0.005 0.01,0.012 0.013,0.019c0.003,0.007 0.005,0.015 0.005,0.024Z" style="fill-rule:nonzero;"/></g><text x="97.888px" y="569.98px" style="font-family:'Carlito', sans-serif;font-size:16px;">signer set <tspan x="164.209px " y="569.98px ">a</tspan>n op<tspan x="209.678px " y="569.98px ">o</tspan>nal deadline, <tspan x="305.421px " y="569.98px ">(</tspan>4) barter t<tspan x="376.218px " y="569.98px ">e</tspan>rm is <tspan x="419.89px " y="569.98px ">h</tspan>ashed f<tspan x="475.25px " y="569.98px ">o</tspan>llowing EIP<tspan x="553.797px " y="569.98px ">-</tspan>712 and <tspan x="614.923px " y="569.98px ">s</tspan>igned</text><text x="97.888px" y="589.98px" style="font-family:'Carlito', sans-serif;font-size:16px;">by A, (5) then bart<tspan x="216.075px " y="589.98px ">e</tspan>r t<tspan x="238.419px " y="589.98px ">e</tspan>rm and signa<tspan x="329.833px " y="589.98px ">t</tspan>ur<tspan x="348.966px " y="589.98px ">e</tspan> is sen<tspan x="396.568px " y="589.98px ">t</tspan> t<tspan x="410.747px " y="589.98px ">o</tspan> B.</text></g><g id="bulle"><circle cx="1555.8" cy="1187.42" r="87.481" style="fill:#808080;"/><text x="1530.46px" y="1222.51px" style="font-family:'Carlito-Bold', 'Carlito', sans-serif;font-weight:700;font-size:100px;fill:#fff;">1</text></g><g id="bulle1" serif:id="bulle"><circle cx="303.689" cy="1274.91" r="87.481" style="fill:#808080;"/><text x="278.347px" y="1309.99px" style="font-family:'Carlito-Bold', 'Carlito', sans-serif;font-weight:700;font-size:100px;fill:#fff;">2</text></g><g id="bulle2" serif:id="bulle"><circle cx="1669.59" cy="2100.66" r="87.481" style="fill:#808080;"/><text x="1644.25px" y="2135.74px" style="font-family:'Carlito-Bold', 'Carlito', sans-serif;font-weight:700;font-size:100px;fill:#fff;">3</text></g><g id="bulle3" serif:id="bulle"><circle cx="1821.7" cy="2594.24" r="87.481" style="fill:#808080;"/><text x="1796.36px" y="2629.33px" style="font-family:'Carlito-Bold', 'Carlito', sans-serif;font-weight:700;font-size:100px;fill:#fff;">4</text></g><g id="bulle4" serif:id="bulle"><circle cx="2790.25" cy="2876.74" r="87.481" style="fill:#808080;"/><text x="2764.91px" y="2911.82px" style="font-family:'Carlito-Bold', 'Carlito', sans-serif;font-weight:700;font-size:100px;fill:#fff;">5</text></g></g></svg>