<svg version="1.1" xmlns="http://www.w3.org/2000/svg" viewBox="0 0 592.8096655232913 598.4738402473761" width="1185.6193310465826" height="1196.9476804947521">
  <!-- svg-source:excalidraw -->
  
  <defs>
    <style class="style-fonts">
      @media (prefers-color-scheme: dark) {
      :root {
        color-scheme: dark;
      }
      svg {
          filter: invert(93%) hue-rotate(180deg);
      }
      }
      @font-face {
        font-family: "Virgil";
        src: url("https://excalidraw.com/Virgil.woff2");
      }
      @font-face {
        font-family: "Cascadia";
        src: url("https://excalidraw.com/Cascadia.woff2");
      }
      @font-face {
        font-family: "Assistant";
        src: url("https://excalidraw.com/Assistant-Regular.woff2");
      }
    </style>
    
  </defs>
  <rect x="0" y="0" width="592.8096655232913" height="598.4738402473761" fill="#ffffff"></rect><g stroke-linecap="round" transform="translate(150.5887744973727 10) rotate(0 136.189453125 30.68423671321139)"><path d="M15.34 0 C90.46 0, 165.57 0, 257.04 0 M15.34 0 C96.21 0, 177.08 0, 257.04 0 M257.04 0 C267.26 0, 272.38 5.11, 272.38 15.34 M257.04 0 C267.26 0, 272.38 5.11, 272.38 15.34 M272.38 15.34 C272.38 21.94, 272.38 28.53, 272.38 46.03 M272.38 15.34 C272.38 24.15, 272.38 32.96, 272.38 46.03 M272.38 46.03 C272.38 56.25, 267.26 61.37, 257.04 61.37 M272.38 46.03 C272.38 56.25, 267.26 61.37, 257.04 61.37 M257.04 61.37 C184.32 61.37, 111.61 61.37, 15.34 61.37 M257.04 61.37 C182.19 61.37, 107.34 61.37, 15.34 61.37 M15.34 61.37 C5.11 61.37, 0 56.25, 0 46.03 M15.34 61.37 C5.11 61.37, 0 56.25, 0 46.03 M0 46.03 C0 38.98, 0 31.94, 0 15.34 M0 46.03 C0 35.12, 0 24.2, 0 15.34 M0 15.34 C0 5.11, 5.11 0, 15.34 0 M0 15.34 C0 5.11, 5.11 0, 15.34 0" stroke="#1e1e1e" stroke-width="1" fill="none"></path></g><g transform="translate(186.56476227126564 17.598495010766953) rotate(0 105.46875 21.599999999999994)"><text x="0" y="0" font-family="Cascadia, Segoe UI Emoji" font-size="36px" fill="#1e1e1e" text-anchor="start" style="white-space: pre;" direction="ltr" dominant-baseline="text-before-edge">EntryPoint</text></g><g mask="url(#mask-aCHgNlyURqrQu27E1Yzf1)" stroke-linecap="round"><g transform="translate(285.1717276079859 73.90362967642278) rotate(0 1.8598633485671598 65.46088653547667)"><path d="M0 0 C0.81 28.42, 1.61 56.84, 3.72 130.92 M0 0 C0.74 26.2, 1.49 52.4, 3.72 130.92" stroke="#1e1e1e" stroke-width="1" fill="none"></path></g><g transform="translate(285.1717276079859 73.90362967642278) rotate(0 1.8598633485671598 65.46088653547667)"><path d="M-5.49 107.68 C-3.49 112.73, -1.49 117.77, 3.72 130.92 M-5.49 107.68 C-3.65 112.33, -1.81 116.98, 3.72 130.92" stroke="#1e1e1e" stroke-width="1" fill="none"></path></g><g transform="translate(285.1717276079859 73.90362967642278) rotate(0 1.8598633485671598 65.46088653547667)"><path d="M11.6 107.2 C9.89 112.35, 8.18 117.5, 3.72 130.92 M11.6 107.2 C10.02 111.94, 8.45 116.69, 3.72 130.92" stroke="#1e1e1e" stroke-width="1" fill="none"></path></g></g><mask id="mask-aCHgNlyURqrQu27E1Yzf1"><rect x="0" y="0" fill="#fff" width="388.8914543051202" height="304.82540274737613"></rect><rect x="212.03159095655303" y="120.16451621189947" fill="#000" width="150" height="38.4" opacity="1"></rect></mask><g transform="translate(212.03159095655303 120.16451621189947) rotate(0 75 19.19999999999999)"><text x="75" y="0" font-family="Cascadia, Segoe UI Emoji" font-size="16px" fill="#1e1e1e" text-anchor="middle" style="white-space: pre;" direction="ltr" dominant-baseline="text-before-edge">calls </text><text x="75" y="19.2" font-family="Cascadia, Segoe UI Emoji" font-size="16px" fill="#1e1e1e" text-anchor="middle" style="white-space: pre;" direction="ltr" dominant-baseline="text-before-edge">`validateUserOp`</text></g><g stroke-linecap="round" transform="translate(10 214.39962149737607) rotate(0 286.40483276164565 187.037109375)"><path d="M32 0 C171.39 0, 310.78 0, 540.81 0 M540.81 0 C562.14 0, 572.81 10.67, 572.81 32 M572.81 32 C572.81 115.54, 572.81 199.09, 572.81 342.07 M572.81 342.07 C572.81 363.41, 562.14 374.07, 540.81 374.07 M540.81 374.07 C382.68 374.07, 224.55 374.07, 32 374.07 M32 374.07 C10.67 374.07, 0 363.41, 0 342.07 M0 342.07 C0 274.77, 0 207.46, 0 32 M0 32 C0 10.67, 10.67 0, 32 0" stroke="#1e1e1e" stroke-width="2.5" fill="none" stroke-dasharray="8 10"></path></g><g transform="translate(151.41429529487107 265.23321853124844) rotate(0 125.63402314809457 5.720892570655849)"><text x="0" y="0" font-family="Cascadia, Segoe UI Emoji" font-size="9.534820951093105px" fill="#1e1e1e" text-anchor="start" style="white-space: pre;" direction="ltr" dominant-baseline="text-before-edge">Check whether `nonce` uses non-sequential key</text></g><g mask="url(#mask-wvqAWwr4eYLTnoMc6t__t)" stroke-linecap="round"><g transform="translate(100.58309048140745 271.0869881016647) rotate(0 1.4093008446537283 57.464773144912584)"><path d="M0 0 C0.46 25.67, 0.92 51.33, 1.29 72.49 M0 0 C0.49 27.61, 0.99 55.22, 1.29 72.49 M1.29 72.49 C1.73 84.66, 2.17 96.83, 2.82 114.93 M1.29 72.49 C1.66 82.72, 2.03 92.94, 2.82 114.93" stroke="#1e1e1e" stroke-width="1" fill="none"></path></g><g transform="translate(100.58309048140745 271.0869881016647) rotate(0 1.4093008446537283 57.464773144912584)"><path d="M-5.15 95.25 C-2.33 102.22, 0.49 109.19, 2.82 114.93 M-5.15 95.25 C-2.12 102.75, 0.92 110.24, 2.82 114.93" stroke="#1e1e1e" stroke-width="1" fill="none"></path></g><g transform="translate(100.58309048140745 271.0869881016647) rotate(0 1.4093008446537283 57.464773144912584)"><path d="M9.36 94.73 C7.04 101.88, 4.73 109.03, 2.82 114.93 M9.36 94.73 C6.87 102.42, 4.38 110.12, 2.82 114.93" stroke="#1e1e1e" stroke-width="1" fill="none"></path></g></g><mask id="mask-wvqAWwr4eYLTnoMc6t__t"><rect x="0" y="0" fill="#fff" width="203.4016921707149" height="486.01653439148987"></rect><rect x="36.25238122921189" y="333.9804337620551" fill="#000" width="131.25" height="19.2" opacity="1"></rect></mask><g transform="translate(36.25238122921189 333.98043376205504) rotate(0 65.74001009684929 -5.428672515477757)"><text x="65.625" y="0" font-family="Cascadia, Segoe UI Emoji" font-size="16px" fill="#1e1e1e" text-anchor="middle" style="white-space: pre;" direction="ltr" dominant-baseline="text-before-edge">sequential key</text></g><g stroke-linecap="round" transform="translate(99.69163904487107 219.58378314188042) rotate(0 176.798828125 50.2734375)"><path d="M177 0 C237.54 17.48, 298.08 34.97, 353.6 51 M177 0 C241.08 18.51, 305.16 37.01, 353.6 51 M353.6 51 C312.4 62.56, 271.21 74.12, 177 100.55 M353.6 51 C303.95 64.93, 254.31 78.86, 177 100.55 M177 100.55 C131.49 87.81, 85.99 75.07, 0 51 M177 100.55 C137.43 89.47, 97.87 78.4, 0 51 M0 51 C57.51 34.43, 115.01 17.86, 177 0 M0 51 C68.54 31.25, 137.09 11.5, 177 0" stroke="#1e1e1e" stroke-width="1" fill="none"></path></g><g stroke-linecap="round" transform="translate(45.48221652521693 387.42767267741544) rotate(0 71.33852118855515 24.5)"><path d="M0 0 C31.97 0, 63.93 0, 142.68 0 M0 0 C48.68 0, 97.37 0, 142.68 0 M142.68 0 C142.68 18.85, 142.68 37.71, 142.68 49 M142.68 0 C142.68 11.86, 142.68 23.71, 142.68 49 M142.68 49 C94.71 49, 46.74 49, 0 49 M142.68 49 C91.42 49, 40.16 49, 0 49 M0 49 C0 37.61, 0 26.21, 0 0 M0 49 C0 35.62, 0 22.23, 0 0" stroke="#1e1e1e" stroke-width="1" fill="none"></path></g><g transform="translate(74.63323771377202 392.7276726774154) rotate(0 42.1875 19.19999999999999)"><text x="42.1875" y="0" font-family="Cascadia, Segoe UI Emoji" font-size="16px" fill="#1e1e1e" text-anchor="middle" style="white-space: pre;" direction="ltr" dominant-baseline="text-before-edge">check </text><text x="42.1875" y="19.2" font-family="Cascadia, Segoe UI Emoji" font-size="16px" fill="#1e1e1e" text-anchor="middle" style="white-space: pre;" direction="ltr" dominant-baseline="text-before-edge">signature</text></g><g mask="url(#mask-Bg1U5xMMnM3egAtd725uQ)" stroke-linecap="round"><g transform="translate(452.2184604857465 269.8585829374399) rotate(0 1.7195753429160732 55.33919973967767)"><path d="M0 0 C0.98 31.66, 1.97 63.32, 3.44 110.68 M0 0 C1.19 38.29, 2.38 76.58, 3.44 110.68" stroke="#1e1e1e" stroke-width="1" fill="none"></path></g><g transform="translate(452.2184604857465 269.8585829374399) rotate(0 1.7195753429160732 55.33919973967767)"><path d="M-5.84 87.46 C-3.18 94.1, -0.53 100.74, 3.44 110.68 M-5.84 87.46 C-2.63 95.49, 0.58 103.53, 3.44 110.68" stroke="#1e1e1e" stroke-width="1" fill="none"></path></g><g transform="translate(452.2184604857465 269.8585829374399) rotate(0 1.7195753429160732 55.33919973967767)"><path d="M11.26 86.93 C9.02 93.72, 6.78 100.52, 3.44 110.68 M11.26 86.93 C8.55 95.15, 5.85 103.36, 3.44 110.68" stroke="#1e1e1e" stroke-width="1" fill="none"></path></g></g><mask id="mask-Bg1U5xMMnM3egAtd725uQ"><rect x="0" y="0" fill="#fff" width="555.6576111715787" height="480.53698241679524"></rect><rect x="369.5630358286626" y="315.5977826771175" fill="#000" width="168.75" height="19.2" opacity="1"></rect></mask><g transform="translate(369.5630358286626 315.59778267711755) rotate(0 84.375 9.600000000000023)"><text x="84.375" y="0" font-family="Cascadia, Segoe UI Emoji" font-size="16px" fill="#1e1e1e" text-anchor="middle" style="white-space: pre;" direction="ltr" dominant-baseline="text-before-edge">non-sequential key</text></g><g stroke-linecap="round" transform="translate(347.45346586947164 383.6278545385061) rotate(0 106.68643709279411 27.3606782992606)"><path d="M0 0 C67.34 0, 134.67 0, 213.37 0 M0 0 C58.89 0, 117.79 0, 213.37 0 M213.37 0 C213.37 12.37, 213.37 24.74, 213.37 54.72 M213.37 0 C213.37 13.78, 213.37 27.56, 213.37 54.72 M213.37 54.72 C166.64 54.72, 119.91 54.72, 0 54.72 M213.37 54.72 C150.14 54.72, 86.9 54.72, 0 54.72 M0 54.72 C0 35.71, 0 16.7, 0 0 M0 54.72 C0 38.67, 0 22.62, 0 0" stroke="#1e1e1e" stroke-width="1" fill="none"></path></g><g transform="translate(363.29159367140994 399.97005408448683) rotate(0 92.5224609375 11.493198016049462)"><text x="92.5224609375" y="0" font-family="Cascadia, Segoe UI Emoji" font-size="9.577665013374528px" fill="#1e1e1e" text-anchor="middle" style="white-space: pre;" direction="ltr" dominant-baseline="text-before-edge">forward calldata if a `validator`</text><text x="92.5224609375" y="11.493198016049433" font-family="Cascadia, Segoe UI Emoji" font-size="9.577665013374528px" fill="#1e1e1e" text-anchor="middle" style="white-space: pre;" direction="ltr" dominant-baseline="text-before-edge">corresponding to key exists</text></g><g stroke-linecap="round" transform="translate(158.09199697665952 484.85143190064514) rotate(0 128.5627222543352 30.996511261294586)"><path d="M0 0 C85.12 0, 170.23 0, 257.13 0 M0 0 C66.58 0, 133.15 0, 257.13 0 M257.13 0 C257.13 24.54, 257.13 49.08, 257.13 61.99 M257.13 0 C257.13 16.37, 257.13 32.73, 257.13 61.99 M257.13 61.99 C192.78 61.99, 128.44 61.99, 0 61.99 M257.13 61.99 C202.35 61.99, 147.58 61.99, 0 61.99 M0 61.99 C0 41.72, 0 21.45, 0 0 M0 61.99 C0 49.08, 0 36.16, 0 0" stroke="#1e1e1e" stroke-width="1" fill="none"></path></g><g transform="translate(178.84221923099471 506.2479431619397) rotate(0 107.8125 9.600000000000023)"><text x="107.8125" y="0" font-family="Cascadia, Segoe UI Emoji" font-size="16px" fill="#1e1e1e" text-anchor="middle" style="white-space: pre;" direction="ltr" dominant-baseline="text-before-edge">return `validationData`</text></g><g stroke-linecap="round"><g transform="translate(172.82084740873518 436.3515735278188) rotate(0 1.2456247778812894 24.78163869931211)"><path d="M0 0 C0.66 13.2, 1.33 26.41, 2.49 49.56 M0 0 C0.97 19.26, 1.94 38.52, 2.49 49.56" stroke="#1e1e1e" stroke-width="1" fill="none"></path></g><g transform="translate(172.82084740873518 436.3515735278188) rotate(0 1.2456247778812894 24.78163869931211)"><path d="M-7.16 26.7 C-4.59 32.79, -2.02 38.88, 2.49 49.56 M-7.16 26.7 C-3.41 35.59, 0.34 44.47, 2.49 49.56" stroke="#1e1e1e" stroke-width="1" fill="none"></path></g><g transform="translate(172.82084740873518 436.3515735278188) rotate(0 1.2456247778812894 24.78163869931211)"><path d="M9.8 25.85 C7.85 32.17, 5.9 38.49, 2.49 49.56 M9.8 25.85 C6.96 35.06, 4.12 44.28, 2.49 49.56" stroke="#1e1e1e" stroke-width="1" fill="none"></path></g></g><mask></mask><g stroke-linecap="round"><g transform="translate(405.9150096334928 439.32649653456724) rotate(0 0.46545287577748695 21.88953648896529)"><path d="M0 0 C0.29 13.83, 0.59 27.66, 0.93 43.78 M0 0 C0.27 12.57, 0.53 25.13, 0.93 43.78" stroke="#1e1e1e" stroke-width="1" fill="none"></path></g><g transform="translate(405.9150096334928 439.32649653456724) rotate(0 0.46545287577748695 21.88953648896529)"><path d="M-6.99 23.37 C-4.49 29.82, -1.99 36.26, 0.93 43.78 M-6.99 23.37 C-4.72 29.23, -2.44 35.09, 0.93 43.78" stroke="#1e1e1e" stroke-width="1" fill="none"></path></g><g transform="translate(405.9150096334928 439.32649653456724) rotate(0 0.46545287577748695 21.88953648896529)"><path d="M7.98 23.05 C5.75 29.6, 3.53 36.15, 0.93 43.78 M7.98 23.05 C5.96 29, 3.93 34.95, 0.93 43.78" stroke="#1e1e1e" stroke-width="1" fill="none"></path></g></g><mask></mask></svg>
