<svg xmlns="http://www.w3.org/2000/svg" xmlns:xlink="http://www.w3.org/1999/xlink" contentStyleType="text/css" data-diagram-type="SEQUENCE" height="1297px" preserveAspectRatio="none" style="width:1587px;height:1297px;background:#FFFFFF;" version="1.1" viewBox="0 0 1587 1297" width="1587px" zoomAndPan="magnify"><title>Encrypted Call Descriptor + Encrypted Arguments via Call Decryption Oracle (Init + Execution phases)</title><defs/><g><text fill="#000000" font-family="sans-serif" font-size="14" font-weight="bold" lengthAdjust="spacing" textLength="737.8096" x="428.4087" y="28.5352">Encrypted Call Descriptor + Encrypted Arguments via Call Decryption Oracle (Init + Execution phases)</text><g><title>User . Caller</title><rect fill="#000000" fill-opacity="0.00000" height="1096.1797" width="8" x="47.3032" y="118.9766"/><line style="stroke:#181818;stroke-width:0.5;stroke-dasharray:5,5;" x1="50.8032" x2="50.8032" y1="118.9766" y2="1215.1563"/></g><g><title>Orchestration Contract.</title><rect fill="#000000" fill-opacity="0.00000" height="1096.1797" width="8" x="319.3105" y="118.9766"/><line style="stroke:#181818;stroke-width:0.5;stroke-dasharray:5,5;" x1="322.8105" x2="322.8105" y1="118.9766" y2="1215.1563"/></g><g><title/><rect fill="#FFCC80" height="86.9316" style="stroke:#181818;stroke-width:1;" width="10" x="317.8105" y="372.082"/></g><g><title/><rect fill="#FFCC80" height="203.1738" style="stroke:#181818;stroke-width:1;" width="10" x="317.8105" y="547.6348"/></g><g><title>Call Decryption Oracle Contract.</title><rect fill="#000000" fill-opacity="0.00000" height="1096.1797" width="8" x="595.228" y="118.9766"/><line style="stroke:#181818;stroke-width:0.5;stroke-dasharray:5,5;" x1="598.728" x2="598.728" y1="118.9766" y2="1215.1563"/></g><g><title/><rect fill="#8080FF" height="116.2422" style="stroke:#181818;stroke-width:1;" width="10" x="593.728" y="634.5664"/></g><g><title/><rect fill="#8080FF" height="203.1738" style="stroke:#181818;stroke-width:1;" width="10" x="593.728" y="979.9824"/></g><g><title>Call Decryption Oracle.</title><rect fill="#000000" fill-opacity="0.00000" height="1096.1797" width="8" x="978.8696" y="118.9766"/><line style="stroke:#181818;stroke-width:0.5;stroke-dasharray:5,5;" x1="982.3696" x2="982.3696" y1="118.9766" y2="1215.1563"/></g><g><title/><rect fill="#808080" height="44.6211" style="stroke:#181818;stroke-width:1;" width="10" x="977.3696" y="208.9082"/></g><g><title/><rect fill="#808080" height="44.6211" style="stroke:#181818;stroke-width:1;" width="10" x="977.3696" y="298.1504"/></g><g><title/><rect fill="#808080" height="171.5527" style="stroke:#181818;stroke-width:1;" width="10" x="977.3696" y="808.4297"/></g><g><title>Target Contract</title><rect fill="#000000" fill-opacity="0.00000" height="1096.1797" width="8" x="1278.6265" y="118.9766"/><line style="stroke:#181818;stroke-width:0.5;stroke-dasharray:5,5;" x1="1282.1265" x2="1282.1265" y1="118.9766" y2="1215.1563"/></g><g><title/><rect fill="#FF8080" height="86.9316" style="stroke:#181818;stroke-width:1;" width="10" x="1277.1265" y="1024.6035"/></g><text fill="#000000" font-family="sans-serif" font-size="14" lengthAdjust="spacing" textLength="85.6064" x="5" y="116.0234">User / Caller</text><ellipse cx="50.8032" cy="50.9883" fill="#E2E2F0" rx="8" ry="8" style="stroke:#181818;stroke-width:0.5;"/><path d="M50.8032,58.9883 L50.8032,85.9883 M37.8032,66.9883 L63.8032,66.9883 M50.8032,85.9883 L37.8032,100.9883 M50.8032,85.9883 L63.8032,100.9883" fill="none" style="stroke:#181818;stroke-width:0.5;"/><rect fill="#E2E2F0" height="46.9766" rx="2.5" ry="2.5" style="stroke:#181818;stroke-width:0.5;" width="180.6943" x="232.4634" y="71"/><text fill="#000000" font-family="sans-serif" font-size="14" lengthAdjust="spacing" textLength="159.6055" x="243.0078" y="91.5352">Orchestration Contract:</text><text fill="#000000" font-family="sans-serif" font-size="14" lengthAdjust="spacing" textLength="166.6943" x="239.4634" y="108.0234">Business Logic / Storage</text><rect fill="#E2E2F0" height="46.9766" rx="2.5" ry="2.5" style="stroke:#181818;stroke-width:0.5;" width="232.5449" x="482.4556" y="71"/><text fill="#000000" font-family="sans-serif" font-size="14" lengthAdjust="spacing" textLength="218.5449" x="489.4556" y="91.5352">Call Decryption Oracle Contract:</text><text fill="#000000" font-family="sans-serif" font-size="14" lengthAdjust="spacing" textLength="146.7813" x="525.3374" y="108.0234">ICallDecryptionOracle</text><rect fill="#E2E2F0" height="46.9766" rx="2.5" ry="2.5" style="stroke:#181818;stroke-width:0.5;" width="170.0371" x="897.3511" y="71"/><text fill="#000000" font-family="sans-serif" font-size="14" lengthAdjust="spacing" textLength="156.0371" x="904.3511" y="91.5352">Call Decryption Oracle:</text><text fill="#000000" font-family="sans-serif" font-size="14" lengthAdjust="spacing" textLength="72.4268" x="946.1563" y="108.0234">(off-chain)</text><rect fill="#E2E2F0" height="30.4883" rx="2.5" ry="2.5" style="stroke:#181818;stroke-width:0.5;" width="120.5859" x="1221.8335" y="87.4883"/><text fill="#000000" font-family="sans-serif" font-size="14" lengthAdjust="spacing" textLength="106.5859" x="1228.8335" y="108.0234">Target Contract</text><text fill="#000000" font-family="sans-serif" font-size="14" lengthAdjust="spacing" textLength="85.6064" x="5" y="1288.6914">User / Caller</text><ellipse cx="50.8032" cy="1223.6563" fill="#E2E2F0" rx="8" ry="8" style="stroke:#181818;stroke-width:0.5;"/><path d="M50.8032,1231.6563 L50.8032,1258.6563 M37.8032,1239.6563 L63.8032,1239.6563 M50.8032,1258.6563 L37.8032,1273.6563 M50.8032,1258.6563 L63.8032,1273.6563" fill="none" style="stroke:#181818;stroke-width:0.5;"/><rect fill="#E2E2F0" height="46.9766" rx="2.5" ry="2.5" style="stroke:#181818;stroke-width:0.5;" width="180.6943" x="232.4634" y="1215.1563"/><text fill="#000000" font-family="sans-serif" font-size="14" lengthAdjust="spacing" textLength="159.6055" x="243.0078" y="1235.6914">Orchestration Contract:</text><text fill="#000000" font-family="sans-serif" font-size="14" lengthAdjust="spacing" textLength="166.6943" x="239.4634" y="1252.1797">Business Logic / Storage</text><rect fill="#E2E2F0" height="46.9766" rx="2.5" ry="2.5" style="stroke:#181818;stroke-width:0.5;" width="232.5449" x="482.4556" y="1215.1563"/><text fill="#000000" font-family="sans-serif" font-size="14" lengthAdjust="spacing" textLength="218.5449" x="489.4556" y="1235.6914">Call Decryption Oracle Contract:</text><text fill="#000000" font-family="sans-serif" font-size="14" lengthAdjust="spacing" textLength="146.7813" x="525.3374" y="1252.1797">ICallDecryptionOracle</text><rect fill="#E2E2F0" height="46.9766" rx="2.5" ry="2.5" style="stroke:#181818;stroke-width:0.5;" width="170.0371" x="897.3511" y="1215.1563"/><text fill="#000000" font-family="sans-serif" font-size="14" lengthAdjust="spacing" textLength="156.0371" x="904.3511" y="1235.6914">Call Decryption Oracle:</text><text fill="#000000" font-family="sans-serif" font-size="14" lengthAdjust="spacing" textLength="72.4268" x="946.1563" y="1252.1797">(off-chain)</text><rect fill="#E2E2F0" height="30.4883" rx="2.5" ry="2.5" style="stroke:#181818;stroke-width:0.5;" width="120.5859" x="1221.8335" y="1215.1563"/><text fill="#000000" font-family="sans-serif" font-size="14" lengthAdjust="spacing" textLength="106.5859" x="1228.8335" y="1235.6914">Target Contract</text><path d="M34.8032,130.9766 L474.2021,130.9766 L474.2021,138.2871 L464.2021,148.2871 L34.8032,148.2871 L34.8032,130.9766" fill="#EEEEEE" style="stroke:#000000;stroke-width:1.5;"/><rect fill="none" height="336.0371" style="stroke:#000000;stroke-width:1.5;" width="968.5664" x="34.8032" y="130.9766"/><text fill="#000000" font-family="sans-serif" font-size="13" font-weight="bold" lengthAdjust="spacing" textLength="394.3989" x="49.8032" y="144.5449">Init phase - store encrypted arguments and call descriptor</text><polygon fill="#FFFFFF" points="970.3696,160.2871,980.3696,164.2871,970.3696,168.2871,974.3696,164.2871" style="stroke:#FFFFFF;stroke-width:1;"/><line style="stroke:#FFFFFF;stroke-width:1;" x1="50.8032" x2="976.3696" y1="164.2871" y2="164.2871"/><polygon fill="#181818" points="965.3696,204.9082,975.3696,208.9082,965.3696,212.9082,969.3696,208.9082" style="stroke:#181818;stroke-width:1;"/><line style="stroke:#181818;stroke-width:1;" x1="50.8032" x2="971.3696" y1="208.9082" y2="208.9082"/><text fill="#000000" font-family="sans-serif" font-size="13" lengthAdjust="spacing" textLength="223.5581" x="57.8032" y="188.8555">Create EncryptedHashedArguments</text><text fill="#000000" font-family="sans-serif" font-size="13" lengthAdjust="spacing" textLength="234.9902" x="57.8032" y="204.166">(abi.encode(args), encrypt, argsHash)</text><polygon fill="#181818" points="61.8032,249.5293,51.8032,253.5293,61.8032,257.5293,57.8032,253.5293" style="stroke:#181818;stroke-width:1;"/><line style="stroke:#181818;stroke-width:1;stroke-dasharray:2,2;" x1="55.8032" x2="976.3696" y1="253.5293" y2="253.5293"/><text fill="#000000" font-family="sans-serif" font-size="13" lengthAdjust="spacing" textLength="178.604" x="67.8032" y="233.4766">EncryptedHashedArguments</text><text fill="#000000" font-family="sans-serif" font-size="13" lengthAdjust="spacing" textLength="220.7905" x="67.8032" y="248.7871">(argsHash, publicKeyId, ciphertext)</text><polygon fill="#181818" points="965.3696,294.1504,975.3696,298.1504,965.3696,302.1504,969.3696,298.1504" style="stroke:#181818;stroke-width:1;"/><line style="stroke:#181818;stroke-width:1;" x1="50.8032" x2="971.3696" y1="298.1504" y2="298.1504"/><text fill="#000000" font-family="sans-serif" font-size="13" lengthAdjust="spacing" textLength="196.6885" x="57.8032" y="278.0977">Create EncryptedCallDescriptor</text><text fill="#000000" font-family="sans-serif" font-size="13" lengthAdjust="spacing" textLength="230.2549" x="57.8032" y="293.4082">(abi.encode(CallDescriptor), encrypt)</text><polygon fill="#181818" points="61.8032,338.7715,51.8032,342.7715,61.8032,346.7715,57.8032,342.7715" style="stroke:#181818;stroke-width:1;"/><line style="stroke:#181818;stroke-width:1;stroke-dasharray:2,2;" x1="55.8032" x2="976.3696" y1="342.7715" y2="342.7715"/><text fill="#000000" font-family="sans-serif" font-size="13" lengthAdjust="spacing" textLength="151.7344" x="67.8032" y="322.7188">EncryptedCallDescriptor</text><text fill="#000000" font-family="sans-serif" font-size="13" lengthAdjust="spacing" textLength="153.9053" x="67.8032" y="338.0293">(publicKeyId, ciphertext)</text><polygon fill="#181818" points="305.8105,368.082,315.8105,372.082,305.8105,376.082,309.8105,372.082" style="stroke:#181818;stroke-width:1;"/><line style="stroke:#181818;stroke-width:1;" x1="50.8032" x2="311.8105" y1="372.082" y2="372.082"/><text fill="#000000" font-family="sans-serif" font-size="13" lengthAdjust="spacing" textLength="243.0073" x="57.8032" y="367.3398">submitEncryptedCall(encArgs, encCall)</text><line style="stroke:#181818;stroke-width:1;" x1="327.8105" x2="369.8105" y1="416.7031" y2="416.7031"/><line style="stroke:#181818;stroke-width:1;" x1="369.8105" x2="369.8105" y1="416.7031" y2="429.7031"/><line style="stroke:#181818;stroke-width:1;" x1="328.8105" x2="369.8105" y1="429.7031" y2="429.7031"/><polygon fill="#181818" points="338.8105,425.7031,328.8105,429.7031,338.8105,433.7031,334.8105,429.7031" style="stroke:#181818;stroke-width:1;"/><text fill="#000000" font-family="sans-serif" font-size="13" lengthAdjust="spacing" textLength="145.1392" x="334.8105" y="396.6504">store encArgs, encCall,</text><text fill="#000000" font-family="sans-serif" font-size="13" lengthAdjust="spacing" textLength="156.9712" x="334.8105" y="411.9609">argsHash, business state</text><polygon fill="#181818" points="61.8032,455.0137,51.8032,459.0137,61.8032,463.0137,57.8032,459.0137" style="stroke:#181818;stroke-width:1;"/><line style="stroke:#181818;stroke-width:1;stroke-dasharray:2,2;" x1="55.8032" x2="316.8105" y1="459.0137" y2="459.0137"/><text fill="#000000" font-family="sans-serif" font-size="13" lengthAdjust="spacing" textLength="132.6533" x="67.8032" y="454.2715">reference (e.g. callId)</text><path d="M34.8032,485.0137 L502.0811,485.0137 L502.0811,492.3242 L492.0811,502.3242 L34.8032,502.3242 L34.8032,485.0137" fill="#EEEEEE" style="stroke:#000000;stroke-width:1.5;"/><rect fill="none" height="706.1426" style="stroke:#000000;stroke-width:1.5;" width="1546.8237" x="34.8032" y="485.0137"/><text fill="#000000" font-family="sans-serif" font-size="13" font-weight="bold" lengthAdjust="spacing" textLength="422.2778" x="49.8032" y="498.582">Execution phase - condition satisfied and decryption triggered</text><polygon fill="#FFFFFF" points="970.3696,514.3242,980.3696,518.3242,970.3696,522.3242,974.3696,518.3242" style="stroke:#FFFFFF;stroke-width:1;"/><line style="stroke:#FFFFFF;stroke-width:1;" x1="50.8032" x2="976.3696" y1="518.3242" y2="518.3242"/><polygon fill="#181818" points="305.8105,543.6348,315.8105,547.6348,305.8105,551.6348,309.8105,547.6348" style="stroke:#181818;stroke-width:1;"/><line style="stroke:#181818;stroke-width:1;" x1="50.8032" x2="311.8105" y1="547.6348" y2="547.6348"/><text fill="#000000" font-family="sans-serif" font-size="13" lengthAdjust="spacing" textLength="238.291" x="57.8032" y="542.8926">conditionUpdate(...) / external trigger</text><line style="stroke:#181818;stroke-width:1;" x1="327.8105" x2="369.8105" y1="592.2559" y2="592.2559"/><line style="stroke:#181818;stroke-width:1;" x1="369.8105" x2="369.8105" y1="592.2559" y2="605.2559"/><line style="stroke:#181818;stroke-width:1;" x1="328.8105" x2="369.8105" y1="605.2559" y2="605.2559"/><polygon fill="#181818" points="338.8105,601.2559,328.8105,605.2559,338.8105,609.2559,334.8105,605.2559" style="stroke:#181818;stroke-width:1;"/><text fill="#000000" font-family="sans-serif" font-size="13" lengthAdjust="spacing" textLength="180.3623" x="334.8105" y="572.2031">detect precondition satisfied</text><text fill="#000000" font-family="sans-serif" font-size="13" lengthAdjust="spacing" textLength="203.7217" x="334.8105" y="587.5137">(e.g. auction end, price reached)</text><polygon fill="#181818" points="581.728,630.5664,591.728,634.5664,581.728,638.5664,585.728,634.5664" style="stroke:#181818;stroke-width:1;"/><line style="stroke:#181818;stroke-width:1;" x1="327.8105" x2="587.728" y1="634.5664" y2="634.5664"/><text fill="#000000" font-family="sans-serif" font-size="13" lengthAdjust="spacing" textLength="246.9175" x="334.8105" y="629.8242">requestEncryptedCall(encCall, encArgs)</text><line style="stroke:#181818;stroke-width:1;" x1="603.728" x2="645.728" y1="679.1875" y2="679.1875"/><line style="stroke:#181818;stroke-width:1;" x1="645.728" x2="645.728" y1="679.1875" y2="692.1875"/><line style="stroke:#181818;stroke-width:1;" x1="604.728" x2="645.728" y1="692.1875" y2="692.1875"/><polygon fill="#181818" points="614.728,688.1875,604.728,692.1875,614.728,696.1875,610.728,692.1875" style="stroke:#181818;stroke-width:1;"/><text fill="#000000" font-family="sans-serif" font-size="13" lengthAdjust="spacing" textLength="139.4136" x="610.728" y="659.1348">store pending request</text><text fill="#000000" font-family="sans-serif" font-size="13" lengthAdjust="spacing" textLength="203.144" x="610.728" y="674.4453">(requestId, requester, argsHash)</text><polygon fill="#181818" points="338.8105,717.498,328.8105,721.498,338.8105,725.498,334.8105,721.498" style="stroke:#181818;stroke-width:1;"/><line style="stroke:#181818;stroke-width:1;stroke-dasharray:2,2;" x1="332.8105" x2="592.728" y1="721.498" y2="721.498"/><text fill="#000000" font-family="sans-serif" font-size="13" lengthAdjust="spacing" textLength="59.4712" x="344.8105" y="716.7559">requestId</text><polygon fill="#181818" points="338.8105,746.8086,328.8105,750.8086,338.8105,754.8086,334.8105,750.8086" style="stroke:#181818;stroke-width:1;"/><line style="stroke:#181818;stroke-width:1;" x1="332.8105" x2="592.728" y1="750.8086" y2="750.8086"/><text fill="#000000" font-family="sans-serif" font-size="13" lengthAdjust="spacing" textLength="204.8198" x="344.8105" y="746.0664">emit EncryptedCallRequested(...)</text><line style="stroke:#181818;stroke-width:1;" x1="982.3696" x2="1029.3696" y1="795.4297" y2="795.4297"/><line style="stroke:#181818;stroke-width:1;" x1="1029.3696" x2="1029.3696" y1="795.4297" y2="808.4297"/><line style="stroke:#181818;stroke-width:1;" x1="988.3696" x2="1029.3696" y1="808.4297" y2="808.4297"/><polygon fill="#181818" points="998.3696,804.4297,988.3696,808.4297,998.3696,812.4297,994.3696,808.4297" style="stroke:#181818;stroke-width:1;"/><text fill="#000000" font-family="sans-serif" font-size="13" lengthAdjust="spacing" textLength="200.2178" x="994.3696" y="775.377">receive EncryptedCallRequested</text><text fill="#000000" font-family="sans-serif" font-size="13" lengthAdjust="spacing" textLength="81.6689" x="994.3696" y="790.6875">for requestId</text><line style="stroke:#181818;stroke-width:1;" x1="987.3696" x2="1029.3696" y1="853.0508" y2="853.0508"/><line style="stroke:#181818;stroke-width:1;" x1="1029.3696" x2="1029.3696" y1="853.0508" y2="866.0508"/><line style="stroke:#181818;stroke-width:1;" x1="988.3696" x2="1029.3696" y1="866.0508" y2="866.0508"/><polygon fill="#181818" points="998.3696,862.0508,988.3696,866.0508,998.3696,870.0508,994.3696,866.0508" style="stroke:#181818;stroke-width:1;"/><text fill="#000000" font-family="sans-serif" font-size="13" lengthAdjust="spacing" textLength="280.7568" x="994.3696" y="832.998">decrypt encCall.ciphertext -&gt; CallDescriptor</text><text fill="#000000" font-family="sans-serif" font-size="13" lengthAdjust="spacing" textLength="191.4009" x="994.3696" y="848.3086">(target, selector, argsHash, ...)</text><line style="stroke:#181818;stroke-width:1;" x1="987.3696" x2="1029.3696" y1="895.3613" y2="895.3613"/><line style="stroke:#181818;stroke-width:1;" x1="1029.3696" x2="1029.3696" y1="895.3613" y2="908.3613"/><line style="stroke:#181818;stroke-width:1;" x1="988.3696" x2="1029.3696" y1="908.3613" y2="908.3613"/><polygon fill="#181818" points="998.3696,904.3613,988.3696,908.3613,998.3696,912.3613,994.3696,908.3613" style="stroke:#181818;stroke-width:1;"/><text fill="#000000" font-family="sans-serif" font-size="13" lengthAdjust="spacing" textLength="253.8872" x="994.3696" y="890.6191">decrypt encArgs.ciphertext -&gt; argsPlain</text><line style="stroke:#181818;stroke-width:1;" x1="987.3696" x2="1029.3696" y1="937.6719" y2="937.6719"/><line style="stroke:#181818;stroke-width:1;" x1="1029.3696" x2="1029.3696" y1="937.6719" y2="950.6719"/><line style="stroke:#181818;stroke-width:1;" x1="988.3696" x2="1029.3696" y1="950.6719" y2="950.6719"/><polygon fill="#181818" points="998.3696,946.6719,988.3696,950.6719,998.3696,954.6719,994.3696,950.6719" style="stroke:#181818;stroke-width:1;"/><text fill="#000000" font-family="sans-serif" font-size="13" lengthAdjust="spacing" textLength="270.0293" x="994.3696" y="932.9297">require keccak256(argsPlain) == argsHash</text><polygon fill="#181818" points="614.728,975.9824,604.728,979.9824,614.728,983.9824,610.728,979.9824" style="stroke:#181818;stroke-width:1;"/><line style="stroke:#181818;stroke-width:1;" x1="608.728" x2="976.3696" y1="979.9824" y2="979.9824"/><text fill="#000000" font-family="sans-serif" font-size="13" lengthAdjust="spacing" textLength="349.6416" x="620.728" y="975.2402">fulfillEncryptedCall(requestId, CallDescriptor, argsPlain)</text><polygon fill="#181818" points="1265.1265,1020.6035,1275.1265,1024.6035,1265.1265,1028.6035,1269.1265,1024.6035" style="stroke:#181818;stroke-width:1;"/><line style="stroke:#181818;stroke-width:1;" x1="603.728" x2="1271.1265" y1="1024.6035" y2="1024.6035"/><text fill="#000000" font-family="sans-serif" font-size="13" lengthAdjust="spacing" textLength="116.9683" x="610.728" y="1004.5508">call targetContract</text><text fill="#000000" font-family="sans-serif" font-size="13" lengthAdjust="spacing" textLength="222.3965" x="610.728" y="1019.8613">selector(argsHash, decoded args...)</text><line style="stroke:#181818;stroke-width:1;" x1="1287.1265" x2="1329.1265" y1="1069.2246" y2="1069.2246"/><line style="stroke:#181818;stroke-width:1;" x1="1329.1265" x2="1329.1265" y1="1069.2246" y2="1082.2246"/><line style="stroke:#181818;stroke-width:1;" x1="1288.1265" x2="1329.1265" y1="1082.2246" y2="1082.2246"/><polygon fill="#181818" points="1298.1265,1078.2246,1288.1265,1082.2246,1298.1265,1086.2246,1294.1265,1082.2246" style="stroke:#181818;stroke-width:1;"/><text fill="#000000" font-family="sans-serif" font-size="13" lengthAdjust="spacing" textLength="264.5005" x="1294.1265" y="1049.1719">recompute keccak256(abi.encode(args...))</text><text fill="#000000" font-family="sans-serif" font-size="13" lengthAdjust="spacing" textLength="132.6851" x="1294.1265" y="1064.4824">require == argsHash</text><polygon fill="#181818" points="614.728,1107.5352,604.728,1111.5352,614.728,1115.5352,610.728,1111.5352" style="stroke:#181818;stroke-width:1;"/><line style="stroke:#181818;stroke-width:1;stroke-dasharray:2,2;" x1="608.728" x2="1276.1265" y1="1111.5352" y2="1111.5352"/><text fill="#000000" font-family="sans-serif" font-size="13" lengthAdjust="spacing" textLength="123.6523" x="620.728" y="1106.793">returnData / events</text><line style="stroke:#181818;stroke-width:1;" x1="603.728" x2="645.728" y1="1140.8457" y2="1140.8457"/><line style="stroke:#181818;stroke-width:1;" x1="645.728" x2="645.728" y1="1140.8457" y2="1153.8457"/><line style="stroke:#181818;stroke-width:1;" x1="604.728" x2="645.728" y1="1153.8457" y2="1153.8457"/><polygon fill="#181818" points="614.728,1149.8457,604.728,1153.8457,614.728,1157.8457,610.728,1153.8457" style="stroke:#181818;stroke-width:1;"/><text fill="#000000" font-family="sans-serif" font-size="13" lengthAdjust="spacing" textLength="306.8013" x="610.728" y="1136.1035">emit CallFulfilled(requestId, success, returnData)</text><polygon fill="#181818" points="970.3696,1179.1563,980.3696,1183.1563,970.3696,1187.1563,974.3696,1183.1563" style="stroke:#181818;stroke-width:1;"/><line style="stroke:#181818;stroke-width:1;stroke-dasharray:2,2;" x1="603.728" x2="976.3696" y1="1183.1563" y2="1183.1563"/><text fill="#000000" font-family="sans-serif" font-size="13" lengthAdjust="spacing" textLength="112.2202" x="610.728" y="1178.4141">CallFulfilled event</text><!--SRC=[jLNlRzCm4FsUl-BO96X5MX0I25NQ9CYOg40gejqdoWVNlgRMKYUpdMdZh-VinFdLTJ0asY-Hatjtz-wzyxD2itJFm6B-2wmkCOgij1d29yNrVM5HGCAo32xGS2qBcsjusNdtGQVb7fKrS2jP-DA_bBc2XMQSe4Pp9QqBkqDU-XV5ZXaquoXYt25U0JDmScLGmoiFWleaAfYsaik2AGjB_y52ynqQgvd7I795ZzpErkfZQQH2O-1hdafE64j2PIdsGH8FSgJ63jhSVT9-KNtGXrey0aK8etoxdV0TashSZrlvk1NJATecvKaKlO39P0AU9a_D30nrW80DqQmXcYa1t6KMxKWeEafrNXOT39Wy3IG2-hs07UFNC1BbVdyFU-AKQ0IR4qZcgePDNYeXLKeFTsCVyfp6D_bnUkb_FyzX4VbZEgHdc46YaTcEdZupiqFH28VOOXivfI9pWIFAOSPnA3bs5HiNKAKYikIj0rl0wVlNxk-F5zJ_EIMSFPgaHegXA3UPv5_mVYvYeC7iK5kyirKAWMsIFpHIoIJGr- -Z_wxjwAbz7EJub-ANX6ZApLxQ7kw8QYA6Z2_E7GoAMm8DDKdgufODKX1LBpPUgvRXJV2ZiGGKmklUD6vHKnJj1PocKo_3kJXeO1cX4i4PWyqn0vwJ2ls1eMrWjjAfcpGjMZTQBTEKCecEEmOuP96d0FqFXpX6cngk2a6jZwRJwPYM68qLjM9PAE2lfYFG8gSDeF61paW_dd9MSl-262OxQ4cp86tJSgt7uD4IFwkRaZRkWMpyn8C61h99AarVNlhZ941LiYcmugO6feBg9oVd-X7rqFU95y-oBMWkMd1tZAJjlcc-rrZ2ipaKLtAejk30okj47yfRF8AvLbjQklrQZdkwGgm55VmoRRth6HhwtFex8WQ36RexigKaXgQZXy3TH0RWBl9RHhVHiCURKj9Chf5pTltcxRjHy-4OpiwQX6sKc-EspBOoo_gIw0ontqdS9Z-seXuJpigvmrrJ5HtXnbohG4jdhHC7j7dz9MSQXXhmbRDBCvLL07SssHUbxR7GluuSrdYj0bj3ObPUcvLPRAdL1RFCcVVMtJl3bbTHtnHUjuwnoufLack7IbDoJlibxY1t_U3lf6vibVHGwswH_WO0]--></g></svg>