<svg xmlns="http://www.w3.org/2000/svg" xmlns:xlink="http://www.w3.org/1999/xlink" contentStyleType="text/css" data-diagram-type="SEQUENCE" height="1250px" preserveAspectRatio="none" style="width:1713px;height:1250px;background:#FFFFFF;" version="1.1" viewBox="0 0 1713 1250" width="1713px" zoomAndPan="magnify"><title>Transparent Call Descriptor + Encrypted Arguments via Call Decryption Oracle (Init + Execution phases)</title><defs/><g><text fill="#000000" font-family="sans-serif" font-size="14" font-weight="bold" lengthAdjust="spacing" textLength="754.1064" x="483.0222" y="28.5352">Transparent Call Descriptor + Encrypted Arguments via Call Decryption Oracle (Init + Execution phases)</text><g><title>User . Caller</title><rect fill="#000000" fill-opacity="0.00000" height="1049.248" width="8" x="47.3032" y="118.9766"/><line style="stroke:#181818;stroke-width:0.5;stroke-dasharray:5,5;" x1="50.8032" x2="50.8032" y1="118.9766" y2="1168.2246"/></g><g><title>Orchestration Contract.</title><rect fill="#000000" fill-opacity="0.00000" height="1049.248" width="8" x="423.1831" y="118.9766"/><line style="stroke:#181818;stroke-width:0.5;stroke-dasharray:5,5;" x1="426.6831" x2="426.6831" y1="118.9766" y2="1168.2246"/></g><g><title/><rect fill="#FFCC80" height="86.9316" style="stroke:#181818;stroke-width:1;" width="10" x="421.6831" y="340.4609"/></g><g><title/><rect fill="#FFCC80" height="245.4844" style="stroke:#181818;stroke-width:1;" width="10" x="421.6831" y="516.0137"/></g><g><title>Call Decryption Oracle Contract.</title><rect fill="#000000" fill-opacity="0.00000" height="1049.248" width="8" x="754.4014" y="118.9766"/><line style="stroke:#181818;stroke-width:0.5;stroke-dasharray:5,5;" x1="757.9014" x2="757.9014" y1="118.9766" y2="1168.2246"/></g><g><title/><rect fill="#8080FF" height="158.5527" style="stroke:#181818;stroke-width:1;" width="10" x="752.9014" y="602.9453"/></g><g><title/><rect fill="#8080FF" height="203.1738" style="stroke:#181818;stroke-width:1;" width="10" x="752.9014" y="933.0508"/></g><g><title>Call Decryption Oracle.</title><rect fill="#000000" fill-opacity="0.00000" height="1049.248" width="8" x="1115.1211" y="118.9766"/><line style="stroke:#181818;stroke-width:0.5;stroke-dasharray:5,5;" x1="1118.6211" x2="1118.6211" y1="118.9766" y2="1168.2246"/></g><g><title/><rect fill="#808080" height="44.6211" style="stroke:#181818;stroke-width:1;" width="10" x="1113.6211" y="208.9082"/></g><g><title/><rect fill="#808080" height="113.9316" style="stroke:#181818;stroke-width:1;" width="10" x="1113.6211" y="819.1191"/></g><g><title>Target Contract</title><rect fill="#000000" fill-opacity="0.00000" height="1049.248" width="8" x="1404.1504" y="118.9766"/><line style="stroke:#181818;stroke-width:0.5;stroke-dasharray:5,5;" x1="1407.6504" x2="1407.6504" y1="118.9766" y2="1168.2246"/></g><g><title/><rect fill="#FF8080" height="86.9316" style="stroke:#181818;stroke-width:1;" width="10" x="1402.6504" y="977.6719"/></g><text fill="#000000" font-family="sans-serif" font-size="14" lengthAdjust="spacing" textLength="85.6064" x="5" y="116.0234">User / Caller</text><ellipse cx="50.8032" cy="50.9883" fill="#E2E2F0" rx="8" ry="8" style="stroke:#181818;stroke-width:0.5;"/><path d="M50.8032,58.9883 L50.8032,85.9883 M37.8032,66.9883 L63.8032,66.9883 M50.8032,85.9883 L37.8032,100.9883 M50.8032,85.9883 L63.8032,100.9883" fill="none" style="stroke:#181818;stroke-width:0.5;"/><rect fill="#E2E2F0" height="46.9766" rx="2.5" ry="2.5" style="stroke:#181818;stroke-width:0.5;" width="180.6943" x="336.3359" y="71"/><text fill="#000000" font-family="sans-serif" font-size="14" lengthAdjust="spacing" textLength="159.6055" x="346.8804" y="91.5352">Orchestration Contract:</text><text fill="#000000" font-family="sans-serif" font-size="14" lengthAdjust="spacing" textLength="166.6943" x="343.3359" y="108.0234">Business Logic / Storage</text><rect fill="#E2E2F0" height="46.9766" rx="2.5" ry="2.5" style="stroke:#181818;stroke-width:0.5;" width="232.5449" x="641.6289" y="71"/><text fill="#000000" font-family="sans-serif" font-size="14" lengthAdjust="spacing" textLength="218.5449" x="648.6289" y="91.5352">Call Decryption Oracle Contract:</text><text fill="#000000" font-family="sans-serif" font-size="14" lengthAdjust="spacing" textLength="146.7813" x="684.5107" y="108.0234">ICallDecryptionOracle</text><rect fill="#E2E2F0" height="46.9766" rx="2.5" ry="2.5" style="stroke:#181818;stroke-width:0.5;" width="170.0371" x="1033.6025" y="71"/><text fill="#000000" font-family="sans-serif" font-size="14" lengthAdjust="spacing" textLength="156.0371" x="1040.6025" y="91.5352">Call Decryption Oracle:</text><text fill="#000000" font-family="sans-serif" font-size="14" lengthAdjust="spacing" textLength="72.4268" x="1082.4077" y="108.0234">(off-chain)</text><rect fill="#E2E2F0" height="30.4883" rx="2.5" ry="2.5" style="stroke:#181818;stroke-width:0.5;" width="120.5859" x="1347.3574" y="87.4883"/><text fill="#000000" font-family="sans-serif" font-size="14" lengthAdjust="spacing" textLength="106.5859" x="1354.3574" y="108.0234">Target Contract</text><text fill="#000000" font-family="sans-serif" font-size="14" lengthAdjust="spacing" textLength="85.6064" x="5" y="1241.7598">User / Caller</text><ellipse cx="50.8032" cy="1176.7246" fill="#E2E2F0" rx="8" ry="8" style="stroke:#181818;stroke-width:0.5;"/><path d="M50.8032,1184.7246 L50.8032,1211.7246 M37.8032,1192.7246 L63.8032,1192.7246 M50.8032,1211.7246 L37.8032,1226.7246 M50.8032,1211.7246 L63.8032,1226.7246" fill="none" style="stroke:#181818;stroke-width:0.5;"/><rect fill="#E2E2F0" height="46.9766" rx="2.5" ry="2.5" style="stroke:#181818;stroke-width:0.5;" width="180.6943" x="336.3359" y="1168.2246"/><text fill="#000000" font-family="sans-serif" font-size="14" lengthAdjust="spacing" textLength="159.6055" x="346.8804" y="1188.7598">Orchestration Contract:</text><text fill="#000000" font-family="sans-serif" font-size="14" lengthAdjust="spacing" textLength="166.6943" x="343.3359" y="1205.248">Business Logic / Storage</text><rect fill="#E2E2F0" height="46.9766" rx="2.5" ry="2.5" style="stroke:#181818;stroke-width:0.5;" width="232.5449" x="641.6289" y="1168.2246"/><text fill="#000000" font-family="sans-serif" font-size="14" lengthAdjust="spacing" textLength="218.5449" x="648.6289" y="1188.7598">Call Decryption Oracle Contract:</text><text fill="#000000" font-family="sans-serif" font-size="14" lengthAdjust="spacing" textLength="146.7813" x="684.5107" y="1205.248">ICallDecryptionOracle</text><rect fill="#E2E2F0" height="46.9766" rx="2.5" ry="2.5" style="stroke:#181818;stroke-width:0.5;" width="170.0371" x="1033.6025" y="1168.2246"/><text fill="#000000" font-family="sans-serif" font-size="14" lengthAdjust="spacing" textLength="156.0371" x="1040.6025" y="1188.7598">Call Decryption Oracle:</text><text fill="#000000" font-family="sans-serif" font-size="14" lengthAdjust="spacing" textLength="72.4268" x="1082.4077" y="1205.248">(off-chain)</text><rect fill="#E2E2F0" height="30.4883" rx="2.5" ry="2.5" style="stroke:#181818;stroke-width:0.5;" width="120.5859" x="1347.3574" y="1168.2246"/><text fill="#000000" font-family="sans-serif" font-size="14" lengthAdjust="spacing" textLength="106.5859" x="1354.3574" y="1188.7598">Target Contract</text><path d="M34.8032,130.9766 L446.9009,130.9766 L446.9009,138.2871 L436.9009,148.2871 L34.8032,148.2871 L34.8032,130.9766" fill="#EEEEEE" style="stroke:#000000;stroke-width:1.5;"/><rect fill="none" height="304.416" style="stroke:#000000;stroke-width:1.5;" width="1104.8179" x="34.8032" y="130.9766"/><text fill="#000000" font-family="sans-serif" font-size="13" font-weight="bold" lengthAdjust="spacing" textLength="367.0977" x="49.8032" y="144.5449">Init phase - store encrypted arguments and descriptor</text><polygon fill="#FFFFFF" points="1106.6211,160.2871,1116.6211,164.2871,1106.6211,168.2871,1110.6211,164.2871" style="stroke:#FFFFFF;stroke-width:1;"/><line style="stroke:#FFFFFF;stroke-width:1;" x1="50.8032" x2="1112.6211" y1="164.2871" y2="164.2871"/><polygon fill="#181818" points="1101.6211,204.9082,1111.6211,208.9082,1101.6211,212.9082,1105.6211,208.9082" style="stroke:#181818;stroke-width:1;"/><line style="stroke:#181818;stroke-width:1;" x1="50.8032" x2="1107.6211" y1="208.9082" y2="208.9082"/><text fill="#000000" font-family="sans-serif" font-size="13" lengthAdjust="spacing" textLength="223.5581" x="57.8032" y="188.8555">Create EncryptedHashedArguments</text><text fill="#000000" font-family="sans-serif" font-size="13" lengthAdjust="spacing" textLength="234.9902" x="57.8032" y="204.166">(abi.encode(args), encrypt, argsHash)</text><polygon fill="#181818" points="61.8032,249.5293,51.8032,253.5293,61.8032,257.5293,57.8032,253.5293" style="stroke:#181818;stroke-width:1;"/><line style="stroke:#181818;stroke-width:1;stroke-dasharray:2,2;" x1="55.8032" x2="1112.6211" y1="253.5293" y2="253.5293"/><text fill="#000000" font-family="sans-serif" font-size="13" lengthAdjust="spacing" textLength="178.604" x="67.8032" y="233.4766">EncryptedHashedArguments</text><text fill="#000000" font-family="sans-serif" font-size="13" lengthAdjust="spacing" textLength="220.7905" x="67.8032" y="248.7871">(argsHash, publicKeyId, ciphertext)</text><line style="stroke:#181818;stroke-width:1;" x1="50.8032" x2="92.8032" y1="298.1504" y2="298.1504"/><line style="stroke:#181818;stroke-width:1;" x1="92.8032" x2="92.8032" y1="298.1504" y2="311.1504"/><line style="stroke:#181818;stroke-width:1;" x1="51.8032" x2="92.8032" y1="311.1504" y2="311.1504"/><polygon fill="#181818" points="61.8032,307.1504,51.8032,311.1504,61.8032,315.1504,57.8032,311.1504" style="stroke:#181818;stroke-width:1;"/><text fill="#000000" font-family="sans-serif" font-size="13" lengthAdjust="spacing" textLength="154.9399" x="57.8032" y="278.0977">Construct CallDescriptor</text><text fill="#000000" font-family="sans-serif" font-size="13" lengthAdjust="spacing" textLength="361.8799" x="57.8032" y="293.4082">(eligibleCaller, target, selector, argsHash, validUntilBlock)</text><polygon fill="#181818" points="409.6831,336.4609,419.6831,340.4609,409.6831,344.4609,413.6831,340.4609" style="stroke:#181818;stroke-width:1;"/><line style="stroke:#181818;stroke-width:1;" x1="50.8032" x2="415.6831" y1="340.4609" y2="340.4609"/><text fill="#000000" font-family="sans-serif" font-size="13" lengthAdjust="spacing" textLength="341.2246" x="57.8032" y="335.7188">submitCallWithEncryptedArgs(callDescriptor, encArgs)</text><line style="stroke:#181818;stroke-width:1;" x1="431.6831" x2="473.6831" y1="385.082" y2="385.082"/><line style="stroke:#181818;stroke-width:1;" x1="473.6831" x2="473.6831" y1="385.082" y2="398.082"/><line style="stroke:#181818;stroke-width:1;" x1="432.6831" x2="473.6831" y1="398.082" y2="398.082"/><polygon fill="#181818" points="442.6831,394.082,432.6831,398.082,442.6831,402.082,438.6831,398.082" style="stroke:#181818;stroke-width:1;"/><text fill="#000000" font-family="sans-serif" font-size="13" lengthAdjust="spacing" textLength="186.5259" x="438.6831" y="365.0293">store callDescriptor, encArgs,</text><text fill="#000000" font-family="sans-serif" font-size="13" lengthAdjust="spacing" textLength="156.9712" x="438.6831" y="380.3398">argsHash, business state</text><polygon fill="#181818" points="61.8032,423.3926,51.8032,427.3926,61.8032,431.3926,57.8032,427.3926" style="stroke:#181818;stroke-width:1;"/><line style="stroke:#181818;stroke-width:1;stroke-dasharray:2,2;" x1="55.8032" x2="420.6831" y1="427.3926" y2="427.3926"/><text fill="#000000" font-family="sans-serif" font-size="13" lengthAdjust="spacing" textLength="132.6533" x="67.8032" y="422.6504">reference (e.g. callId)</text><path d="M34.8032,453.3926 L502.0811,453.3926 L502.0811,460.7031 L492.0811,470.7031 L34.8032,470.7031 L34.8032,453.3926" fill="#EEEEEE" style="stroke:#000000;stroke-width:1.5;"/><rect fill="none" height="690.832" style="stroke:#000000;stroke-width:1.5;" width="1672.3477" x="34.8032" y="453.3926"/><text fill="#000000" font-family="sans-serif" font-size="13" font-weight="bold" lengthAdjust="spacing" textLength="422.2778" x="49.8032" y="466.9609">Execution phase - condition satisfied and decryption triggered</text><polygon fill="#FFFFFF" points="1106.6211,482.7031,1116.6211,486.7031,1106.6211,490.7031,1110.6211,486.7031" style="stroke:#FFFFFF;stroke-width:1;"/><line style="stroke:#FFFFFF;stroke-width:1;" x1="50.8032" x2="1112.6211" y1="486.7031" y2="486.7031"/><polygon fill="#181818" points="409.6831,512.0137,419.6831,516.0137,409.6831,520.0137,413.6831,516.0137" style="stroke:#181818;stroke-width:1;"/><line style="stroke:#181818;stroke-width:1;" x1="50.8032" x2="415.6831" y1="516.0137" y2="516.0137"/><text fill="#000000" font-family="sans-serif" font-size="13" lengthAdjust="spacing" textLength="238.291" x="57.8032" y="511.2715">conditionUpdate(...) / external trigger</text><line style="stroke:#181818;stroke-width:1;" x1="431.6831" x2="473.6831" y1="560.6348" y2="560.6348"/><line style="stroke:#181818;stroke-width:1;" x1="473.6831" x2="473.6831" y1="560.6348" y2="573.6348"/><line style="stroke:#181818;stroke-width:1;" x1="432.6831" x2="473.6831" y1="573.6348" y2="573.6348"/><polygon fill="#181818" points="442.6831,569.6348,432.6831,573.6348,442.6831,577.6348,438.6831,573.6348" style="stroke:#181818;stroke-width:1;"/><text fill="#000000" font-family="sans-serif" font-size="13" lengthAdjust="spacing" textLength="180.3623" x="438.6831" y="540.582">detect precondition satisfied</text><text fill="#000000" font-family="sans-serif" font-size="13" lengthAdjust="spacing" textLength="181.27" x="438.6831" y="555.8926">(e.g. all signatures collected)</text><polygon fill="#181818" points="740.9014,598.9453,750.9014,602.9453,740.9014,606.9453,744.9014,602.9453" style="stroke:#181818;stroke-width:1;"/><line style="stroke:#181818;stroke-width:1;" x1="431.6831" x2="746.9014" y1="602.9453" y2="602.9453"/><text fill="#000000" font-family="sans-serif" font-size="13" lengthAdjust="spacing" textLength="302.2183" x="438.6831" y="598.2031">requestTransparentCall(callDescriptor, encArgs)</text><line style="stroke:#181818;stroke-width:1;" x1="762.9014" x2="804.9014" y1="632.2559" y2="632.2559"/><line style="stroke:#181818;stroke-width:1;" x1="804.9014" x2="804.9014" y1="632.2559" y2="645.2559"/><line style="stroke:#181818;stroke-width:1;" x1="763.9014" x2="804.9014" y1="645.2559" y2="645.2559"/><polygon fill="#181818" points="773.9014,641.2559,763.9014,645.2559,773.9014,649.2559,769.9014,645.2559" style="stroke:#181818;stroke-width:1;"/><text fill="#000000" font-family="sans-serif" font-size="13" lengthAdjust="spacing" textLength="341.7197" x="769.9014" y="627.5137">require callDescriptor.argsHash == encArgs.argsHash</text><line style="stroke:#181818;stroke-width:1;" x1="762.9014" x2="804.9014" y1="689.877" y2="689.877"/><line style="stroke:#181818;stroke-width:1;" x1="804.9014" x2="804.9014" y1="689.877" y2="702.877"/><line style="stroke:#181818;stroke-width:1;" x1="763.9014" x2="804.9014" y1="702.877" y2="702.877"/><polygon fill="#181818" points="773.9014,698.877,763.9014,702.877,773.9014,706.877,769.9014,702.877" style="stroke:#181818;stroke-width:1;"/><text fill="#000000" font-family="sans-serif" font-size="13" lengthAdjust="spacing" textLength="139.4136" x="769.9014" y="669.8242">store pending request</text><text fill="#000000" font-family="sans-serif" font-size="13" lengthAdjust="spacing" textLength="231.5308" x="769.9014" y="685.1348">(requestId, requester, callDescriptor)</text><polygon fill="#181818" points="442.6831,728.1875,432.6831,732.1875,442.6831,736.1875,438.6831,732.1875" style="stroke:#181818;stroke-width:1;"/><line style="stroke:#181818;stroke-width:1;stroke-dasharray:2,2;" x1="436.6831" x2="751.9014" y1="732.1875" y2="732.1875"/><text fill="#000000" font-family="sans-serif" font-size="13" lengthAdjust="spacing" textLength="59.4712" x="448.6831" y="727.4453">requestId</text><polygon fill="#181818" points="442.6831,757.498,432.6831,761.498,442.6831,765.498,438.6831,761.498" style="stroke:#181818;stroke-width:1;"/><line style="stroke:#181818;stroke-width:1;" x1="436.6831" x2="751.9014" y1="761.498" y2="761.498"/><text fill="#000000" font-family="sans-serif" font-size="13" lengthAdjust="spacing" textLength="218.7339" x="448.6831" y="756.7559">emit TransparentCallRequested(...)</text><line style="stroke:#181818;stroke-width:1;" x1="1118.6211" x2="1165.6211" y1="806.1191" y2="806.1191"/><line style="stroke:#181818;stroke-width:1;" x1="1165.6211" x2="1165.6211" y1="806.1191" y2="819.1191"/><line style="stroke:#181818;stroke-width:1;" x1="1124.6211" x2="1165.6211" y1="819.1191" y2="819.1191"/><polygon fill="#181818" points="1134.6211,815.1191,1124.6211,819.1191,1134.6211,823.1191,1130.6211,819.1191" style="stroke:#181818;stroke-width:1;"/><text fill="#000000" font-family="sans-serif" font-size="13" lengthAdjust="spacing" textLength="214.1318" x="1130.6211" y="786.0664">receive TransparentCallRequested</text><text fill="#000000" font-family="sans-serif" font-size="13" lengthAdjust="spacing" textLength="81.6689" x="1130.6211" y="801.377">for requestId</text><line style="stroke:#181818;stroke-width:1;" x1="1123.6211" x2="1165.6211" y1="848.4297" y2="848.4297"/><line style="stroke:#181818;stroke-width:1;" x1="1165.6211" x2="1165.6211" y1="848.4297" y2="861.4297"/><line style="stroke:#181818;stroke-width:1;" x1="1124.6211" x2="1165.6211" y1="861.4297" y2="861.4297"/><polygon fill="#181818" points="1134.6211,857.4297,1124.6211,861.4297,1134.6211,865.4297,1130.6211,861.4297" style="stroke:#181818;stroke-width:1;"/><text fill="#000000" font-family="sans-serif" font-size="13" lengthAdjust="spacing" textLength="253.8872" x="1130.6211" y="843.6875">decrypt encArgs.ciphertext -&gt; argsPlain</text><line style="stroke:#181818;stroke-width:1;" x1="1123.6211" x2="1165.6211" y1="890.7402" y2="890.7402"/><line style="stroke:#181818;stroke-width:1;" x1="1165.6211" x2="1165.6211" y1="890.7402" y2="903.7402"/><line style="stroke:#181818;stroke-width:1;" x1="1124.6211" x2="1165.6211" y1="903.7402" y2="903.7402"/><polygon fill="#181818" points="1134.6211,899.7402,1124.6211,903.7402,1134.6211,907.7402,1130.6211,903.7402" style="stroke:#181818;stroke-width:1;"/><text fill="#000000" font-family="sans-serif" font-size="13" lengthAdjust="spacing" textLength="270.0293" x="1130.6211" y="885.998">require keccak256(argsPlain) == argsHash</text><polygon fill="#181818" points="773.9014,929.0508,763.9014,933.0508,773.9014,937.0508,769.9014,933.0508" style="stroke:#181818;stroke-width:1;"/><line style="stroke:#181818;stroke-width:1;" x1="767.9014" x2="1112.6211" y1="933.0508" y2="933.0508"/><text fill="#000000" font-family="sans-serif" font-size="13" lengthAdjust="spacing" textLength="265.9478" x="779.9014" y="928.3086">fulfillTransparentCall(requestId, argsPlain)</text><polygon fill="#181818" points="1390.6504,973.6719,1400.6504,977.6719,1390.6504,981.6719,1394.6504,977.6719" style="stroke:#181818;stroke-width:1;"/><line style="stroke:#181818;stroke-width:1;" x1="762.9014" x2="1396.6504" y1="977.6719" y2="977.6719"/><text fill="#000000" font-family="sans-serif" font-size="13" lengthAdjust="spacing" textLength="116.9683" x="769.9014" y="957.6191">call targetContract</text><text fill="#000000" font-family="sans-serif" font-size="13" lengthAdjust="spacing" textLength="222.3965" x="769.9014" y="972.9297">selector(argsHash, decoded args...)</text><line style="stroke:#181818;stroke-width:1;" x1="1412.6504" x2="1454.6504" y1="1022.293" y2="1022.293"/><line style="stroke:#181818;stroke-width:1;" x1="1454.6504" x2="1454.6504" y1="1022.293" y2="1035.293"/><line style="stroke:#181818;stroke-width:1;" x1="1413.6504" x2="1454.6504" y1="1035.293" y2="1035.293"/><polygon fill="#181818" points="1423.6504,1031.293,1413.6504,1035.293,1423.6504,1039.293,1419.6504,1035.293" style="stroke:#181818;stroke-width:1;"/><text fill="#000000" font-family="sans-serif" font-size="13" lengthAdjust="spacing" textLength="264.5005" x="1419.6504" y="1002.2402">recompute keccak256(abi.encode(args...))</text><text fill="#000000" font-family="sans-serif" font-size="13" lengthAdjust="spacing" textLength="132.6851" x="1419.6504" y="1017.5508">require == argsHash</text><polygon fill="#181818" points="773.9014,1060.6035,763.9014,1064.6035,773.9014,1068.6035,769.9014,1064.6035" style="stroke:#181818;stroke-width:1;"/><line style="stroke:#181818;stroke-width:1;stroke-dasharray:2,2;" x1="767.9014" x2="1401.6504" y1="1064.6035" y2="1064.6035"/><text fill="#000000" font-family="sans-serif" font-size="13" lengthAdjust="spacing" textLength="123.6523" x="779.9014" y="1059.8613">returnData / events</text><line style="stroke:#181818;stroke-width:1;" x1="762.9014" x2="804.9014" y1="1093.9141" y2="1093.9141"/><line style="stroke:#181818;stroke-width:1;" x1="804.9014" x2="804.9014" y1="1093.9141" y2="1106.9141"/><line style="stroke:#181818;stroke-width:1;" x1="763.9014" x2="804.9014" y1="1106.9141" y2="1106.9141"/><polygon fill="#181818" points="773.9014,1102.9141,763.9014,1106.9141,773.9014,1110.9141,769.9014,1106.9141" style="stroke:#181818;stroke-width:1;"/><text fill="#000000" font-family="sans-serif" font-size="13" lengthAdjust="spacing" textLength="306.8013" x="769.9014" y="1089.1719">emit CallFulfilled(requestId, success, returnData)</text><polygon fill="#181818" points="1106.6211,1132.2246,1116.6211,1136.2246,1106.6211,1140.2246,1110.6211,1136.2246" style="stroke:#181818;stroke-width:1;"/><line style="stroke:#181818;stroke-width:1;stroke-dasharray:2,2;" x1="762.9014" x2="1112.6211" y1="1136.2246" y2="1136.2246"/><text fill="#000000" font-family="sans-serif" font-size="13" lengthAdjust="spacing" textLength="112.2202" x="769.9014" y="1131.4824">CallFulfilled event</text><!--SRC=[jLNVZzis37xtNy5TWLsCEjbGe4KHe0LQTuSTDY15aw0FpHuKcN64KsHFaeEx_VKbvT- -vdPxMF8YqE97ykD7wgVIYlmam6Fn3tXROHHvvJN2nWhZIc7HU4Y5rl09dRIgz8M5b_2RaVQXz9Z11vjN9xhauAn4UpDyL8M1bHMIm6QtHdbskqTPXG_bKJXqSHG9oOXR40wkjWuj_190q5v55DqhgKf1AQp3XPMLHtJUYe2H5eQEqYztvcFbb47duCyYLv8mreGgSXo3f07aGeu3j5k-qj-eBuoXLaz04SAiE1pcyYYKYST-c-2t4JP7tuMyYg9hcC_d46WAr2p1KGK8s14jEgA5oK1ovAnl2Nb7kIsgSe01yty1wVqZeDyr78MyWrbMdKuFS28wYK7m1VbhJXZsHMKoPN8wtCV1vMVgtFpRYvlm- -izhA9W9YETOGcfHU6nbyllmXqnwpH3H8czMb1-HOOpYk7YfCqsuMGTEzIXY2TrPh0Ll7ZxA_-3UKMblwU0ooU3D4W9bDLUA_a7Fjnc2L1FZcWztliwH8Pza44X34wj8jrLiXw6VXO87BNArLvZBTi4V6Xk0WurihZxGX8u2wsohV5AVzI5l8i7KTOKnLNxa_8Cz5NvOrSGbU9cSXGtqCJs2Jbhe6QaQKFEkWCEEhW0aUnCd-6-dIJd2Qz5QLYmU43Q298c6XVv8W3UPe_8MqTeibRJavbVWYn8HC7WQ8xTGR4kWngxEV9MvJb5oWQwdk2GkFyBqFyXS2Qsos5RPbJwRB5OnBH-I59eZT1j0izgKeQU10EbnHzKna9ZoddkdSgDy9L5H_4rgmoR9WIiD7JgxuesvM2BiwgUAQAqdh2Rcs1EXvZgaOmMhNRWtRiMhxED0MeLbbXptAH8XJKd7idco7Cq3XEtK0rPdKyVWir8ymEJghyqc5depbIiwMFrjekbtc7K3bHdl8YwCmTQmEDyBY-h6hEHQCTNludu1hFtMTFZCKsavlyEfHHthrw_cNKNOoP_HFgg9VrGwOFIUgg40USzoeKj-9GmDZm4BCfwxRLFsiwqws-mVAbgslFX5N9TAphm3Kz5HzMc1UTfE9ML7zKzVZGOAzwPbfyf5PiWcbh1D3Nca_22P_JChyEqv4qqrcmG53DsK_D8AXfGvoefQOqa0-IXKCCJEFIjWpwM8E_Bxm00]--></g></svg>